<svg width="19" height="18" viewBox="0 0 19 18"
                                    fill="none" xmlns="http://www.w3.org/2000/svg">
                                    <path
                                        d="M9.5 0C7.71997 0 5.97991 0.527841 4.49987 1.51677C3.01983 2.50571 1.86628 3.91131 1.18509 5.55585C0.5039 7.20038 0.32567 9.00998 0.672937 10.7558C1.0202 12.5016 1.87737 14.1053 3.13604 15.364C4.39472 16.6226 5.99836 17.4798 7.74419 17.8271C9.49002 18.1743 11.2996 17.9961 12.9442 17.3149C14.5887 16.6337 15.9943 15.4802 16.9832 14.0001C17.9722 12.5201 18.5 10.78 18.5 9C18.4974 6.61384 17.5484 4.32616 15.8611 2.63889C14.1738 0.951621 11.8862 0.00258081 9.5 0V0ZM9.5 16.5C8.01664 16.5 6.5666 16.0601 5.33323 15.236C4.09986 14.4119 3.13856 13.2406 2.57091 11.8701C2.00325 10.4997 1.85473 8.99168 2.14411 7.53682C2.4335 6.08197 3.14781 4.74559 4.1967 3.6967C5.2456 2.64781 6.58197 1.9335 8.03683 1.64411C9.49168 1.35472 10.9997 1.50325 12.3701 2.0709C13.7406 2.63856 14.9119 3.59985 15.736 4.83322C16.5601 6.06659 17 7.51664 17 9C16.9978 10.9885 16.2069 12.8948 14.8009 14.3009C13.3948 15.7069 11.4885 16.4978 9.5 16.5ZM13.25 9C13.25 9.19891 13.171 9.38968 13.0303 9.53033C12.8897 9.67098 12.6989 9.75 12.5 9.75H10.25V12C10.25 12.1989 10.171 12.3897 10.0303 12.5303C9.88968 12.671 9.69892 12.75 9.5 12.75C9.30109 12.75 9.11033 12.671 8.96967 12.5303C8.82902 12.3897 8.75 12.1989 8.75 12V9.75H6.5C6.30109 9.75 6.11033 9.67098 5.96967 9.53033C5.82902 9.38968 5.75 9.19891 5.75 9C5.75 8.80109 5.82902 8.61032 5.96967 8.46967C6.11033 8.32902 6.30109 8.25 6.5 8.25H8.75V6C8.75 5.80109 8.82902 5.61032 8.96967 5.46967C9.11033 5.32902 9.30109 5.25 9.5 5.25C9.69892 5.25 9.88968 5.32902 10.0303 5.46967C10.171 5.61032 10.25 5.80109 10.25 6V8.25H12.5C12.6989 8.25 12.8897 8.32902 13.0303 8.46967C13.171 8.61032 13.25 8.80109 13.25 9Z"
                                        fill="#D9D9D9" />
                                </svg>