<svg width="16" height="17" viewBox="0 0 16 17" fill="none" xmlns="http://www.w3.org/2000/svg">
<path d="M12.0001 8.49044C11.9968 8.1397 11.8555 7.80437 11.6067 7.55711L8.74672 4.69044C8.62181 4.56628 8.45284 4.49658 8.27672 4.49658C8.10059 4.49658 7.93163 4.56628 7.80672 4.69044C7.74423 4.75242 7.69464 4.82615 7.66079 4.90739C7.62694 4.98863 7.60952 5.07577 7.60952 5.16378C7.60952 5.25178 7.62694 5.33892 7.66079 5.42016C7.69464 5.5014 7.74423 5.57513 7.80672 5.63711L10.0001 7.82377H3.33338C3.15657 7.82377 2.987 7.89401 2.86198 8.01904C2.73696 8.14406 2.66672 8.31363 2.66672 8.49044C2.66672 8.66725 2.73696 8.83682 2.86198 8.96184C2.987 9.08687 3.15657 9.15711 3.33338 9.15711H10.0001L7.80672 11.3504C7.68118 11.4751 7.61031 11.6445 7.60968 11.8214C7.60906 11.9983 7.67873 12.1682 7.80338 12.2938C7.92804 12.4193 8.09745 12.4902 8.27436 12.4908C8.45127 12.4914 8.62118 12.4218 8.74672 12.2971L11.6067 9.43044C11.8571 9.18154 11.9986 8.84349 12.0001 8.49044V8.49044Z" fill="white"/>
</svg>
