<svg width="18" height="10" viewBox="0 0 18 10" fill="none" xmlns="http://www.w3.org/2000/svg">
<path d="M0.660217 6.56749L3.56272 9.49999C3.63244 9.57028 3.71539 9.62608 3.80678 9.66415C3.89818 9.70223 3.99621 9.72184 4.09522 9.72184C4.19423 9.72184 4.29226 9.70223 4.38365 9.66415C4.47504 9.62608 4.558 9.57028 4.62772 9.49999C4.69801 9.43026 4.75381 9.34731 4.79189 9.25592C4.82996 9.16452 4.84957 9.0665 4.84957 8.96749C4.84957 8.86848 4.82996 8.77045 4.79189 8.67905C4.75381 8.58766 4.69801 8.50471 4.62772 8.43499L1.95772 5.74999H17.2502C17.4491 5.74999 17.6399 5.67097 17.7805 5.53032C17.9212 5.38966 18.0002 5.1989 18.0002 4.99999C18.0002 4.80107 17.9212 4.61031 17.7805 4.46966C17.6399 4.329 17.4491 4.24999 17.2502 4.24999H1.91272L4.62772 1.53499C4.76068 1.3955 4.83486 1.21019 4.83486 1.01749C4.83486 0.82478 4.76068 0.639468 4.62772 0.499986C4.558 0.42969 4.47504 0.373894 4.38365 0.335817C4.29226 0.297741 4.19423 0.278137 4.09522 0.278137C3.99621 0.278137 3.89818 0.297741 3.80678 0.335817C3.71539 0.373894 3.63244 0.42969 3.56272 0.499986L0.660217 3.38749C0.238866 3.80936 0.00219727 4.38123 0.00219727 4.97749C0.00219727 5.57374 0.238866 6.14561 0.660217 6.56749V6.56749Z" fill="#3C6E71"/>
</svg>
