<svg width="18" height="18" viewBox="0 0 18 18" fill="none" xmlns="http://www.w3.org/2000/svg">
<path d="M13.875 1.5H13.5V1.125C13.5 0.826631 13.3815 0.540483 13.1705 0.329505C12.9595 0.118526 12.6734 0 12.375 0V0C12.0766 0 11.7905 0.118526 11.5795 0.329505C11.3685 0.540483 11.25 0.826631 11.25 1.125V1.5H6.75V1.125C6.75 0.826631 6.63147 0.540483 6.4205 0.329505C6.20952 0.118526 5.92337 0 5.625 0V0C5.32663 0 5.04048 0.118526 4.8295 0.329505C4.61853 0.540483 4.5 0.826631 4.5 1.125V1.5H4.125C3.03098 1.5 1.98177 1.9346 1.20818 2.70818C0.434597 3.48177 0 4.53098 0 5.625L0 13.875C0 14.969 0.434597 16.0182 1.20818 16.7918C1.98177 17.5654 3.03098 18 4.125 18H13.875C14.969 18 16.0182 17.5654 16.7918 16.7918C17.5654 16.0182 18 14.969 18 13.875V5.625C18 4.53098 17.5654 3.48177 16.7918 2.70818C16.0182 1.9346 14.969 1.5 13.875 1.5V1.5ZM13.875 15.75H4.125C3.62772 15.75 3.15081 15.5525 2.79917 15.2008C2.44754 14.8492 2.25 14.3723 2.25 13.875V7.5H15.75V13.875C15.75 14.3723 15.5525 14.8492 15.2008 15.2008C14.8492 15.5525 14.3723 15.75 13.875 15.75Z" fill="white"/>
</svg>
