<svg width="18" height="18" viewBox="0 0 18 18" fill="none" xmlns="http://www.w3.org/2000/svg">
<path d="M16.5 7C14.6787 4.18992 12.3478 3.03142 8.99919 3C5.65065 3.03142 2.82131 4.18992 0.999989 7C0.0401735 8.40859 0.0401605 9.59138 0.999976 11C2.82027 13.8118 5.64976 14.9676 8.99919 15C12.3477 14.9686 14.6786 14.1428 16.5 11.3328C17.4618 9.92312 17.4618 8.40961 16.5 7ZM15.4149 10.0556C14.0244 12.2612 11.6065 12.9807 8.99919 13C6.39196 12.9807 3.97401 12.2612 2.58345 10.0556C2.14994 9.41875 2.14994 8.58157 2.58345 7.94472C3.97398 5.73916 6.39274 5.01933 9 5C11.6072 5.0193 14.0244 5.73916 15.4149 7.94472C15.8484 8.58157 15.8484 9.41875 15.4149 10.0556Z" fill="#D9D9D9"/>
<path d="M8.99913 12.0156C10.6646 12.0156 12.0147 10.6655 12.0147 9.00004C12.0147 7.33456 10.6646 5.98443 8.99913 5.98443C7.33365 5.98443 5.98352 7.33456 5.98352 9.00004C5.98352 10.6655 7.33365 12.0156 8.99913 12.0156Z" fill="#D9D9D9"/>
<path d="M0.999969 3L17 15" stroke="#D9D9D9" stroke-width="2" stroke-linecap="round"/>
</svg>
