<svg width="33" height="36" viewBox="0 0 33 36" fill="none" xmlns="http://www.w3.org/2000/svg">
<path fill-rule="evenodd" clip-rule="evenodd" d="M21.5 0.0839844H14.74C11.6767 0.0839844 9.25 0.0839844 7.35167 0.338984C5.39833 0.602318 3.81667 1.15565 2.56833 2.40232C1.32167 3.65065 0.768334 5.23232 0.505 7.18565C0.25 9.08565 0.25 11.5107 0.25 14.574V24.6673C0.25004 26.1563 0.781559 27.5965 1.7489 28.7285C2.71623 29.8605 4.05586 30.6101 5.52667 30.8423C5.755 32.1157 6.19667 33.2023 7.08 34.0873C8.08333 35.0907 9.34667 35.5207 10.8467 35.724C12.2917 35.9173 14.13 35.9173 16.4083 35.9173H21.5917C23.87 35.9173 25.7083 35.9173 27.1533 35.724C28.6533 35.5207 29.9167 35.0907 30.92 34.0873C31.9233 33.084 32.3533 31.8207 32.5567 30.3207C32.75 28.8757 32.75 27.0373 32.75 24.759V16.2423C32.75 13.964 32.75 12.1257 32.5567 10.6807C32.3533 9.18065 31.9233 7.91732 30.92 6.91398C30.035 6.03065 28.9483 5.58898 27.675 5.36065C27.4428 3.88984 26.6932 2.55022 25.5612 1.58288C24.4292 0.615544 22.989 0.0840246 21.5 0.0839844ZM25.05 5.11898C24.7966 4.37898 24.3181 3.73675 23.6815 3.28219C23.045 2.82764 22.2822 2.58351 21.5 2.58398H14.8333C11.655 2.58398 9.39833 2.58732 7.68333 2.81732C6.00833 3.04232 5.04167 3.46565 4.33667 4.17065C3.63167 4.87565 3.20833 5.84232 2.98333 7.51898C2.75333 9.23232 2.75 11.489 2.75 14.6673V24.6673C2.74952 25.4495 2.99365 26.2123 3.44821 26.8488C3.90277 27.4854 4.545 27.9639 5.285 28.2173C5.25 27.2006 5.25 26.0507 5.25 24.759V16.2423C5.25 13.964 5.25 12.1257 5.445 10.6807C5.645 9.18065 6.07833 7.91732 7.08 6.91398C8.08333 5.91065 9.34667 5.48065 10.8467 5.27898C12.2917 5.08398 14.13 5.08398 16.4083 5.08398H21.5917C22.8833 5.08398 24.0333 5.08398 25.05 5.11898ZM8.84667 8.68398C9.30833 8.22232 9.955 7.92232 11.18 7.75732C12.4367 7.58898 14.1067 7.58565 16.4983 7.58565H21.4983C23.89 7.58565 25.5583 7.58898 26.8183 7.75732C28.0417 7.92232 28.6883 8.22398 29.15 8.68398C29.6117 9.14565 29.9117 9.79232 30.0767 11.0173C30.245 12.274 30.2483 13.944 30.2483 16.3357V24.669C30.2483 27.0606 30.245 28.729 30.0767 29.989C29.9117 31.2123 29.61 31.859 29.15 32.3206C28.6883 32.7823 28.0417 33.0823 26.8167 33.2473C25.5583 33.4157 23.89 33.419 21.4983 33.419H16.4983C14.1067 33.419 12.4367 33.4157 11.1783 33.2473C9.955 33.0823 9.30833 32.7806 8.84667 32.3206C8.385 31.859 8.085 31.2123 7.92 29.9873C7.75167 28.729 7.74833 27.0606 7.74833 24.669V16.3357C7.74833 13.944 7.75167 12.274 7.92 11.0157C8.085 9.79232 8.38667 9.14565 8.84667 8.68398Z" fill="#3C6E71"/>
</svg>
