<svg width="42" height="36" viewBox="0 0 42 36" fill="none" xmlns="http://www.w3.org/2000/svg">
<path opacity="0.2" d="M39.6875 21.5928V33.0928C39.6875 33.474 39.536 33.8397 39.2665 34.1092C38.9969 34.3788 38.6312 34.5303 38.25 34.5303H3.75C3.36875 34.5303 3.00312 34.3788 2.73353 34.1092C2.46395 33.8397 2.3125 33.474 2.3125 33.0928V21.5928C2.3125 21.2115 2.46395 20.8459 2.73353 20.5763C3.00312 20.3067 3.36875 20.1553 3.75 20.1553H38.25C38.6312 20.1553 38.9969 20.3067 39.2665 20.5763C39.536 20.8459 39.6875 21.2115 39.6875 21.5928Z" fill="#3C6E71"/>
<path d="M41.125 21.5928V33.0928C41.125 33.8553 40.8221 34.5865 40.2829 35.1257C39.7438 35.6649 39.0125 35.9678 38.25 35.9678H3.75C2.9875 35.9678 2.25623 35.6649 1.71707 35.1257C1.1779 34.5865 0.875 33.8553 0.875 33.0928V21.5928C0.875 20.8303 1.1779 20.099 1.71707 19.5598C2.25623 19.0207 2.9875 18.7178 3.75 18.7178H10.9375C11.3187 18.7178 11.6844 18.8692 11.954 19.1388C12.2235 19.4084 12.375 19.774 12.375 20.1553C12.375 20.5365 12.2235 20.9022 11.954 21.1717C11.6844 21.4413 11.3187 21.5928 10.9375 21.5928H3.75V33.0928H38.25V21.5928H31.0625C30.6813 21.5928 30.3156 21.4413 30.046 21.1717C29.7764 20.9022 29.625 20.5365 29.625 20.1553C29.625 19.774 29.7764 19.4084 30.046 19.1388C30.3156 18.8692 30.6813 18.7178 31.0625 18.7178H38.25C39.0125 18.7178 39.7438 19.0207 40.2829 19.5598C40.8221 20.099 41.125 20.8303 41.125 21.5928ZM19.983 21.1723C20.1165 21.306 20.275 21.412 20.4495 21.4843C20.624 21.5567 20.8111 21.5939 21 21.5939C21.1889 21.5939 21.376 21.5567 21.5505 21.4843C21.725 21.412 21.8835 21.306 22.017 21.1723L30.642 12.5473C30.9118 12.2776 31.0633 11.9117 31.0633 11.5303C31.0633 11.1488 30.9118 10.783 30.642 10.5132C30.3723 10.2435 30.0065 10.092 29.625 10.092C29.2435 10.092 28.8777 10.2435 28.608 10.5132L22.4375 16.6855V1.46777C22.4375 1.08652 22.2861 0.720891 22.0165 0.451307C21.7469 0.181724 21.3812 0.0302734 21 0.0302734C20.6188 0.0302734 20.2531 0.181724 19.9835 0.451307C19.714 0.720891 19.5625 1.08652 19.5625 1.46777V16.6855L13.392 10.5132C13.1223 10.2435 12.7565 10.092 12.375 10.092C11.9935 10.092 11.6277 10.2435 11.358 10.5132C11.0882 10.783 10.9367 11.1488 10.9367 11.5303C10.9367 11.9117 11.0882 12.2776 11.358 12.5473L19.983 21.1723ZM33.9375 27.3428C33.9375 26.9163 33.811 26.4994 33.5741 26.1448C33.3372 25.7902 33.0004 25.5139 32.6064 25.3507C32.2124 25.1875 31.7789 25.1448 31.3606 25.228C30.9423 25.3112 30.5581 25.5165 30.2566 25.8181C29.955 26.1196 29.7496 26.5038 29.6664 26.9221C29.5832 27.3404 29.6259 27.7739 29.7891 28.1679C29.9523 28.5619 30.2287 28.8987 30.5833 29.1356C30.9379 29.3726 31.3548 29.499 31.7812 29.499C32.3531 29.499 32.9016 29.2718 33.3059 28.8675C33.7103 28.4631 33.9375 27.9146 33.9375 27.3428Z" fill="#3C6E71"/>
</svg>
