<svg width="18" height="15" viewBox="0 0 18 15" fill="none" xmlns="http://www.w3.org/2000/svg">
<path d="M17.2786 5.16385C15.4573 2.35378 12.3478 0.644698 8.99921 0.613281C5.65067 0.644698 2.54116 2.35378 0.719846 5.16385C-0.239969 6.57244 -0.239969 8.42493 0.719846 9.83355C2.54014 12.6454 5.64982 14.3562 8.99924 14.3886C12.3478 14.3572 15.4573 12.6482 17.2786 9.83808C18.2405 8.42843 18.2405 6.57347 17.2786 5.16385ZM15.415 8.55642C14.0244 10.762 11.6065 12.1076 8.99921 12.1269C6.39198 12.1076 3.97403 10.762 2.58346 8.55642C2.14996 7.91954 2.14996 7.08235 2.58346 6.4455C3.97399 4.23994 6.39194 2.89433 8.99921 2.875C11.6064 2.89429 14.0244 4.23994 15.415 6.4455C15.8485 7.08235 15.8485 7.91954 15.415 8.55642Z" fill="#D9D9D9"/>
<path d="M8.99914 10.5156C10.6646 10.5156 12.0148 9.16546 12.0148 7.49998C12.0148 5.83451 10.6646 4.48438 8.99914 4.48438C7.33367 4.48438 5.98354 5.83451 5.98354 7.49998C5.98354 9.16546 7.33367 10.5156 8.99914 10.5156Z" fill="#D9D9D9"/>
</svg>
