<svg width="27" height="26" viewBox="0 0 27 26" fill="none" xmlns="http://www.w3.org/2000/svg">
<path d="M26.5 13C26.4959 16.1772 25.3302 19.2433 23.2224 21.6208C21.1145 23.9982 18.2102 25.5228 15.0563 25.9075C14.986 25.9154 14.9149 25.9084 14.8476 25.8869C14.7803 25.8653 14.7183 25.8297 14.6657 25.7825C14.6132 25.7353 14.5712 25.6774 14.5427 25.6128C14.5141 25.5481 14.4996 25.4781 14.5 25.4075V16H17.5C17.6371 16.0003 17.7728 15.9724 17.8986 15.918C18.0245 15.8637 18.1378 15.784 18.2316 15.6841C18.3254 15.5841 18.3976 15.4659 18.4438 15.3368C18.4899 15.2077 18.5091 15.0705 18.5 14.9337C18.4779 14.6766 18.3593 14.4373 18.168 14.2641C17.9766 14.0909 17.7268 13.9965 17.4688 14H14.5V11C14.5 10.4695 14.7107 9.96083 15.0858 9.58576C15.4609 9.21068 15.9696 8.99997 16.5 8.99997H18.5C18.6371 9.00027 18.7728 8.97238 18.8986 8.91804C19.0245 8.86369 19.1378 8.78405 19.2316 8.68405C19.3254 8.58406 19.3976 8.46586 19.4438 8.33678C19.4899 8.2077 19.5091 8.07051 19.5 7.93372C19.4779 7.67614 19.3589 7.43653 19.167 7.26323C18.9752 7.08994 18.7248 6.99586 18.4663 6.99997H16.5C15.4391 6.99997 14.4217 7.4214 13.6716 8.17154C12.9214 8.92169 12.5 9.9391 12.5 11V14H9.5C9.36292 13.9997 9.22723 14.0276 9.10138 14.0819C8.97552 14.1362 8.86218 14.2159 8.7684 14.3159C8.67462 14.4159 8.6024 14.5341 8.55623 14.6632C8.51006 14.7922 8.49092 14.9294 8.5 15.0662C8.52212 15.3238 8.64111 15.5634 8.83296 15.7367C9.02482 15.91 9.27525 16.0041 9.53375 16H12.5V25.41C12.5004 25.4805 12.4859 25.5504 12.4574 25.6149C12.4289 25.6795 12.3871 25.7373 12.3347 25.7845C12.2823 25.8317 12.2204 25.8673 12.1533 25.8889C12.0861 25.9106 12.0151 25.9177 11.945 25.91C8.7067 25.5156 5.73446 23.9198 3.6166 21.4386C1.49873 18.9573 0.389609 15.7713 0.508754 12.5112C0.758754 5.76122 6.22625 0.273718 12.9813 0.0112183C14.7301 -0.0565241 16.4747 0.229157 18.1106 0.851174C19.7465 1.47319 21.2401 2.41877 22.5022 3.63134C23.7643 4.84391 24.7688 6.29857 25.4557 7.90831C26.1426 9.51805 26.4978 11.2498 26.5 13Z" fill="#6E727F"/>
</svg>
