<svg width="100" height="100" viewBox="0 0 100 100" fill="none" xmlns="http://www.w3.org/2000/svg">
<path d="M75.0001 91.6663C77.2102 91.6663 79.3298 90.7884 80.8926 89.2256C82.4554 87.6628 83.3334 85.5431 83.3334 83.333V33.333L58.3334 8.33301H25.0001C22.7899 8.33301 20.6703 9.21098 19.1075 10.7738C17.5447 12.3366 16.6667 14.4562 16.6667 16.6663V83.333C16.6667 85.5431 17.5447 87.6628 19.1075 89.2256C20.6703 90.7884 22.7899 91.6663 25.0001 91.6663H75.0001ZM54.1667 16.6663L75.0001 37.4997H54.1667V16.6663ZM29.1667 33.333H41.6667V41.6663H29.1667V33.333ZM29.1667 49.9997H70.8334V58.333H29.1667V49.9997ZM29.1667 66.6663H70.8334V74.9997H29.1667V66.6663Z" fill="#3C6E71"/>
</svg>
