<svg width="516" height="278" viewBox="0 0 516 278" fill="none" xmlns="http://www.w3.org/2000/svg">
<path d="M488.395 47.3285C488.395 47.3285 488.395 40.8519 479.327 31.8754C470.26 22.8989 464.509 17.6918 464.509 17.6918C464.509 17.6918 460.001 32.5101 468.395 41.5384C474.557 47.8793 481.238 53.6939 488.369 58.9215L488.395 47.3285Z" fill="#3C6E71"/>
<path d="M475.312 87.5608C475.312 87.5608 475.312 81.0843 466.245 72.1078C457.178 63.1313 451.452 57.9241 451.452 57.9241C451.452 57.9241 446.932 72.7425 455.338 81.7708C461.5 88.1116 468.181 93.9263 475.312 99.1538V87.5608Z" fill="#3C6E71"/>
<path d="M487.825 58.2997C487.825 58.2997 488.511 51.9009 498.433 43.883C508.355 35.865 514.664 31.3573 514.664 31.3573C514.664 31.3573 517.578 46.5643 508.304 54.6729C501.507 60.3288 494.25 65.4068 486.607 69.8539L487.825 58.2997Z" fill="#3C6E71"/>
<path d="M472.022 105.812C472.022 105.812 473.317 99.5165 484.081 92.5866C494.845 85.6567 501.529 81.8355 501.529 81.8355C501.529 81.8355 502.824 97.2756 492.76 104.335C485.406 109.247 477.654 113.536 469.587 117.159L472.022 105.812Z" fill="#3C6E71"/>
<path d="M474.988 157.624C474.988 157.624 474.988 151.148 484.055 142.158C493.123 133.169 498.861 127.987 498.861 127.987C498.861 127.987 503.381 142.806 494.975 151.821C488.816 158.168 482.134 163.988 475.001 169.217L474.988 157.624Z" fill="#3C6E71"/>
<path d="M474.846 170.266C474.846 170.266 475.753 163.893 468.11 153.686C460.468 143.479 455.455 137.547 455.455 137.547C455.455 137.547 448.888 151.575 455.896 161.691C461.09 168.846 466.875 175.553 473.188 181.743L474.846 170.266Z" fill="#3C6E71"/>
<path d="M465.947 207.74C465.947 207.74 465.947 201.263 475.014 192.287C484.081 183.31 489.833 178.103 489.833 178.103C489.833 178.103 494.34 192.921 485.947 201.95C479.783 208.293 473.102 214.111 465.973 219.346L465.947 207.74Z" fill="#3C6E71"/>
<path d="M471.97 241.716C471.97 241.716 470.338 235.485 476.776 224.475C483.213 213.465 487.527 207.014 487.527 207.014C487.527 207.014 495.635 220.2 489.82 231.055C485.469 238.751 480.482 246.069 474.91 252.933L471.97 241.716Z" fill="#3C6E71"/>
<path d="M489.211 45.6835C488.757 52.39 487.936 59.0666 486.75 65.683C483.175 84.1023 474.263 95.9933 470.701 112.625C467.139 129.257 477.372 150.694 474.587 172.067C471.802 193.439 463.538 205.317 465.908 219.579C468.279 233.84 480.765 272.466 480.765 272.466" stroke="#263238" stroke-linecap="round" stroke-linejoin="round"/>
<path d="M487.747 62.5872L497.462 55.1263" stroke="#263238" stroke-linecap="round" stroke-linejoin="round"/>
<path d="M488.201 53.9993L484.12 46.7586" stroke="#263238" stroke-linecap="round" stroke-linejoin="round"/>
<path d="M471.245 111.861C471.245 111.861 479.379 105.76 487.747 99.659" stroke="#263238" stroke-linecap="round" stroke-linejoin="round"/>
<path d="M475.312 99.1538C475.312 99.1538 468.525 85.8639 460.844 77.0558" stroke="#263238" stroke-linecap="round" stroke-linejoin="round"/>
<path d="M475.312 166.795C479.953 158.219 485.817 150.365 492.721 143.479" stroke="#263238" stroke-linecap="round" stroke-linejoin="round"/>
<path d="M473.732 175.836C471.264 170.021 468.313 164.423 464.911 159.101C460.17 152.093 459.484 151.186 459.484 151.186" stroke="#263238" stroke-linecap="round" stroke-linejoin="round"/>
<path d="M465.947 219.579C468.012 214.473 470.463 209.533 473.278 204.799C476.096 200.4 479.271 196.241 482.773 192.364" stroke="#263238" stroke-linecap="round" stroke-linejoin="round"/>
<path d="M474.911 252.933C474.438 248.051 475.279 243.132 477.346 238.685C480.739 232.13 484.574 223.542 486.154 220.149" stroke="#263238" stroke-linecap="round" stroke-linejoin="round"/>
<path d="M414.795 133.402C414.795 133.402 414.096 129.36 418.772 122.715C423.448 116.071 426.544 112.223 426.544 112.223C426.544 112.223 430.974 121.032 426.699 127.586C423.524 132.235 419.967 136.611 416.065 140.668L414.795 133.402Z" fill="#3C6E71"/>
<path d="M427.373 157.21C427.373 157.21 426.673 153.168 431.349 146.523C436.025 139.878 439.121 136.031 439.121 136.031C439.121 136.031 443.551 144.839 439.276 151.407C436.099 156.05 432.542 160.422 428.642 164.476L427.373 157.21Z" fill="#3C6E71"/>
<path d="M416.337 140.215C416.337 140.215 415.223 136.329 408.124 132.327C401.026 128.324 396.596 126.226 396.596 126.226C396.596 126.226 396.415 136.083 403.073 140.15C407.947 142.956 413.047 145.352 418.319 147.313L416.337 140.215Z" fill="#3C6E71"/>
<path d="M431.414 168.297C431.414 168.297 429.886 164.489 422.425 161.303C414.964 158.116 410.301 156.458 410.301 156.458C410.301 156.458 411.155 166.277 418.254 169.619C423.397 171.898 428.722 173.743 434.173 175.137L431.414 168.297Z" fill="#3C6E71"/>
<path d="M435.17 201.108C435.17 201.108 434.484 197.066 427.839 192.39C421.194 187.714 417.01 185.111 417.01 185.111C417.01 185.111 415.793 194.89 422.023 199.631C426.574 202.945 431.397 205.87 436.44 208.374L435.17 201.108Z" fill="#3C6E71"/>
<path d="M436.647 209.022C436.647 209.022 435.352 205.136 439.069 197.882C442.787 190.629 445.248 186.393 445.248 186.393C445.248 186.393 450.883 194.476 447.593 201.587C445.114 206.635 442.215 211.467 438.927 216.03L436.647 209.022Z" fill="#3C6E71"/>
<path d="M447.968 241.599C447.968 241.599 448.434 237.532 454.794 232.532C461.154 227.532 465.157 224.643 465.157 224.643C465.157 224.643 466.931 234.345 460.986 239.436C456.631 242.999 451.987 246.192 447.1 248.982L447.968 241.599Z" fill="#3C6E71"/>
<path d="M446.271 231.547C446.271 231.547 445.572 227.506 438.94 222.83C432.308 218.154 428.137 215.55 428.137 215.55C428.137 215.55 426.919 225.33 433.15 230.084C437.705 233.393 442.527 236.317 447.567 238.827L446.271 231.547Z" fill="#3C6E71"/>
<path d="M446.271 253.516C446.271 253.516 446.608 249.423 441.375 243.218C436.142 237.014 432.748 233.438 432.748 233.438C432.748 233.438 429.082 242.583 433.914 248.762C437.455 253.113 441.355 257.16 445.572 260.86L446.271 253.516Z" fill="#3C6E71"/>
<path d="M414.109 132.443C415.122 136.601 416.363 140.701 417.826 144.723C422.062 155.888 428.94 162.378 432.982 172.416C437.023 182.455 432.982 197.027 436.971 210.123C440.961 223.218 447.567 229.773 447.567 238.969C447.567 248.166 443.992 273.749 443.992 273.749" stroke="#263238" stroke-linecap="round" stroke-linejoin="round"/>
<path d="M416.868 142.883L409.964 139.27" stroke="#263238" stroke-linecap="round" stroke-linejoin="round"/>
<path d="M415.65 137.547L417.412 132.573" stroke="#263238" stroke-linecap="round" stroke-linejoin="round"/>
<path d="M432.554 172.002C432.554 172.002 426.79 169.062 420.896 166.134" stroke="#263238" stroke-linecap="round" stroke-linejoin="round"/>
<path d="M428.629 164.476C430.328 159.139 432.563 153.988 435.3 149.101" stroke="#263238" stroke-linecap="round" stroke-linejoin="round"/>
<path d="M435.974 206.885C432.13 202.021 427.601 197.741 422.528 194.178" stroke="#263238" stroke-linecap="round" stroke-linejoin="round"/>
<path d="M437.942 212.377C438.864 208.468 440.108 204.643 441.66 200.939C443.875 196.03 444.251 195.382 444.251 195.382" stroke="#263238" stroke-linecap="round" stroke-linejoin="round"/>
<path d="M447.256 245.951C449.502 243.168 451.99 240.589 454.691 238.244C456.409 236.979 458.021 235.575 459.509 234.047" stroke="#263238" stroke-linecap="round" stroke-linejoin="round"/>
<path d="M447.567 238.969C445.716 235.984 443.642 233.144 441.362 230.472C439.117 228.021 436.673 225.76 434.057 223.711" stroke="#263238" stroke-linecap="round" stroke-linejoin="round"/>
<path d="M445.572 260.86C445.34 257.745 444.28 254.749 442.502 252.182C439.665 248.438 436.323 243.464 434.963 241.508" stroke="#263238" stroke-linecap="round" stroke-linejoin="round"/>
<path d="M46.8885 76.9781L41.2151 60.7738L46.8885 67.6519L42.4327 43.3389L49.3237 60.7738L51.7589 26.7201L55.8132 59.1417L60.2691 52.6651V60.7738L65.541 49.8284L62.7043 68.8695L67.5617 65.6312L59.8675 76.1621L46.8885 76.9781Z" fill="#3C6E71"/>
<path d="M64.7248 72.9238H43.6501L47.4454 115.475H60.9296L64.7248 72.9238Z" fill="#263238" stroke="#263238" stroke-linecap="round" stroke-linejoin="round"/>
<path d="M104.258 114.995H32.4587V267.065H104.258V114.995Z" fill="white" stroke="#263238" stroke-linecap="round" stroke-linejoin="round"/>
<path d="M108.183 114.995H68.3518V267.065H108.183V114.995Z" fill="white" stroke="#263238" stroke-linecap="round" stroke-linejoin="round"/>
<path d="M103.701 114.995H68.3518V267.065H103.701V114.995Z" fill="#263238" stroke="#263238" stroke-linecap="round" stroke-linejoin="round"/>
<path d="M99.7242 231.703H68.3518V262.842H99.7242V231.703Z" fill="#3C6E71" stroke="#263238" stroke-linecap="round" stroke-linejoin="round"/>
<path d="M99.7242 233.387H68.3518V237.376H99.7242V233.387Z" fill="white" stroke="#263238" stroke-linecap="round" stroke-linejoin="round"/>
<path d="M99.7242 256.314H68.3518V260.303H99.7242V256.314Z" fill="white" stroke="#263238" stroke-linecap="round" stroke-linejoin="round"/>
<path d="M74.2971 232.35V271.728" stroke="#263238" stroke-linecap="round" stroke-linejoin="round"/>
<path d="M85.2427 232.35V271.728" stroke="#263238" stroke-linecap="round" stroke-linejoin="round"/>
<path d="M94.8538 232.35V271.728" stroke="#263238" stroke-linecap="round" stroke-linejoin="round"/>
<path d="M99.7242 120.643H68.3518V166.432H99.7242V120.643Z" fill="#3C6E71" stroke="#263238" stroke-linecap="round" stroke-linejoin="round"/>
<path d="M99.7242 122.56H68.3518V127.094H99.7242V122.56Z" fill="white" stroke="#263238" stroke-linecap="round" stroke-linejoin="round"/>
<path d="M99.7242 151.912H68.3518V156.445H99.7242V151.912Z" fill="white" stroke="#263238" stroke-linecap="round" stroke-linejoin="round"/>
<path d="M74.2971 121.368V166.121" stroke="#263238" stroke-linecap="round" stroke-linejoin="round"/>
<path d="M85.2427 121.368V166.121" stroke="#263238" stroke-linecap="round" stroke-linejoin="round"/>
<path d="M94.8538 121.368V166.121" stroke="#263238" stroke-linecap="round" stroke-linejoin="round"/>
<path d="M99.7242 175.823H68.3518V221.612H99.7242V175.823Z" fill="#3C6E71" stroke="#263238" stroke-linecap="round" stroke-linejoin="round"/>
<path d="M99.7242 177.74H68.3518V182.274H99.7242V177.74Z" fill="white" stroke="#263238" stroke-linecap="round" stroke-linejoin="round"/>
<path d="M99.7242 207.092H68.3518V211.625H99.7242V207.092Z" fill="white" stroke="#263238" stroke-linecap="round" stroke-linejoin="round"/>
<path d="M74.2971 176.561V221.301" stroke="#263238" stroke-linecap="round" stroke-linejoin="round"/>
<path d="M85.2427 176.561V221.301" stroke="#263238" stroke-linecap="round" stroke-linejoin="round"/>
<path d="M94.8538 176.561V221.301" stroke="#263238" stroke-linecap="round" stroke-linejoin="round"/>
<path d="M104.245 165.797H68.3518V171.005H104.245V165.797Z" fill="white" stroke="#263238" stroke-linecap="round" stroke-linejoin="round"/>
<path d="M104.245 221.327H68.3518V226.535H104.245V221.327Z" fill="white" stroke="#263238" stroke-linecap="round" stroke-linejoin="round"/>
<path d="M104.245 114.995V267.052" stroke="#263238" stroke-linecap="round" stroke-linejoin="round"/>
<path d="M63.2874 114.995V267.052H68.352V120.643H103.623V114.931L63.2874 114.995Z" fill="white" stroke="#263238" stroke-linecap="round" stroke-linejoin="round"/>
<path d="M68.3518 120.643V114.995" stroke="#263238" stroke-linecap="round" stroke-linejoin="round"/>
<path d="M103.973 45.1394C100.203 37.8727 98.623 32.6655 98.623 31.4609C98.623 29.0775 103.804 27.6527 103.804 27.6527C111.887 23.3782 149.904 29.5568 167.015 32.4065C176.594 34.0764 186.284 35.0289 196.004 35.2562C196.004 35.2562 198.375 33.365 201.186 30.9816C203.996 28.5983 217.338 12.925 222.571 11.552C227.804 10.179 232.545 13.4561 232.545 13.4561C232.545 13.4561 241.107 18.6374 239.669 19.6347C238.231 20.6321 217.338 38.6369 212.105 41.9659C206.872 45.2948 195.953 43.87 186.445 45.7741C178.259 47.4062 145.099 49.4268 137.495 50.0486C131.785 51.403 125.792 50.9039 120.384 48.6237" fill="white"/>
<mask id="mask0_16_561" style="mask-type:luminance" maskUnits="userSpaceOnUse" x="98" y="11" width="142" height="40">
<path d="M103.973 45.1394C100.203 37.8727 98.623 32.6655 98.623 31.4609C98.623 29.0775 103.804 27.6527 103.804 27.6527C111.887 23.3782 149.904 29.5568 167.015 32.4065C176.594 34.0764 186.284 35.0289 196.004 35.2562C196.004 35.2562 198.375 33.365 201.186 30.9816C203.996 28.5983 217.338 12.925 222.571 11.552C227.804 10.179 232.545 13.4561 232.545 13.4561C232.545 13.4561 241.107 18.6374 239.669 19.6347C238.231 20.6321 217.338 38.6369 212.105 41.9659C206.872 45.2948 195.953 43.87 186.445 45.7741C178.259 47.4062 145.099 49.4268 137.495 50.0486C131.785 51.403 125.792 50.9039 120.384 48.6237" fill="white"/>
</mask>
<g mask="url(#mask0_16_561)">
<path d="M232.636 13.4043C232.636 13.4043 227.882 10.0754 222.662 11.5002C217.442 12.9251 204.126 28.6113 201.276 30.9299C198.427 33.2485 196.095 35.2044 196.095 35.2044C186.375 34.9771 176.685 34.0246 167.106 32.3547C149.995 29.505 111.978 23.2875 103.895 27.6009C103.895 27.6009 98.7139 29.0257 98.7139 31.4091C98.8939 32.7416 99.2376 34.0467 99.7372 35.295L100.45 35.5541C100.45 35.5541 109.944 34.5567 130.436 35.0489C150.928 35.5411 198.323 38.352 201.367 39.453C202.662 39.9452 211.846 37.8727 222.027 34.2718C229.799 27.9377 238.931 20.0233 239.851 19.4664C241.198 18.6244 232.636 13.4043 232.636 13.4043Z" fill="#3C6E71"/>
<path opacity="0.5" d="M232.636 13.4043C232.636 13.4043 227.882 10.0754 222.662 11.5002C217.442 12.9251 204.126 28.6113 201.276 30.9299C198.427 33.2485 196.095 35.2044 196.095 35.2044C186.375 34.9771 176.685 34.0246 167.106 32.3547C149.995 29.505 111.978 23.2875 103.895 27.6009C103.895 27.6009 98.7139 29.0257 98.7139 31.4091C98.8939 32.7416 99.2376 34.0467 99.7372 35.295L100.45 35.5541C100.45 35.5541 109.944 34.5567 130.436 35.0489C150.928 35.5411 198.323 38.352 201.367 39.453C202.662 39.9452 211.846 37.8727 222.027 34.2718C229.799 27.9377 238.931 20.0233 239.851 19.4664C241.198 18.6244 232.636 13.4043 232.636 13.4043Z" fill="white"/>
</g>
<path d="M103.973 45.1394C100.203 37.8727 98.623 32.6655 98.623 31.4609C98.623 29.0775 103.804 27.6527 103.804 27.6527C111.887 23.3782 149.904 29.5568 167.015 32.4065C176.594 34.0764 186.284 35.0289 196.004 35.2562C196.004 35.2562 198.375 33.365 201.186 30.9816C203.996 28.5983 217.338 12.925 222.571 11.552C227.804 10.179 232.545 13.4561 232.545 13.4561C232.545 13.4561 241.107 18.6374 239.669 19.6347C238.231 20.6321 217.338 38.6369 212.105 41.9659C206.872 45.2948 195.953 43.87 186.445 45.7741C178.259 47.4062 145.099 49.4268 137.495 50.0486C131.785 51.403 125.792 50.9039 120.384 48.6237" stroke="#263238" stroke-linecap="round" stroke-linejoin="round"/>
<path d="M291.676 87.3924C292.536 85.7604 293.825 84.3946 295.405 83.4426C296.985 82.4906 298.795 81.9886 300.64 81.991H387.037C387.037 81.991 393.28 81.991 391.415 93.856C389.55 105.721 363.928 178.168 357.737 200.071C351.545 221.975 350.237 268.14 350.237 268.14H246.612C246.612 268.14 254.825 157.741 291.676 87.3924Z" fill="white"/>
<mask id="mask1_16_561" style="mask-type:luminance" maskUnits="userSpaceOnUse" x="246" y="81" width="146" height="188">
<path d="M291.676 87.3924C292.536 85.7604 293.825 84.3946 295.405 83.4426C296.985 82.4906 298.795 81.9886 300.64 81.991H387.037C387.037 81.991 393.28 81.991 391.415 93.856C389.55 105.721 363.928 178.168 357.737 200.071C351.545 221.975 350.237 268.14 350.237 268.14H246.612C246.612 268.14 254.825 157.741 291.676 87.3924Z" fill="white"/>
</mask>
<g mask="url(#mask1_16_561)">
<path opacity="0.16" d="M330.587 81.991H300.64C298.795 81.9886 296.985 82.4906 295.405 83.4426C293.825 84.3946 292.536 85.7604 291.676 87.3924C254.825 157.741 246.522 268.101 246.522 268.101H292.997L304.461 224.566L352.258 234.423C352.595 230.77 352.983 227.053 353.437 223.387L352.387 211.729C352.387 211.729 342.595 201.431 339.512 198.854C336.429 196.276 338.476 191.626 337.958 171.536C337.439 151.445 319.409 137.003 312.699 124.633C305.989 112.262 316.313 104.529 325.587 92.1592C328.89 87.6903 330.238 84.4003 330.587 81.991Z" fill="black"/>
</g>
<path d="M291.676 87.3924C292.536 85.7604 293.825 84.3946 295.405 83.4426C296.985 82.4906 298.795 81.9886 300.64 81.991H387.037C387.037 81.991 393.28 81.991 391.415 93.856C389.55 105.721 363.928 178.168 357.737 200.071C351.545 221.975 350.237 268.14 350.237 268.14H246.612C246.612 268.14 254.825 157.741 291.676 87.3924Z" stroke="#263238" stroke-linecap="round" stroke-linejoin="round"/>
<path d="M372.05 102.599C363.32 122.975 344.849 203.633 341.844 268.101H350.185C350.185 268.101 351.481 221.884 357.685 200.032C363.89 178.181 389.537 105.721 391.363 93.8171C393.19 81.9132 386.985 81.9521 386.985 81.9521C386.985 81.9521 379.058 86.2655 372.05 102.599Z" fill="#263238" stroke="#263238" stroke-linecap="round" stroke-linejoin="round"/>
<path d="M220.279 61.8748C220.279 61.8748 206.497 53.792 201.277 39.5436C196.056 25.2952 242.144 2.47189 262.156 1.04705C282.169 -0.377787 287.816 4.84232 299.72 25.2823C311.624 45.7223 319.681 73.7528 313.502 87.5349C307.324 101.317 296.87 104.646 304.435 116.032C312 127.417 333.424 159.748 331.999 174.955C330.574 190.162 315.847 203.452 294.435 204.903C273.024 206.354 244.527 193.491 220.771 172.52C197.015 151.549 203.181 120.708 211.704 110.734C220.227 100.76 233.089 96.9518 234.035 86.9779C234.981 77.004 220.279 61.8748 220.279 61.8748Z" fill="#263238" stroke="#263238" stroke-linecap="round" stroke-linejoin="round"/>
<path d="M279.021 39.3235C286.339 52.9501 295.497 71.201 298.36 82.2241C303.36 101.524 277.635 113.674 284.772 122.962" stroke="white" stroke-linecap="round" stroke-linejoin="round"/>
<path d="M269.047 21.4741C269.047 21.4741 271.897 26.3315 275.835 33.4816" stroke="white" stroke-linecap="round" stroke-linejoin="round"/>
<path d="M307.44 55.761C308.284 58.3149 308.832 60.9574 309.072 63.6364" stroke="white" stroke-linecap="round" stroke-linejoin="round"/>
<path d="M273.995 14.3888C273.995 14.3888 296.508 31.0205 305.497 50.9294" stroke="white" stroke-linecap="round" stroke-linejoin="round"/>
<path d="M242.752 26.8626C226.678 31.3703 203.556 38.6888 205.434 42.9115" stroke="white" stroke-linecap="round" stroke-linejoin="round"/>
<path d="M257.609 22.899C257.609 22.899 254.177 23.7538 249.06 25.1269" stroke="white" stroke-linecap="round" stroke-linejoin="round"/>
<path d="M237.726 14.5053C246.934 11.6034 256.578 10.3322 266.223 10.7489" stroke="white" stroke-linecap="round" stroke-linejoin="round"/>
<path d="M231.172 17.1866C232.628 16.4281 234.134 15.7702 235.68 15.2177" stroke="white" stroke-linecap="round" stroke-linejoin="round"/>
<path d="M103.973 45.1394C101.791 41.1444 100.054 36.9224 98.7915 32.549C100.048 36.9245 101.785 41.1471 103.973 45.1394ZM98.649 31.8106C98.649 31.8884 98.649 31.979 98.649 32.0956C98.6749 31.979 98.6619 31.8884 98.649 31.8106ZM103.973 45.1264C108.817 54.3022 114.844 62.8028 121.9 70.4109C139.011 88.9467 188.44 137.43 193.142 140.759C197.844 144.088 196.471 153.583 193.142 163.09C189.813 172.598 177.456 186.406 177.935 201.587C178.414 216.768 183.116 240.083 182.689 244.837C182.261 249.591 170.37 265.756 170.37 265.756H292.984C292.984 265.756 277.7 246.327 277.7 239.682C277.7 233.037 298.684 147.896 299.629 141.718C300.575 135.539 296.779 131.264 289.176 130.785C281.573 130.306 252.583 124.127 251.159 119.374C249.734 114.62 258.762 96.5632 258.762 96.5632L230.265 97.988C230.265 97.988 228.84 110.345 226.936 112.729C225.032 115.112 222.183 110.345 215.525 107.029C208.867 103.713 196.095 100.851 191.289 97.0424C186.484 93.2342 140.915 50.4113 140.915 50.4113" fill="white"/>
<mask id="mask2_16_561" style="mask-type:luminance" maskUnits="userSpaceOnUse" x="98" y="31" width="202" height="235">
<path d="M103.973 45.1394C101.791 41.1444 100.054 36.9224 98.7915 32.549C100.048 36.9245 101.785 41.1471 103.973 45.1394ZM98.649 31.8106C98.649 31.8884 98.649 31.979 98.649 32.0956C98.6749 31.979 98.6619 31.8884 98.649 31.8106ZM103.973 45.1264C108.817 54.3022 114.844 62.8028 121.9 70.4109C139.011 88.9467 188.44 137.43 193.142 140.759C197.844 144.088 196.471 153.583 193.142 163.09C189.813 172.598 177.456 186.406 177.935 201.587C178.414 216.768 183.116 240.083 182.689 244.837C182.261 249.591 170.37 265.756 170.37 265.756H292.984C292.984 265.756 277.7 246.327 277.7 239.682C277.7 233.037 298.684 147.896 299.629 141.718C300.575 135.539 296.779 131.264 289.176 130.785C281.573 130.306 252.583 124.127 251.159 119.374C249.734 114.62 258.762 96.5632 258.762 96.5632L230.265 97.988C230.265 97.988 228.84 110.345 226.936 112.729C225.032 115.112 222.183 110.345 215.525 107.029C208.867 103.713 196.095 100.851 191.289 97.0424C186.484 93.2342 140.915 50.4113 140.915 50.4113" fill="white"/>
</mask>
<g mask="url(#mask2_16_561)">
<path d="M198.569 100.708C200.94 104.853 203.31 108.597 203.31 108.597C203.31 108.597 211.302 113.091 213.297 113.091C215.292 113.091 227.286 119.568 227.286 119.568C227.286 119.568 237.286 117.068 233.763 108.571C232.651 106.395 231.248 104.382 229.592 102.586C228.996 106.356 228.038 111.291 226.911 112.703C225.007 115.073 222.157 110.319 215.499 107.003C211.186 104.853 204.204 102.884 198.569 100.708Z" fill="#3C6E71"/>
<path d="M174.166 81.4728C159.49 67.885 140.915 50.4631 140.915 50.4631L130.112 48.9088L128.817 49.6341C128.817 49.6341 159.308 76.6154 165.798 79.6205C168.423 80.8272 171.276 81.4588 174.166 81.4728Z" fill="#3C6E71"/>
<path d="M189.541 95.5399L188.375 94.5036C188.971 95.4881 189.308 96.1098 189.308 96.1098L189.541 95.5399Z" fill="#3C6E71"/>
<g opacity="0.5">
<path d="M198.569 100.708C200.94 104.853 203.31 108.597 203.31 108.597C203.31 108.597 211.302 113.091 213.297 113.091C215.292 113.091 227.286 119.568 227.286 119.568C227.286 119.568 237.286 117.068 233.763 108.571C232.651 106.395 231.248 104.382 229.592 102.586C228.996 106.356 228.038 111.291 226.911 112.703C225.007 115.073 222.157 110.319 215.499 107.003C211.186 104.853 204.204 102.884 198.569 100.708Z" fill="white"/>
<path d="M174.166 81.4728C159.49 67.885 140.915 50.4631 140.915 50.4631L130.112 48.9088L128.817 49.6341C128.817 49.6341 159.308 76.6154 165.798 79.6205C168.423 80.8272 171.276 81.4588 174.166 81.4728Z" fill="white"/>
<path d="M189.541 95.5399L188.375 94.5036C188.971 95.4881 189.308 96.1098 189.308 96.1098L189.541 95.5399Z" fill="white"/>
</g>
</g>
<path d="M98.6231 31.4609C98.6172 31.5515 98.6172 31.6424 98.6231 31.7329M98.7915 32.549C100.054 36.9224 101.791 41.1444 103.973 45.1394C101.785 41.1471 100.048 36.9245 98.7915 32.549ZM98.7915 32.549C98.7557 32.426 98.7297 32.3004 98.7137 32.1733M103.973 45.1264C108.817 54.3022 114.844 62.8028 121.9 70.4109C139.011 88.9467 188.44 137.43 193.142 140.759C197.844 144.088 196.471 153.583 193.142 163.09C189.813 172.598 177.456 186.406 177.935 201.587C178.414 216.768 183.116 240.083 182.689 244.837C182.261 249.591 170.37 265.756 170.37 265.756H292.984C292.984 265.756 277.7 246.327 277.7 239.682C277.7 233.037 298.684 147.896 299.629 141.718C300.575 135.539 296.779 131.264 289.176 130.785C281.573 130.306 252.584 124.127 251.159 119.374C249.734 114.62 258.762 96.5632 258.762 96.5632L230.265 97.988C230.265 97.988 228.84 110.345 226.936 112.729C225.032 115.112 222.183 110.345 215.525 107.029C208.867 103.713 196.095 100.851 191.289 97.0424C186.484 93.2342 140.915 50.4113 140.915 50.4113M98.649 31.8106C98.649 31.8884 98.649 31.979 98.649 32.0956C98.6749 31.979 98.6619 31.8884 98.649 31.8106Z" stroke="#263238" stroke-linecap="round" stroke-linejoin="round"/>
<path d="M140.915 50.4631C140.915 50.4631 125.734 50.7481 117.263 43.7664" stroke="#263238" stroke-linecap="round" stroke-linejoin="round"/>
<path d="M251.172 119.374C249.747 114.633 258.775 96.5632 258.775 96.5632L230.279 97.988C230.279 97.988 228.854 110.345 226.95 112.729C225.046 115.112 222.196 110.345 215.538 107.029C215.033 106.77 214.476 106.524 213.906 106.278L212.183 133.363C212.183 133.363 214.683 159.593 244.657 154.606C256.794 152.585 269.747 141.757 280.925 129.581C269.423 127.469 252.26 123.013 251.172 119.374Z" fill="white"/>
<mask id="mask3_16_561" style="mask-type:luminance" maskUnits="userSpaceOnUse" x="212" y="96" width="69" height="60">
<path d="M251.172 119.374C249.747 114.633 258.775 96.5632 258.775 96.5632L230.279 97.988C230.279 97.988 228.854 110.345 226.95 112.729C225.046 115.112 222.196 110.345 215.538 107.029C215.033 106.77 214.476 106.524 213.906 106.278L212.183 133.363C212.183 133.363 214.683 159.593 244.657 154.606C256.794 152.585 269.747 141.757 280.925 129.581C269.423 127.469 252.26 123.013 251.172 119.374Z" fill="white"/>
</mask>
<g mask="url(#mask3_16_561)">
<path d="M250.369 100.151C250.369 100.151 248.646 109.814 247.26 120.501C245.874 131.187 244.851 139.14 244.851 139.14L251.172 119.374L258.296 98.4284C258.296 98.4284 251.405 98.4284 250.369 100.151Z" fill="#3C6E71"/>
<path opacity="0.5" d="M250.369 100.151C250.369 100.151 248.646 109.814 247.26 120.501C245.874 131.187 244.851 139.14 244.851 139.14L251.172 119.374L258.296 98.4284C258.296 98.4284 251.405 98.4284 250.369 100.151Z" fill="white"/>
</g>
<path d="M251.172 119.374C249.747 114.633 258.775 96.5632 258.775 96.5632L230.279 97.988C230.279 97.988 228.854 110.345 226.95 112.729C225.046 115.112 222.196 110.345 215.538 107.029C215.033 106.77 214.476 106.524 213.906 106.278L212.183 133.363C212.183 133.363 214.683 159.593 244.657 154.606C256.794 152.585 269.747 141.757 280.925 129.581C269.423 127.469 252.26 123.013 251.172 119.374Z" stroke="#263238" stroke-linecap="round" stroke-linejoin="round"/>
<path d="M226.936 112.729C225.032 115.099 222.183 110.345 215.525 107.029C211.328 104.918 204.644 103.001 199.113 100.928C197.546 97.2108 195.473 92.3664 194.139 89.439C191.769 84.2577 187.961 87.5349 187.961 87.5349C185.974 85.2752 184.368 82.7071 183.207 79.9314C180.836 74.7502 177.028 75.1776 171.808 74.2321C166.588 73.2865 155.643 63.2996 155.643 63.2996C155.643 63.2996 150.526 59.4137 148.415 57.4837C145.954 62.3281 140.06 70.8513 127.314 76.175C147.638 97.4051 188.867 137.741 193.194 140.772C197.947 144.088 196.523 153.596 193.194 163.103C189.865 172.611 177.507 186.419 177.987 201.6C178.466 216.781 183.168 240.096 182.74 244.85C182.313 249.086 172.831 262.363 170.772 265.212L175.603 265.756H200.758C200.616 253.011 200.629 200.991 209.346 180.266C219.333 156.445 226.936 112.729 226.936 112.729Z" fill="#3C6E71"/>
<mask id="mask4_16_561" style="mask-type:luminance" maskUnits="userSpaceOnUse" x="127" y="57" width="100" height="209">
<path d="M226.936 112.729C225.032 115.099 222.183 110.345 215.525 107.029C211.328 104.918 204.644 103.001 199.113 100.928C197.546 97.2108 195.473 92.3664 194.139 89.439C191.769 84.2577 187.961 87.5349 187.961 87.5349C185.974 85.2752 184.368 82.7071 183.207 79.9314C180.836 74.7502 177.028 75.1776 171.808 74.2321C166.588 73.2865 155.643 63.2996 155.643 63.2996C155.643 63.2996 150.526 59.4137 148.415 57.4837C145.954 62.3281 140.06 70.8513 127.314 76.175C147.638 97.4051 188.867 137.741 193.194 140.772C197.947 144.088 196.523 153.596 193.194 163.103C189.865 172.611 177.507 186.419 177.987 201.6C178.466 216.781 183.168 240.096 182.74 244.85C182.313 249.086 172.831 262.363 170.772 265.212L175.603 265.756H200.758C200.616 253.011 200.629 200.991 209.346 180.266C219.333 156.445 226.936 112.729 226.936 112.729Z" fill="white"/>
</mask>
<g mask="url(#mask4_16_561)">
<path opacity="0.16" d="M215.525 107.029C211.328 104.918 204.644 103.001 199.113 100.928C197.546 97.2108 195.473 92.3663 194.139 89.4389C191.769 84.2577 187.961 87.5348 187.961 87.5348C185.974 85.2752 184.368 82.7071 183.207 79.9314C180.836 74.7502 177.028 75.1776 171.808 74.232C166.588 73.2865 155.643 63.2996 155.643 63.2996C155.643 63.2996 150.526 59.4137 148.415 57.4837C147.361 59.5407 146.107 61.4888 144.671 63.2996C153.169 70.4886 162.547 78.105 165.824 79.6205C172.3 82.6126 173.816 80.1127 178.777 83.1178C183.738 86.123 189.269 96.0709 189.269 96.0709C189.269 96.0709 192.274 88.0659 194.774 93.571C197.274 99.0761 203.271 108.558 203.271 108.558C203.271 108.558 211.263 113.052 213.258 113.052C214.825 113.052 222.507 117.042 225.771 118.765C226.496 114.969 226.898 112.69 226.898 112.69C225.032 115.099 222.183 110.345 215.525 107.029Z" fill="black"/>
</g>
<path d="M226.936 112.729C225.032 115.099 222.183 110.345 215.525 107.029C211.328 104.918 204.644 103.001 199.113 100.928C197.546 97.2108 195.473 92.3664 194.139 89.439C191.769 84.2577 187.961 87.5349 187.961 87.5349C185.974 85.2752 184.368 82.7071 183.207 79.9314C180.836 74.7502 177.028 75.1776 171.808 74.2321C166.588 73.2865 155.643 63.2996 155.643 63.2996C155.643 63.2996 150.526 59.4137 148.415 57.4837C145.954 62.3281 140.06 70.8513 127.314 76.175C147.638 97.4051 188.867 137.741 193.194 140.772C197.947 144.088 196.523 153.596 193.194 163.103C189.865 172.611 177.507 186.419 177.987 201.6C178.466 216.781 183.168 240.096 182.74 244.85C182.313 249.086 172.831 262.363 170.772 265.212L175.603 265.756H200.758C200.616 253.011 200.629 200.991 209.346 180.266C219.333 156.445 226.936 112.729 226.936 112.729Z" stroke="#263238" stroke-linecap="round" stroke-linejoin="round"/>
<path d="M227.273 111.071C227.273 111.071 221.367 109.257 217.727 112.444C214.087 115.63 208.66 131.977 205.46 149.71C203.488 160.033 204.849 170.715 209.346 180.214C209.346 180.214 216.82 160.616 219.087 151.07C221.354 141.523 227.273 111.071 227.273 111.071Z" fill="#3C6E71"/>
<mask id="mask5_16_561" style="mask-type:luminance" maskUnits="userSpaceOnUse" x="204" y="110" width="24" height="71">
<path d="M227.273 111.071C227.273 111.071 221.367 109.257 217.727 112.444C214.087 115.63 208.66 131.977 205.46 149.71C203.488 160.033 204.849 170.715 209.346 180.214C209.346 180.214 216.82 160.616 219.087 151.07C221.354 141.523 227.273 111.071 227.273 111.071Z" fill="white"/>
</mask>
<g mask="url(#mask5_16_561)">
<path opacity="0.16" d="M215.939 113.959C215.939 113.959 220.214 112.923 221.976 113.519C223.459 114.155 224.846 114.997 226.095 116.019L227.273 111.071C225.505 110.167 223.5 109.837 221.535 110.125C218.595 110.721 215.939 113.959 215.939 113.959Z" fill="black"/>
</g>
<path d="M227.273 111.071C227.273 111.071 221.367 109.257 217.727 112.444C214.087 115.63 208.66 131.977 205.46 149.71C203.488 160.033 204.849 170.715 209.346 180.214C209.346 180.214 216.82 160.616 219.087 151.07C221.354 141.523 227.273 111.071 227.273 111.071Z" stroke="#263238" stroke-linecap="round" stroke-linejoin="round"/>
<path d="M187.494 112.625L195.098 143.518L177.987 104.542" stroke="#263238" stroke-linecap="round" stroke-linejoin="round"/>
<path d="M237.584 265.756H292.997C292.997 265.756 277.713 246.327 277.713 239.682C277.713 233.037 298.697 147.896 299.642 141.718C300.588 135.539 296.793 131.264 289.189 130.785C281.586 130.306 252.597 124.127 251.172 119.374C251.172 119.374 240.239 157.87 236.444 184.01C233.18 206.431 236.561 252.959 237.584 265.756Z" fill="#3C6E71"/>
<mask id="mask6_16_561" style="mask-type:luminance" maskUnits="userSpaceOnUse" x="235" y="119" width="65" height="147">
<path d="M237.584 265.756H292.997C292.997 265.756 277.713 246.327 277.713 239.682C277.713 233.037 298.697 147.896 299.642 141.718C300.588 135.539 296.793 131.264 289.189 130.785C281.586 130.306 252.597 124.127 251.172 119.374C251.172 119.374 240.239 157.87 236.444 184.01C233.18 206.431 236.561 252.959 237.584 265.756Z" fill="white"/>
</mask>
<g mask="url(#mask6_16_561)">
<path opacity="0.16" d="M289.189 130.785C282.959 130.397 262.376 126.174 254.358 122.055L257.273 128.79C262.553 131.592 268.232 133.566 274.112 134.645C283.762 136.368 292.738 136.031 298.606 144.658L298.891 145.085C299.254 143.427 299.5 142.262 299.577 141.718C300.601 135.539 296.792 131.264 289.189 130.785Z" fill="black"/>
</g>
<path d="M237.584 265.756H292.997C292.997 265.756 277.713 246.327 277.713 239.682C277.713 233.037 298.697 147.896 299.642 141.718C300.588 135.539 296.793 131.264 289.189 130.785C281.586 130.306 252.597 124.127 251.172 119.374C251.172 119.374 240.239 157.87 236.444 184.01C233.18 206.431 236.561 252.959 237.584 265.756Z" stroke="#263238" stroke-linecap="round" stroke-linejoin="round"/>
<path d="M251.172 119.374C251.172 119.374 236.509 166.005 236.444 184.01C236.444 184.01 257.273 158.79 259.993 141.07C262.713 123.35 251.172 119.374 251.172 119.374Z" fill="#3C6E71"/>
<mask id="mask7_16_561" style="mask-type:luminance" maskUnits="userSpaceOnUse" x="236" y="119" width="25" height="66">
<path d="M251.172 119.374C251.172 119.374 236.509 166.005 236.444 184.01C236.444 184.01 257.273 158.79 259.993 141.07C262.713 123.35 251.172 119.374 251.172 119.374Z" fill="white"/>
</mask>
<g mask="url(#mask7_16_561)">
<path opacity="0.16" d="M248.646 125.332C250.849 125.258 253.037 125.722 255.021 126.683C257.005 127.645 258.724 129.075 260.032 130.85C260.032 130.85 257.156 122.392 251.172 119.374L248.646 125.332Z" fill="black"/>
</g>
<path d="M251.172 119.374C251.172 119.374 236.509 166.005 236.444 184.01C236.444 184.01 257.273 158.79 259.993 141.07C262.713 123.35 251.172 119.374 251.172 119.374Z" stroke="#263238" stroke-linecap="round" stroke-linejoin="round"/>
<path d="M407.71 256.987C407.71 256.987 418.448 257.428 425.481 258.438C430.172 259.074 434.894 259.45 439.626 259.565C439.626 259.565 435.74 251.715 431.595 249.5C427.45 247.285 419.937 243.322 413.642 244.203C407.347 245.083 398.345 251.43 399.096 253.451C399.847 255.472 403.202 256.378 407.71 256.987Z" fill="white"/>
<mask id="mask8_16_561" style="mask-type:luminance" maskUnits="userSpaceOnUse" x="399" y="244" width="41" height="16">
<path d="M407.71 256.987C407.71 256.987 418.448 257.428 425.481 258.438C430.172 259.074 434.894 259.45 439.626 259.565C439.626 259.565 435.74 251.715 431.595 249.5C427.45 247.285 419.937 243.322 413.642 244.203C407.347 245.083 398.345 251.43 399.096 253.451C399.847 255.472 403.202 256.378 407.71 256.987Z" fill="white"/>
</mask>
<g mask="url(#mask8_16_561)">
<path d="M407.71 256.987C407.71 256.987 418.448 257.428 425.481 258.438C430.172 259.074 434.894 259.45 439.626 259.565C439.626 259.565 435.74 251.715 431.595 249.5C427.45 247.285 419.937 243.322 413.642 244.203C407.347 245.083 398.345 251.43 399.096 253.451C399.847 255.472 403.202 256.378 407.71 256.987Z" fill="#3C6E71"/>
<path opacity="0.5" d="M407.71 256.987C407.71 256.987 418.448 257.428 425.481 258.438C430.172 259.074 434.894 259.45 439.626 259.565C439.626 259.565 435.74 251.715 431.595 249.5C427.45 247.285 419.937 243.322 413.642 244.203C407.347 245.083 398.345 251.43 399.096 253.451C399.847 255.472 403.202 256.378 407.71 256.987Z" fill="white"/>
</g>
<path d="M407.71 256.987C407.71 256.987 418.448 257.428 425.481 258.438C430.172 259.074 434.894 259.45 439.626 259.565C439.626 259.565 435.74 251.715 431.595 249.5C427.45 247.285 419.937 243.322 413.642 244.203C407.347 245.083 398.345 251.43 399.096 253.451C399.847 255.472 403.202 256.378 407.71 256.987Z" stroke="#263238" stroke-linecap="round" stroke-linejoin="round"/>
<path d="M425.546 253.775C425.546 253.775 434.056 249.358 436.181 249.423C438.305 249.487 452.424 259.034 451.724 260.562C451.249 261.271 450.564 261.813 449.764 262.11C448.964 262.408 448.091 262.446 447.268 262.22C445.701 261.482 436.194 257.441 436.194 257.441L429.976 258.904L425.546 253.775Z" fill="white"/>
<mask id="mask9_16_561" style="mask-type:luminance" maskUnits="userSpaceOnUse" x="425" y="249" width="27" height="14">
<path d="M425.546 253.775C425.546 253.775 434.056 249.358 436.181 249.423C438.305 249.487 452.424 259.034 451.724 260.562C451.249 261.271 450.564 261.813 449.764 262.11C448.964 262.408 448.091 262.446 447.268 262.22C445.701 261.482 436.194 257.441 436.194 257.441L429.976 258.904L425.546 253.775Z" fill="white"/>
</mask>
<g mask="url(#mask9_16_561)">
<path d="M425.546 253.775C425.546 253.775 434.056 249.358 436.181 249.423C438.305 249.487 452.424 259.034 451.724 260.562C451.025 262.091 447.683 263.334 447.268 262.22C446.854 261.106 436.194 257.441 436.194 257.441L429.976 258.904L425.546 253.775Z" fill="#3C6E71"/>
<path opacity="0.5" d="M425.546 253.775C425.546 253.775 434.056 249.358 436.181 249.423C438.305 249.487 452.424 259.034 451.724 260.562C451.025 262.091 447.683 263.334 447.268 262.22C446.854 261.106 436.194 257.441 436.194 257.441L429.976 258.904L425.546 253.775Z" fill="white"/>
</g>
<path d="M425.546 253.775C425.546 253.775 434.056 249.358 436.181 249.423C438.305 249.487 452.424 259.034 451.724 260.562C451.249 261.271 450.564 261.813 449.764 262.11C448.964 262.408 448.091 262.446 447.268 262.22C445.701 261.482 436.194 257.441 436.194 257.441L429.976 258.904L425.546 253.775Z" stroke="#263238" stroke-linecap="round" stroke-linejoin="round"/>
<path d="M419.471 246.508C419.471 246.508 430.818 246.145 433.072 247.285C435.326 248.425 445.507 265.886 443.978 267.155C442.45 268.425 438.227 268.049 438.357 266.637C438.486 265.225 428.979 255.873 428.979 255.873L421.583 254.254L419.471 246.508Z" fill="white"/>
<mask id="mask10_16_561" style="mask-type:luminance" maskUnits="userSpaceOnUse" x="419" y="246" width="26" height="22">
<path d="M419.471 246.508C419.471 246.508 430.818 246.145 433.072 247.285C435.326 248.425 445.507 265.886 443.978 267.155C442.45 268.425 438.227 268.049 438.357 266.637C438.486 265.225 428.979 255.873 428.979 255.873L421.583 254.254L419.471 246.508Z" fill="white"/>
</mask>
<g mask="url(#mask10_16_561)">
<path d="M419.471 246.508C419.471 246.508 430.818 246.145 433.072 247.285C435.326 248.425 445.507 265.886 443.978 267.155C442.45 268.425 438.227 268.049 438.357 266.637C438.486 265.225 428.979 255.873 428.979 255.873L421.583 254.254L419.471 246.508Z" fill="#3C6E71"/>
<path opacity="0.5" d="M419.471 246.508C419.471 246.508 430.818 246.145 433.072 247.285C435.326 248.425 445.507 265.886 443.978 267.155C442.45 268.425 438.227 268.049 438.357 266.637C438.486 265.225 428.979 255.873 428.979 255.873L421.583 254.254L419.471 246.508Z" fill="white"/>
</g>
<path d="M419.471 246.508C419.471 246.508 430.818 246.145 433.072 247.285C435.326 248.425 445.507 265.886 443.978 267.155C442.45 268.425 438.227 268.049 438.357 266.637C438.486 265.225 428.979 255.873 428.979 255.873L421.583 254.254L419.471 246.508Z" stroke="#263238" stroke-linecap="round" stroke-linejoin="round"/>
<path d="M412.749 244.164C412.749 244.164 424.238 243.788 426.518 244.954C428.797 246.12 439.108 263.775 437.554 265.07C435.999 266.365 431.751 265.964 431.88 264.539C432.01 263.114 422.386 253.645 422.386 253.645L414.899 252L412.749 244.164Z" fill="white"/>
<mask id="mask11_16_561" style="mask-type:luminance" maskUnits="userSpaceOnUse" x="412" y="244" width="26" height="22">
<path d="M412.749 244.164C412.749 244.164 424.238 243.788 426.518 244.954C428.797 246.12 439.108 263.775 437.554 265.07C435.999 266.365 431.751 265.964 431.88 264.539C432.01 263.114 422.386 253.645 422.386 253.645L414.899 252L412.749 244.164Z" fill="white"/>
</mask>
<g mask="url(#mask11_16_561)">
<path d="M412.749 244.164C412.749 244.164 424.238 243.788 426.518 244.954C428.797 246.12 439.108 263.775 437.554 265.07C435.999 266.365 431.751 265.964 431.88 264.539C432.01 263.114 422.386 253.645 422.386 253.645L414.899 252L412.749 244.164Z" fill="#3C6E71"/>
<path opacity="0.5" d="M412.749 244.164C412.749 244.164 424.238 243.788 426.518 244.954C428.797 246.12 439.108 263.775 437.554 265.07C435.999 266.365 431.751 265.964 431.88 264.539C432.01 263.114 422.386 253.645 422.386 253.645L414.899 252L412.749 244.164Z" fill="white"/>
</g>
<path d="M412.749 244.164C412.749 244.164 424.238 243.788 426.518 244.954C428.797 246.12 439.108 263.775 437.554 265.07C435.999 266.365 431.751 265.964 431.88 264.539C432.01 263.114 422.386 253.645 422.386 253.645L414.899 252L412.749 244.164Z" stroke="#263238" stroke-linecap="round" stroke-linejoin="round"/>
<path d="M282.117 178.336C290.433 191.147 307.129 223.607 312 227.26C319.603 232.959 370.431 246.793 375.327 250.575C380.224 254.358 379.887 258.153 384.524 259.539C389.161 260.925 406.544 264.902 413.176 265.523C419.808 266.145 416.842 262.039 416.842 262.039L405.534 254.267L415.391 251.832C415.391 251.832 425.274 263.723 427.127 264.37C428.979 265.018 432.243 264.37 432.036 262.907C431.673 260.562 421.129 241.379 417.386 240.563C413.643 239.747 390.923 242.894 390.923 242.894C390.923 242.894 343.268 210.758 342.413 209.618C342.413 209.618 339.564 201.535 337.232 198.206C334.901 194.877 333.424 195.836 333.424 195.836C333.424 195.836 334.383 191.548 332.958 190.123L325.354 182.52L325.082 182.883C323.787 180.292 322.492 177.339 321.067 173.971C317.09 164.606 303.01 138.324 300.64 134.529C298.865 131.692 283.995 129.658 276.456 128.803" fill="#3C6E71"/>
<mask id="mask12_16_561" style="mask-type:luminance" maskUnits="userSpaceOnUse" x="276" y="128" width="157" height="138">
<path d="M282.117 178.336C290.433 191.147 307.129 223.607 312 227.26C319.603 232.959 370.431 246.793 375.327 250.575C380.224 254.358 379.887 258.153 384.524 259.539C389.161 260.925 406.544 264.902 413.176 265.523C419.808 266.145 416.842 262.039 416.842 262.039L405.534 254.267L415.391 251.832C415.391 251.832 425.274 263.723 427.127 264.37C428.979 265.018 432.243 264.37 432.036 262.907C431.673 260.562 421.129 241.379 417.386 240.563C413.643 239.747 390.923 242.894 390.923 242.894C390.923 242.894 343.268 210.758 342.413 209.618C342.413 209.618 339.564 201.535 337.232 198.206C334.901 194.877 333.424 195.836 333.424 195.836C333.424 195.836 334.383 191.548 332.958 190.123L325.354 182.52L325.082 182.883C323.787 180.292 322.492 177.339 321.067 173.971C317.09 164.606 303.01 138.324 300.64 134.529C298.865 131.692 283.995 129.658 276.456 128.803" fill="white"/>
</mask>
<g mask="url(#mask12_16_561)">
<path opacity="0.16" d="M315.225 179.152C321.442 184.67 319.37 184.67 317.984 189.515C316.598 194.359 319.02 187.792 324.888 188.142C330.755 188.491 329.033 196.069 328.333 197.455C327.634 198.841 335.587 200.564 334.201 203.659C332.815 206.755 324.888 211.25 320.406 215.745C315.924 220.239 332.129 208.491 337.647 208.154C339.33 208.037 340.716 208.258 341.882 208.232C340.659 204.766 339.088 201.433 337.193 198.284C334.81 194.955 333.385 195.913 333.385 195.913C333.385 195.913 334.343 191.626 332.919 190.201L325.315 182.598L325.043 182.96C323.748 180.37 322.453 177.416 321.028 174.049C317.051 164.683 302.971 138.402 300.601 134.606C298.826 131.77 283.956 129.736 276.417 128.881L277.104 134.878L277.272 135.008C277.272 135.008 286.585 136.731 289.694 137.08C292.803 137.43 296.598 140.176 296.248 142.262C295.899 144.347 286.935 153.647 289.694 154.347C292.453 155.046 295.562 147.443 298.671 148.479C301.779 149.515 308.968 173.634 315.225 179.152Z" fill="black"/>
</g>
<path d="M282.117 178.336C290.433 191.147 307.129 223.607 312 227.26C319.603 232.959 370.431 246.793 375.327 250.575C380.224 254.358 379.887 258.153 384.524 259.539C389.161 260.925 406.544 264.902 413.176 265.523C419.808 266.145 416.842 262.039 416.842 262.039L405.534 254.267L415.391 251.832C415.391 251.832 425.274 263.723 427.127 264.37C428.979 265.018 432.243 264.37 432.036 262.907C431.673 260.562 421.129 241.379 417.386 240.563C413.643 239.747 390.923 242.894 390.923 242.894C390.923 242.894 343.268 210.758 342.413 209.618C342.413 209.618 339.564 201.535 337.232 198.206C334.901 194.877 333.424 195.836 333.424 195.836C333.424 195.836 334.383 191.548 332.958 190.123L325.354 182.52L325.082 182.883C323.787 180.292 322.492 177.339 321.067 173.971C317.09 164.606 303.01 138.324 300.64 134.529C298.865 131.692 283.995 129.658 276.456 128.803" stroke="#263238" stroke-linecap="round" stroke-linejoin="round"/>
<path d="M282.246 160.759C281.896 161.924 281.598 163.09 281.365 164.282" stroke="#263238" stroke-linecap="round" stroke-linejoin="round"/>
<path d="M294.837 139.321C290.766 143.961 287.334 149.123 284.63 154.671" stroke="#263238" stroke-linecap="round" stroke-linejoin="round"/>
<path d="M313.865 212.869C317.362 207.688 322.932 201.12 329.072 199.242" stroke="#263238" stroke-linecap="round" stroke-linejoin="round"/>
<path d="M309.992 219.242C309.992 219.242 310.613 218.024 311.727 216.185" stroke="#263238" stroke-linecap="round" stroke-linejoin="round"/>
<path d="M309.992 211.056C309.992 211.056 316.352 195.149 322.712 191.056C329.072 186.963 325.432 195.149 325.432 195.149" stroke="#263238" stroke-linecap="round" stroke-linejoin="round"/>
<path d="M375.327 250.588C380.237 254.384 379.887 258.166 384.524 259.552C389.161 260.938 406.544 264.915 413.176 265.536C419.808 266.158 416.842 262.052 416.842 262.052L405.534 254.28L415.391 251.845C415.391 251.845 425.274 263.736 427.127 264.383C428.979 265.031 432.502 265.264 432.036 262.92C431.129 258.386 421.129 241.392 417.386 240.576C413.643 239.76 390.923 242.907 390.923 242.907C390.923 242.907 347.517 213.115 342.763 209.89C324.331 211.664 315.562 221.314 311.87 227.104L312 227.208C319.603 232.959 370.431 246.793 375.327 250.588Z" fill="white"/>
<mask id="mask13_16_561" style="mask-type:luminance" maskUnits="userSpaceOnUse" x="311" y="209" width="122" height="57">
<path d="M375.327 250.588C380.237 254.384 379.887 258.166 384.524 259.552C389.161 260.938 406.544 264.915 413.176 265.536C419.808 266.158 416.842 262.052 416.842 262.052L405.534 254.28L415.391 251.845C415.391 251.845 425.274 263.736 427.127 264.383C428.979 265.031 432.502 265.264 432.036 262.92C431.129 258.386 421.129 241.392 417.386 240.576C413.643 239.76 390.923 242.907 390.923 242.907C390.923 242.907 347.517 213.115 342.763 209.89C324.331 211.664 315.562 221.314 311.87 227.104L312 227.208C319.603 232.959 370.431 246.793 375.327 250.588Z" fill="white"/>
</mask>
<g mask="url(#mask13_16_561)">
<path d="M432.023 262.972C429.665 257.207 421.116 241.443 417.373 240.627C413.63 239.811 390.91 242.959 390.91 242.959C390.91 242.959 347.504 213.167 342.75 209.942C337.912 210.362 333.165 211.511 328.67 213.348C335.522 217.234 381.195 243.14 386.959 244.293C393.073 245.588 413.474 242.234 417.062 244.643C419.342 246.171 426.129 256.935 430.715 264.578C432.023 264.383 432.502 264.137 432.023 262.972Z" fill="#3C6E71"/>
<path opacity="0.5" d="M432.023 262.972C428.344 254.72 421.116 241.443 417.373 240.627C413.63 239.811 390.91 242.959 390.91 242.959C390.91 242.959 347.504 213.167 342.75 209.942C337.912 210.362 333.165 211.511 328.67 213.348C335.522 217.234 381.195 243.14 386.959 244.293C393.073 245.588 413.474 242.234 417.062 244.643C419.342 246.171 426.129 256.935 430.715 264.578C432.023 264.383 432.541 264.124 432.023 262.972Z" fill="white"/>
</g>
<path d="M375.327 250.588C380.237 254.384 379.887 258.166 384.524 259.552C389.161 260.938 406.544 264.915 413.176 265.536C419.808 266.158 416.842 262.052 416.842 262.052L405.534 254.28L415.391 251.845C415.391 251.845 425.274 263.736 427.127 264.383C428.979 265.031 432.502 265.264 432.036 262.92C431.129 258.386 421.129 241.392 417.386 240.576C413.643 239.76 390.923 242.907 390.923 242.907C390.923 242.907 347.517 213.115 342.763 209.89C324.331 211.664 315.562 221.314 311.87 227.104L312 227.208C319.603 232.959 370.431 246.793 375.327 250.588Z" stroke="#263238" stroke-linecap="round" stroke-linejoin="round"/>
<path d="M260.848 24.4015L221.833 40.6835C221.36 47.5403 219.663 54.2569 216.82 60.5147C212.209 70.2684 214.903 88.7265 219.333 98.6875C223.763 108.648 243.284 104.75 250.421 103.506C255.261 102.585 260.002 101.201 264.578 99.374C266.662 100.177 268.916 100.437 271.127 100.128C273.339 99.8203 275.436 98.9544 277.221 97.6124C277.221 97.6124 256.34 38.9996 260.848 24.4015Z" fill="white"/>
<mask id="mask14_16_561" style="mask-type:luminance" maskUnits="userSpaceOnUse" x="214" y="24" width="64" height="82">
<path d="M260.848 24.4015L221.833 40.6835C221.36 47.5403 219.663 54.2569 216.82 60.5147C212.209 70.2684 214.903 88.7265 219.333 98.6875C223.763 108.648 243.284 104.75 250.421 103.506C255.261 102.585 260.002 101.201 264.578 99.374C266.662 100.177 268.916 100.437 271.127 100.128C273.339 99.8203 275.436 98.9544 277.221 97.6124C277.221 97.6124 256.34 38.9996 260.848 24.4015Z" fill="white"/>
</mask>
<g mask="url(#mask14_16_561)">
<path d="M260.848 24.4015L221.833 40.6835C221.36 47.5403 219.663 54.2568 216.82 60.5147C212.209 70.2684 214.903 88.7265 219.333 98.6875C220.075 100.289 221.268 101.64 222.766 102.573V101.822C222.766 101.822 215.525 83.8821 216.898 73.5326C218.271 63.1831 224.152 57.9888 224.838 51.4475C225.525 44.9062 225.175 41.7975 238.297 36.966C251.418 32.1345 256.923 27.6527 258.296 32.4713C259.669 37.2898 265.2 69.0508 268.995 76.6413C272.791 84.2318 272.441 92.185 266.586 95.6176C260.669 99.1697 254.328 101.964 247.713 103.933L250.472 103.454C255.313 102.533 260.054 101.15 264.63 99.3222C266.714 100.125 268.968 100.385 271.179 100.077C273.391 99.7685 275.488 98.9026 277.272 97.5605C277.272 97.5605 256.34 38.9996 260.848 24.4015Z" fill="#3C6E71"/>
<path opacity="0.5" d="M260.848 24.4015L221.833 40.6835C221.36 47.5403 219.663 54.2568 216.82 60.5147C212.209 70.2684 214.903 88.7265 219.333 98.6875C220.075 100.289 221.268 101.64 222.766 102.573V101.822C222.766 101.822 215.525 83.8821 216.898 73.5326C218.271 63.1831 224.152 57.9888 224.838 51.4475C225.525 44.9062 225.175 41.7975 238.297 36.966C251.418 32.1345 256.923 27.6527 258.296 32.4713C259.669 37.2898 265.2 69.0508 268.995 76.6413C272.791 84.2318 272.441 92.185 266.586 95.6176C260.669 99.1697 254.328 101.964 247.713 103.933L250.472 103.454C255.313 102.533 260.054 101.15 264.63 99.3222C266.714 100.125 268.968 100.385 271.179 100.077C273.391 99.7685 275.488 98.9026 277.272 97.5605C277.272 97.5605 256.34 38.9996 260.848 24.4015Z" fill="white"/>
</g>
<path d="M260.848 24.4015L221.833 40.6835C221.36 47.5403 219.663 54.2569 216.82 60.5147C212.209 70.2684 214.903 88.7265 219.333 98.6875C223.763 108.648 243.284 104.75 250.421 103.506C255.261 102.585 260.002 101.201 264.578 99.374C266.662 100.177 268.916 100.437 271.127 100.128C273.339 99.8203 275.436 98.9544 277.221 97.6124C277.221 97.6124 256.34 38.9996 260.848 24.4015Z" stroke="#263238" stroke-linecap="round" stroke-linejoin="round"/>
<path d="M241.133 49.932C241.239 52.2259 240.954 54.521 240.291 56.7194C239.255 59.3101 229.475 69.4912 229.773 70.5922C230.071 71.6932 230.952 75.2294 232.688 75.5662" stroke="#263238" stroke-linecap="round" stroke-linejoin="round"/>
<path d="M251.975 59.038C253.335 56.3179 257.804 58.9733 257.739 65.1001" stroke="#263238" stroke-linecap="round" stroke-linejoin="round"/>
<path d="M229.825 51.033C229.825 51.033 233.633 49.3621 237.04 55.5278" stroke="#263238" stroke-linecap="round" stroke-linejoin="round"/>
<path d="M246.561 68.0146C250.961 68.236 255.145 69.9913 258.387 72.9756" stroke="#263238" stroke-width="0.5" stroke-linecap="round" stroke-linejoin="round"/>
<path d="M225.227 59.9189C227.502 60.2226 229.725 60.8372 231.833 61.7453" stroke="#263238" stroke-width="0.5" stroke-linecap="round" stroke-linejoin="round"/>
<path d="M240.706 44.1809C239.7 43.6491 238.584 43.3582 237.447 43.3312C236.309 43.3043 235.181 43.5419 234.151 44.0255C230.667 45.6964 228.53 47.5357 228.763 45.3985C228.996 43.2612 233.089 40.9038 234.32 40.5929C235.55 40.282 241.055 39.4271 240.706 44.1809Z" fill="#263238"/>
<path d="M250.472 39.3494C254.103 42.2873 256.988 46.0423 258.892 50.3077C261.482 56.7843 263.529 49.7119 261.482 45.4762C259.436 41.2405 253.516 36.7329 250.472 39.3494Z" fill="#263238"/>
<path d="M277.79 108.687C277.79 111.705 276.08 114.153 273.982 114.153C271.884 114.153 270.187 111.705 270.187 108.687C270.187 105.669 271.884 97.988 273.982 97.988C276.08 97.988 277.79 105.669 277.79 108.687Z" fill="#3C6E71" stroke="#263238" stroke-linecap="round" stroke-linejoin="round"/>
<path d="M252.312 57.8593C252.163 58.2552 252.046 58.6624 251.962 59.0769C251.586 60.994 251.211 64.9965 251.962 65.1649C252.713 65.3333 254.552 61.5898 254.876 59.6727C254.949 59.2968 254.993 58.9156 255.006 58.5329C254.122 58.2557 253.222 58.0308 252.312 57.8593Z" fill="#263238"/>
<path d="M230.214 50.6574C230.099 50.996 230.008 51.3422 229.942 51.6937C229.553 53.6107 229.566 57.8205 230.382 57.9759C231.198 58.1314 232.532 54.1936 232.908 52.2766C233.002 51.8115 233.054 51.339 233.063 50.8647C232.136 50.6097 231.168 50.5393 230.214 50.6574Z" fill="#263238"/>
<path d="M251.975 59.1028L253.27 56.6936C255.324 57.0936 257.184 58.1698 258.555 59.7505" stroke="#263238" stroke-width="0.75" stroke-linecap="round" stroke-linejoin="round"/>
<path d="M230.214 50.6574L231.509 49.1419C231.509 49.1419 232.066 48.8699 235.123 50.2559" stroke="#263238" stroke-width="0.75" stroke-linecap="round" stroke-linejoin="round"/>
<path d="M225.304 85.7862C225.304 85.7862 227.481 81.7837 230.395 81.7837C233.309 81.7837 235.486 88.325 235.486 88.325" stroke="#263238" stroke-linecap="round" stroke-linejoin="round"/>
<path d="M131.511 258.399C128.695 258.259 125.928 257.6 123.351 256.456C122.991 256.323 122.663 256.119 122.385 255.855C122.107 255.591 121.886 255.273 121.735 254.921C121.584 254.569 121.506 254.19 121.506 253.806C121.507 253.423 121.585 253.044 121.736 252.692C121.887 252.34 122.109 252.023 122.387 251.759C122.665 251.495 122.994 251.291 123.353 251.158C123.713 251.026 124.095 250.968 124.478 250.988C124.861 251.008 125.235 251.106 125.579 251.275C128.169 252.376 131.524 253.062 132.418 252.674C134.063 250.835 136.589 239.721 133.325 234.358C132.586 233.167 131.9 232.946 131.446 232.894C129.594 232.635 126.848 234.54 125.877 235.485C125.606 235.74 125.288 235.94 124.941 236.072C124.593 236.204 124.223 236.267 123.851 236.256C123.48 236.245 123.114 236.161 122.774 236.009C122.435 235.857 122.129 235.639 121.874 235.369C121.619 235.098 121.42 234.78 121.287 234.432C121.155 234.085 121.093 233.715 121.103 233.343C121.114 232.971 121.198 232.606 121.35 232.266C121.503 231.927 121.72 231.621 121.991 231.366C122.496 230.874 127.172 226.664 132.159 227.338C133.396 227.518 134.574 227.981 135.603 228.691C136.632 229.401 137.484 230.339 138.091 231.431C142.897 239.267 139.607 254.176 135.915 257.13C134.632 258.037 133.08 258.485 131.511 258.399Z" fill="white"/>
<mask id="mask15_16_561" style="mask-type:luminance" maskUnits="userSpaceOnUse" x="121" y="227" width="20" height="32">
<path d="M131.511 258.399C128.695 258.259 125.928 257.6 123.351 256.456C122.991 256.323 122.663 256.119 122.385 255.855C122.107 255.591 121.886 255.273 121.735 254.921C121.584 254.569 121.506 254.19 121.506 253.806C121.507 253.423 121.585 253.044 121.736 252.692C121.887 252.34 122.109 252.023 122.387 251.759C122.665 251.495 122.994 251.291 123.353 251.158C123.713 251.026 124.095 250.968 124.478 250.988C124.861 251.008 125.235 251.106 125.579 251.275C128.169 252.376 131.524 253.062 132.418 252.674C134.063 250.835 136.589 239.721 133.325 234.358C132.586 233.167 131.9 232.946 131.446 232.894C129.594 232.635 126.848 234.54 125.877 235.485C125.606 235.74 125.288 235.94 124.941 236.072C124.593 236.204 124.223 236.267 123.851 236.256C123.48 236.245 123.114 236.161 122.774 236.009C122.435 235.857 122.129 235.639 121.874 235.369C121.619 235.098 121.42 234.78 121.287 234.432C121.155 234.085 121.093 233.715 121.103 233.343C121.114 232.971 121.198 232.606 121.35 232.266C121.503 231.927 121.72 231.621 121.991 231.366C122.496 230.874 127.172 226.664 132.159 227.338C133.396 227.518 134.574 227.981 135.603 228.691C136.632 229.401 137.484 230.339 138.091 231.431C142.897 239.267 139.607 254.176 135.915 257.13C134.632 258.037 133.08 258.485 131.511 258.399Z" fill="white"/>
</mask>
<g mask="url(#mask15_16_561)">
<path d="M135.306 233.503C134.967 232.699 134.435 231.99 133.757 231.439C133.08 230.888 132.277 230.511 131.421 230.343C128.182 229.825 125.138 233.076 124.802 233.438C124.492 233.811 124.301 234.268 124.252 234.751C124.204 235.233 124.3 235.719 124.53 236.146C125.039 236.043 125.51 235.801 125.89 235.446C126.861 234.539 129.607 232.635 131.459 232.856C131.913 232.856 132.599 233.128 133.338 234.319C136.602 239.63 134.076 250.796 132.431 252.635C131.537 253.024 128.195 252.337 125.592 251.236C125.271 251.101 124.929 251.027 124.581 251.016C124.605 251.371 124.717 251.714 124.907 252.015C125.097 252.316 125.359 252.565 125.669 252.739C127.307 253.613 129.114 254.126 130.967 254.241C132.025 254.292 133.06 253.93 133.856 253.231C136.291 250.99 138.441 239.526 135.306 233.503Z" fill="#3C6E71"/>
<path opacity="0.5" d="M135.306 233.503C134.967 232.699 134.435 231.99 133.757 231.439C133.08 230.888 132.277 230.511 131.421 230.343C128.182 229.825 125.138 233.076 124.802 233.438C124.492 233.811 124.301 234.268 124.252 234.751C124.204 235.233 124.3 235.719 124.53 236.146C125.039 236.043 125.51 235.801 125.89 235.446C126.861 234.539 129.607 232.635 131.459 232.856C131.913 232.856 132.599 233.128 133.338 234.319C136.602 239.63 134.076 250.796 132.431 252.635C131.537 253.024 128.195 252.337 125.592 251.236C125.271 251.101 124.929 251.027 124.581 251.016C124.605 251.371 124.717 251.714 124.907 252.015C125.097 252.316 125.359 252.565 125.669 252.739C127.307 253.613 129.114 254.126 130.967 254.241C132.025 254.292 133.06 253.93 133.856 253.231C136.291 250.99 138.441 239.526 135.306 233.503Z" fill="white"/>
</g>
<path d="M131.511 258.399C128.695 258.259 125.928 257.6 123.351 256.456C122.991 256.323 122.663 256.119 122.385 255.855C122.107 255.591 121.886 255.273 121.735 254.921C121.584 254.569 121.506 254.19 121.506 253.806C121.507 253.423 121.585 253.044 121.736 252.692C121.887 252.34 122.109 252.023 122.387 251.759C122.665 251.495 122.994 251.291 123.353 251.158C123.713 251.026 124.095 250.968 124.478 250.988C124.861 251.008 125.235 251.106 125.579 251.275C128.169 252.376 131.524 253.062 132.418 252.674C134.063 250.835 136.589 239.721 133.325 234.358C132.586 233.167 131.9 232.946 131.446 232.894C129.594 232.635 126.848 234.54 125.877 235.485C125.606 235.74 125.288 235.94 124.941 236.072C124.593 236.204 124.223 236.267 123.851 236.256C123.48 236.245 123.114 236.161 122.774 236.009C122.435 235.857 122.129 235.639 121.874 235.369C121.619 235.098 121.42 234.78 121.287 234.432C121.155 234.085 121.093 233.715 121.103 233.343C121.114 232.971 121.198 232.606 121.35 232.266C121.503 231.927 121.72 231.621 121.991 231.366C122.496 230.874 127.172 226.664 132.159 227.338C133.396 227.518 134.574 227.981 135.603 228.691C136.632 229.401 137.484 230.339 138.091 231.431C142.897 239.267 139.607 254.176 135.915 257.13C134.632 258.037 133.08 258.485 131.511 258.399Z" stroke="#263238" stroke-linecap="round" stroke-linejoin="round"/>
<path d="M126.563 224.98H95.4109V266.326H126.563V224.98Z" fill="white"/>
<mask id="mask16_16_561" style="mask-type:luminance" maskUnits="userSpaceOnUse" x="95" y="224" width="32" height="43">
<path d="M126.563 224.98H95.4109V266.326H126.563V224.98Z" fill="white"/>
</mask>
<g mask="url(#mask16_16_561)">
<path d="M108.17 224.98H95.4109V266.326H108.17V224.98Z" fill="#3C6E71"/>
<path opacity="0.5" d="M108.17 224.98H95.4109V266.326H108.17V224.98Z" fill="white"/>
</g>
<path d="M126.563 224.98H95.4109V266.326H126.563V224.98Z" stroke="#263238" stroke-linecap="round" stroke-linejoin="round"/>
<path d="M297.751 265.756H164.671L160.332 192.597C160.212 191.888 160.247 191.161 160.435 190.467C160.624 189.772 160.96 189.127 161.422 188.576C161.884 188.024 162.46 187.579 163.11 187.271C163.761 186.964 164.47 186.801 165.189 186.794H297.181C297.905 186.794 298.62 186.951 299.277 187.255C299.934 187.559 300.516 188.003 300.983 188.556C301.451 189.108 301.792 189.756 301.983 190.454C302.175 191.152 302.211 191.884 302.09 192.597L297.751 265.756Z" fill="#263238" stroke="#263238" stroke-linecap="round" stroke-linejoin="round"/>
<path d="M171.225 188.543H296.223C296.929 188.536 297.628 188.683 298.271 188.974C298.914 189.266 299.486 189.694 299.946 190.23C300.407 190.765 300.744 191.395 300.936 192.075C301.127 192.754 301.168 193.468 301.054 194.165" stroke="white" stroke-linecap="round" stroke-linejoin="round"/>
<path d="M161.303 193.012C161.407 191.788 161.969 190.648 162.877 189.819C163.784 188.991 164.971 188.535 166.199 188.543" stroke="white" stroke-linecap="round" stroke-linejoin="round"/>
<path d="M298.308 258.632H164.114V265.756H298.308V258.632Z" fill="white" stroke="#263238" stroke-linecap="round" stroke-linejoin="round"/>
<path d="M230.732 232.26C235.983 232.26 240.24 229.708 240.24 226.56C240.24 223.413 235.983 220.861 230.732 220.861C225.481 220.861 221.224 223.413 221.224 226.56C221.224 229.708 225.481 232.26 230.732 232.26Z" fill="white" stroke="#263238" stroke-linecap="round" stroke-linejoin="round"/>
<path d="M500.713 264.915H0.905029V277.052H500.713V264.915Z" fill="#263238"/>
</svg>
