<svg width="518" height="431" viewBox="0 0 518 431" fill="none" xmlns="http://www.w3.org/2000/svg">
<path d="M490.395 200.328C490.395 200.328 490.395 193.852 481.327 184.875C472.26 175.899 466.509 170.692 466.509 170.692C466.509 170.692 462.001 185.51 470.395 194.538C476.557 200.879 483.238 206.694 490.369 211.921L490.395 200.328Z" fill="#3C6E71"/>
<path d="M477.312 240.561C477.312 240.561 477.312 234.084 468.245 225.108C459.178 216.131 453.452 210.924 453.452 210.924C453.452 210.924 448.932 225.742 457.338 234.771C463.5 241.112 470.181 246.926 477.312 252.154V240.561Z" fill="#3C6E71"/>
<path d="M489.825 211.3C489.825 211.3 490.511 204.901 500.433 196.883C510.355 188.865 516.664 184.357 516.664 184.357C516.664 184.357 519.578 199.564 510.304 207.673C503.507 213.329 496.25 218.407 488.607 222.854L489.825 211.3Z" fill="#3C6E71"/>
<path d="M474.022 258.812C474.022 258.812 475.317 252.516 486.081 245.587C496.845 238.657 503.529 234.836 503.529 234.836C503.529 234.836 504.824 250.276 494.76 257.335C487.406 262.247 479.654 266.536 471.587 270.159L474.022 258.812Z" fill="#3C6E71"/>
<path d="M476.988 310.624C476.988 310.624 476.988 304.148 486.055 295.158C495.123 286.169 500.861 280.987 500.861 280.987C500.861 280.987 505.381 295.806 496.975 304.821C490.816 311.168 484.134 316.988 477.001 322.217L476.988 310.624Z" fill="#3C6E71"/>
<path d="M476.846 323.266C476.846 323.266 477.753 316.893 470.11 306.686C462.468 296.479 457.455 290.547 457.455 290.547C457.455 290.547 450.888 304.575 457.896 314.691C463.09 321.846 468.875 328.553 475.188 334.743L476.846 323.266Z" fill="#3C6E71"/>
<path d="M467.947 360.74C467.947 360.74 467.947 354.263 477.014 345.287C486.081 336.31 491.833 331.103 491.833 331.103C491.833 331.103 496.34 345.921 487.947 354.95C481.783 361.293 475.102 367.111 467.973 372.346L467.947 360.74Z" fill="#3C6E71"/>
<path d="M473.97 394.716C473.97 394.716 472.338 388.485 478.776 377.475C485.213 366.465 489.527 360.014 489.527 360.014C489.527 360.014 497.635 373.2 491.82 384.055C487.469 391.751 482.482 399.069 476.91 405.933L473.97 394.716Z" fill="#3C6E71"/>
<path d="M491.211 198.683C490.757 205.39 489.936 212.067 488.75 218.683C485.175 237.102 476.263 248.993 472.701 265.625C469.139 282.257 479.372 303.694 476.587 325.067C473.802 346.439 465.538 358.317 467.908 372.579C470.279 386.84 482.765 425.466 482.765 425.466" stroke="#263238" stroke-linecap="round" stroke-linejoin="round"/>
<path d="M489.747 215.587L499.462 208.126" stroke="#263238" stroke-linecap="round" stroke-linejoin="round"/>
<path d="M490.201 206.999L486.12 199.759" stroke="#263238" stroke-linecap="round" stroke-linejoin="round"/>
<path d="M473.245 264.861C473.245 264.861 481.379 258.76 489.747 252.659" stroke="#263238" stroke-linecap="round" stroke-linejoin="round"/>
<path d="M477.312 252.154C477.312 252.154 470.525 238.864 462.844 230.056" stroke="#263238" stroke-linecap="round" stroke-linejoin="round"/>
<path d="M477.312 319.795C481.953 311.219 487.817 303.365 494.721 296.479" stroke="#263238" stroke-linecap="round" stroke-linejoin="round"/>
<path d="M475.732 328.836C473.264 323.021 470.313 317.423 466.911 312.101C462.17 305.093 461.484 304.186 461.484 304.186" stroke="#263238" stroke-linecap="round" stroke-linejoin="round"/>
<path d="M467.947 372.579C470.012 367.473 472.463 362.533 475.278 357.799C478.096 353.4 481.271 349.241 484.773 345.364" stroke="#263238" stroke-linecap="round" stroke-linejoin="round"/>
<path d="M476.911 405.933C476.438 401.051 477.279 396.132 479.346 391.685C482.739 385.13 486.574 376.542 488.154 373.149" stroke="#263238" stroke-linecap="round" stroke-linejoin="round"/>
<path d="M416.795 286.402C416.795 286.402 416.096 282.36 420.772 275.715C425.448 269.071 428.544 265.223 428.544 265.223C428.544 265.223 432.974 274.032 428.699 280.586C425.524 285.235 421.967 289.611 418.065 293.668L416.795 286.402Z" fill="#3C6E71"/>
<path d="M429.373 310.21C429.373 310.21 428.673 306.168 433.349 299.523C438.025 292.878 441.121 289.031 441.121 289.031C441.121 289.031 445.551 297.839 441.276 304.407C438.099 309.05 434.542 313.422 430.642 317.476L429.373 310.21Z" fill="#3C6E71"/>
<path d="M418.337 293.215C418.337 293.215 417.223 289.329 410.124 285.327C403.026 281.324 398.596 279.226 398.596 279.226C398.596 279.226 398.415 289.083 405.073 293.15C409.947 295.956 415.047 298.352 420.319 300.313L418.337 293.215Z" fill="#3C6E71"/>
<path d="M433.414 321.297C433.414 321.297 431.886 317.489 424.425 314.303C416.964 311.116 412.301 309.458 412.301 309.458C412.301 309.458 413.155 319.277 420.254 322.619C425.397 324.898 430.722 326.743 436.173 328.137L433.414 321.297Z" fill="#3C6E71"/>
<path d="M437.17 354.108C437.17 354.108 436.484 350.066 429.839 345.39C423.194 340.714 419.01 338.111 419.01 338.111C419.01 338.111 417.793 347.89 424.023 352.631C428.574 355.945 433.397 358.87 438.44 361.374L437.17 354.108Z" fill="#3C6E71"/>
<path d="M438.647 362.022C438.647 362.022 437.352 358.136 441.069 350.882C444.787 343.629 447.248 339.393 447.248 339.393C447.248 339.393 452.883 347.476 449.593 354.587C447.114 359.635 444.215 364.467 440.927 369.03L438.647 362.022Z" fill="#3C6E71"/>
<path d="M449.968 394.599C449.968 394.599 450.434 390.532 456.794 385.532C463.154 380.532 467.157 377.643 467.157 377.643C467.157 377.643 468.931 387.345 462.986 392.436C458.631 395.999 453.987 399.192 449.1 401.982L449.968 394.599Z" fill="#3C6E71"/>
<path d="M448.271 384.547C448.271 384.547 447.572 380.506 440.94 375.83C434.308 371.154 430.137 368.55 430.137 368.55C430.137 368.55 428.919 378.33 435.15 383.084C439.705 386.393 444.527 389.317 449.567 391.827L448.271 384.547Z" fill="#3C6E71"/>
<path d="M448.271 406.516C448.271 406.516 448.608 402.423 443.375 396.218C438.142 390.014 434.748 386.438 434.748 386.438C434.748 386.438 431.082 395.583 435.914 401.762C439.455 406.113 443.355 410.16 447.572 413.86L448.271 406.516Z" fill="#3C6E71"/>
<path d="M416.109 285.443C417.122 289.601 418.363 293.701 419.826 297.723C424.062 308.888 430.94 315.378 434.982 325.416C439.023 335.455 434.982 350.027 438.971 363.123C442.961 376.218 449.567 382.773 449.567 391.969C449.567 401.166 445.992 426.749 445.992 426.749" stroke="#263238" stroke-linecap="round" stroke-linejoin="round"/>
<path d="M418.868 295.883L411.964 292.27" stroke="#263238" stroke-linecap="round" stroke-linejoin="round"/>
<path d="M417.65 290.547L419.412 285.573" stroke="#263238" stroke-linecap="round" stroke-linejoin="round"/>
<path d="M434.554 325.002C434.554 325.002 428.79 322.062 422.896 319.134" stroke="#263238" stroke-linecap="round" stroke-linejoin="round"/>
<path d="M430.629 317.476C432.328 312.139 434.563 306.988 437.3 302.101" stroke="#263238" stroke-linecap="round" stroke-linejoin="round"/>
<path d="M437.974 359.885C434.13 355.021 429.601 350.741 424.528 347.178" stroke="#263238" stroke-linecap="round" stroke-linejoin="round"/>
<path d="M439.942 365.377C440.864 361.468 442.108 357.643 443.66 353.939C445.875 349.03 446.251 348.382 446.251 348.382" stroke="#263238" stroke-linecap="round" stroke-linejoin="round"/>
<path d="M449.256 398.951C451.502 396.168 453.99 393.589 456.691 391.244C458.409 389.979 460.021 388.575 461.509 387.047" stroke="#263238" stroke-linecap="round" stroke-linejoin="round"/>
<path d="M449.567 391.969C447.716 388.984 445.642 386.144 443.362 383.472C441.117 381.021 438.673 378.76 436.057 376.711" stroke="#263238" stroke-linecap="round" stroke-linejoin="round"/>
<path d="M447.572 413.86C447.34 410.745 446.28 407.749 444.502 405.182C441.665 401.438 438.323 396.464 436.963 394.508" stroke="#263238" stroke-linecap="round" stroke-linejoin="round"/>
<path d="M48.8885 229.978L43.2151 213.774L48.8885 220.652L44.4327 196.339L51.3237 213.774L53.7589 179.72L57.8132 212.142L62.2691 205.665V213.774L67.541 202.828L64.7043 221.869L69.5617 218.631L61.8675 229.162L48.8885 229.978Z" fill="#3C6E71"/>
<path d="M66.7248 225.924H45.6501L49.4454 268.475H62.9296L66.7248 225.924Z" fill="#263238" stroke="#263238" stroke-linecap="round" stroke-linejoin="round"/>
<path d="M106.258 267.995H34.4587V420.065H106.258V267.995Z" fill="white" stroke="#263238" stroke-linecap="round" stroke-linejoin="round"/>
<path d="M110.183 267.995H70.3518V420.065H110.183V267.995Z" fill="white" stroke="#263238" stroke-linecap="round" stroke-linejoin="round"/>
<path d="M105.701 267.995H70.3518V420.065H105.701V267.995Z" fill="#263238" stroke="#263238" stroke-linecap="round" stroke-linejoin="round"/>
<path d="M101.724 384.703H70.3518V415.842H101.724V384.703Z" fill="#3C6E71" stroke="#263238" stroke-linecap="round" stroke-linejoin="round"/>
<path d="M101.724 386.387H70.3518V390.376H101.724V386.387Z" fill="white" stroke="#263238" stroke-linecap="round" stroke-linejoin="round"/>
<path d="M101.724 409.314H70.3518V413.303H101.724V409.314Z" fill="white" stroke="#263238" stroke-linecap="round" stroke-linejoin="round"/>
<path d="M76.2971 385.35V424.728" stroke="#263238" stroke-linecap="round" stroke-linejoin="round"/>
<path d="M87.2427 385.35V424.728" stroke="#263238" stroke-linecap="round" stroke-linejoin="round"/>
<path d="M96.8538 385.35V424.728" stroke="#263238" stroke-linecap="round" stroke-linejoin="round"/>
<path d="M101.724 273.643H70.3518V319.432H101.724V273.643Z" fill="#3C6E71" stroke="#263238" stroke-linecap="round" stroke-linejoin="round"/>
<path d="M101.724 275.56H70.3518V280.094H101.724V275.56Z" fill="white" stroke="#263238" stroke-linecap="round" stroke-linejoin="round"/>
<path d="M101.724 304.912H70.3518V309.445H101.724V304.912Z" fill="white" stroke="#263238" stroke-linecap="round" stroke-linejoin="round"/>
<path d="M76.2971 274.368V319.121" stroke="#263238" stroke-linecap="round" stroke-linejoin="round"/>
<path d="M87.2427 274.368V319.121" stroke="#263238" stroke-linecap="round" stroke-linejoin="round"/>
<path d="M96.8538 274.368V319.121" stroke="#263238" stroke-linecap="round" stroke-linejoin="round"/>
<path d="M101.724 328.823H70.3518V374.612H101.724V328.823Z" fill="#3C6E71" stroke="#263238" stroke-linecap="round" stroke-linejoin="round"/>
<path d="M101.724 330.74H70.3518V335.274H101.724V330.74Z" fill="white" stroke="#263238" stroke-linecap="round" stroke-linejoin="round"/>
<path d="M101.724 360.092H70.3518V364.625H101.724V360.092Z" fill="white" stroke="#263238" stroke-linecap="round" stroke-linejoin="round"/>
<path d="M76.2971 329.561V374.301" stroke="#263238" stroke-linecap="round" stroke-linejoin="round"/>
<path d="M87.2427 329.561V374.301" stroke="#263238" stroke-linecap="round" stroke-linejoin="round"/>
<path d="M96.8538 329.561V374.301" stroke="#263238" stroke-linecap="round" stroke-linejoin="round"/>
<path d="M106.245 318.797H70.3518V324.005H106.245V318.797Z" fill="white" stroke="#263238" stroke-linecap="round" stroke-linejoin="round"/>
<path d="M106.245 374.327H70.3518V379.535H106.245V374.327Z" fill="white" stroke="#263238" stroke-linecap="round" stroke-linejoin="round"/>
<path d="M106.245 267.995V420.052" stroke="#263238" stroke-linecap="round" stroke-linejoin="round"/>
<path d="M65.2874 267.995V420.052H70.352V273.643H105.623V267.931L65.2874 267.995Z" fill="white" stroke="#263238" stroke-linecap="round" stroke-linejoin="round"/>
<path d="M70.3518 273.643V267.995" stroke="#263238" stroke-linecap="round" stroke-linejoin="round"/>
<path d="M105.973 198.139C102.203 190.873 100.623 185.666 100.623 184.461C100.623 182.078 105.804 180.653 105.804 180.653C113.887 176.378 151.904 182.557 169.015 185.406C178.594 187.076 188.284 188.029 198.004 188.256C198.004 188.256 200.375 186.365 203.186 183.982C205.996 181.598 219.338 165.925 224.571 164.552C229.804 163.179 234.545 166.456 234.545 166.456C234.545 166.456 243.107 171.637 241.669 172.635C240.231 173.632 219.338 191.637 214.105 194.966C208.872 198.295 197.953 196.87 188.445 198.774C180.259 200.406 147.099 202.427 139.495 203.049C133.785 204.403 127.792 203.904 122.384 201.624" fill="white"/>
<mask id="mask0_16_561" style="mask-type:luminance" maskUnits="userSpaceOnUse" x="100" y="164" width="142" height="40">
<path d="M105.973 198.139C102.203 190.873 100.623 185.666 100.623 184.461C100.623 182.078 105.804 180.653 105.804 180.653C113.887 176.378 151.904 182.557 169.015 185.406C178.594 187.076 188.284 188.029 198.004 188.256C198.004 188.256 200.375 186.365 203.186 183.982C205.996 181.598 219.338 165.925 224.571 164.552C229.804 163.179 234.545 166.456 234.545 166.456C234.545 166.456 243.107 171.637 241.669 172.635C240.231 173.632 219.338 191.637 214.105 194.966C208.872 198.295 197.953 196.87 188.445 198.774C180.259 200.406 147.099 202.427 139.495 203.049C133.785 204.403 127.792 203.904 122.384 201.624" fill="white"/>
</mask>
<g mask="url(#mask0_16_561)">
<path d="M234.636 166.404C234.636 166.404 229.882 163.075 224.662 164.5C219.442 165.925 206.126 181.611 203.276 183.93C200.427 186.248 198.095 188.204 198.095 188.204C188.375 187.977 178.685 187.025 169.106 185.355C151.995 182.505 113.978 176.288 105.895 180.601C105.895 180.601 100.714 182.026 100.714 184.409C100.894 185.742 101.238 187.047 101.737 188.295L102.45 188.554C102.45 188.554 111.944 187.557 132.436 188.049C152.928 188.541 200.323 191.352 203.367 192.453C204.662 192.945 213.846 190.873 224.027 187.272C231.799 180.938 240.931 173.023 241.851 172.466C243.198 171.624 234.636 166.404 234.636 166.404Z" fill="#3C6E71"/>
<path opacity="0.5" d="M234.636 166.404C234.636 166.404 229.882 163.075 224.662 164.5C219.442 165.925 206.126 181.611 203.276 183.93C200.427 186.248 198.095 188.204 198.095 188.204C188.375 187.977 178.685 187.025 169.106 185.355C151.995 182.505 113.978 176.288 105.895 180.601C105.895 180.601 100.714 182.026 100.714 184.409C100.894 185.742 101.238 187.047 101.737 188.295L102.45 188.554C102.45 188.554 111.944 187.557 132.436 188.049C152.928 188.541 200.323 191.352 203.367 192.453C204.662 192.945 213.846 190.873 224.027 187.272C231.799 180.938 240.931 173.023 241.851 172.466C243.198 171.624 234.636 166.404 234.636 166.404Z" fill="white"/>
</g>
<path d="M105.973 198.139C102.203 190.873 100.623 185.666 100.623 184.461C100.623 182.078 105.804 180.653 105.804 180.653C113.887 176.378 151.904 182.557 169.015 185.406C178.594 187.076 188.284 188.029 198.004 188.256C198.004 188.256 200.375 186.365 203.186 183.982C205.996 181.598 219.338 165.925 224.571 164.552C229.804 163.179 234.545 166.456 234.545 166.456C234.545 166.456 243.107 171.637 241.669 172.635C240.231 173.632 219.338 191.637 214.105 194.966C208.872 198.295 197.953 196.87 188.445 198.774C180.259 200.406 147.099 202.427 139.495 203.049C133.785 204.403 127.792 203.904 122.384 201.624" stroke="#263238" stroke-linecap="round" stroke-linejoin="round"/>
<path d="M293.676 240.392C294.536 238.76 295.825 237.395 297.405 236.443C298.985 235.491 300.795 234.989 302.64 234.991H389.037C389.037 234.991 395.28 234.991 393.415 246.856C391.55 258.721 365.928 331.168 359.737 353.071C353.545 374.975 352.237 421.14 352.237 421.14H248.612C248.612 421.14 256.825 310.741 293.676 240.392Z" fill="white"/>
<mask id="mask1_16_561" style="mask-type:luminance" maskUnits="userSpaceOnUse" x="248" y="234" width="146" height="188">
<path d="M293.676 240.392C294.536 238.76 295.825 237.395 297.405 236.443C298.985 235.491 300.795 234.989 302.64 234.991H389.037C389.037 234.991 395.28 234.991 393.415 246.856C391.55 258.721 365.928 331.168 359.737 353.071C353.545 374.975 352.237 421.14 352.237 421.14H248.612C248.612 421.14 256.825 310.741 293.676 240.392Z" fill="white"/>
</mask>
<g mask="url(#mask1_16_561)">
<path opacity="0.16" d="M332.587 234.991H302.64C300.795 234.989 298.985 235.491 297.405 236.443C295.825 237.395 294.536 238.76 293.676 240.392C256.825 310.741 248.522 421.101 248.522 421.101H294.997L306.461 377.566L354.258 387.423C354.595 383.77 354.983 380.053 355.437 376.387L354.387 364.729C354.387 364.729 344.595 354.431 341.512 351.854C338.429 349.276 340.476 344.626 339.958 324.536C339.439 304.445 321.409 290.003 314.699 277.633C307.989 265.262 318.313 257.529 327.587 245.159C330.89 240.69 332.238 237.4 332.587 234.991Z" fill="black"/>
</g>
<path d="M293.676 240.392C294.536 238.76 295.825 237.395 297.405 236.443C298.985 235.491 300.795 234.989 302.64 234.991H389.037C389.037 234.991 395.28 234.991 393.415 246.856C391.55 258.721 365.928 331.168 359.737 353.071C353.545 374.975 352.237 421.14 352.237 421.14H248.612C248.612 421.14 256.825 310.741 293.676 240.392Z" stroke="#263238" stroke-linecap="round" stroke-linejoin="round"/>
<path d="M374.05 255.599C365.32 275.975 346.849 356.633 343.844 421.101H352.185C352.185 421.101 353.481 374.884 359.685 353.032C365.89 331.181 391.537 258.721 393.363 246.817C395.19 234.913 388.985 234.952 388.985 234.952C388.985 234.952 381.058 239.265 374.05 255.599Z" fill="#263238" stroke="#263238" stroke-linecap="round" stroke-linejoin="round"/>
<path d="M222.279 214.875C222.279 214.875 208.497 206.792 203.277 192.544C198.056 178.295 244.144 155.472 264.156 154.047C284.169 152.622 289.816 157.842 301.72 178.282C313.624 198.722 321.681 226.753 315.502 240.535C309.324 254.317 298.87 257.646 306.435 269.032C314 280.417 335.424 312.748 333.999 327.955C332.574 343.162 317.847 356.452 296.435 357.903C275.024 359.354 246.527 346.491 222.771 325.52C199.015 304.549 205.181 273.708 213.704 263.734C222.227 253.76 235.089 249.952 236.035 239.978C236.981 230.004 222.279 214.875 222.279 214.875Z" fill="#263238" stroke="#263238" stroke-linecap="round" stroke-linejoin="round"/>
<path d="M281.021 192.323C288.339 205.95 297.497 224.201 300.36 235.224C305.36 254.524 279.635 266.674 286.772 275.962" stroke="white" stroke-linecap="round" stroke-linejoin="round"/>
<path d="M271.047 174.474C271.047 174.474 273.897 179.332 277.835 186.482" stroke="white" stroke-linecap="round" stroke-linejoin="round"/>
<path d="M309.44 208.761C310.284 211.315 310.832 213.957 311.072 216.636" stroke="white" stroke-linecap="round" stroke-linejoin="round"/>
<path d="M275.995 167.389C275.995 167.389 298.508 184.021 307.497 203.929" stroke="white" stroke-linecap="round" stroke-linejoin="round"/>
<path d="M244.752 179.863C228.678 184.37 205.556 191.689 207.434 195.911" stroke="white" stroke-linecap="round" stroke-linejoin="round"/>
<path d="M259.609 175.899C259.609 175.899 256.177 176.754 251.06 178.127" stroke="white" stroke-linecap="round" stroke-linejoin="round"/>
<path d="M239.726 167.505C248.934 164.603 258.578 163.332 268.223 163.749" stroke="white" stroke-linecap="round" stroke-linejoin="round"/>
<path d="M233.172 170.187C234.628 169.428 236.134 168.77 237.68 168.218" stroke="white" stroke-linecap="round" stroke-linejoin="round"/>
<path d="M105.973 198.139C103.791 194.144 102.054 189.922 100.791 185.549C102.048 189.924 103.785 194.147 105.973 198.139ZM100.649 184.811C100.649 184.888 100.649 184.979 100.649 185.096C100.675 184.979 100.662 184.888 100.649 184.811ZM105.973 198.126C110.817 207.302 116.844 215.803 123.9 223.411C141.011 241.947 190.44 290.43 195.142 293.759C199.844 297.088 198.471 306.583 195.142 316.09C191.813 325.598 179.456 339.406 179.935 354.587C180.414 369.768 185.116 393.083 184.689 397.837C184.261 402.591 172.37 418.756 172.37 418.756H294.984C294.984 418.756 279.7 399.327 279.7 392.682C279.7 386.037 300.684 300.896 301.629 294.718C302.575 288.539 298.779 284.264 291.176 283.785C283.573 283.306 254.583 277.127 253.159 272.374C251.734 267.62 260.762 249.563 260.762 249.563L232.265 250.988C232.265 250.988 230.84 263.345 228.936 265.729C227.032 268.112 224.183 263.345 217.525 260.029C210.867 256.713 198.095 253.851 193.289 250.042C188.484 246.234 142.915 203.411 142.915 203.411" fill="white"/>
<mask id="mask2_16_561" style="mask-type:luminance" maskUnits="userSpaceOnUse" x="100" y="184" width="202" height="235">
<path d="M105.973 198.139C103.791 194.144 102.054 189.922 100.791 185.549C102.048 189.924 103.785 194.147 105.973 198.139ZM100.649 184.811C100.649 184.888 100.649 184.979 100.649 185.096C100.675 184.979 100.662 184.888 100.649 184.811ZM105.973 198.126C110.817 207.302 116.844 215.803 123.9 223.411C141.011 241.947 190.44 290.43 195.142 293.759C199.844 297.088 198.471 306.583 195.142 316.09C191.813 325.598 179.456 339.406 179.935 354.587C180.414 369.768 185.116 393.083 184.689 397.837C184.261 402.591 172.37 418.756 172.37 418.756H294.984C294.984 418.756 279.7 399.327 279.7 392.682C279.7 386.037 300.684 300.896 301.629 294.718C302.575 288.539 298.779 284.264 291.176 283.785C283.573 283.306 254.583 277.127 253.159 272.374C251.734 267.62 260.762 249.563 260.762 249.563L232.265 250.988C232.265 250.988 230.84 263.345 228.936 265.729C227.032 268.112 224.183 263.345 217.525 260.029C210.867 256.713 198.095 253.851 193.289 250.042C188.484 246.234 142.915 203.411 142.915 203.411" fill="white"/>
</mask>
<g mask="url(#mask2_16_561)">
<path d="M200.569 253.708C202.94 257.853 205.31 261.597 205.31 261.597C205.31 261.597 213.302 266.091 215.297 266.091C217.292 266.091 229.286 272.568 229.286 272.568C229.286 272.568 239.286 270.068 235.763 261.571C234.651 259.395 233.248 257.382 231.592 255.586C230.996 259.356 230.038 264.291 228.911 265.703C227.007 268.073 224.157 263.319 217.499 260.003C213.186 257.853 206.204 255.884 200.569 253.708Z" fill="#3C6E71"/>
<path d="M176.166 234.473C161.49 220.885 142.915 203.463 142.915 203.463L132.112 201.909L130.817 202.634C130.817 202.634 161.308 229.615 167.798 232.621C170.423 233.827 173.276 234.459 176.166 234.473Z" fill="#3C6E71"/>
<path d="M191.541 248.54L190.375 247.504C190.971 248.488 191.308 249.11 191.308 249.11L191.541 248.54Z" fill="#3C6E71"/>
<g opacity="0.5">
<path d="M200.569 253.708C202.94 257.853 205.31 261.597 205.31 261.597C205.31 261.597 213.302 266.091 215.297 266.091C217.292 266.091 229.286 272.568 229.286 272.568C229.286 272.568 239.286 270.068 235.763 261.571C234.651 259.395 233.248 257.382 231.592 255.586C230.996 259.356 230.038 264.291 228.911 265.703C227.007 268.073 224.157 263.319 217.499 260.003C213.186 257.853 206.204 255.884 200.569 253.708Z" fill="white"/>
<path d="M176.166 234.473C161.49 220.885 142.915 203.463 142.915 203.463L132.112 201.909L130.817 202.634C130.817 202.634 161.308 229.615 167.798 232.621C170.423 233.827 173.276 234.459 176.166 234.473Z" fill="white"/>
<path d="M191.541 248.54L190.375 247.504C190.971 248.488 191.308 249.11 191.308 249.11L191.541 248.54Z" fill="white"/>
</g>
</g>
<path d="M100.623 184.461C100.617 184.551 100.617 184.642 100.623 184.733M100.791 185.549C102.054 189.922 103.791 194.144 105.973 198.139C103.785 194.147 102.048 189.924 100.791 185.549ZM100.791 185.549C100.756 185.426 100.73 185.3 100.714 185.173M105.973 198.126C110.817 207.302 116.844 215.803 123.9 223.411C141.011 241.947 190.44 290.43 195.142 293.759C199.844 297.088 198.471 306.583 195.142 316.09C191.813 325.598 179.456 339.406 179.935 354.587C180.414 369.768 185.116 393.083 184.689 397.837C184.261 402.591 172.37 418.756 172.37 418.756H294.984C294.984 418.756 279.7 399.327 279.7 392.682C279.7 386.037 300.684 300.896 301.629 294.718C302.575 288.539 298.779 284.264 291.176 283.785C283.573 283.306 254.584 277.127 253.159 272.374C251.734 267.62 260.762 249.563 260.762 249.563L232.265 250.988C232.265 250.988 230.84 263.345 228.936 265.729C227.032 268.112 224.183 263.345 217.525 260.029C210.867 256.713 198.095 253.851 193.289 250.042C188.484 246.234 142.915 203.411 142.915 203.411M100.649 184.811C100.649 184.888 100.649 184.979 100.649 185.096C100.675 184.979 100.662 184.888 100.649 184.811Z" stroke="#263238" stroke-linecap="round" stroke-linejoin="round"/>
<path d="M142.915 203.463C142.915 203.463 127.734 203.748 119.263 196.766" stroke="#263238" stroke-linecap="round" stroke-linejoin="round"/>
<path d="M253.172 272.374C251.747 267.633 260.775 249.563 260.775 249.563L232.279 250.988C232.279 250.988 230.854 263.345 228.95 265.729C227.046 268.112 224.196 263.345 217.538 260.029C217.033 259.77 216.476 259.524 215.906 259.278L214.183 286.363C214.183 286.363 216.683 312.593 246.657 307.606C258.794 305.585 271.747 294.757 282.925 282.581C271.423 280.469 254.26 276.013 253.172 272.374Z" fill="white"/>
<mask id="mask3_16_561" style="mask-type:luminance" maskUnits="userSpaceOnUse" x="214" y="249" width="69" height="60">
<path d="M253.172 272.374C251.747 267.633 260.775 249.563 260.775 249.563L232.279 250.988C232.279 250.988 230.854 263.345 228.95 265.729C227.046 268.112 224.196 263.345 217.538 260.029C217.033 259.77 216.476 259.524 215.906 259.278L214.183 286.363C214.183 286.363 216.683 312.593 246.657 307.606C258.794 305.585 271.747 294.757 282.925 282.581C271.423 280.469 254.26 276.013 253.172 272.374Z" fill="white"/>
</mask>
<g mask="url(#mask3_16_561)">
<path d="M252.369 253.151C252.369 253.151 250.646 262.814 249.26 273.501C247.874 284.187 246.851 292.14 246.851 292.14L253.172 272.374L260.296 251.428C260.296 251.428 253.405 251.428 252.369 253.151Z" fill="#3C6E71"/>
<path opacity="0.5" d="M252.369 253.151C252.369 253.151 250.646 262.814 249.26 273.501C247.874 284.187 246.851 292.14 246.851 292.14L253.172 272.374L260.296 251.428C260.296 251.428 253.405 251.428 252.369 253.151Z" fill="white"/>
</g>
<path d="M253.172 272.374C251.747 267.633 260.775 249.563 260.775 249.563L232.279 250.988C232.279 250.988 230.854 263.345 228.95 265.729C227.046 268.112 224.196 263.345 217.538 260.029C217.033 259.77 216.476 259.524 215.906 259.278L214.183 286.363C214.183 286.363 216.683 312.593 246.657 307.606C258.794 305.585 271.747 294.757 282.925 282.581C271.423 280.469 254.26 276.013 253.172 272.374Z" stroke="#263238" stroke-linecap="round" stroke-linejoin="round"/>
<path d="M228.936 265.729C227.032 268.099 224.183 263.345 217.525 260.029C213.328 257.918 206.644 256.001 201.113 253.928C199.546 250.211 197.473 245.366 196.139 242.439C193.769 237.258 189.961 240.535 189.961 240.535C187.974 238.275 186.368 235.707 185.207 232.931C182.836 227.75 179.028 228.178 173.808 227.232C168.588 226.286 157.643 216.3 157.643 216.3C157.643 216.3 152.526 212.414 150.415 210.484C147.954 215.328 142.06 223.851 129.314 229.175C149.638 250.405 190.867 290.741 195.194 293.772C199.947 297.088 198.523 306.596 195.194 316.103C191.865 325.611 179.507 339.419 179.987 354.6C180.466 369.781 185.168 393.096 184.74 397.85C184.313 402.086 174.831 415.363 172.772 418.212L177.603 418.756H202.758C202.616 406.011 202.629 353.991 211.346 333.266C221.333 309.445 228.936 265.729 228.936 265.729Z" fill="#3C6E71"/>
<mask id="mask4_16_561" style="mask-type:luminance" maskUnits="userSpaceOnUse" x="129" y="210" width="100" height="209">
<path d="M228.936 265.729C227.032 268.099 224.183 263.345 217.525 260.029C213.328 257.918 206.644 256.001 201.113 253.928C199.546 250.211 197.473 245.366 196.139 242.439C193.769 237.258 189.961 240.535 189.961 240.535C187.974 238.275 186.368 235.707 185.207 232.931C182.836 227.75 179.028 228.178 173.808 227.232C168.588 226.286 157.643 216.3 157.643 216.3C157.643 216.3 152.526 212.414 150.415 210.484C147.954 215.328 142.06 223.851 129.314 229.175C149.638 250.405 190.867 290.741 195.194 293.772C199.947 297.088 198.523 306.596 195.194 316.103C191.865 325.611 179.507 339.419 179.987 354.6C180.466 369.781 185.168 393.096 184.74 397.85C184.313 402.086 174.831 415.363 172.772 418.212L177.603 418.756H202.758C202.616 406.011 202.629 353.991 211.346 333.266C221.333 309.445 228.936 265.729 228.936 265.729Z" fill="white"/>
</mask>
<g mask="url(#mask4_16_561)">
<path opacity="0.16" d="M217.525 260.029C213.328 257.918 206.644 256.001 201.113 253.928C199.546 250.211 197.473 245.366 196.139 242.439C193.769 237.258 189.961 240.535 189.961 240.535C187.974 238.275 186.368 235.707 185.207 232.931C182.836 227.75 179.028 228.178 173.808 227.232C168.588 226.286 157.643 216.3 157.643 216.3C157.643 216.3 152.526 212.414 150.415 210.484C149.361 212.541 148.107 214.489 146.671 216.3C155.169 223.489 164.547 231.105 167.824 232.62C174.3 235.613 175.816 233.113 180.777 236.118C185.738 239.123 191.269 249.071 191.269 249.071C191.269 249.071 194.274 241.066 196.774 246.571C199.274 252.076 205.271 261.558 205.271 261.558C205.271 261.558 213.263 266.052 215.258 266.052C216.825 266.052 224.507 270.042 227.771 271.765C228.496 267.969 228.898 265.69 228.898 265.69C227.032 268.099 224.183 263.345 217.525 260.029Z" fill="black"/>
</g>
<path d="M228.936 265.729C227.032 268.099 224.183 263.345 217.525 260.029C213.328 257.918 206.644 256.001 201.113 253.928C199.546 250.211 197.473 245.366 196.139 242.439C193.769 237.258 189.961 240.535 189.961 240.535C187.974 238.275 186.368 235.707 185.207 232.931C182.836 227.75 179.028 228.178 173.808 227.232C168.588 226.286 157.643 216.3 157.643 216.3C157.643 216.3 152.526 212.414 150.415 210.484C147.954 215.328 142.06 223.851 129.314 229.175C149.638 250.405 190.867 290.741 195.194 293.772C199.947 297.088 198.523 306.596 195.194 316.103C191.865 325.611 179.507 339.419 179.987 354.6C180.466 369.781 185.168 393.096 184.74 397.85C184.313 402.086 174.831 415.363 172.772 418.212L177.603 418.756H202.758C202.616 406.011 202.629 353.991 211.346 333.266C221.333 309.445 228.936 265.729 228.936 265.729Z" stroke="#263238" stroke-linecap="round" stroke-linejoin="round"/>
<path d="M229.273 264.071C229.273 264.071 223.367 262.257 219.727 265.444C216.087 268.63 210.66 284.977 207.46 302.71C205.488 313.033 206.849 323.715 211.346 333.214C211.346 333.214 218.82 313.616 221.087 304.07C223.354 294.523 229.273 264.071 229.273 264.071Z" fill="#3C6E71"/>
<mask id="mask5_16_561" style="mask-type:luminance" maskUnits="userSpaceOnUse" x="206" y="263" width="24" height="71">
<path d="M229.273 264.071C229.273 264.071 223.367 262.257 219.727 265.444C216.087 268.63 210.66 284.977 207.46 302.71C205.488 313.033 206.849 323.715 211.346 333.214C211.346 333.214 218.82 313.616 221.087 304.07C223.354 294.523 229.273 264.071 229.273 264.071Z" fill="white"/>
</mask>
<g mask="url(#mask5_16_561)">
<path opacity="0.16" d="M217.939 266.959C217.939 266.959 222.214 265.923 223.976 266.519C225.459 267.155 226.846 267.997 228.095 269.019L229.273 264.071C227.505 263.167 225.5 262.837 223.535 263.125C220.595 263.721 217.939 266.959 217.939 266.959Z" fill="black"/>
</g>
<path d="M229.273 264.071C229.273 264.071 223.367 262.257 219.727 265.444C216.087 268.63 210.66 284.977 207.46 302.71C205.488 313.033 206.849 323.715 211.346 333.214C211.346 333.214 218.82 313.616 221.087 304.07C223.354 294.523 229.273 264.071 229.273 264.071Z" stroke="#263238" stroke-linecap="round" stroke-linejoin="round"/>
<path d="M189.494 265.625L197.098 296.518L179.987 257.542" stroke="#263238" stroke-linecap="round" stroke-linejoin="round"/>
<path d="M239.584 418.756H294.997C294.997 418.756 279.713 399.327 279.713 392.682C279.713 386.037 300.697 300.896 301.642 294.718C302.588 288.539 298.793 284.264 291.189 283.785C283.586 283.306 254.597 277.127 253.172 272.374C253.172 272.374 242.239 310.87 238.444 337.01C235.18 359.431 238.561 405.959 239.584 418.756Z" fill="#3C6E71"/>
<mask id="mask6_16_561" style="mask-type:luminance" maskUnits="userSpaceOnUse" x="237" y="272" width="65" height="147">
<path d="M239.584 418.756H294.997C294.997 418.756 279.713 399.327 279.713 392.682C279.713 386.037 300.697 300.896 301.642 294.718C302.588 288.539 298.793 284.264 291.189 283.785C283.586 283.306 254.597 277.127 253.172 272.374C253.172 272.374 242.239 310.87 238.444 337.01C235.18 359.431 238.561 405.959 239.584 418.756Z" fill="white"/>
</mask>
<g mask="url(#mask6_16_561)">
<path opacity="0.16" d="M291.189 283.785C284.959 283.397 264.376 279.174 256.358 275.055L259.273 281.79C264.553 284.592 270.232 286.566 276.112 287.645C285.762 289.368 294.738 289.031 300.606 297.658L300.891 298.085C301.254 296.427 301.5 295.262 301.577 294.718C302.601 288.539 298.792 284.264 291.189 283.785Z" fill="black"/>
</g>
<path d="M239.584 418.756H294.997C294.997 418.756 279.713 399.327 279.713 392.682C279.713 386.037 300.697 300.896 301.642 294.718C302.588 288.539 298.793 284.264 291.189 283.785C283.586 283.306 254.597 277.127 253.172 272.374C253.172 272.374 242.239 310.87 238.444 337.01C235.18 359.431 238.561 405.959 239.584 418.756Z" stroke="#263238" stroke-linecap="round" stroke-linejoin="round"/>
<path d="M253.172 272.374C253.172 272.374 238.509 319.005 238.444 337.01C238.444 337.01 259.273 311.79 261.993 294.07C264.713 276.35 253.172 272.374 253.172 272.374Z" fill="#3C6E71"/>
<mask id="mask7_16_561" style="mask-type:luminance" maskUnits="userSpaceOnUse" x="238" y="272" width="25" height="66">
<path d="M253.172 272.374C253.172 272.374 238.509 319.005 238.444 337.01C238.444 337.01 259.273 311.79 261.993 294.07C264.713 276.35 253.172 272.374 253.172 272.374Z" fill="white"/>
</mask>
<g mask="url(#mask7_16_561)">
<path opacity="0.16" d="M250.646 278.332C252.849 278.258 255.037 278.722 257.021 279.683C259.005 280.645 260.724 282.075 262.032 283.85C262.032 283.85 259.156 275.392 253.172 272.374L250.646 278.332Z" fill="black"/>
</g>
<path d="M253.172 272.374C253.172 272.374 238.509 319.005 238.444 337.01C238.444 337.01 259.273 311.79 261.993 294.07C264.713 276.35 253.172 272.374 253.172 272.374Z" stroke="#263238" stroke-linecap="round" stroke-linejoin="round"/>
<path d="M409.71 409.987C409.71 409.987 420.448 410.428 427.481 411.438C432.172 412.074 436.894 412.45 441.626 412.565C441.626 412.565 437.74 404.715 433.595 402.5C429.45 400.285 421.937 396.322 415.642 397.203C409.347 398.083 400.345 404.43 401.096 406.451C401.847 408.472 405.202 409.378 409.71 409.987Z" fill="white"/>
<mask id="mask8_16_561" style="mask-type:luminance" maskUnits="userSpaceOnUse" x="401" y="397" width="41" height="16">
<path d="M409.71 409.987C409.71 409.987 420.448 410.428 427.481 411.438C432.172 412.074 436.894 412.45 441.626 412.565C441.626 412.565 437.74 404.715 433.595 402.5C429.45 400.285 421.937 396.322 415.642 397.203C409.347 398.083 400.345 404.43 401.096 406.451C401.847 408.472 405.202 409.378 409.71 409.987Z" fill="white"/>
</mask>
<g mask="url(#mask8_16_561)">
<path d="M409.71 409.987C409.71 409.987 420.448 410.428 427.481 411.438C432.172 412.074 436.894 412.45 441.626 412.565C441.626 412.565 437.74 404.715 433.595 402.5C429.45 400.285 421.937 396.322 415.642 397.203C409.347 398.083 400.345 404.43 401.096 406.451C401.847 408.472 405.202 409.378 409.71 409.987Z" fill="#3C6E71"/>
<path opacity="0.5" d="M409.71 409.987C409.71 409.987 420.448 410.428 427.481 411.438C432.172 412.074 436.894 412.45 441.626 412.565C441.626 412.565 437.74 404.715 433.595 402.5C429.45 400.285 421.937 396.322 415.642 397.203C409.347 398.083 400.345 404.43 401.096 406.451C401.847 408.472 405.202 409.378 409.71 409.987Z" fill="white"/>
</g>
<path d="M409.71 409.987C409.71 409.987 420.448 410.428 427.481 411.438C432.172 412.074 436.894 412.45 441.626 412.565C441.626 412.565 437.74 404.715 433.595 402.5C429.45 400.285 421.937 396.322 415.642 397.203C409.347 398.083 400.345 404.43 401.096 406.451C401.847 408.472 405.202 409.378 409.71 409.987Z" stroke="#263238" stroke-linecap="round" stroke-linejoin="round"/>
<path d="M427.546 406.775C427.546 406.775 436.056 402.358 438.181 402.423C440.305 402.487 454.424 412.034 453.724 413.562C453.249 414.271 452.564 414.813 451.764 415.11C450.964 415.408 450.091 415.446 449.268 415.22C447.701 414.482 438.194 410.441 438.194 410.441L431.976 411.904L427.546 406.775Z" fill="white"/>
<mask id="mask9_16_561" style="mask-type:luminance" maskUnits="userSpaceOnUse" x="427" y="402" width="27" height="14">
<path d="M427.546 406.775C427.546 406.775 436.056 402.358 438.181 402.423C440.305 402.487 454.424 412.034 453.724 413.562C453.249 414.271 452.564 414.813 451.764 415.11C450.964 415.408 450.091 415.446 449.268 415.22C447.701 414.482 438.194 410.441 438.194 410.441L431.976 411.904L427.546 406.775Z" fill="white"/>
</mask>
<g mask="url(#mask9_16_561)">
<path d="M427.546 406.775C427.546 406.775 436.056 402.358 438.181 402.423C440.305 402.487 454.424 412.034 453.724 413.562C453.025 415.091 449.683 416.334 449.268 415.22C448.854 414.106 438.194 410.441 438.194 410.441L431.976 411.904L427.546 406.775Z" fill="#3C6E71"/>
<path opacity="0.5" d="M427.546 406.775C427.546 406.775 436.056 402.358 438.181 402.423C440.305 402.487 454.424 412.034 453.724 413.562C453.025 415.091 449.683 416.334 449.268 415.22C448.854 414.106 438.194 410.441 438.194 410.441L431.976 411.904L427.546 406.775Z" fill="white"/>
</g>
<path d="M427.546 406.775C427.546 406.775 436.056 402.358 438.181 402.423C440.305 402.487 454.424 412.034 453.724 413.562C453.249 414.271 452.564 414.813 451.764 415.11C450.964 415.408 450.091 415.446 449.268 415.22C447.701 414.482 438.194 410.441 438.194 410.441L431.976 411.904L427.546 406.775Z" stroke="#263238" stroke-linecap="round" stroke-linejoin="round"/>
<path d="M421.471 399.508C421.471 399.508 432.818 399.145 435.072 400.285C437.326 401.425 447.507 418.886 445.978 420.155C444.45 421.425 440.227 421.049 440.357 419.637C440.486 418.225 430.979 408.873 430.979 408.873L423.583 407.254L421.471 399.508Z" fill="white"/>
<mask id="mask10_16_561" style="mask-type:luminance" maskUnits="userSpaceOnUse" x="421" y="399" width="26" height="22">
<path d="M421.471 399.508C421.471 399.508 432.818 399.145 435.072 400.285C437.326 401.425 447.507 418.886 445.978 420.155C444.45 421.425 440.227 421.049 440.357 419.637C440.486 418.225 430.979 408.873 430.979 408.873L423.583 407.254L421.471 399.508Z" fill="white"/>
</mask>
<g mask="url(#mask10_16_561)">
<path d="M421.471 399.508C421.471 399.508 432.818 399.145 435.072 400.285C437.326 401.425 447.507 418.886 445.978 420.155C444.45 421.425 440.227 421.049 440.357 419.637C440.486 418.225 430.979 408.873 430.979 408.873L423.583 407.254L421.471 399.508Z" fill="#3C6E71"/>
<path opacity="0.5" d="M421.471 399.508C421.471 399.508 432.818 399.145 435.072 400.285C437.326 401.425 447.507 418.886 445.978 420.155C444.45 421.425 440.227 421.049 440.357 419.637C440.486 418.225 430.979 408.873 430.979 408.873L423.583 407.254L421.471 399.508Z" fill="white"/>
</g>
<path d="M421.471 399.508C421.471 399.508 432.818 399.145 435.072 400.285C437.326 401.425 447.507 418.886 445.978 420.155C444.45 421.425 440.227 421.049 440.357 419.637C440.486 418.225 430.979 408.873 430.979 408.873L423.583 407.254L421.471 399.508Z" stroke="#263238" stroke-linecap="round" stroke-linejoin="round"/>
<path d="M414.749 397.164C414.749 397.164 426.238 396.788 428.518 397.954C430.797 399.12 441.108 416.775 439.554 418.07C437.999 419.365 433.751 418.964 433.88 417.539C434.01 416.114 424.386 406.645 424.386 406.645L416.899 405L414.749 397.164Z" fill="white"/>
<mask id="mask11_16_561" style="mask-type:luminance" maskUnits="userSpaceOnUse" x="414" y="397" width="26" height="22">
<path d="M414.749 397.164C414.749 397.164 426.238 396.788 428.518 397.954C430.797 399.12 441.108 416.775 439.554 418.07C437.999 419.365 433.751 418.964 433.88 417.539C434.01 416.114 424.386 406.645 424.386 406.645L416.899 405L414.749 397.164Z" fill="white"/>
</mask>
<g mask="url(#mask11_16_561)">
<path d="M414.749 397.164C414.749 397.164 426.238 396.788 428.518 397.954C430.797 399.12 441.108 416.775 439.554 418.07C437.999 419.365 433.751 418.964 433.88 417.539C434.01 416.114 424.386 406.645 424.386 406.645L416.899 405L414.749 397.164Z" fill="#3C6E71"/>
<path opacity="0.5" d="M414.749 397.164C414.749 397.164 426.238 396.788 428.518 397.954C430.797 399.12 441.108 416.775 439.554 418.07C437.999 419.365 433.751 418.964 433.88 417.539C434.01 416.114 424.386 406.645 424.386 406.645L416.899 405L414.749 397.164Z" fill="white"/>
</g>
<path d="M414.749 397.164C414.749 397.164 426.238 396.788 428.518 397.954C430.797 399.12 441.108 416.775 439.554 418.07C437.999 419.365 433.751 418.964 433.88 417.539C434.01 416.114 424.386 406.645 424.386 406.645L416.899 405L414.749 397.164Z" stroke="#263238" stroke-linecap="round" stroke-linejoin="round"/>
<path d="M284.117 331.336C292.433 344.147 309.129 376.607 314 380.26C321.603 385.959 372.431 399.793 377.327 403.575C382.224 407.358 381.887 411.153 386.524 412.539C391.161 413.925 408.544 417.902 415.176 418.523C421.808 419.145 418.842 415.039 418.842 415.039L407.534 407.267L417.391 404.832C417.391 404.832 427.274 416.723 429.127 417.37C430.979 418.018 434.243 417.37 434.036 415.907C433.673 413.562 423.129 394.379 419.386 393.563C415.643 392.747 392.923 395.894 392.923 395.894C392.923 395.894 345.268 363.758 344.413 362.618C344.413 362.618 341.564 354.535 339.232 351.206C336.901 347.877 335.424 348.836 335.424 348.836C335.424 348.836 336.383 344.548 334.958 343.123L327.354 335.52L327.082 335.883C325.787 333.292 324.492 330.339 323.067 326.971C319.09 317.606 305.01 291.324 302.64 287.529C300.865 284.692 285.995 282.658 278.456 281.803" fill="#3C6E71"/>
<mask id="mask12_16_561" style="mask-type:luminance" maskUnits="userSpaceOnUse" x="278" y="281" width="157" height="138">
<path d="M284.117 331.336C292.433 344.147 309.129 376.607 314 380.26C321.603 385.959 372.431 399.793 377.327 403.575C382.224 407.358 381.887 411.153 386.524 412.539C391.161 413.925 408.544 417.902 415.176 418.523C421.808 419.145 418.842 415.039 418.842 415.039L407.534 407.267L417.391 404.832C417.391 404.832 427.274 416.723 429.127 417.37C430.979 418.018 434.243 417.37 434.036 415.907C433.673 413.562 423.129 394.379 419.386 393.563C415.643 392.747 392.923 395.894 392.923 395.894C392.923 395.894 345.268 363.758 344.413 362.618C344.413 362.618 341.564 354.535 339.232 351.206C336.901 347.877 335.424 348.836 335.424 348.836C335.424 348.836 336.383 344.548 334.958 343.123L327.354 335.52L327.082 335.883C325.787 333.292 324.492 330.339 323.067 326.971C319.09 317.606 305.01 291.324 302.64 287.529C300.865 284.692 285.995 282.658 278.456 281.803" fill="white"/>
</mask>
<g mask="url(#mask12_16_561)">
<path opacity="0.16" d="M317.225 332.152C323.442 337.67 321.37 337.67 319.984 342.515C318.598 347.359 321.02 340.792 326.888 341.142C332.755 341.491 331.033 349.069 330.333 350.455C329.634 351.841 337.587 353.564 336.201 356.659C334.815 359.755 326.888 364.25 322.406 368.745C317.924 373.239 334.129 361.491 339.647 361.154C341.33 361.037 342.716 361.258 343.882 361.232C342.659 357.766 341.088 354.433 339.193 351.284C336.81 347.955 335.385 348.913 335.385 348.913C335.385 348.913 336.343 344.626 334.919 343.201L327.315 335.598L327.043 335.96C325.748 333.37 324.453 330.416 323.028 327.049C319.051 317.683 304.971 291.402 302.601 287.606C300.826 284.77 285.956 282.736 278.417 281.881L279.104 287.878L279.272 288.008C279.272 288.008 288.585 289.731 291.694 290.08C294.803 290.43 298.598 293.176 298.248 295.262C297.899 297.347 288.935 306.647 291.694 307.347C294.453 308.046 297.562 300.443 300.671 301.479C303.779 302.515 310.968 326.634 317.225 332.152Z" fill="black"/>
</g>
<path d="M284.117 331.336C292.433 344.147 309.129 376.607 314 380.26C321.603 385.959 372.431 399.793 377.327 403.575C382.224 407.358 381.887 411.153 386.524 412.539C391.161 413.925 408.544 417.902 415.176 418.523C421.808 419.145 418.842 415.039 418.842 415.039L407.534 407.267L417.391 404.832C417.391 404.832 427.274 416.723 429.127 417.37C430.979 418.018 434.243 417.37 434.036 415.907C433.673 413.562 423.129 394.379 419.386 393.563C415.643 392.747 392.923 395.894 392.923 395.894C392.923 395.894 345.268 363.758 344.413 362.618C344.413 362.618 341.564 354.535 339.232 351.206C336.901 347.877 335.424 348.836 335.424 348.836C335.424 348.836 336.383 344.548 334.958 343.123L327.354 335.52L327.082 335.883C325.787 333.292 324.492 330.339 323.067 326.971C319.09 317.606 305.01 291.324 302.64 287.529C300.865 284.692 285.995 282.658 278.456 281.803" stroke="#263238" stroke-linecap="round" stroke-linejoin="round"/>
<path d="M284.246 313.759C283.896 314.924 283.598 316.09 283.365 317.282" stroke="#263238" stroke-linecap="round" stroke-linejoin="round"/>
<path d="M296.837 292.321C292.766 296.961 289.334 302.123 286.63 307.671" stroke="#263238" stroke-linecap="round" stroke-linejoin="round"/>
<path d="M315.865 365.869C319.362 360.688 324.932 354.12 331.072 352.242" stroke="#263238" stroke-linecap="round" stroke-linejoin="round"/>
<path d="M311.992 372.242C311.992 372.242 312.613 371.024 313.727 369.185" stroke="#263238" stroke-linecap="round" stroke-linejoin="round"/>
<path d="M311.992 364.056C311.992 364.056 318.352 348.149 324.712 344.056C331.072 339.963 327.432 348.149 327.432 348.149" stroke="#263238" stroke-linecap="round" stroke-linejoin="round"/>
<path d="M377.327 403.588C382.237 407.384 381.887 411.166 386.524 412.552C391.161 413.938 408.544 417.915 415.176 418.536C421.808 419.158 418.842 415.052 418.842 415.052L407.534 407.28L417.391 404.845C417.391 404.845 427.274 416.736 429.127 417.383C430.979 418.031 434.502 418.264 434.036 415.92C433.129 411.386 423.129 394.392 419.386 393.576C415.643 392.76 392.923 395.907 392.923 395.907C392.923 395.907 349.517 366.115 344.763 362.89C326.331 364.664 317.562 374.314 313.87 380.104L314 380.208C321.603 385.959 372.431 399.793 377.327 403.588Z" fill="white"/>
<mask id="mask13_16_561" style="mask-type:luminance" maskUnits="userSpaceOnUse" x="313" y="362" width="122" height="57">
<path d="M377.327 403.588C382.237 407.384 381.887 411.166 386.524 412.552C391.161 413.938 408.544 417.915 415.176 418.536C421.808 419.158 418.842 415.052 418.842 415.052L407.534 407.28L417.391 404.845C417.391 404.845 427.274 416.736 429.127 417.383C430.979 418.031 434.502 418.264 434.036 415.92C433.129 411.386 423.129 394.392 419.386 393.576C415.643 392.76 392.923 395.907 392.923 395.907C392.923 395.907 349.517 366.115 344.763 362.89C326.331 364.664 317.562 374.314 313.87 380.104L314 380.208C321.603 385.959 372.431 399.793 377.327 403.588Z" fill="white"/>
</mask>
<g mask="url(#mask13_16_561)">
<path d="M434.023 415.972C431.665 410.207 423.116 394.443 419.373 393.627C415.63 392.811 392.91 395.959 392.91 395.959C392.91 395.959 349.504 366.167 344.75 362.942C339.912 363.362 335.165 364.511 330.67 366.348C337.522 370.234 383.195 396.14 388.959 397.293C395.073 398.588 415.474 395.234 419.062 397.643C421.342 399.171 428.129 409.935 432.715 417.578C434.023 417.383 434.502 417.137 434.023 415.972Z" fill="#3C6E71"/>
<path opacity="0.5" d="M434.023 415.972C430.344 407.72 423.116 394.443 419.373 393.627C415.63 392.811 392.91 395.959 392.91 395.959C392.91 395.959 349.504 366.167 344.75 362.942C339.912 363.362 335.165 364.511 330.67 366.348C337.522 370.234 383.195 396.14 388.959 397.293C395.073 398.588 415.474 395.234 419.062 397.643C421.342 399.171 428.129 409.935 432.715 417.578C434.023 417.383 434.541 417.124 434.023 415.972Z" fill="white"/>
</g>
<path d="M377.327 403.588C382.237 407.384 381.887 411.166 386.524 412.552C391.161 413.938 408.544 417.915 415.176 418.536C421.808 419.158 418.842 415.052 418.842 415.052L407.534 407.28L417.391 404.845C417.391 404.845 427.274 416.736 429.127 417.383C430.979 418.031 434.502 418.264 434.036 415.92C433.129 411.386 423.129 394.392 419.386 393.576C415.643 392.76 392.923 395.907 392.923 395.907C392.923 395.907 349.517 366.115 344.763 362.89C326.331 364.664 317.562 374.314 313.87 380.104L314 380.208C321.603 385.959 372.431 399.793 377.327 403.588Z" stroke="#263238" stroke-linecap="round" stroke-linejoin="round"/>
<path d="M262.848 177.401L223.833 193.684C223.36 200.54 221.663 207.257 218.82 213.515C214.209 223.268 216.903 241.727 221.333 251.687C225.763 261.648 245.284 257.75 252.421 256.506C257.261 255.585 262.002 254.201 266.578 252.374C268.662 253.177 270.916 253.437 273.127 253.128C275.339 252.82 277.436 251.954 279.221 250.612C279.221 250.612 258.34 192 262.848 177.401Z" fill="white"/>
<mask id="mask14_16_561" style="mask-type:luminance" maskUnits="userSpaceOnUse" x="216" y="177" width="64" height="82">
<path d="M262.848 177.401L223.833 193.684C223.36 200.54 221.663 207.257 218.82 213.515C214.209 223.268 216.903 241.727 221.333 251.687C225.763 261.648 245.284 257.75 252.421 256.506C257.261 255.585 262.002 254.201 266.578 252.374C268.662 253.177 270.916 253.437 273.127 253.128C275.339 252.82 277.436 251.954 279.221 250.612C279.221 250.612 258.34 192 262.848 177.401Z" fill="white"/>
</mask>
<g mask="url(#mask14_16_561)">
<path d="M262.848 177.401L223.833 193.684C223.36 200.54 221.663 207.257 218.82 213.515C214.209 223.268 216.903 241.727 221.333 251.687C222.075 253.289 223.268 254.64 224.766 255.573V254.822C224.766 254.822 217.525 236.882 218.898 226.533C220.271 216.183 226.152 210.989 226.838 204.448C227.525 197.906 227.175 194.797 240.297 189.966C253.418 185.134 258.923 180.653 260.296 185.471C261.669 190.29 267.2 222.051 270.995 229.641C274.791 237.232 274.441 245.185 268.586 248.618C262.669 252.17 256.328 254.964 249.713 256.933L252.472 256.454C257.313 255.533 262.054 254.15 266.63 252.322C268.714 253.125 270.968 253.385 273.179 253.077C275.391 252.769 277.488 251.903 279.272 250.561C279.272 250.561 258.34 192 262.848 177.401Z" fill="#3C6E71"/>
<path opacity="0.5" d="M262.848 177.401L223.833 193.684C223.36 200.54 221.663 207.257 218.82 213.515C214.209 223.268 216.903 241.727 221.333 251.687C222.075 253.289 223.268 254.64 224.766 255.573V254.822C224.766 254.822 217.525 236.882 218.898 226.533C220.271 216.183 226.152 210.989 226.838 204.448C227.525 197.906 227.175 194.797 240.297 189.966C253.418 185.134 258.923 180.653 260.296 185.471C261.669 190.29 267.2 222.051 270.995 229.641C274.791 237.232 274.441 245.185 268.586 248.618C262.669 252.17 256.328 254.964 249.713 256.933L252.472 256.454C257.313 255.533 262.054 254.15 266.63 252.322C268.714 253.125 270.968 253.385 273.179 253.077C275.391 252.769 277.488 251.903 279.272 250.561C279.272 250.561 258.34 192 262.848 177.401Z" fill="white"/>
</g>
<path d="M262.848 177.401L223.833 193.684C223.36 200.54 221.663 207.257 218.82 213.515C214.209 223.268 216.903 241.727 221.333 251.687C225.763 261.648 245.284 257.75 252.421 256.506C257.261 255.585 262.002 254.201 266.578 252.374C268.662 253.177 270.916 253.437 273.127 253.128C275.339 252.82 277.436 251.954 279.221 250.612C279.221 250.612 258.34 192 262.848 177.401Z" stroke="#263238" stroke-linecap="round" stroke-linejoin="round"/>
<path d="M243.133 202.932C243.239 205.226 242.954 207.521 242.291 209.719C241.255 212.31 231.475 222.491 231.773 223.592C232.071 224.693 232.952 228.229 234.688 228.566" stroke="#263238" stroke-linecap="round" stroke-linejoin="round"/>
<path d="M253.975 212.038C255.335 209.318 259.804 211.973 259.739 218.1" stroke="#263238" stroke-linecap="round" stroke-linejoin="round"/>
<path d="M231.825 204.033C231.825 204.033 235.633 202.362 239.04 208.528" stroke="#263238" stroke-linecap="round" stroke-linejoin="round"/>
<path d="M248.561 221.015C252.961 221.236 257.145 222.991 260.387 225.976" stroke="#263238" stroke-width="0.5" stroke-linecap="round" stroke-linejoin="round"/>
<path d="M227.227 212.919C229.502 213.223 231.725 213.837 233.833 214.745" stroke="#263238" stroke-width="0.5" stroke-linecap="round" stroke-linejoin="round"/>
<path d="M242.706 197.181C241.7 196.649 240.584 196.358 239.447 196.331C238.309 196.304 237.181 196.542 236.151 197.025C232.667 198.696 230.53 200.536 230.763 198.398C230.996 196.261 235.089 193.904 236.32 193.593C237.55 193.282 243.055 192.427 242.706 197.181Z" fill="#263238"/>
<path d="M252.472 192.349C256.103 195.287 258.988 199.042 260.892 203.308C263.482 209.784 265.529 202.712 263.482 198.476C261.436 194.241 255.516 189.733 252.472 192.349Z" fill="#263238"/>
<path d="M279.79 261.687C279.79 264.705 278.08 267.153 275.982 267.153C273.884 267.153 272.187 264.705 272.187 261.687C272.187 258.669 273.884 250.988 275.982 250.988C278.08 250.988 279.79 258.669 279.79 261.687Z" fill="#3C6E71" stroke="#263238" stroke-linecap="round" stroke-linejoin="round"/>
<path d="M254.312 210.859C254.163 211.255 254.046 211.662 253.962 212.077C253.586 213.994 253.211 217.996 253.962 218.165C254.713 218.333 256.552 214.59 256.876 212.673C256.949 212.297 256.993 211.916 257.006 211.533C256.122 211.256 255.222 211.031 254.312 210.859Z" fill="#263238"/>
<path d="M232.214 203.657C232.099 203.996 232.008 204.342 231.942 204.694C231.553 206.611 231.566 210.82 232.382 210.976C233.198 211.131 234.532 207.194 234.908 205.277C235.002 204.812 235.054 204.339 235.063 203.865C234.136 203.61 233.168 203.539 232.214 203.657Z" fill="#263238"/>
<path d="M253.975 212.103L255.27 209.694C257.324 210.094 259.184 211.17 260.555 212.75" stroke="#263238" stroke-width="0.75" stroke-linecap="round" stroke-linejoin="round"/>
<path d="M232.214 203.657L233.509 202.142C233.509 202.142 234.066 201.87 237.123 203.256" stroke="#263238" stroke-width="0.75" stroke-linecap="round" stroke-linejoin="round"/>
<path d="M227.304 238.786C227.304 238.786 229.481 234.784 232.395 234.784C235.309 234.784 237.486 241.325 237.486 241.325" stroke="#263238" stroke-linecap="round" stroke-linejoin="round"/>
<path d="M133.511 411.399C130.695 411.259 127.928 410.6 125.351 409.456C124.991 409.323 124.663 409.119 124.385 408.855C124.107 408.591 123.886 408.273 123.735 407.921C123.584 407.569 123.506 407.19 123.506 406.806C123.507 406.423 123.585 406.044 123.736 405.692C123.887 405.34 124.109 405.023 124.387 404.759C124.665 404.495 124.994 404.291 125.353 404.158C125.713 404.026 126.095 403.968 126.478 403.988C126.861 404.008 127.235 404.106 127.579 404.275C130.169 405.376 133.524 406.062 134.418 405.674C136.063 403.835 138.589 392.721 135.325 387.358C134.586 386.167 133.9 385.946 133.446 385.894C131.594 385.635 128.848 387.54 127.877 388.485C127.606 388.74 127.288 388.94 126.941 389.072C126.593 389.204 126.223 389.267 125.851 389.256C125.48 389.245 125.114 389.161 124.774 389.009C124.435 388.857 124.129 388.639 123.874 388.369C123.619 388.098 123.42 387.78 123.287 387.432C123.155 387.085 123.093 386.715 123.103 386.343C123.114 385.971 123.198 385.606 123.35 385.266C123.503 384.927 123.72 384.621 123.991 384.366C124.496 383.874 129.172 379.664 134.159 380.338C135.396 380.518 136.574 380.981 137.603 381.691C138.632 382.401 139.484 383.339 140.091 384.431C144.897 392.267 141.607 407.176 137.915 410.13C136.632 411.037 135.08 411.485 133.511 411.399Z" fill="white"/>
<mask id="mask15_16_561" style="mask-type:luminance" maskUnits="userSpaceOnUse" x="123" y="380" width="20" height="32">
<path d="M133.511 411.399C130.695 411.259 127.928 410.6 125.351 409.456C124.991 409.323 124.663 409.119 124.385 408.855C124.107 408.591 123.886 408.273 123.735 407.921C123.584 407.569 123.506 407.19 123.506 406.806C123.507 406.423 123.585 406.044 123.736 405.692C123.887 405.34 124.109 405.023 124.387 404.759C124.665 404.495 124.994 404.291 125.353 404.158C125.713 404.026 126.095 403.968 126.478 403.988C126.861 404.008 127.235 404.106 127.579 404.275C130.169 405.376 133.524 406.062 134.418 405.674C136.063 403.835 138.589 392.721 135.325 387.358C134.586 386.167 133.9 385.946 133.446 385.894C131.594 385.635 128.848 387.54 127.877 388.485C127.606 388.74 127.288 388.94 126.941 389.072C126.593 389.204 126.223 389.267 125.851 389.256C125.48 389.245 125.114 389.161 124.774 389.009C124.435 388.857 124.129 388.639 123.874 388.369C123.619 388.098 123.42 387.78 123.287 387.432C123.155 387.085 123.093 386.715 123.103 386.343C123.114 385.971 123.198 385.606 123.35 385.266C123.503 384.927 123.72 384.621 123.991 384.366C124.496 383.874 129.172 379.664 134.159 380.338C135.396 380.518 136.574 380.981 137.603 381.691C138.632 382.401 139.484 383.339 140.091 384.431C144.897 392.267 141.607 407.176 137.915 410.13C136.632 411.037 135.08 411.485 133.511 411.399Z" fill="white"/>
</mask>
<g mask="url(#mask15_16_561)">
<path d="M137.306 386.503C136.967 385.699 136.435 384.99 135.757 384.439C135.08 383.888 134.277 383.511 133.421 383.343C130.182 382.825 127.138 386.076 126.802 386.438C126.492 386.811 126.301 387.268 126.252 387.751C126.204 388.233 126.3 388.719 126.53 389.146C127.039 389.043 127.51 388.801 127.89 388.446C128.861 387.539 131.607 385.635 133.459 385.856C133.913 385.856 134.599 386.128 135.338 387.319C138.602 392.63 136.076 403.796 134.431 405.635C133.537 406.024 130.195 405.337 127.592 404.236C127.271 404.101 126.929 404.027 126.581 404.016C126.605 404.371 126.717 404.714 126.907 405.015C127.097 405.316 127.359 405.565 127.669 405.739C129.307 406.613 131.114 407.126 132.967 407.241C134.025 407.292 135.06 406.93 135.856 406.231C138.291 403.99 140.441 392.526 137.306 386.503Z" fill="#3C6E71"/>
<path opacity="0.5" d="M137.306 386.503C136.967 385.699 136.435 384.99 135.757 384.439C135.08 383.888 134.277 383.511 133.421 383.343C130.182 382.825 127.138 386.076 126.802 386.438C126.492 386.811 126.301 387.268 126.252 387.751C126.204 388.233 126.3 388.719 126.53 389.146C127.039 389.043 127.51 388.801 127.89 388.446C128.861 387.539 131.607 385.635 133.459 385.856C133.913 385.856 134.599 386.128 135.338 387.319C138.602 392.63 136.076 403.796 134.431 405.635C133.537 406.024 130.195 405.337 127.592 404.236C127.271 404.101 126.929 404.027 126.581 404.016C126.605 404.371 126.717 404.714 126.907 405.015C127.097 405.316 127.359 405.565 127.669 405.739C129.307 406.613 131.114 407.126 132.967 407.241C134.025 407.292 135.06 406.93 135.856 406.231C138.291 403.99 140.441 392.526 137.306 386.503Z" fill="white"/>
</g>
<path d="M133.511 411.399C130.695 411.259 127.928 410.6 125.351 409.456C124.991 409.323 124.663 409.119 124.385 408.855C124.107 408.591 123.886 408.273 123.735 407.921C123.584 407.569 123.506 407.19 123.506 406.806C123.507 406.423 123.585 406.044 123.736 405.692C123.887 405.34 124.109 405.023 124.387 404.759C124.665 404.495 124.994 404.291 125.353 404.158C125.713 404.026 126.095 403.968 126.478 403.988C126.861 404.008 127.235 404.106 127.579 404.275C130.169 405.376 133.524 406.062 134.418 405.674C136.063 403.835 138.589 392.721 135.325 387.358C134.586 386.167 133.9 385.946 133.446 385.894C131.594 385.635 128.848 387.54 127.877 388.485C127.606 388.74 127.288 388.94 126.941 389.072C126.593 389.204 126.223 389.267 125.851 389.256C125.48 389.245 125.114 389.161 124.774 389.009C124.435 388.857 124.129 388.639 123.874 388.369C123.619 388.098 123.42 387.78 123.287 387.432C123.155 387.085 123.093 386.715 123.103 386.343C123.114 385.971 123.198 385.606 123.35 385.266C123.503 384.927 123.72 384.621 123.991 384.366C124.496 383.874 129.172 379.664 134.159 380.338C135.396 380.518 136.574 380.981 137.603 381.691C138.632 382.401 139.484 383.339 140.091 384.431C144.897 392.267 141.607 407.176 137.915 410.13C136.632 411.037 135.08 411.485 133.511 411.399Z" stroke="#263238" stroke-linecap="round" stroke-linejoin="round"/>
<path d="M128.563 377.98H97.4109V419.326H128.563V377.98Z" fill="white"/>
<mask id="mask16_16_561" style="mask-type:luminance" maskUnits="userSpaceOnUse" x="97" y="377" width="32" height="43">
<path d="M128.563 377.98H97.4109V419.326H128.563V377.98Z" fill="white"/>
</mask>
<g mask="url(#mask16_16_561)">
<path d="M110.17 377.98H97.4109V419.326H110.17V377.98Z" fill="#3C6E71"/>
<path opacity="0.5" d="M110.17 377.98H97.4109V419.326H110.17V377.98Z" fill="white"/>
</g>
<path d="M128.563 377.98H97.4109V419.326H128.563V377.98Z" stroke="#263238" stroke-linecap="round" stroke-linejoin="round"/>
<path d="M299.751 418.756H166.671L162.332 345.597C162.212 344.888 162.247 344.161 162.435 343.467C162.624 342.772 162.96 342.127 163.422 341.576C163.884 341.024 164.46 340.579 165.11 340.271C165.761 339.964 166.47 339.801 167.189 339.794H299.181C299.905 339.794 300.62 339.951 301.277 340.255C301.934 340.559 302.516 341.003 302.983 341.556C303.451 342.108 303.792 342.756 303.983 343.454C304.175 344.152 304.211 344.884 304.09 345.597L299.751 418.756Z" fill="#263238" stroke="#263238" stroke-linecap="round" stroke-linejoin="round"/>
<path d="M173.225 341.543H298.223C298.929 341.536 299.628 341.683 300.271 341.974C300.914 342.266 301.486 342.694 301.946 343.23C302.407 343.765 302.744 344.395 302.936 345.075C303.127 345.754 303.168 346.468 303.054 347.165" stroke="white" stroke-linecap="round" stroke-linejoin="round"/>
<path d="M163.303 346.012C163.407 344.788 163.969 343.648 164.877 342.819C165.784 341.991 166.971 341.535 168.199 341.543" stroke="white" stroke-linecap="round" stroke-linejoin="round"/>
<path d="M300.308 411.632H166.114V418.756H300.308V411.632Z" fill="white" stroke="#263238" stroke-linecap="round" stroke-linejoin="round"/>
<path d="M232.732 385.26C237.983 385.26 242.24 382.708 242.24 379.56C242.24 376.413 237.983 373.861 232.732 373.861C227.481 373.861 223.224 376.413 223.224 379.56C223.224 382.708 227.481 385.26 232.732 385.26Z" fill="white" stroke="#263238" stroke-linecap="round" stroke-linejoin="round"/>
<path d="M502.713 417.915H2.90503V430.052H502.713V417.915Z" fill="#263238"/>
</svg>
