<svg width="27" height="26" viewBox="0 0 27 26" fill="none" xmlns="http://www.w3.org/2000/svg">
<path d="M13.5 0C10.9288 0 8.41543 0.762437 6.27759 2.1909C4.13975 3.61935 2.47351 5.64968 1.48957 8.02512C0.505633 10.4006 0.248189 13.0144 0.749797 15.5362C1.25141 18.0579 2.48953 20.3743 4.30762 22.1924C6.1257 24.0105 8.44208 25.2486 10.9638 25.7502C13.4856 26.2518 16.0995 25.9944 18.4749 25.0104C20.8503 24.0265 22.8807 22.3603 24.3091 20.2224C25.7376 18.0846 26.5 15.5712 26.5 13C26.5 9.55219 25.1304 6.24558 22.6924 3.80761C20.2544 1.36964 16.9478 0 13.5 0ZM13.5 23C11.8791 22.9998 10.2825 22.6056 8.84779 21.8514C7.41306 21.0971 6.18318 20.0054 5.26408 18.6703C4.34497 17.3352 3.7642 15.7966 3.57177 14.1872C3.37934 12.5777 3.58103 10.9456 4.15946 9.43142C4.7379 7.91724 5.67574 6.56635 6.89221 5.49512C8.10869 4.42389 9.56733 3.66441 11.1425 3.28212C12.7177 2.89982 14.3622 2.90615 15.9344 3.30057C17.5066 3.69499 18.9593 4.46568 20.1675 5.54625C20.3603 5.72439 20.4752 5.97117 20.4877 6.23334C20.5001 6.4955 20.4089 6.75205 20.2339 6.94761C20.0588 7.14317 19.8139 7.26206 19.552 7.27865C19.29 7.29523 19.0321 7.20817 18.8338 7.03625C17.5005 5.84376 15.8061 5.13248 14.0212 5.01602C12.2363 4.89957 10.4638 5.38466 8.98697 6.39381C7.51011 7.40296 6.41405 8.87794 5.87388 10.5831C5.33371 12.2883 5.38059 14.1254 6.00703 15.8008C6.63348 17.4762 7.80334 18.8934 9.32976 19.8259C10.8562 20.7584 12.6511 21.1525 14.4277 20.9451C16.2044 20.7378 17.8603 19.941 19.131 18.6821C20.4016 17.4231 21.2137 15.7747 21.4375 14H13.5C13.2348 14 12.9804 13.8946 12.7929 13.7071C12.6054 13.5196 12.5 13.2652 12.5 13C12.5 12.7348 12.6054 12.4804 12.7929 12.2929C12.9804 12.1054 13.2348 12 13.5 12H22.5C22.7652 12 23.0196 12.1054 23.2071 12.2929C23.3946 12.4804 23.5 12.7348 23.5 13C23.497 15.6513 22.4425 18.1931 20.5678 20.0678C18.6931 21.9425 16.1513 22.997 13.5 23Z" fill="#6E727F"/>
</svg>
