<svg width="460" height="343" viewBox="0 0 460 343" fill="none" xmlns="http://www.w3.org/2000/svg">
<path d="M459.493 301.524H0.506775V301.754H459.493V301.524Z" fill="#EBEBEB"/>
<path d="M413.503 316.295H383.1V316.524H413.503V316.295Z" fill="#EBEBEB"/>
<path d="M304.558 318.792H296.581V319.021H304.558V318.792Z" fill="#EBEBEB"/>
<path d="M382.182 307.777H364.566V308.006H382.182V307.777Z" fill="#EBEBEB"/>
<path d="M88.3109 309.319H48.6637V309.548H88.3109V309.319Z" fill="#EBEBEB"/>
<path d="M102.301 309.319H96.4901V309.548H102.301V309.319Z" fill="#EBEBEB"/>
<path d="M207.188 313.192H121.193V313.422H207.188V313.192Z" fill="#EBEBEB"/>
<path d="M218.066 260.583H40.815C39.4264 260.581 38.0955 260.027 37.1145 259.045C36.1335 258.062 35.5825 256.73 35.5825 255.342V6.1762C35.5946 4.79559 36.1509 3.4755 37.1306 2.50267C38.1103 1.52984 39.4343 0.982834 40.815 0.980469H218.066C219.457 0.980469 220.79 1.53271 221.773 2.51571C222.756 3.4987 223.308 4.83193 223.308 6.22209V255.342C223.308 256.732 222.756 258.065 221.773 259.048C220.79 260.031 219.457 260.583 218.066 260.583ZM40.815 1.16406C39.4873 1.1665 38.2148 1.69563 37.2768 2.63532C36.3388 3.57502 35.812 4.84848 35.812 6.1762V255.342C35.812 256.669 36.3388 257.943 37.2768 258.882C38.2148 259.822 39.4873 260.351 40.815 260.354H218.066C219.395 260.351 220.668 259.822 221.608 258.883C222.547 257.944 223.076 256.67 223.079 255.342V6.1762C223.076 4.84764 222.547 3.57419 221.608 2.63476C220.668 1.69533 219.395 1.16649 218.066 1.16406H40.815Z" fill="#EBEBEB"/>
<path d="M416.633 260.583H239.373C237.983 260.581 236.651 260.028 235.669 259.045C234.686 258.063 234.133 256.731 234.131 255.342V6.1762C234.145 4.79475 234.704 3.47467 235.685 2.50209C236.666 1.52952 237.991 0.982808 239.373 0.980469H416.633C418.012 0.985246 419.334 1.53332 420.312 2.50589C421.289 3.47846 421.844 4.79717 421.856 6.1762V255.342C421.856 256.729 421.307 258.059 420.328 259.042C419.349 260.024 418.02 260.578 416.633 260.583ZM239.373 1.16406C238.044 1.16649 236.771 1.69533 235.831 2.63476C234.892 3.57419 234.363 4.84764 234.36 6.1762V255.342C234.363 256.67 234.892 257.944 235.831 258.883C236.771 259.822 238.044 260.351 239.373 260.354H416.633C417.962 260.351 419.235 259.822 420.175 258.883C421.114 257.944 421.643 256.67 421.645 255.342V6.1762C421.643 4.84764 421.114 3.57419 420.175 2.63476C419.235 1.69533 417.962 1.16649 416.633 1.16406H239.373Z" fill="#EBEBEB"/>
<path d="M405.194 41.5084C407.936 29.8882 400.74 18.2449 389.12 15.5023C377.499 12.7597 365.856 19.9564 363.113 31.5765C360.371 43.1967 367.568 54.84 379.188 57.5826C390.808 60.3252 402.451 53.1286 405.194 41.5084Z" fill="#E0E0E0"/>
<path d="M402.336 39.4981C403.963 29.4744 397.156 20.0296 387.132 18.4026C377.108 16.7755 367.664 23.5823 366.037 33.6059C364.41 43.6296 371.216 53.0744 381.24 54.7014C391.264 56.3285 400.708 49.5217 402.336 39.4981Z" fill="#F0F0F0"/>
<path d="M383.302 23.9302V36.7818L374.783 31.9624" fill="#F0F0F0"/>
<path d="M383.302 23.9302V36.7818L374.783 31.9624" stroke="#E0E0E0" stroke-width="2" stroke-linecap="round" stroke-linejoin="round"/>
<path d="M120.449 50.606H57.4578V165.004H120.449V50.606Z" fill="#E6E6E6"/>
<path d="M116.171 55.1411H62.011V160.708H116.171V55.1411Z" fill="#F0F0F0"/>
<path d="M88.7332 55.1411L62.011 155.219V101.04L74.2384 55.1411H88.7332Z" fill="#FAFAFA"/>
<path d="M100.676 55.1411L72.4942 160.708H67.1792L95.3609 55.1411H100.676Z" fill="#FAFAFA"/>
<path d="M118.466 128.937H59.257V132.608H118.466V128.937Z" fill="#E6E6E6"/>
<path d="M389.966 199.015C389.966 199.015 391.407 189.468 384.458 183.354C377.509 177.241 378.106 173.587 380.098 173.119C382.09 172.651 383.926 178.765 386.983 180.463C386.983 180.463 387.084 171.742 383.972 168.529C380.86 165.316 379.235 157.036 382.191 156.898C385.147 156.761 385.45 161.81 386.065 165.399C386.68 168.988 389.975 174.037 389.975 174.037C389.975 174.037 390.618 166.234 392.628 163.021C394.638 159.808 389.278 152.465 391.343 149.252C393.408 146.039 397.08 152.162 396.777 159.046C396.474 165.931 391.875 173.275 392.949 180.463C392.949 180.463 394.978 175.414 396.796 174.955C398.613 174.496 400.468 171.155 401.67 169.915C402.873 168.676 404.424 172.963 401.67 176.947C398.916 180.931 391.875 191.561 392.949 200.163L389.966 199.015Z" fill="#E6E6E6"/>
<path d="M385.798 194.673L383.522 208.975C383.356 210.014 383.417 211.076 383.701 212.089C383.986 213.101 384.487 214.04 385.169 214.84C385.852 215.641 386.699 216.283 387.654 216.724C388.609 217.165 389.649 217.393 390.7 217.393H393.133C394.185 217.394 395.226 217.167 396.182 216.727C397.138 216.287 397.987 215.644 398.67 214.844C399.354 214.043 399.855 213.104 400.14 212.091C400.425 211.078 400.487 210.015 400.321 208.975L398.044 194.673H385.798Z" fill="#E6E6E6"/>
<path d="M395.272 219.036H389.966V302.37H395.272V219.036Z" fill="#E0E0E0"/>
<path d="M376.435 219.036H371.129V302.37H376.435V219.036Z" fill="#E6E6E6"/>
<path d="M414.099 219.036H408.794V302.37H414.099V219.036Z" fill="#E6E6E6"/>
<path d="M417.248 213.712H367.981V222.58H417.248V213.712Z" fill="#E6E6E6"/>
<path d="M230 342.98C328.299 342.98 407.986 338.328 407.986 332.589C407.986 326.85 328.299 322.197 230 322.197C131.701 322.197 52.0142 326.85 52.0142 332.589C52.0142 338.328 131.701 342.98 230 342.98Z" fill="#F5F5F5"/>
<path d="M321.797 297.044V195.59H311.7V297.044L305.274 299.018V302.075H328.223V299.018L321.797 297.044Z" fill="#2E353A"/>
<path d="M193.281 195.59H183.183V297.044L176.758 299.018V302.075H199.707V299.018L193.281 297.044V195.59Z" fill="#2E353A"/>
<g opacity="0.2">
<path d="M321.797 207.524H311.7V297.045L305.274 299.019V302.076H328.223V299.019L321.797 297.045V207.524Z" fill="white"/>
<path d="M193.281 207.524H183.183V297.045L176.758 299.019V302.076H199.707V299.019L193.281 297.045V207.524Z" fill="white"/>
</g>
<path d="M353.008 199.262V35.8633L151.972 35.8633V199.262H353.008Z" fill="#2E353A"/>
<path opacity="0.2" d="M353.008 199.262V35.8633L151.972 35.8633V199.262H353.008Z" fill="white"/>
<path d="M348.538 40.3984H156.443V194.636H348.538V40.3984Z" fill="#407BFF"/>
<path opacity="0.3" d="M348.538 40.3984H156.443V194.636H348.538V40.3984Z" fill="white"/>
<path d="M178.135 54.2227V95.9904H244.697L178.135 54.2227Z" stroke="#263238" stroke-miterlimit="10"/>
<path d="M181.476 96.1009V92.686H178.061" stroke="#263238" stroke-width="0.793303" stroke-miterlimit="10"/>
<path d="M213.588 69.6894C213.261 69.6894 212.944 69.6117 212.636 69.4562C212.332 69.2975 212.119 69.0643 211.999 68.7565L212.208 68.6042L212.046 69.5942H211.285V62.4545H212.141V65.8435L211.96 65.7102C212.119 65.4532 212.346 65.2438 212.641 65.0819C212.936 64.9169 213.252 64.8344 213.588 64.8344C214.023 64.8344 214.398 64.9487 214.712 65.1771C215.026 65.4024 215.267 65.7007 215.435 66.072C215.607 66.4401 215.692 66.8367 215.692 67.2619C215.692 67.7157 215.599 68.1266 215.411 68.4947C215.224 68.8596 214.972 69.15 214.655 69.3658C214.337 69.5815 213.982 69.6894 213.588 69.6894ZM213.484 68.9279C213.757 68.9279 213.993 68.8533 214.193 68.7042C214.393 68.5518 214.547 68.3503 214.655 68.0997C214.762 67.8458 214.816 67.5666 214.816 67.2619C214.816 66.9446 214.762 66.6606 214.655 66.4099C214.547 66.1592 214.393 65.9609 214.193 65.8149C213.993 65.669 213.757 65.596 213.484 65.596C213.239 65.596 213.011 65.6579 212.798 65.7816C212.589 65.9022 212.419 66.0863 212.289 66.3338C212.159 66.5781 212.094 66.8875 212.094 67.2619C212.094 67.6522 212.159 67.9696 212.289 68.2139C212.419 68.4582 212.589 68.6391 212.798 68.7565C213.011 68.8707 213.239 68.9279 213.484 68.9279Z" fill="#263238"/>
<path d="M181.303 132.763C180.976 132.763 180.659 132.685 180.351 132.53C180.047 132.371 179.834 132.138 179.713 131.83L179.923 131.678L179.761 132.668H178.999V125.528H179.856V128.917L179.675 128.784C179.834 128.527 180.061 128.317 180.356 128.156C180.651 127.991 180.967 127.908 181.303 127.908C181.738 127.908 182.112 128.022 182.427 128.251C182.741 128.476 182.982 128.774 183.15 129.146C183.321 129.514 183.407 129.91 183.407 130.336C183.407 130.789 183.313 131.2 183.126 131.568C182.939 131.933 182.687 132.224 182.369 132.439C182.052 132.655 181.697 132.763 181.303 132.763ZM181.199 132.002C181.471 132.002 181.708 131.927 181.908 131.778C182.108 131.626 182.262 131.424 182.369 131.173C182.477 130.92 182.531 130.64 182.531 130.336C182.531 130.018 182.477 129.734 182.369 129.484C182.262 129.233 182.108 129.035 181.908 128.889C181.708 128.743 181.471 128.67 181.199 128.67C180.954 128.67 180.726 128.732 180.513 128.855C180.304 128.976 180.134 129.16 180.004 129.407C179.874 129.652 179.809 129.961 179.809 130.336C179.809 130.726 179.874 131.043 180.004 131.288C180.134 131.532 180.304 131.713 180.513 131.83C180.726 131.944 180.954 132.002 181.199 132.002Z" fill="#263238"/>
<path d="M204.275 104.875C203.748 104.875 203.305 104.769 202.947 104.557C202.591 104.341 202.322 104.052 202.137 103.69C201.957 103.325 201.866 102.921 201.866 102.477C201.866 102.013 201.953 101.596 202.128 101.225C202.306 100.853 202.577 100.56 202.942 100.344C203.307 100.128 203.773 100.02 204.341 100.02C204.586 100.02 204.816 100.046 205.031 100.097C205.25 100.144 205.446 100.211 205.617 100.297L205.484 101.049C205.309 100.966 205.123 100.901 204.927 100.853C204.733 100.806 204.532 100.782 204.322 100.782C203.808 100.782 203.416 100.928 203.147 101.22C202.877 101.512 202.742 101.918 202.742 102.438C202.742 102.946 202.871 103.354 203.128 103.662C203.385 103.97 203.776 104.123 204.303 104.123C204.519 104.123 204.725 104.098 204.922 104.047C205.122 103.996 205.312 103.927 205.493 103.838L205.607 104.523C205.48 104.612 205.295 104.693 205.051 104.766C204.806 104.839 204.548 104.875 204.275 104.875Z" fill="#263238"/>
<path d="M181.151 145.587C180.624 145.587 180.182 145.481 179.823 145.268C179.468 145.052 179.198 144.763 179.014 144.402C178.833 144.037 178.742 143.632 178.742 143.188C178.742 142.725 178.83 142.307 179.004 141.936C179.182 141.565 179.453 141.271 179.818 141.056C180.183 140.84 180.65 140.732 181.218 140.732C181.462 140.732 181.692 140.757 181.908 140.808C182.127 140.856 182.322 140.922 182.493 141.008L182.36 141.76C182.185 141.677 182 141.612 181.803 141.565C181.609 141.517 181.408 141.493 181.199 141.493C180.684 141.493 180.293 141.639 180.023 141.931C179.753 142.223 179.618 142.629 179.618 143.15C179.618 143.658 179.747 144.065 180.004 144.373C180.261 144.681 180.653 144.835 181.179 144.835C181.395 144.835 181.602 144.809 181.798 144.759C181.998 144.708 182.189 144.638 182.369 144.549L182.484 145.235C182.357 145.324 182.171 145.404 181.927 145.477C181.682 145.55 181.424 145.587 181.151 145.587Z" fill="#263238"/>
<path d="M172.402 79.6401C172.113 79.6401 171.861 79.5814 171.645 79.464C171.429 79.3466 171.261 79.1863 171.14 78.9833C171.023 78.7802 170.964 78.5485 170.964 78.2883C170.964 78.025 171.021 77.7997 171.136 77.6124C171.253 77.422 171.408 77.265 171.602 77.1412C171.799 77.0143 172.018 76.9143 172.259 76.8413C172.5 76.7652 172.749 76.7112 173.006 76.6795C173.266 76.6446 173.515 76.6256 173.753 76.6224C173.753 76.1781 173.666 75.8878 173.492 75.7513C173.317 75.6149 173.065 75.5467 172.735 75.5467C172.56 75.5467 172.373 75.5736 172.173 75.6276C171.976 75.6815 171.754 75.7942 171.507 75.9655L171.383 75.2706C171.57 75.1278 171.804 75.012 172.083 74.9231C172.362 74.8311 172.656 74.7851 172.963 74.7851C173.357 74.7851 173.674 74.8549 173.915 74.9945C174.156 75.131 174.333 75.3626 174.444 75.6895C174.555 76.0163 174.61 76.4606 174.61 77.0222V77.9742C174.61 78.1963 174.62 78.3804 174.639 78.5263C174.661 78.6691 174.709 78.777 174.782 78.85C174.858 78.9198 174.978 78.9547 175.143 78.9547H175.229L175.096 79.6401H175.029C174.753 79.6401 174.539 79.6131 174.386 79.5592C174.237 79.5053 174.123 79.4275 174.044 79.326C173.964 79.2244 173.893 79.1007 173.83 78.9547C173.655 79.1578 173.449 79.3228 173.211 79.4497C172.973 79.5767 172.703 79.6401 172.402 79.6401ZM172.563 78.9547C172.792 78.9547 173.012 78.8976 173.225 78.7834C173.441 78.6691 173.617 78.5168 173.753 78.3264V77.2126C173.3 77.2285 172.932 77.2729 172.649 77.3459C172.37 77.4189 172.165 77.5283 172.035 77.6743C171.905 77.8203 171.84 78.0091 171.84 78.2407C171.84 78.4914 171.907 78.6739 172.04 78.7881C172.176 78.8992 172.351 78.9547 172.563 78.9547Z" fill="#263238"/>
<path d="M180.094 119.929C179.805 119.929 179.553 119.87 179.337 119.753C179.122 119.636 178.953 119.475 178.833 119.272C178.715 119.069 178.657 118.838 178.657 118.577C178.657 118.314 178.714 118.089 178.828 117.901C178.946 117.711 179.101 117.554 179.295 117.43C179.491 117.303 179.71 117.203 179.951 117.13C180.193 117.054 180.442 117 180.699 116.969C180.959 116.934 181.208 116.915 181.446 116.911C181.446 116.467 181.359 116.177 181.184 116.04C181.01 115.904 180.757 115.836 180.427 115.836C180.253 115.836 180.066 115.863 179.866 115.917C179.669 115.971 179.447 116.083 179.199 116.255L179.076 115.56C179.263 115.417 179.496 115.301 179.775 115.212C180.055 115.12 180.348 115.074 180.656 115.074C181.049 115.074 181.367 115.144 181.608 115.284C181.849 115.42 182.025 115.652 182.136 115.979C182.247 116.305 182.303 116.75 182.303 117.311V118.263C182.303 118.485 182.312 118.669 182.331 118.815C182.354 118.958 182.401 119.066 182.474 119.139C182.55 119.209 182.671 119.244 182.836 119.244H182.922L182.788 119.929H182.722C182.446 119.929 182.231 119.902 182.079 119.848C181.93 119.794 181.816 119.717 181.736 119.615C181.657 119.513 181.586 119.39 181.522 119.244C181.348 119.447 181.141 119.612 180.903 119.739C180.665 119.866 180.396 119.929 180.094 119.929ZM180.256 119.244C180.485 119.244 180.705 119.187 180.918 119.072C181.133 118.958 181.31 118.806 181.446 118.615V117.502C180.992 117.518 180.624 117.562 180.342 117.635C180.063 117.708 179.858 117.817 179.728 117.963C179.598 118.109 179.533 118.298 179.533 118.53C179.533 118.78 179.599 118.963 179.733 119.077C179.869 119.188 180.043 119.244 180.256 119.244Z" fill="#263238"/>
<path d="M260.293 54.6826H297.012" stroke="#263238" stroke-miterlimit="10"/>
<path d="M260.293 62.0254H280.489" stroke="#263238" stroke-miterlimit="10"/>
<path d="M260.293 67.5327H288.75" stroke="#263238" stroke-miterlimit="10"/>
<path d="M260.293 73.959H284.16" stroke="#263238" stroke-miterlimit="10"/>
<path d="M260.293 81.3032H296.094" stroke="#263238" stroke-miterlimit="10"/>
<path d="M260.293 87.729H295.176" stroke="#263238" stroke-miterlimit="10"/>
<path d="M260.293 94.1548H284.16" stroke="#263238" stroke-miterlimit="10"/>
<path d="M301.602 150.151H326.387" stroke="#263238" stroke-miterlimit="10"/>
<path d="M301.602 157.495H315.372" stroke="#263238" stroke-miterlimit="10"/>
<path d="M301.602 163.002H320.879" stroke="#263238" stroke-miterlimit="10"/>
<path d="M301.602 169.428H318.125" stroke="#263238" stroke-miterlimit="10"/>
<path d="M175.84 162.084H200.625" stroke="#263238" stroke-miterlimit="10"/>
<path d="M175.84 169.428H189.609" stroke="#263238" stroke-miterlimit="10"/>
<path d="M175.84 174.936H195.117" stroke="#263238" stroke-miterlimit="10"/>
<path d="M175.84 181.361H192.363" stroke="#263238" stroke-miterlimit="10"/>
<path d="M308.946 67.5327H332.813" stroke="#263238" stroke-miterlimit="10"/>
<path d="M308.946 73.959H332.813" stroke="#263238" stroke-miterlimit="10"/>
<path d="M308.946 80.3848H325.469" stroke="#263238" stroke-miterlimit="10"/>
<path d="M238.262 162.084H262.129" stroke="#263238" stroke-miterlimit="10"/>
<path d="M238.262 168.51H262.129" stroke="#263238" stroke-miterlimit="10"/>
<path d="M238.262 174.936H254.785" stroke="#263238" stroke-miterlimit="10"/>
<path d="M193.281 119.858H246.524" stroke="#263238" stroke-miterlimit="10"/>
<path d="M193.281 131.792H246.524" stroke="#263238" stroke-miterlimit="10"/>
<path d="M193.281 143.725H246.524" stroke="#263238" stroke-miterlimit="10"/>
<path d="M281.838 150.206C291.09 150.206 298.591 142.706 298.591 133.453C298.591 124.201 291.09 116.7 281.838 116.7C272.586 116.7 265.085 124.201 265.085 133.453C265.085 142.706 272.586 150.206 281.838 150.206Z" stroke="#263238" stroke-width="0.793303" stroke-miterlimit="10"/>
<path d="M281.866 116.645V133.627H298.848" stroke="#263238" stroke-miterlimit="10"/>
<path opacity="0.6" d="M348.538 40.3984H156.443V194.636H348.538V40.3984Z" fill="white"/>
<path d="M276.137 123.64L261.964 115.378C259.704 115.547 257.433 115.442 255.198 115.066C251.527 114.433 250.737 114.396 251.178 111.505C251.618 108.613 251.003 104.757 252.096 104.354C253.188 103.95 260.917 107.208 262.258 109.421L276.56 114.534L276.137 123.64Z" fill="#B97964"/>
<path d="M318.125 109.641V126.164C318.125 126.164 314.6 127.33 310.222 128.551C305.2 129.946 299.059 131.415 295.865 131.305C289.898 131.011 269.702 120.528 269.702 120.528L273.374 113.533C273.374 113.533 295.406 121.042 298.16 120.5C300.913 119.959 318.125 109.641 318.125 109.641Z" fill="#407BFF"/>
<path opacity="0.2" d="M318.125 117.692V126.174C318.125 126.174 314.6 127.34 310.222 128.561C311.837 123.641 315.867 119.629 318.125 117.692Z" fill="black"/>
<path d="M321.797 168.456C321.797 168.456 311.846 221.478 309.194 243.252C305.724 271.654 291.541 313.202 291.541 313.202L297.214 314.67C297.214 314.67 317.207 279.365 321.081 247.594C336.962 215.125 338.238 175.138 338.238 175.138L321.797 168.456Z" fill="#B97964"/>
<path d="M281.021 326.054C281.937 325.632 282.924 325.383 283.931 325.319C283.931 325.319 287.419 323.263 290.88 315.295H294.763C295.419 315.304 296.057 315.514 296.59 315.896C297.124 316.279 297.527 316.815 297.746 317.434C297.81 317.608 297.847 317.79 297.857 317.975C297.816 318.899 297.718 319.818 297.563 320.729C296.987 323.832 296.227 326.897 295.286 329.909L294.625 329.735L295.828 323.942C296.223 321.969 294.157 323.869 293.193 325.861C292.229 327.853 290.761 329.845 286.474 328.863C281.471 327.678 279.451 326.953 281.021 326.054Z" fill="#2E353A"/>
<path d="M332.161 167.611C332.161 167.611 333.401 221.542 335.31 243.399C337.788 271.902 332.501 315.487 332.501 315.487L338.358 315.744C338.358 315.744 350.613 277.07 347.859 245.18C356.68 210.122 349.695 170.741 349.695 170.741L332.161 167.611Z" fill="#B97964"/>
<path d="M323.395 327.833C324.261 327.312 325.217 326.954 326.213 326.778C326.213 326.778 329.462 324.363 332.033 316.065L335.897 315.624C336.554 315.562 337.215 315.705 337.787 316.033C338.359 316.362 338.815 316.861 339.092 317.46C339.174 317.625 339.23 317.801 339.257 317.983C339.317 318.922 339.317 319.863 339.257 320.802C339.022 323.936 338.599 327.054 337.99 330.137L337.311 330.036L337.88 324.143C338.064 322.142 336.21 324.262 335.466 326.337C334.722 328.412 333.483 330.56 329.104 330.055C324.019 329.394 321.935 328.898 323.395 327.833Z" fill="#2E353A"/>
<path d="M351.934 75.8688C351.934 75.8688 354.844 76.0249 357.295 80.8075C359.746 85.5902 356.68 90.9052 356.065 93.448C355.45 95.9908 352.393 98.2398 357.442 102.086C362.491 105.932 365.52 110.017 361.426 114.176C357.332 118.334 361.83 121.52 355.918 124.604C350.007 127.688 328.223 123.071 325.469 117.104C322.715 111.137 326.038 106.603 326.213 104.822C326.387 103.041 322.715 101.214 321.797 95.3849C320.879 89.5558 325.579 88.3073 326.213 85.6452C326.846 82.9831 323.899 79.6233 326.213 73.9594C328.526 68.2955 351.622 67.0746 351.934 75.8688Z" fill="#2E353A"/>
<path d="M366.594 155.282C363.115 155.732 359.095 148.939 356.185 142.605C353.697 137.235 351.962 132.186 351.962 132.186L353.798 127.009L358.59 113.496C358.59 113.496 361.94 118.169 366.98 135.959C367.788 138.823 368.761 142.027 369.651 145.607C369.644 146.511 369.924 147.395 370.45 148.131C370.45 150.821 370.771 154.741 366.594 155.282Z" fill="#407BFF"/>
<path opacity="0.2" d="M356.12 142.606C353.642 137.236 351.934 132.187 351.934 132.187L353.77 127.009C355.055 130.589 356.937 137.079 356.12 142.606Z" fill="black"/>
<path opacity="0.2" d="M370.45 148.132C368.614 149.343 366.695 149.325 365.621 147.113C363.446 142.642 365.548 138.218 367.035 135.95C367.852 138.814 368.788 142.018 369.679 145.598C369.649 146.505 369.921 147.395 370.45 148.132Z" fill="black"/>
<path d="M315.684 153.52C315.684 153.52 334.043 160.093 351.54 158.872C351.54 158.872 349.952 137.208 340.772 133.353C331.592 129.497 315.684 135.005 315.684 153.52Z" fill="#407BFF"/>
<path opacity="0.2" d="M315.684 153.52C315.684 153.52 334.043 160.093 351.54 158.872C351.54 158.872 349.952 137.208 340.772 133.353C331.592 129.497 315.684 135.005 315.684 153.52Z" fill="black"/>
<path d="M318.281 155.063L348.575 157.679C348.869 150.17 349.949 142.712 351.797 135.427C352.522 132.526 353.431 129.286 354.597 125.541C355.221 123.539 355.909 121.391 356.68 119.115C357.259 117.361 357.883 115.498 358.571 113.534C354.458 112.22 350.255 111.205 345.995 110.495C341.5 109.697 336.954 109.218 332.391 109.063C326.497 109.063 319.723 109.678 319.723 109.678C319.723 109.678 318.759 109.908 318.153 116.159C317.611 121.988 317.07 133.72 318.281 155.063Z" fill="#407BFF"/>
<path d="M318.428 159.607L348.721 162.103C349.199 154.576 349.557 144.405 351.824 135.427C352.549 132.526 353.458 129.286 354.624 125.541C355.248 123.539 355.937 121.391 356.708 119.115C357.286 117.361 357.91 115.498 358.599 113.534C354.485 112.22 350.282 111.205 346.023 110.495C341.527 109.697 336.981 109.218 332.418 109.063C326.525 109.063 319.75 109.678 319.75 109.678C319.75 109.678 318.786 109.908 318.181 116.159C317.611 121.988 317.207 138.264 318.428 159.607Z" fill="#2E353A"/>
<path d="M334.897 115.727C342.369 114.809 344.609 111.578 344.609 111.578C339.872 107.107 343.81 99.3594 343.81 99.3594L334.823 101.039C335.034 102.293 335.151 103.56 335.172 104.83C335.246 110.283 332.776 110.338 332.776 110.338C331.197 113.285 334.897 115.727 334.897 115.727Z" fill="#B97964"/>
<path opacity="0.2" d="M334.823 101.04C335.034 102.293 335.151 103.56 335.172 104.831C341.24 104.831 343.81 99.3232 343.81 99.3232L334.823 101.04Z" fill="black"/>
<path d="M339.79 75.8962C331.978 75.4739 329.233 79.5222 328.223 87.5361C326.956 97.5603 328.792 104.831 338.679 103.215C352.09 101.039 352.77 76.6122 339.79 75.8962Z" fill="#B97964"/>
<path d="M333.29 87.3804C332.602 88.5132 331.779 89.5582 330.839 90.4923C331.052 90.8283 331.353 91.0994 331.709 91.2759C332.065 91.4524 332.463 91.5275 332.859 91.4929L333.29 87.3804Z" fill="#A24E3F"/>
<path d="M338.11 87.0039C338.11 87.6465 338.367 88.1881 338.798 88.2248C339.23 88.2615 339.606 87.7658 339.661 87.1232C339.716 86.4807 339.404 85.9391 338.973 85.9023C338.541 85.8656 338.165 86.3522 338.11 87.0039Z" fill="#2E353A"/>
<path d="M339.156 85.9485L337.798 85.2876C337.798 85.2876 338.403 86.5177 339.156 85.9485Z" fill="#2E353A"/>
<path d="M330.151 86.2412C330.105 86.8838 330.408 87.4346 330.839 87.4621C331.271 87.4896 331.647 87.0031 331.702 86.3605C331.757 85.7179 331.445 85.1763 331.023 85.1396C330.601 85.1029 330.206 85.5986 330.151 86.2412Z" fill="#2E353A"/>
<path d="M331.197 85.1864L329.839 84.5347C329.839 84.5347 330.445 85.7647 331.197 85.1864Z" fill="#2E353A"/>
<path d="M338.486 81.6068C339.108 81.565 339.731 81.6666 340.307 81.9038C340.883 82.1409 341.397 82.5073 341.809 82.9746" stroke="#2E353A" stroke-width="0.72468" stroke-linecap="round" stroke-linejoin="round"/>
<path d="M332.813 80.9734C332.287 80.8102 331.73 80.7675 331.185 80.8485C330.64 80.9296 330.12 81.1322 329.664 81.4415" stroke="#2E353A" stroke-width="0.72468" stroke-linecap="round" stroke-linejoin="round"/>
<path d="M333.823 94.6136C334.144 95.5116 334.399 96.4321 334.585 97.3675C334.756 97.3767 334.928 97.3767 335.099 97.3675C337.384 97.2665 338.403 96.4495 338.853 95.605C339.061 95.1799 339.162 94.7103 339.147 94.2372C339.154 93.9704 339.12 93.7041 339.046 93.4478C337.68 94.1456 336.181 94.5431 334.649 94.6136C334.126 94.6136 333.823 94.6136 333.823 94.6136Z" fill="#2E353A"/>
<path d="M334.649 94.614L334.897 95.4218C337.054 95.3208 338.569 94.9536 339.193 94.2743C339.2 94.0075 339.166 93.7412 339.092 93.4849C337.709 94.1763 336.194 94.5614 334.649 94.614Z" fill="white"/>
<path d="M335.099 97.368C337.384 97.267 338.403 96.45 338.853 95.6055C337.985 95.6599 337.133 95.8681 336.338 96.2205C335.815 96.4638 335.381 96.8651 335.099 97.368Z" fill="#DE5753"/>
<path d="M347.611 89.5372C347.611 89.5372 344.306 82.9187 345.132 77.9891C345.132 77.9891 329.995 70.8198 328.37 86.4896C328.37 86.4896 327.617 72.4538 341.066 72.876C354.514 73.2983 353.385 92.9521 346.124 98.4232C346.124 98.4232 349.649 93.6957 347.611 89.5372Z" fill="#2E353A"/>
<path d="M346.243 91.1163C346.304 90.67 346.452 90.2401 346.68 89.8513C346.907 89.4624 347.209 89.1223 347.568 88.8502C347.927 88.5782 348.336 88.3797 348.772 88.266C349.208 88.1524 349.662 88.1259 350.108 88.188C352.513 88.5827 353.394 93.6132 347.354 94.4853C346.427 94.6138 345.986 93.6958 346.243 91.1163Z" fill="#B97964"/>
<path d="M351.54 112.404C351.54 112.404 342.764 119.518 334.649 119.399C326.534 119.279 323.633 110.109 323.633 110.109C323.633 110.109 336.237 106.354 351.54 112.404Z" fill="#B97964"/>
<path d="M350.787 111.063C350.787 111.063 336.393 136.84 351.54 158.872C351.54 158.872 353.596 131.69 358.581 113.496L350.787 111.063Z" fill="#407BFF"/>
<path d="M324.377 109.025C324.377 109.025 324.248 127.266 321.623 134.04C318.997 140.815 315.665 153.52 315.665 153.52C315.665 153.52 313.132 123.135 318.107 109.64L324.377 109.025Z" fill="#407BFF"/>
<path d="M345.132 77.9897C345.132 77.9897 339.312 75.9793 334.19 77.9897C329.068 80 330.463 85.3335 327.865 86.3065" stroke="#2E353A" stroke-width="0.5" stroke-linecap="round" stroke-linejoin="round"/>
<path d="M391.334 105.739L388.929 104.362L380.089 106.777L368.155 103.683L365.401 112.743C365.401 112.743 364.832 122.841 365.401 122.961C365.97 123.08 379.06 123.759 379.06 123.759L385.716 119.518L391.334 105.739Z" fill="#E0E0E0"/>
<path d="M364.942 104.362L359.664 125.265L375.958 127.091L387.203 123.989L392.94 104.362L380.089 107.695L364.942 104.362Z" fill="#407BFF"/>
<path opacity="0.4" d="M380.089 107.695L375.958 127.091L359.664 125.265L364.942 104.362L380.089 107.695Z" fill="white"/>
<path opacity="0.2" d="M380.089 107.695L375.958 127.091L387.203 123.989L392.94 104.362L380.089 107.695Z" fill="white"/>
<path d="M365.787 146.02L373.36 131.48C373.085 129.23 373.085 126.955 373.36 124.705C373.819 121.033 373.819 120.216 376.72 120.519C379.62 120.822 383.458 120.033 383.917 121.107C384.376 122.181 381.466 130.048 379.327 131.489L374.875 146.02H365.787Z" fill="#B97964"/>
<path d="M363.336 154.007C368.155 158.11 373.663 154.585 376.72 142.807L367.237 141.586L363.336 154.007Z" fill="#407BFF"/>
<path d="M367.724 138.998L365.787 142.413L377.794 144.029V140.513L367.724 138.998Z" fill="#2E353A"/>
<path d="M269.216 121.373L272.539 123.466L274.714 111.551L271.199 111.386L269.216 121.373Z" fill="#2E353A"/>
<path d="M318.428 159.607L299.335 271.783C299.335 271.783 345.545 277.291 361.206 274.078C361.206 274.078 365.052 193.774 348.703 162.085L318.428 159.607Z" fill="#407BFF"/>
<path opacity="0.4" d="M318.428 159.607L299.335 271.783C299.335 271.783 345.545 277.291 361.206 274.078C361.206 274.078 365.052 193.774 348.703 162.085L318.428 159.607Z" fill="white"/>
<path d="M256.428 110.293L251.673 105.382C248.837 102.417 244.981 98.5335 241.153 94.6321L235.49 88.9407L230.542 83.9745L227.044 80.4678C226.622 80.0455 226.282 79.7151 226.062 79.4856C225.966 79.433 225.86 79.4009 225.751 79.3914C225.642 79.382 225.532 79.3953 225.429 79.4305L226.723 78.127C226.688 78.2306 226.674 78.3404 226.684 78.4495C226.693 78.5585 226.725 78.6644 226.778 78.7604L227.769 79.7426L231.294 83.2217L236.27 88.1512L241.998 93.7876C245.918 97.5972 249.819 101.434 252.793 104.262L257.732 108.989L256.428 110.293Z" fill="#2E353A"/>
<path d="M291.578 313.201C291.578 313.201 286.731 323.354 283.931 325.318C283.931 325.318 287.676 327.549 291.578 322.564C296.626 316.139 297.857 317.975 297.857 317.975C297.756 316.866 297.554 315.769 297.251 314.697C296.489 312.595 291.578 313.201 291.578 313.201Z" fill="#B97964"/>
<path d="M333.098 313.091C333.098 313.091 331.721 316.855 329.885 320.986C329.044 323.126 327.797 325.084 326.213 326.751C326.213 326.751 329.407 327.788 331.124 325.787C332.841 323.786 335.787 316.607 339.092 317.397C338.916 316.809 338.67 316.245 338.358 315.717C337.862 314.927 333.098 313.091 333.098 313.091Z" fill="#B97964"/>
<path d="M179.071 330.534L179.824 216.476H172.361L173.104 330.534H179.071Z" fill="#407BFF"/>
<path opacity="0.5" d="M173.104 330.533H179.08L179.677 239.406L179.824 216.705H172.361L172.507 239.406L173.104 330.533Z" fill="white"/>
<path opacity="0.2" d="M179.824 216.705L179.677 239.654H172.507L172.361 216.705H179.824Z" fill="black"/>
<path d="M237.041 330.534L230.34 216.476H222.877L231.074 330.534H237.041Z" fill="#407BFF"/>
<path opacity="0.5" d="M231.065 330.533H237.041L230.744 223.47L230.34 216.705H222.877L223.372 223.47L231.065 330.533Z" fill="white"/>
<path opacity="0.2" d="M230.744 223.13H223.372L222.877 216.705H230.34L230.744 223.13Z" fill="black"/>
<path d="M121.11 330.534L129.298 216.476H121.835L115.134 330.534H121.11Z" fill="#407BFF"/>
<path opacity="0.3" d="M121.11 330.533L128.803 223.47L129.298 216.705H121.835L121.431 223.47L115.134 330.533H121.11Z" fill="white"/>
<path opacity="0.2" d="M121.835 216.705H129.298L128.803 223.13H121.431L121.835 216.705Z" fill="black"/>
<path d="M115.923 212.959H236.251V218.017C236.251 218.277 236.2 218.535 236.1 218.776C236.001 219.016 235.855 219.235 235.671 219.419C235.486 219.603 235.268 219.749 235.027 219.849C234.787 219.949 234.529 220 234.269 220H117.906C117.646 220 117.388 219.949 117.148 219.849C116.907 219.749 116.688 219.603 116.504 219.419C116.32 219.235 116.174 219.016 116.074 218.776C115.975 218.535 115.923 218.277 115.923 218.017V212.959Z" fill="#407BFF"/>
<path opacity="0.4" d="M115.923 212.959H236.251V218.017C236.251 218.277 236.2 218.535 236.1 218.776C236.001 219.016 235.855 219.235 235.671 219.419C235.486 219.603 235.268 219.749 235.027 219.849C234.787 219.949 234.529 220 234.269 220H117.906C117.646 220 117.388 219.949 117.148 219.849C116.907 219.749 116.688 219.603 116.504 219.419C116.32 219.235 116.174 219.016 116.074 218.776C115.975 218.535 115.923 218.277 115.923 218.017V212.959Z" fill="white"/>
<path opacity="0.2" d="M236.251 212.959H115.923V216.484H236.251V212.959Z" fill="black"/>
<path d="M239.74 213.877H112.435C111.908 213.875 111.404 213.664 111.033 213.29C110.661 212.917 110.452 212.412 110.452 211.885C110.452 211.359 110.661 210.855 111.033 210.483C111.405 210.111 111.909 209.902 112.435 209.902H239.74C240.266 209.902 240.77 210.111 241.142 210.483C241.514 210.855 241.723 211.359 241.723 211.885C241.723 212.412 241.514 212.917 241.142 213.29C240.771 213.664 240.266 213.875 239.74 213.877Z" fill="#407BFF"/>
<path opacity="0.4" d="M239.74 213.877H112.435C111.908 213.875 111.404 213.664 111.033 213.29C110.661 212.917 110.452 212.412 110.452 211.885C110.452 211.359 110.661 210.855 111.033 210.483C111.405 210.111 111.909 209.902 112.435 209.902H239.74C240.266 209.902 240.77 210.111 241.142 210.483C241.514 210.855 241.723 211.359 241.723 211.885C241.723 212.412 241.514 212.917 241.142 213.29C240.771 213.664 240.266 213.875 239.74 213.877Z" fill="white"/>
<path d="M169.184 212.959V216.86C169.184 217.273 169.265 217.681 169.423 218.062C169.581 218.443 169.812 218.789 170.104 219.08C170.395 219.372 170.741 219.603 171.122 219.761C171.503 219.919 171.911 220 172.324 220H235.177C235.704 220 236.209 219.791 236.583 219.42C236.956 219.048 237.167 218.544 237.169 218.017V212.959H169.184Z" fill="#407BFF"/>
<path opacity="0.6" d="M169.184 212.959V216.86C169.184 217.273 169.265 217.681 169.423 218.062C169.581 218.443 169.812 218.789 170.104 219.08C170.395 219.372 170.741 219.603 171.122 219.761C171.503 219.919 171.911 220 172.324 220H235.177C235.704 220 236.209 219.791 236.583 219.42C236.956 219.048 237.167 218.544 237.169 218.017V212.959H169.184Z" fill="white"/>
<path opacity="0.2" d="M237.169 212.959H169.184V216.484H237.169V212.959Z" fill="black"/>
<path d="M240.538 209.903H167.495C166.969 209.903 166.463 210.111 166.09 210.483C165.717 210.854 165.506 211.359 165.503 211.886C165.503 212.414 165.713 212.921 166.087 213.294C166.46 213.668 166.967 213.878 167.495 213.878H240.649C240.927 213.878 241.202 213.819 241.457 213.706C241.711 213.593 241.939 213.428 242.125 213.221C242.311 213.014 242.451 212.77 242.537 212.505C242.623 212.24 242.652 211.96 242.622 211.684C242.553 211.183 242.302 210.726 241.918 210.398C241.534 210.069 241.043 209.893 240.538 209.903Z" fill="#407BFF"/>
<path opacity="0.6" d="M240.538 209.903H167.495C166.969 209.903 166.463 210.111 166.09 210.483C165.717 210.854 165.506 211.359 165.503 211.886C165.503 212.414 165.713 212.921 166.087 213.294C166.46 213.668 166.967 213.878 167.495 213.878H240.649C240.927 213.878 241.202 213.819 241.457 213.706C241.711 213.593 241.939 213.428 242.125 213.221C242.311 213.014 242.451 212.77 242.537 212.505C242.623 212.24 242.652 211.96 242.622 211.684C242.553 211.183 242.302 210.726 241.918 210.398C241.534 210.069 241.043 209.893 240.538 209.903Z" fill="white"/>
<path d="M183.697 193.435L175.665 208.269" stroke="#2E353A" stroke-width="2" stroke-miterlimit="10"/>
<path d="M108.029 177.232C108.029 177.232 115.281 164.316 116.474 161.792C117.668 159.267 120.881 141.477 120.881 141.477C120.586 140.624 120.392 139.74 120.302 138.843C120.302 137.925 120.881 133.674 120.881 133.674C120.881 133.674 120.881 133.335 123.176 132.646C125.47 131.958 127.995 131.04 128.224 132.068C128.454 133.096 127.876 140.219 127.187 140.908C126.652 141.482 126.161 142.096 125.718 142.744C125.718 142.744 123.781 161.709 122.9 164.5C122.019 167.291 114.794 182.226 114.794 182.226L108.029 177.232Z" fill="#E4897B"/>
<path d="M141.875 193.242C141.875 193.242 159.959 201.1 162.575 202.018C165.191 202.935 173.049 203.119 173.049 203.119C173.876 202.756 174.741 202.488 175.628 202.32C176.546 202.238 180.815 202.449 180.815 202.449C180.815 202.449 181.164 202.449 182.045 204.652C182.926 206.855 184.055 209.315 183.046 209.628C182.036 209.94 174.903 209.986 174.16 209.361L173.416 208.728C173.416 208.728 163.318 211.133 160.473 210.5C157.627 209.866 137.523 204.074 137.523 204.074L141.875 193.242Z" fill="#E4897B"/>
<path d="M117.704 179.463C117.055 182.686 115.698 185.725 113.73 188.358C109.856 193.866 104.394 197.446 102.916 191.782C100.667 183.227 110.205 172.505 110.205 172.505L117.704 179.463Z" fill="#407BFF"/>
<path opacity="0.2" d="M117.704 179.463C117.055 182.686 115.698 185.724 113.73 188.358C113.293 187.929 112.956 187.408 112.744 186.834C112.531 186.259 112.448 185.645 112.499 185.035C113.032 181.207 117.704 179.463 117.704 179.463Z" fill="black"/>
<path d="M136.918 173.046C136.401 174.93 135.348 176.623 133.888 177.921C131.727 179.858 128.941 180.952 126.04 181.005C123.17 181.074 120.384 180.039 118.255 178.114C114.042 174.313 114.17 169.944 113.665 162.508C113.16 155.072 121.239 149.418 129.418 152.41C137.597 155.403 138.754 166.373 136.918 173.046Z" fill="#E4897B"/>
<path d="M126.866 147.655C126.866 147.655 132.585 145.562 136.596 148.894C140.608 152.226 140.388 160.249 136.596 164.041C136.596 164.041 137.634 162.664 134.65 159.331C131.667 155.999 126.866 147.655 126.866 147.655Z" fill="#2E353A"/>
<path opacity="0.2" d="M133.888 177.921C131.727 179.858 128.941 180.953 126.04 181.005C126.578 179.762 127.452 178.694 128.564 177.921C130.29 178.802 132.429 178.389 133.888 177.921Z" fill="black"/>
<path d="M135.357 299.552L134.384 305.638L133.493 311.256H125.351L126.058 304.068L126.728 297.184L135.357 299.552Z" fill="#E4897B"/>
<path d="M133.035 308.07L124.773 307.547C124.704 307.54 124.634 307.546 124.568 307.565C124.502 307.585 124.44 307.617 124.386 307.661C124.332 307.704 124.287 307.758 124.255 307.819C124.222 307.88 124.201 307.946 124.194 308.015L123.377 314.533C123.357 314.876 123.473 315.213 123.7 315.471C123.927 315.728 124.247 315.886 124.589 315.91C127.472 316.048 128.858 315.965 132.493 316.167C134.724 316.295 139.121 316.773 142.205 316.47C145.289 316.167 144.904 313.138 143.573 312.991C140.424 312.633 136.229 310.319 134.274 308.557C133.925 308.264 133.49 308.093 133.035 308.07Z" fill="#2E353A"/>
<path d="M135.568 309.485C134.904 309.426 134.249 309.297 133.613 309.099C133.582 309.09 133.554 309.073 133.532 309.048C133.511 309.024 133.498 308.993 133.494 308.961C133.49 308.928 133.494 308.895 133.507 308.864C133.52 308.834 133.541 308.807 133.567 308.787C133.815 308.64 135.99 307.346 136.872 307.75C136.97 307.799 137.056 307.871 137.12 307.961C137.184 308.05 137.225 308.154 137.239 308.264C137.283 308.426 137.282 308.598 137.235 308.76C137.188 308.922 137.097 309.068 136.973 309.182C136.558 309.454 136.058 309.562 135.568 309.485ZM136.725 308.098C136.257 307.878 134.999 308.42 134.109 308.906C135.403 309.246 136.376 309.264 136.743 308.952C136.819 308.873 136.875 308.776 136.904 308.67C136.932 308.565 136.934 308.453 136.908 308.346C136.901 308.293 136.88 308.242 136.848 308.199C136.816 308.156 136.774 308.121 136.725 308.098Z" fill="#407BFF"/>
<path d="M133.613 309.099C133.589 309.109 133.563 309.109 133.539 309.099C133.496 309.066 133.466 309.016 133.457 308.962C133.457 308.897 133.457 306.74 134.21 306.07C134.312 305.986 134.432 305.925 134.56 305.892C134.689 305.859 134.823 305.854 134.953 305.877C135.1 305.89 135.238 305.95 135.346 306.05C135.454 306.15 135.526 306.283 135.55 306.428C135.66 307.245 134.467 308.714 133.714 309.099C133.698 309.107 133.681 309.112 133.663 309.112C133.646 309.112 133.628 309.107 133.613 309.099ZM134.806 306.235C134.737 306.231 134.668 306.241 134.603 306.264C134.539 306.288 134.48 306.325 134.43 306.373C133.984 307.053 133.765 307.856 133.806 308.668C134.518 308.147 135.014 307.382 135.201 306.52C135.201 306.419 135.137 306.29 134.898 306.244L134.806 306.235Z" fill="#407BFF"/>
<path opacity="0.2" d="M135.357 299.552L134.384 305.638L126.058 304.068L126.728 297.184L135.357 299.552Z" fill="black"/>
<path d="M145.244 253.314C141.471 248.339 131.713 245.814 123.864 244.557L121.22 264.247C126.058 265.248 128.068 267.919 128.335 269.03C129.61 274.299 123.515 301.774 123.515 301.774L136.192 304.831C136.192 304.831 151.972 262.191 145.244 253.314Z" fill="#2E353A"/>
<path opacity="0.2" d="M145.244 253.314C141.471 248.339 131.713 245.814 123.864 244.557L121.22 264.247C126.058 265.248 128.068 267.919 128.335 269.03C129.61 274.299 123.515 301.774 123.515 301.774L136.192 304.831C136.192 304.831 151.972 262.191 145.244 253.314Z" fill="black"/>
<path d="M158.306 299.552L157.333 305.638L156.443 311.256H148.3L149.007 304.068L149.677 297.184L158.306 299.552Z" fill="#E4897B"/>
<path d="M155.984 308.07L147.722 307.547C147.653 307.54 147.584 307.546 147.517 307.565C147.451 307.585 147.389 307.617 147.335 307.661C147.281 307.704 147.237 307.758 147.204 307.819C147.171 307.88 147.151 307.946 147.144 308.015L146.327 314.533C146.307 314.876 146.423 315.213 146.649 315.471C146.876 315.728 147.196 315.886 147.538 315.91C150.421 316.048 151.807 315.965 155.442 316.167C157.673 316.295 162.07 316.773 165.154 316.47C168.239 316.167 167.853 313.138 166.522 312.991C163.374 312.633 159.178 310.319 157.223 308.557C156.874 308.264 156.439 308.093 155.984 308.07Z" fill="#2E353A"/>
<path d="M158.517 309.485C157.854 309.426 157.198 309.297 156.562 309.099C156.531 309.09 156.503 309.073 156.482 309.048C156.461 309.024 156.447 308.993 156.443 308.961C156.439 308.928 156.444 308.895 156.457 308.864C156.47 308.834 156.49 308.807 156.516 308.787C156.764 308.64 158.94 307.346 159.821 307.75C159.92 307.799 160.005 307.871 160.069 307.961C160.133 308.05 160.174 308.154 160.188 308.264C160.232 308.426 160.231 308.598 160.184 308.76C160.137 308.922 160.046 309.068 159.922 309.182C159.508 309.454 159.007 309.562 158.517 309.485ZM159.674 308.098C159.206 307.878 157.948 308.42 157.058 308.906C158.352 309.246 159.325 309.264 159.692 308.952C159.769 308.873 159.824 308.776 159.853 308.67C159.882 308.565 159.883 308.453 159.858 308.346C159.85 308.293 159.83 308.242 159.798 308.199C159.765 308.156 159.723 308.121 159.674 308.098Z" fill="#407BFF"/>
<path d="M156.562 309.099C156.539 309.109 156.512 309.109 156.489 309.099C156.445 309.066 156.415 309.016 156.406 308.962C156.406 308.897 156.406 306.74 157.159 306.07C157.262 305.986 157.381 305.925 157.51 305.892C157.638 305.859 157.772 305.854 157.902 305.877C158.049 305.89 158.187 305.95 158.295 306.05C158.403 306.15 158.475 306.283 158.499 306.428C158.609 307.245 157.416 308.714 156.663 309.099C156.648 309.107 156.63 309.112 156.613 309.112C156.595 309.112 156.578 309.107 156.562 309.099ZM157.756 306.235C157.687 306.231 157.618 306.241 157.553 306.264C157.488 306.288 157.429 306.325 157.379 306.373C156.933 307.053 156.715 307.856 156.755 308.668C157.467 308.147 157.964 307.382 158.15 306.52C158.15 306.419 158.086 306.29 157.847 306.244L157.756 306.235Z" fill="#407BFF"/>
<path opacity="0.2" d="M158.306 299.552L157.333 305.638L149.007 304.068L149.677 297.184L158.306 299.552Z" fill="black"/>
<path d="M118.43 176.893C118.43 181.263 117.916 185.412 115.226 187.358C118.946 190.533 123.1 193.161 127.563 195.161C132.337 191.774 130.134 188.974 130.134 188.974C125.957 186.688 127.26 181.336 128.564 177.958C128.564 177.958 127.536 176.297 121.679 176.278C119.081 176.232 118.43 176.893 118.43 176.893Z" fill="#E4897B"/>
<path d="M95.8933 239.829C95.8933 239.829 87.3562 263.971 111.554 263.971C135.752 263.971 137.707 254.535 135.66 243.427L95.8933 239.829Z" fill="#2E353A"/>
<path d="M135.66 243.326C135.66 243.326 161.455 244.409 168.193 253.286C174.931 262.162 159.142 304.83 159.142 304.83L146.464 301.773C146.464 301.773 153.432 272.682 150.806 268.919C148.181 265.155 133.916 264.926 114.638 263.916C95.3609 262.906 135.66 243.326 135.66 243.326Z" fill="#2E353A"/>
<path d="M112.848 186.641L115.253 180.996C115.253 180.996 128.977 181.491 133.145 187.743C137.312 193.994 112.848 186.641 112.848 186.641Z" fill="#407BFF"/>
<path d="M140.837 195.234C141.25 202.293 140.837 216.797 135.66 243.427L95.8933 239.829C96.1503 234.202 104.568 214.915 102.778 189.524C102.712 188.625 102.824 187.721 103.107 186.865C103.391 186.008 103.841 185.216 104.431 184.534C105.021 183.852 105.74 183.293 106.546 182.889C107.353 182.485 108.231 182.244 109.13 182.18H109.36C111.315 182.107 123.24 185.632 128.839 186.476C130.997 186.871 133.09 187.394 134.87 187.899C136.505 188.348 137.959 189.295 139.029 190.61C140.099 191.926 140.731 193.542 140.837 195.234Z" fill="#407BFF"/>
<path opacity="0.2" d="M140.837 195.234C141.25 202.293 140.837 216.797 135.66 243.427L95.8933 239.829C96.1503 234.202 104.568 214.915 102.778 189.524C102.712 188.625 102.824 187.721 103.107 186.865C103.391 186.008 103.841 185.216 104.431 184.534C105.021 183.852 105.74 183.293 106.546 182.889C107.353 182.485 108.231 182.244 109.13 182.18H109.36C111.315 182.107 123.24 185.632 128.839 186.476C130.997 186.871 133.09 187.394 134.87 187.899C136.505 188.348 137.959 189.295 139.029 190.61C140.099 191.926 140.731 193.542 140.837 195.234Z" fill="black"/>
<path d="M134.87 187.899C130.501 186.981 130.014 199.723 133.191 203.395C136.367 207.066 153.303 209.82 153.303 209.82L156.443 198.346C156.443 198.346 142.517 189.552 134.87 187.899Z" fill="#407BFF"/>
<path d="M116.713 176.442C116.713 176.442 111.122 174.909 108.525 162.911C105.927 150.914 117.356 145.562 130.308 148.16C143.261 150.757 136.927 169.273 125.654 176.442C122.76 177.457 119.607 177.457 116.713 176.442Z" fill="#2E353A"/>
<path d="M130.859 166.702C131.17 168.19 132.036 169.504 133.282 170.374C134.87 171.421 136.101 169.823 136.036 167.767C135.963 165.931 135.054 163.131 133.282 162.929C131.511 162.728 130.418 164.756 130.859 166.702Z" fill="#E4897B"/>
<path d="M115.446 330.533H121.183L122.303 282.404L122.634 268.111H114.005L114.335 282.404L115.446 330.533Z" fill="#407BFF"/>
<path opacity="0.4" d="M115.446 330.533H121.183L122.303 282.404L122.634 268.111H114.005L114.335 282.404L115.446 330.533Z" fill="white"/>
<path opacity="0.2" d="M122.634 268.111L122.303 282.799H114.335L114.005 268.111H122.634Z" fill="black"/>
<path d="M148.64 330.533L145.014 269.12H137.514L142.591 330.533H148.64Z" fill="#407BFF"/>
<path opacity="0.5" d="M142.581 330.533H148.64L145.427 276.097L145.014 269.028H137.514L138.093 276.097L142.581 330.533Z" fill="white"/>
<path opacity="0.2" d="M137.514 269.028L138.093 276.372H145.427L145.014 269.028H137.514Z" fill="black"/>
<path d="M94.039 330.533L99.1154 269.12H91.6155L87.9987 330.533H94.039Z" fill="#407BFF"/>
<path opacity="0.5" d="M94.0573 330.533L98.5371 276.097L99.1154 269.028H91.6155L91.2024 276.097L87.9987 330.533H94.0573Z" fill="white"/>
<path opacity="0.2" d="M99.1154 269.028L98.5371 276.372H91.2025L91.6156 269.028H99.1154Z" fill="black"/>
<path d="M92.1939 261.07H144.445C145.048 261.07 145.644 261.189 146.201 261.419C146.758 261.65 147.264 261.988 147.69 262.414C148.117 262.84 148.455 263.346 148.685 263.903C148.916 264.46 149.035 265.057 149.035 265.66V271.783H87.604V265.641C87.6089 264.427 88.0946 263.264 88.9548 262.408C89.8151 261.551 90.9797 261.07 92.1939 261.07Z" fill="#407BFF"/>
<path d="M111.702 202.016L107.155 202.639L116.164 268.412L120.712 267.789L111.702 202.016Z" fill="#407BFF"/>
<path d="M83.2418 202.013L78.6944 202.636L87.7043 268.409L92.2517 267.786L83.2418 202.013Z" fill="#407BFF"/>
<g opacity="0.4">
<path d="M111.702 202.014L107.155 202.637L116.164 268.411L120.712 267.788L111.702 202.014Z" fill="white"/>
</g>
<g opacity="0.4">
<path d="M83.2418 202.011L78.6944 202.634L87.7043 268.408L92.2517 267.785L83.2418 202.011Z" fill="white"/>
</g>
<path d="M150.127 266.44H86.5024C85.4834 266.44 84.6573 267.266 84.6573 268.285V269.956C84.6573 270.975 85.4834 271.801 86.5024 271.801H150.127C151.146 271.801 151.972 270.975 151.972 269.956V268.285C151.972 267.266 151.146 266.44 150.127 266.44Z" fill="#407BFF"/>
<path opacity="0.6" d="M150.127 266.44H86.5024C85.4834 266.44 84.6573 267.266 84.6573 268.285V269.956C84.6573 270.975 85.4834 271.801 86.5024 271.801H150.127C151.146 271.801 151.972 270.975 151.972 269.956V268.285C151.972 267.266 151.146 266.44 150.127 266.44Z" fill="white"/>
<path d="M118.053 224.314H77.2126L73.9446 198.832H114.785L118.053 224.314Z" fill="#407BFF"/>
<path opacity="0.6" d="M118.053 224.314H77.2126L73.9446 198.832H114.785L118.053 224.314Z" fill="white"/>
</svg>
