<svg width="480" height="481" viewBox="0 0 480 481" fill="none" xmlns="http://www.w3.org/2000/svg">
<path d="M138.132 10.3159H13.6399V215.894H138.132V10.3159Z" fill="#E0E0E0"/>
<path d="M133.991 10.3159H9.49924V215.894H133.991V10.3159Z" fill="#EBEBEB"/>
<path d="M128.687 14.479H14.8028V211.72H128.687V14.479Z" fill="white"/>
<path d="M106.517 40.1099H36.4842V186.089H106.517V40.1099Z" fill="#EBEBEB"/>
<path d="M36.4842 134.404C36.3212 120.765 48.6128 107.451 62.1433 105.543C68.5989 104.643 75.4565 105.922 81.4882 103.45C92.2474 99.0481 95.6817 84.7798 106.484 80.5405L106.984 186.056H36.4842V134.404Z" fill="#E0E0E0"/>
<path d="M463.69 0.980469V114.108H300.824L294.955 1.77195L463.69 0.980469Z" fill="#E0E0E0"/>
<path d="M294.966 1.77155V113.869L457.833 113.869V1.77155L294.966 1.77155Z" fill="white"/>
<path d="M458.593 114.639H294.184V1.0459H458.593V114.639ZM295.738 113.1H457.05V2.50959H295.738V113.1Z" fill="#E0E0E0"/>
<path d="M440.183 15.7041H312.594V99.9477H440.183V15.7041Z" fill="white"/>
<path d="M440.183 15.7039H439.553H437.738H430.739L404.439 15.8015L312.594 15.9858L312.964 15.6172C312.964 41.3565 312.964 69.828 312.964 99.8499L312.561 99.4488L440.151 99.5246L439.835 99.8499C439.901 74.2082 439.955 53.2286 439.998 38.5483C439.998 31.2407 440.064 25.5378 440.085 21.6021C440.085 19.6721 440.085 18.1868 440.085 17.1459C440.085 16.1376 440.085 15.6063 440.085 15.6063C440.085 15.6063 440.085 16.0942 440.085 17.0809C440.085 18.0675 440.085 19.5637 440.085 21.4177C440.085 25.3209 440.085 31.013 440.161 38.299C440.161 52.9793 440.259 74.0781 440.335 99.7957V100.11H440.009L312.42 100.197H312.018V99.7957C312.018 69.8171 312.018 41.3023 312.018 15.563V15.1943H312.377L404.471 15.3787L430.674 15.4762H437.607H439.379C439.652 15.5324 439.921 15.6085 440.183 15.7039Z" fill="#E0E0E0"/>
<path d="M294.955 1.45752C295.963 1.94043 296.905 2.54883 297.759 3.26816C299.422 4.47164 301.694 6.17386 304.15 8.12545C306.606 10.077 308.747 11.931 310.268 13.3188C311.144 14.0102 311.926 14.812 312.594 15.7041C312.453 15.8776 308.529 12.6466 303.639 8.75429C298.748 4.86196 294.814 1.64184 294.955 1.45752Z" fill="#E0E0E0"/>
<path d="M457.822 1.77236C457.963 1.94584 454.127 5.20933 449.258 9.05829C444.389 12.9073 440.324 15.878 440.183 15.7045C440.042 15.5311 443.878 12.2676 448.758 8.4186C453.638 4.56964 457.68 1.59889 457.822 1.77236Z" fill="#E0E0E0"/>
<path d="M457.691 113.891L439.531 99.1997L457.691 113.891Z" fill="white"/>
<path d="M439.531 99.1999C439.672 99.0373 443.878 102.181 448.867 106.236C453.855 110.291 457.833 113.718 457.691 113.891C457.55 114.064 453.344 110.909 448.367 106.854C443.389 102.799 439.401 99.3734 439.531 99.1999Z" fill="#E0E0E0"/>
<path d="M294.955 113.869C294.825 113.696 298.618 110.476 303.443 106.67C308.269 102.864 312.279 99.9261 312.42 100.1C312.561 100.273 308.758 103.493 303.943 107.299C299.129 111.104 295.097 114.043 294.955 113.869Z" fill="#E0E0E0"/>
<path d="M338.503 41.9425V70.1538H418.784V41.9425H338.503Z" fill="#E0E0E0"/>
<path d="M216.674 376.813C216.674 371.902 220.445 368.345 225.52 368.345C226.743 368.301 227.961 368.525 229.087 369C230.214 369.476 231.222 370.193 232.041 371.099L230.074 372.932C229.52 372.313 228.84 371.82 228.079 371.487C227.317 371.154 226.493 370.989 225.662 371.002C224.878 370.968 224.095 371.093 223.361 371.369C222.626 371.645 221.956 372.066 221.389 372.608C220.822 373.149 220.371 373.799 220.063 374.519C219.755 375.239 219.596 376.014 219.596 376.797C219.596 377.58 219.755 378.354 220.063 379.074C220.371 379.794 220.822 380.445 221.389 380.986C221.956 381.528 222.626 381.949 223.361 382.225C224.095 382.501 224.878 382.626 225.662 382.592C226.496 382.606 227.324 382.438 228.086 382.099C228.848 381.76 229.527 381.258 230.074 380.63L232.063 382.516C231.243 383.422 230.234 384.137 229.108 384.613C227.982 385.089 226.765 385.313 225.542 385.27C220.413 385.292 216.674 381.735 216.674 376.813Z" fill="#EBEBEB"/>
<path d="M199.905 389.726H179.43V369.299H199.905V389.726ZM180.516 388.642H198.818V370.384H180.516V388.642Z" fill="#EBEBEB"/>
<path d="M175.528 393.976C174.92 393.521 179.81 386.192 187.342 378.418C194.873 370.644 202.024 365.483 202.557 366.069C203.089 366.654 196.829 372.704 189.428 380.38C182.027 388.056 176.158 394.475 175.528 393.976Z" fill="#E0E0E0"/>
<path d="M202.839 393.532C202.176 394.009 196.59 387.232 189.211 379.372C181.831 371.511 175.441 365.483 175.952 364.854C176.463 364.225 183.766 369.408 191.276 377.442C198.785 385.476 203.459 393.141 202.839 393.532Z" fill="#E0E0E0"/>
<path d="M62.828 310.188L52.7752 309.473L50.4603 313.983L46.6022 313.712L57.0898 294.272L60.7631 294.532L68.3706 315.252L64.4582 314.98L62.828 310.188ZM61.8064 307.174L58.6439 298.121L54.2967 306.632L61.8064 307.174Z" fill="#EBEBEB"/>
<path d="M29.9961 314.807L5.28247 313.061L7.04307 288.363L31.7458 290.119L29.9961 314.807ZM6.44534 312.053L28.9854 313.658L30.5829 291.16L8.04292 289.566L6.44534 312.053Z" fill="#EBEBEB"/>
<path d="M0.0332904 318.006C-0.53184 317.518 6.15192 309.115 15.9874 300.311C25.8228 291.507 34.8866 285.728 35.3214 286.336C35.7561 286.943 27.5725 293.687 17.9327 302.404C8.29289 311.121 0.631025 318.548 0.0332904 318.006Z" fill="#E0E0E0"/>
<path d="M33.3434 319.87C32.6478 320.304 26.5401 311.467 18.2044 301.243C9.86873 291.019 2.51117 283.202 3.05456 282.606C3.59796 282.009 11.9445 289.046 20.4432 299.465C28.9419 309.884 33.9846 319.491 33.3434 319.87Z" fill="#E0E0E0"/>
<path d="M479.775 202.938C480.72 206.255 478.688 208.933 473.667 210.343L464.016 213.064L458.582 193.7L467.679 191.13C472.33 189.819 475.384 191.13 476.254 194.145C476.532 195.009 476.559 195.934 476.332 196.812C476.105 197.691 475.633 198.488 474.971 199.11C476.087 199.116 477.168 199.496 478.04 200.191C478.912 200.886 479.523 201.853 479.775 202.938ZM462.93 195.5L464.451 200.845L469.548 199.403C472.048 198.698 473.211 197.408 472.711 195.641C472.211 193.874 470.537 193.353 468.038 194.058L462.93 195.5ZM476.047 203.599C475.493 201.669 473.776 201.224 471.059 201.994L465.244 203.642L466.82 209.226L472.646 207.578C475.362 206.808 476.591 205.54 476.047 203.599Z" fill="#EBEBEB"/>
<path d="M422.186 227.245L415.437 203.468L439.27 196.735L446.019 220.512L422.186 227.245ZM416.752 204.216L422.903 225.901L444.639 219.753L438.477 198.069L416.752 204.216Z" fill="#EBEBEB"/>
<path d="M418.936 233.686C418.23 233.404 421.653 223.245 427.902 211.622C434.151 199.999 440.716 191.499 441.324 191.932C441.933 192.366 436.542 201.463 430.456 212.955C424.37 224.448 419.675 233.989 418.936 233.686Z" fill="#E0E0E0"/>
<path d="M450.899 224.134C450.388 224.773 441.639 218.539 430.315 211.752C418.991 204.965 409.405 200.097 409.731 199.349C410.057 198.6 420.295 202.395 431.771 209.334C443.248 216.273 451.377 223.559 450.899 224.134Z" fill="#E0E0E0"/>
<path d="M477.167 437.985C477.167 438.136 370.498 438.266 238.964 438.266C107.43 438.266 0.728821 438.082 0.728821 437.985C0.728821 437.887 107.376 437.703 238.964 437.703C370.553 437.703 477.167 437.768 477.167 437.985Z" fill="black"/>
<path d="M337.134 54.4214H58.0353V336.881H337.134V54.4214Z" fill="white"/>
<path d="M337.134 336.882C337.134 336.882 337.134 336.752 337.134 336.535C337.134 336.318 337.134 335.971 337.134 335.537C337.134 334.659 337.134 333.369 337.134 331.634C337.134 328.186 337.134 323.101 337.079 316.455C337.079 303.184 337.003 283.734 336.949 258.992C336.895 209.584 336.808 139.023 336.699 54.4218L337.188 54.9097L58.1222 54.9856L58.6874 54.4218C58.6874 157.932 58.6874 254.893 58.6113 336.871L58.1222 336.394L260.33 336.632L317.072 336.763L332.048 336.817H335.906H336.884H337.221H335.96H332.156L317.267 336.871L260.645 337.001L58.1222 337.24H57.6332V336.752C57.6332 254.774 57.6332 157.856 57.5571 54.3026V53.7388H58.1548L337.221 53.8147H337.721V54.3026C337.612 139.034 337.525 209.692 337.471 259.219C337.405 283.918 337.362 303.325 337.34 316.574C337.34 323.166 337.34 328.23 337.275 331.656C337.275 333.347 337.275 334.637 337.275 335.505V336.47C337.244 336.612 337.197 336.75 337.134 336.882Z" fill="#263238"/>
<path d="M79.9449 100.49V107.982H78.543V101.661H76.9563V100.49H79.9449Z" fill="black"/>
<path d="M81.3904 107.169C81.3904 107.053 81.4131 106.939 81.4574 106.833C81.5016 106.726 81.5665 106.629 81.6482 106.548C81.73 106.466 81.827 106.402 81.9338 106.357C82.0406 106.313 82.1551 106.291 82.2707 106.291C82.3863 106.291 82.5008 106.313 82.6076 106.357C82.7144 106.402 82.8114 106.466 82.8931 106.548C82.9749 106.629 83.0397 106.726 83.084 106.833C83.1282 106.939 83.151 107.053 83.151 107.169C83.151 107.284 83.1282 107.398 83.084 107.505C83.0397 107.611 82.9749 107.708 82.8931 107.79C82.8114 107.871 82.7144 107.936 82.6076 107.98C82.5008 108.024 82.3863 108.047 82.2707 108.047C82.1551 108.047 82.0406 108.024 81.9338 107.98C81.827 107.936 81.73 107.871 81.6482 107.79C81.5665 107.708 81.5016 107.611 81.4574 107.505C81.4131 107.398 81.3904 107.284 81.3904 107.169Z" fill="black"/>
<path d="M173.528 70.2073C173.492 69.4028 173.697 68.6057 174.118 67.9186C174.539 67.2315 175.157 66.686 175.892 66.3523C176.627 66.0186 177.445 65.9119 178.241 66.0461C179.037 66.1803 179.774 66.5492 180.358 67.1052C180.942 67.6612 181.346 68.3789 181.518 69.1659C181.689 69.9529 181.621 70.7731 181.321 71.5209C181.021 72.2687 180.504 72.9098 179.835 73.3617C179.167 73.8135 178.379 74.0555 177.571 74.0563C177.049 74.0828 176.527 74.0028 176.036 73.8212C175.546 73.6395 175.098 73.3601 174.72 72.9998C174.341 72.6396 174.04 72.2062 173.836 71.726C173.631 71.2459 173.526 70.7291 173.528 70.2073ZM180.212 70.2073C180.212 69.6863 180.057 69.1769 179.767 68.7436C179.477 68.3103 179.064 67.9727 178.582 67.7733C178.099 67.5738 177.568 67.5217 177.056 67.6233C176.544 67.725 176.073 67.9759 175.704 68.3444C175.335 68.7128 175.083 69.1823 174.981 69.6934C174.879 70.2044 174.931 70.7342 175.131 71.2156C175.331 71.697 175.67 72.1085 176.104 72.398C176.538 72.6875 177.049 72.842 177.571 72.842C177.92 72.851 178.267 72.7889 178.591 72.6596C178.915 72.5302 179.209 72.3363 179.455 72.0897C179.701 71.8431 179.894 71.5489 180.023 71.2253C180.151 70.9016 180.212 70.5552 180.201 70.2073H180.212Z" fill="black"/>
<path d="M189.765 66.4673V73.9592H188.624L184.483 68.8851V73.9592H183.092V66.4673H184.244L188.385 71.5197V66.4673H189.765Z" fill="black"/>
<path d="M191.787 66.4673H193.178V72.7774H197.112V73.9592H191.787V66.4673Z" fill="black"/>
<path d="M198.209 66.4673H199.601V73.9592H198.209V66.4673Z" fill="black"/>
<path d="M208.306 66.4673V73.9592H207.154L203.024 68.8851V73.9592H201.644V66.4673H202.796L206.925 71.5197V66.4673H208.306Z" fill="black"/>
<path d="M215.957 72.7883V73.9592H210.316V66.4673H215.75V67.6274H211.718V69.579H215.348V70.7174H211.718V72.7883H215.957Z" fill="black"/>
<path d="M221.988 67.6382H219.5V66.4673H225.846V67.6382H223.358V73.9592H221.956L221.988 67.6382Z" fill="black"/>
<path d="M232.563 72.7883V73.9592H226.933V66.4673H232.367V67.6274H228.281V69.579H231.9V70.7174H228.281V72.7883H232.563Z" fill="black"/>
<path d="M233.454 73.1671L233.943 72.0829C234.66 72.6143 235.528 72.903 236.421 72.9069C237.595 72.9069 238.084 72.484 238.084 71.9311C238.084 70.3156 233.617 71.3781 233.617 68.5917C233.617 67.3774 234.584 66.3582 236.649 66.3582C237.528 66.3421 238.394 66.5711 239.149 67.0196L238.703 68.1038C238.08 67.7262 237.367 67.5204 236.638 67.5075C235.475 67.5075 235.008 67.9629 235.008 68.5267C235.008 70.1205 239.453 69.0796 239.453 71.8335C239.453 73.037 238.475 74.0019 236.421 74.0019C235.368 74.05 234.327 73.7572 233.454 73.1671Z" fill="black"/>
<path d="M242.279 67.6382H239.79V66.4673H246.159V67.6382H243.67V73.9592H242.279V67.6382Z" fill="black"/>
<path d="M114.722 133.407H110.962L110.223 135.142H108.788L112.168 127.65H113.538L116.928 135.142H115.472L114.722 133.407ZM114.255 132.323L112.842 129.07L111.44 132.323H114.255Z" fill="black"/>
<path d="M76.8693 73.9478C78.5559 73.9478 79.9232 72.5838 79.9232 70.9011C79.9232 69.2185 78.5559 67.8545 76.8693 67.8545C75.1827 67.8545 73.8155 69.2185 73.8155 70.9011C73.8155 72.5838 75.1827 73.9478 76.8693 73.9478Z" fill="black"/>
<path d="M86.1179 73.9478C87.8045 73.9478 89.1718 72.5838 89.1718 70.9011C89.1718 69.2185 87.8045 67.8545 86.1179 67.8545C84.4313 67.8545 83.0641 69.2185 83.0641 70.9011C83.0641 72.5838 84.4313 73.9478 86.1179 73.9478Z" fill="black"/>
<path d="M95.3665 73.9478C97.0531 73.9478 98.4204 72.5838 98.4204 70.9011C98.4204 69.2185 97.0531 67.8545 95.3665 67.8545C93.6799 67.8545 92.3126 69.2185 92.3126 70.9011C92.3126 72.5838 93.6799 73.9478 95.3665 73.9478Z" fill="black"/>
<path d="M337.134 85.9723C337.134 86.1241 274.969 86.2542 198.296 86.2542C121.623 86.2542 59.4481 86.1241 59.4481 85.9723C59.4481 85.8205 121.602 85.6904 198.296 85.6904C274.991 85.6904 337.134 85.8205 337.134 85.9723Z" fill="black"/>
<path d="M306.617 106.919C306.617 107.071 258.222 107.201 198.535 107.201C138.849 107.201 90.4325 107.071 90.4325 106.919C90.4325 106.767 138.827 106.637 198.535 106.637C258.244 106.637 306.617 106.756 306.617 106.919Z" fill="black"/>
<path d="M173.854 114.249C173.854 114.4 155.379 114.531 132.556 114.531C109.734 114.531 91.1932 114.4 91.1932 114.249C91.1932 114.097 109.669 113.967 132.556 113.967C155.444 113.967 173.854 114.086 173.854 114.249Z" fill="black"/>
<path d="M103.039 136.323H93.1386V126.446H103.039V136.323ZM94.2254 135.239H101.952V127.53H94.2254V135.239Z" fill="black"/>
<path d="M116.472 151.86C116.472 153.14 115.461 153.888 113.527 153.888H109.799V146.396H113.309C115.113 146.396 116.081 147.155 116.081 148.348C116.092 148.685 116.007 149.019 115.836 149.311C115.665 149.603 115.414 149.84 115.113 149.996C115.518 150.108 115.872 150.353 116.119 150.692C116.365 151.03 116.49 151.442 116.472 151.86ZM111.19 147.524V149.584H113.168C114.124 149.584 114.679 149.247 114.679 148.564C114.679 147.881 114.124 147.48 113.168 147.48L111.19 147.524ZM115.059 151.752C115.059 151.004 114.494 150.668 113.44 150.668H111.19V152.836H113.44C114.494 152.836 115.059 152.468 115.059 151.752Z" fill="black"/>
<path d="M103.039 155.08H93.1386V145.246H103.039V155.08ZM94.2254 153.996H101.952V146.33H94.2254V153.996Z" fill="black"/>
<path d="M109.256 168.893C109.295 168.101 109.565 167.338 110.035 166.698C110.504 166.058 111.151 165.569 111.896 165.292C112.641 165.015 113.451 164.962 114.225 165.14C115 165.317 115.706 165.717 116.255 166.291L115.353 167.136C115.1 166.855 114.789 166.632 114.443 166.48C114.096 166.329 113.721 166.253 113.342 166.258C112.642 166.258 111.97 166.536 111.475 167.03C110.979 167.524 110.701 168.194 110.701 168.893C110.701 169.592 110.979 170.262 111.475 170.756C111.97 171.25 112.642 171.528 113.342 171.528C113.722 171.533 114.098 171.456 114.445 171.303C114.792 171.149 115.102 170.923 115.353 170.638L116.255 171.495C115.706 172.068 115 172.469 114.225 172.646C113.451 172.824 112.641 172.771 111.896 172.494C111.151 172.217 110.504 171.728 110.035 171.088C109.565 170.448 109.295 169.685 109.256 168.893Z" fill="black"/>
<path d="M103.039 173.826H93.1386V163.949H103.039V173.826ZM94.2254 172.742H101.952V165.033H94.2254V172.742Z" fill="black"/>
<path d="M109.799 183.899H113.059C115.494 183.899 117.157 185.395 117.157 187.639C117.157 189.884 115.494 191.391 113.059 191.391H109.799V183.899ZM113.059 190.209C113.411 190.232 113.764 190.182 114.095 190.064C114.427 189.945 114.731 189.76 114.988 189.52C115.245 189.28 115.45 188.989 115.59 188.667C115.73 188.344 115.802 187.996 115.802 187.645C115.802 187.293 115.73 186.946 115.59 186.623C115.45 186.301 115.245 186.01 114.988 185.77C114.731 185.53 114.427 185.344 114.095 185.226C113.764 185.107 113.411 185.058 113.059 185.081H111.19V190.209H113.059Z" fill="black"/>
<path d="M103.039 192.583H93.1386V182.706H103.039V192.583ZM94.2254 191.499H101.952V183.79H94.2254V191.499Z" fill="black"/>
<path d="M198.525 131.39C198.525 131.542 182.223 131.672 162.052 131.672C141.881 131.672 125.568 131.542 125.568 131.39C125.568 131.238 141.87 131.108 162.052 131.108C182.234 131.108 198.525 131.227 198.525 131.39Z" fill="black"/>
<path d="M298.944 150.136C298.944 150.299 260.124 150.418 212.262 150.418C164.399 150.418 125.568 150.299 125.568 150.136C125.568 149.974 164.378 149.854 212.262 149.854C260.146 149.854 298.944 149.985 298.944 150.136Z" fill="black"/>
<path d="M149.423 187.639C149.423 187.791 144.087 187.921 137.469 187.921C130.85 187.921 125.514 187.791 125.514 187.639C125.514 187.488 130.85 187.357 137.469 187.357C144.087 187.357 149.423 187.531 149.423 187.639Z" fill="black"/>
<path d="M212.251 168.893C212.251 169.045 192.852 169.175 168.91 169.175C144.968 169.175 125.568 169.045 125.568 168.893C125.568 168.741 144.968 168.611 168.91 168.611C192.852 168.611 212.251 168.73 212.251 168.893Z" fill="black"/>
<path d="M80.2167 214.332V215.503H74.674V214.571L77.6627 211.752C78.3909 211.058 78.5213 210.614 78.5213 210.202C78.5213 209.508 78.0431 209.117 77.1193 209.117C76.7866 209.1 76.4545 209.162 76.1504 209.298C75.8463 209.434 75.5787 209.639 75.3696 209.898L74.3915 209.15C74.736 208.735 75.1728 208.407 75.6672 208.19C76.1615 207.974 76.6997 207.875 77.2389 207.903C78.8691 207.903 79.9232 208.727 79.9232 210.071C79.9115 210.534 79.7938 210.987 79.579 211.397C79.3642 211.807 79.0581 212.162 78.6843 212.435L76.6737 214.343L80.2167 214.332Z" fill="black"/>
<path d="M81.0317 214.691C81.0317 214.458 81.1245 214.234 81.2895 214.07C81.4546 213.905 81.6785 213.812 81.912 213.812C82.1455 213.812 82.3694 213.905 82.5345 214.07C82.6996 214.234 82.7923 214.458 82.7923 214.691C82.7923 214.924 82.6996 215.147 82.5345 215.312C82.3694 215.476 82.1455 215.569 81.912 215.569C81.6785 215.569 81.4546 215.476 81.2895 215.312C81.1245 215.147 81.0317 214.924 81.0317 214.691Z" fill="black"/>
<path d="M112.092 240.929H108.343L107.604 242.663H106.158L109.538 235.171H110.918L114.309 242.663H112.82L112.092 240.929ZM111.636 239.844L110.223 236.592L108.81 239.844H111.636Z" fill="black"/>
<path d="M303.987 214.441C303.987 214.592 255.592 214.722 195.905 214.722C136.219 214.722 87.8242 214.636 87.8242 214.441C87.8242 214.245 136.208 214.159 195.916 214.159C255.625 214.159 303.987 214.289 303.987 214.441Z" fill="black"/>
<path d="M171.235 221.77C171.235 221.922 152.76 222.052 129.872 222.052C106.984 222.052 88.5089 221.922 88.5089 221.77C88.5089 221.618 106.984 221.488 129.872 221.488C152.76 221.488 171.235 221.608 171.235 221.77Z" fill="black"/>
<path d="M100.366 243.91H90.4651V234.033H100.366V243.91ZM91.5518 242.826H99.2789V235.117H91.5518V242.826Z" fill="black"/>
<path d="M113.842 259.382C113.842 260.661 112.831 261.409 110.908 261.409H107.169V253.917H110.647C112.451 253.917 113.418 254.676 113.418 255.869C113.427 256.206 113.341 256.539 113.17 256.831C112.999 257.122 112.75 257.36 112.451 257.517C112.862 257.621 113.225 257.864 113.478 258.203C113.732 258.543 113.86 258.959 113.842 259.382ZM108.571 255.045V257.116H110.538C111.505 257.116 112.049 256.769 112.049 256.086C112.049 255.403 111.505 255.002 110.538 255.002L108.571 255.045ZM112.44 259.274C112.44 258.525 111.875 258.189 110.821 258.189H108.571V260.358H110.821C111.875 260.325 112.44 259.989 112.44 259.241V259.274Z" fill="black"/>
<path d="M100.366 262.601H90.4651V252.724H100.366V262.601ZM91.5518 261.517H99.2789V253.808H91.5518V261.517Z" fill="black"/>
<path d="M106.637 276.436C106.631 275.916 106.733 275.399 106.936 274.919C107.138 274.439 107.437 274.006 107.813 273.645C108.19 273.285 108.637 273.005 109.126 272.823C109.615 272.641 110.136 272.561 110.658 272.588C111.214 272.565 111.768 272.665 112.281 272.88C112.794 273.096 113.252 273.422 113.625 273.834L112.733 274.68C112.48 274.4 112.169 274.177 111.823 274.026C111.476 273.874 111.101 273.798 110.723 273.802C110.022 273.802 109.351 274.079 108.855 274.574C108.36 275.068 108.082 275.738 108.082 276.436C108.082 277.135 108.36 277.805 108.855 278.299C109.351 278.794 110.022 279.071 110.723 279.071C111.102 279.076 111.478 278.999 111.825 278.845C112.172 278.692 112.482 278.466 112.733 278.182L113.625 279.039C113.077 279.613 112.372 280.015 111.598 280.193C110.823 280.372 110.013 280.319 109.269 280.042C108.524 279.764 107.877 279.275 107.409 278.634C106.941 277.993 106.673 277.229 106.637 276.436Z" fill="black"/>
<path d="M100.366 281.348H90.4651V271.471H100.366V281.348ZM91.5518 280.264H99.2789V272.555H91.5518V280.264Z" fill="black"/>
<path d="M107.169 291.42H110.429C112.864 291.42 114.527 292.917 114.527 295.172C114.527 297.427 112.864 298.912 110.429 298.912H107.169V291.42ZM110.429 297.741C110.788 297.774 111.149 297.732 111.489 297.618C111.83 297.504 112.144 297.32 112.409 297.078C112.675 296.836 112.887 296.542 113.033 296.214C113.178 295.885 113.253 295.531 113.253 295.172C113.253 294.813 113.178 294.458 113.033 294.13C112.887 293.802 112.675 293.507 112.409 293.265C112.144 293.024 111.83 292.84 111.489 292.726C111.149 292.611 110.788 292.569 110.429 292.602H108.614V297.741H110.429Z" fill="black"/>
<path d="M100.366 300.105H90.4651V290.228H100.366V300.105ZM91.5518 299.021H99.2789V291.312H91.5518V299.021Z" fill="black"/>
<path d="M195.905 238.912C195.905 239.064 179.604 239.194 159.422 239.194C139.24 239.194 122.938 239.064 122.938 238.912C122.938 238.76 139.24 238.63 159.422 238.63C179.604 238.63 195.905 238.76 195.905 238.912Z" fill="black"/>
<path d="M296.314 257.657C296.314 257.82 257.505 257.939 209.632 257.939C161.758 257.939 122.938 257.82 122.938 257.657C122.938 257.495 161.748 257.375 209.632 257.375C257.516 257.375 296.314 257.506 296.314 257.657Z" fill="black"/>
<path d="M146.804 295.161C146.804 295.323 141.457 295.443 134.85 295.443C128.242 295.443 122.895 295.323 122.895 295.161C122.895 294.998 128.242 294.879 134.85 294.879C141.457 294.879 146.804 295.009 146.804 295.161Z" fill="black"/>
<path d="M209.632 276.437C209.632 276.588 190.222 276.719 166.29 276.719C142.359 276.719 122.938 276.588 122.938 276.437C122.938 276.285 142.348 276.155 166.29 276.155C190.232 276.155 209.632 276.252 209.632 276.437Z" fill="black"/>
<path d="M279.816 320.889H235.073C233.27 320.889 231.484 320.535 229.818 319.846C228.152 319.157 226.638 318.147 225.364 316.875C224.089 315.602 223.078 314.091 222.389 312.428C221.7 310.766 221.346 308.984 221.347 307.185C221.347 303.553 222.793 300.07 225.367 297.502C227.942 294.934 231.433 293.491 235.073 293.491H279.816C283.457 293.491 286.948 294.934 289.522 297.502C292.096 300.07 293.543 303.553 293.543 307.185C293.544 308.984 293.19 310.766 292.501 312.428C291.812 314.091 290.801 315.602 289.526 316.875C288.251 318.147 286.738 319.157 285.072 319.846C283.406 320.535 281.62 320.889 279.816 320.889Z" fill="#3C6E71"/>
<path d="M246.246 303.932V311.38H244.822L241.062 306.859V311.38H239.355V303.932H240.779L244.485 308.453V303.932H246.246Z" fill="white"/>
<path d="M253.788 310.047V311.434H248.006V303.986H253.647V305.374H249.756V306.989H253.223V308.323H249.756V310.047H253.788Z" fill="white"/>
<path d="M259.787 311.38L257.983 308.8L256.211 311.38H254.233L256.994 307.596L254.375 303.932H256.331L258.048 306.349L259.733 303.932H261.602L258.994 307.531L261.787 311.38H259.787Z" fill="white"/>
<path d="M263.884 305.341H261.493V303.932H268.014V305.341H265.623V311.38H263.884V305.341Z" fill="white"/>
<path d="M277.458 310.817C277.367 310.816 277.278 310.793 277.199 310.749C277.119 310.706 277.051 310.643 277.002 310.568C276.923 310.448 276.895 310.302 276.923 310.162C276.952 310.022 277.035 309.899 277.154 309.82L280.621 307.51C280.676 307.476 280.721 307.428 280.751 307.371C280.782 307.314 280.797 307.25 280.795 307.185C280.795 307.119 280.777 307.055 280.745 306.998C280.713 306.941 280.666 306.893 280.61 306.86L277.176 304.832C277.054 304.758 276.967 304.638 276.933 304.5C276.899 304.362 276.921 304.216 276.993 304.094C277.066 303.972 277.184 303.883 277.322 303.847C277.459 303.81 277.606 303.829 277.73 303.9L281.164 305.916C281.379 306.045 281.557 306.226 281.683 306.441C281.809 306.657 281.879 306.901 281.885 307.151C281.892 307.4 281.835 307.648 281.72 307.87C281.606 308.092 281.437 308.281 281.229 308.421L277.762 310.719C277.673 310.781 277.567 310.815 277.458 310.817Z" fill="white"/>
<path d="M91.9105 154.906C91.5844 154.581 93.6819 151.946 96.6054 149.019C99.5289 146.092 102.17 144.01 102.507 144.335C102.844 144.66 100.735 147.306 97.8117 150.223C94.8883 153.139 92.2474 155.242 91.9105 154.906Z" fill="#3C6E71"/>
<path d="M104.311 155.936C103.985 156.272 101.17 153.995 98.0291 150.862C94.8883 147.728 92.5952 144.931 92.943 144.595C93.2907 144.259 96.0946 146.536 99.2246 149.669C102.355 152.802 104.648 155.611 104.311 155.936Z" fill="#3C6E71"/>
<path d="M89.5305 244.387C89.1935 244.051 91.3019 241.416 94.2254 238.5C97.1488 235.583 99.7897 233.491 100.127 233.816C100.464 234.141 98.3552 236.776 95.4209 239.703C92.4865 242.631 89.8565 244.712 89.5305 244.387Z" fill="#3C6E71"/>
<path d="M101.952 245.417C101.616 245.742 98.8116 243.476 95.6708 240.343C92.5299 237.209 90.2368 234.401 90.5846 234.076C90.9324 233.751 93.7254 236.017 96.8662 239.15C100.007 242.284 102.257 245.081 101.952 245.417Z" fill="#3C6E71"/>
<path d="M300.313 464.592L224.01 440.153C223.806 440.09 223.592 440.064 223.379 440.077L164.693 444.414C154.379 419.477 141.457 388.306 135.578 374.07C134.598 371.736 133.02 369.701 131.001 368.169C128.983 366.637 126.595 365.662 124.079 365.342L60.524 357.059C59.7683 356.967 59.0018 357.075 58.3011 357.372C57.6005 357.669 56.9902 358.144 56.5313 358.75C56.0725 359.356 55.7812 360.072 55.6866 360.825C55.5919 361.579 55.6973 362.344 55.9921 363.044L91.7801 446.301C92.2538 447.406 92.9525 448.4 93.8318 449.221C94.7111 450.043 95.7518 450.673 96.888 451.071L169.583 480.009C171.245 480.67 173.045 480.908 174.822 480.703L179.473 480.193C195.579 478.513 275.111 470.435 299.987 467.833C300.382 467.813 300.755 467.652 301.041 467.381C301.327 467.109 301.506 466.744 301.545 466.352C301.585 465.96 301.482 465.567 301.256 465.244C301.03 464.921 300.696 464.69 300.313 464.592Z" fill="#E0E0E0"/>
<path d="M300.313 464.591C300.568 464.673 300.799 464.814 300.988 465.003C301.177 465.191 301.318 465.422 301.4 465.676C301.499 465.996 301.501 466.339 301.406 466.661C301.312 466.983 301.124 467.27 300.868 467.486C300.525 467.75 300.105 467.895 299.672 467.898L298.237 468.05L280.382 469.937L214.696 476.756L192.96 479.011L181.386 480.204L175.441 480.844C173.382 481.164 171.275 480.92 169.344 480.139L120.721 460.818L107.734 455.647L101.116 453.023L97.7791 451.7C97.2249 451.462 96.6923 451.266 96.0946 451.017C95.5259 450.766 94.9865 450.453 94.4862 450.085C93.4797 449.341 92.6364 448.4 92.0083 447.32C91.3997 446.236 91.0084 445.097 90.5085 443.98L87.6068 437.247C85.6578 432.737 83.698 428.18 81.7273 423.575C73.8263 405.144 65.6319 386.148 57.2528 366.654L56.1008 363.976C55.6137 363.085 55.3631 362.085 55.3726 361.07C55.4352 360.037 55.8425 359.054 56.5298 358.278C57.2172 357.501 58.1449 356.977 59.1655 356.788C59.4155 356.734 59.6763 356.788 59.9371 356.712L60.687 356.766L62.1216 356.961L64.9798 357.33L70.6746 358.067L93.1494 361.005L115.103 363.868L120.537 364.572C122.33 364.844 124.123 364.963 125.97 365.386C129.54 366.303 132.64 368.514 134.665 371.587C135.57 373.118 136.331 374.73 136.936 376.401C137.603 378.02 138.269 379.632 138.936 381.237L142.881 390.789L150.575 409.394C155.596 421.559 160.433 433.247 165.03 444.371L164.791 444.219L221.977 440.001L223.564 439.882C223.85 439.879 224.134 439.931 224.401 440.034L225.151 440.283L228.02 441.237L233.802 443.091L244.702 446.658L263.938 452.849L290.836 461.523L297.901 463.832C299.498 464.353 300.313 464.635 300.313 464.635C300.313 464.635 299.487 464.396 297.879 463.897L290.793 461.664L263.884 453.055L244.637 446.919L233.66 443.406L227.879 441.563L224.912 440.619C224.445 440.429 223.956 440.301 223.455 440.24L221.869 440.359L164.693 444.696H164.53L164.454 444.533C159.846 433.42 155.009 421.765 149.967 409.578L142.261 390.973C140.957 387.822 139.639 384.638 138.306 381.421C137.643 379.817 136.969 378.169 136.306 376.586C135.709 374.949 134.964 373.37 134.078 371.869C132.137 368.919 129.166 366.793 125.742 365.906C124.047 365.494 122.221 365.364 120.439 365.104L115.005 364.399L93.0407 361.548L70.5659 358.62L64.8603 357.883L62.002 357.503C61.0869 357.319 60.1508 357.26 59.2198 357.33C58.3253 357.499 57.5128 357.961 56.9106 358.642C56.3083 359.324 55.9508 360.186 55.8943 361.092C55.8875 362.022 56.1235 362.937 56.5789 363.748L57.7635 366.426L82.2272 423.359C84.2051 427.956 86.1614 432.513 88.0958 437.031C89.074 439.286 90.0303 441.53 90.9976 443.764C91.4866 444.848 91.9105 446.04 92.4756 447.016C93.0615 448.032 93.8536 448.915 94.8013 449.608C95.2715 449.954 95.778 450.248 96.312 450.486C96.8336 450.713 97.3988 450.919 97.9639 451.147L101.3 452.481L107.908 455.115L120.949 460.287L169.551 479.662C171.407 480.421 173.437 480.657 175.419 480.345L181.375 479.705L192.949 478.534L214.685 476.366L280.392 469.72L298.259 467.931L299.694 467.801C300.109 467.8 300.512 467.667 300.846 467.421C301.093 467.217 301.275 466.945 301.369 466.638C301.464 466.332 301.467 466.005 301.378 465.697C301.275 465.315 301.025 464.988 300.683 464.787C300.444 464.646 300.313 464.602 300.313 464.591Z" fill="#263238"/>
<path d="M202.111 449.521L230.726 461.469L266.384 457.761L236.399 445.412L202.111 449.521Z" fill="#F5F5F5"/>
<path d="M180.538 472.105L236.399 467.074L183.06 445.975L165.91 447.265L174.974 469.08L180.538 472.105Z" fill="#F5F5F5"/>
<path d="M294.782 464.559L294.401 464.624L293.26 464.765L288.913 465.21L272.763 466.782L219.51 471.737L177.647 475.51H177.473L177.408 475.347L168.138 452.784L165.595 446.474C165.312 445.751 165.095 445.199 164.943 444.815C164.863 444.624 164.794 444.429 164.736 444.23C164.736 444.23 164.834 444.414 165.008 444.783L165.725 446.42L168.388 452.676C170.67 458.097 173.931 465.849 177.843 475.173L177.604 475.022L219.456 471.151L272.763 466.359L288.88 464.993L293.227 464.646L294.369 464.57L294.782 464.559Z" fill="black"/>
<path d="M57.8396 360.073H58.3178L59.7306 360.236L65.1646 360.941L85.0963 363.651C93.5081 364.822 103.572 366.232 114.646 367.869L123.167 369.181L125.34 369.549C125.699 369.603 126.079 369.69 126.427 369.777C126.612 369.777 126.807 369.853 126.992 369.907C127.909 370.274 128.741 370.824 129.437 371.523C129.72 371.823 129.944 372.172 130.1 372.553L130.524 373.637C132.796 379.296 135.143 385.162 137.556 391.158C147.163 415.173 155.846 436.922 162.15 452.687C165.269 460.548 167.79 466.923 169.551 471.346C170.398 473.515 171.061 475.249 171.529 476.442C171.746 477.006 171.909 477.44 172.029 477.765C172.09 477.913 172.141 478.065 172.181 478.22C172.104 478.079 172.035 477.935 171.974 477.787L171.42 476.475L169.344 471.433C167.551 467.009 164.997 460.667 161.737 452.828L137.088 391.364C134.676 385.368 132.328 379.502 130.057 373.843L129.633 372.759C129.502 372.439 129.314 372.145 129.079 371.891C128.593 371.364 128.005 370.94 127.351 370.644C127.188 370.566 127.021 370.498 126.851 370.438L126.329 370.308C125.981 370.232 125.634 370.156 125.242 370.102L123.069 369.723L114.548 368.389L85.0311 364.052L65.1211 361.157L59.6872 360.355L58.2852 360.127L57.8396 360.073Z" fill="black"/>
<path d="M114.016 409.914C116.733 413.546 117.276 417.721 115.244 419.239C113.212 420.757 109.343 419.054 106.626 415.422C103.909 411.79 103.365 407.627 105.398 406.098C107.43 404.569 111.299 406.293 114.016 409.914Z" fill="white"/>
<path d="M457.854 347.996C454.214 327.395 431.38 314.981 423.838 308.129L435.173 323.254C440.975 347.124 443.172 371.725 441.694 396.243C441.542 398.921 441.835 402.532 443.748 402.911C444.439 402.968 445.125 402.754 445.661 402.315C452.355 398.032 456.702 388.22 457.67 378.115C458.637 368.01 459.506 357.526 457.854 347.996Z" fill="#3C6E71"/>
<path d="M441.14 324.923C440.053 322.852 440.498 316.249 434.619 323.144L434.238 320.564L397.907 292.7L316.93 296.896C309.16 297.384 297.488 310.806 294.575 316.412C292.184 337.261 291.706 355.769 291.706 355.769C291.706 355.769 288.924 378.949 291.706 389.911C294.488 400.872 297.781 404.829 302.085 413.351C305.234 419.173 309.16 424.542 313.757 429.311L317.539 458.585L402.135 466.174L440.857 464.006C440.857 464.006 437.39 406.271 437.39 405.252C437.39 404.775 442.226 393.629 447.421 381.801C456.246 361.558 451.268 344.46 441.14 324.923Z" fill="#455A64"/>
<path d="M228.694 429.929C229.118 429.929 233.345 401.425 236.117 394.952C238.725 388.848 294.575 316.401 294.575 316.401L307.725 358.685L302.085 381.302L271.655 417.829L263.058 444.306L228.694 429.929Z" fill="#455A64"/>
<path d="M452.399 346.585C448.388 321.225 428.587 322.331 428.587 322.331L408.905 356.495V427.142L313.953 435.339L312.192 459.127C312.192 459.127 406.797 480.703 428.652 473.471C443.117 468.69 455.333 456.622 456.67 436.9C458.007 417.179 456.42 371.956 452.399 346.585Z" fill="#455A64"/>
<path d="M271.752 417.786C271.476 416.17 271.114 414.57 270.666 412.993C269.475 409.205 267.325 405.787 264.424 403.069C261.522 400.352 257.968 398.426 254.103 397.478C252.496 397.118 250.871 396.843 249.234 396.654C249.682 396.601 250.134 396.601 250.582 396.654C251.8 396.704 253.011 396.864 254.201 397.131C258.166 398.007 261.821 399.937 264.777 402.716C267.733 405.495 269.88 409.02 270.992 412.918C271.334 414.086 271.567 415.284 271.687 416.495C271.762 416.921 271.784 417.355 271.752 417.786Z" fill="black"/>
<path d="M317.202 434.363C317.337 434.327 317.476 434.301 317.615 434.287L318.821 434.113L323.473 433.495L340.611 431.327L397.125 424.475L409.688 422.979L409.438 423.25C410.166 404.037 410.525 387.102 410.394 374.97C410.394 368.909 410.264 364.041 410.188 360.69C410.188 359.042 410.112 357.752 410.09 356.852V355.855C410.09 355.627 410.09 355.519 410.09 355.508C410.101 355.623 410.101 355.739 410.09 355.855C410.09 356.104 410.09 356.429 410.155 356.841C410.155 357.752 410.264 359.01 410.34 360.69C410.481 364.03 410.633 368.898 410.72 374.97C410.916 387.102 410.655 404.059 409.949 423.26V423.499H409.71L397.146 425.006L340.579 431.696L323.429 433.658L318.756 434.157L317.539 434.276L317.202 434.363Z" fill="black"/>
<path d="M457.963 434.364C457.978 434.508 457.978 434.653 457.963 434.797C457.963 435.101 457.963 435.524 457.898 436.055C457.799 437.672 457.614 439.283 457.344 440.88C456.917 443.414 456.295 445.911 455.485 448.35C454.375 451.572 452.887 454.651 451.051 457.523C448.817 461.02 445.998 464.108 442.715 466.652C438.943 469.573 434.584 471.648 429.935 472.734C427.432 473.335 424.89 473.759 422.327 474.003C419.661 474.241 416.984 474.343 414.307 474.306C408.694 474.193 403.096 473.671 397.559 472.745L365.488 467.487L351.501 465.166L339.318 462.922C331.895 461.534 325.875 460.483 321.701 459.854L316.887 459.149L315.637 458.975C315.493 458.963 315.351 458.934 315.213 458.889H315.637L316.898 459.019C317.984 459.138 319.636 459.322 321.734 459.615C325.918 460.179 331.95 461.176 339.394 462.51L351.555 464.678L365.553 466.944L397.624 472.17C403.142 473.108 408.722 473.64 414.318 473.764C417.035 473.764 419.686 473.688 422.284 473.482C424.817 473.249 427.33 472.836 429.804 472.246C434.394 471.187 438.702 469.153 442.433 466.283C445.684 463.786 448.485 460.753 450.714 457.317C452.553 454.48 454.052 451.437 455.181 448.253C456.011 445.839 456.661 443.367 457.126 440.858C457.485 438.787 457.702 437.161 457.778 436.055L457.909 434.797C457.917 434.652 457.935 434.507 457.963 434.364Z" fill="black"/>
<path d="M314.637 436.109C314.593 435.964 314.564 435.815 314.55 435.664C314.496 435.328 314.42 434.883 314.344 434.341C314.17 433.127 313.92 431.436 313.616 429.289V429.365L306.421 421.417C305.019 419.422 303.752 417.336 302.628 415.172C301.372 412.709 300.262 410.175 299.303 407.583C297.182 401.724 295.724 395.647 294.955 389.466C294.197 382.774 294.04 376.029 294.488 369.31C294.825 363.13 295.466 357.579 296.075 352.938C296.683 348.298 297.259 344.557 297.672 341.966L298.161 338.995C298.216 338.681 298.259 338.432 298.303 338.226C298.311 338.136 298.333 338.048 298.368 337.965C298.378 338.052 298.378 338.139 298.368 338.226C298.368 338.442 298.368 338.692 298.281 339.006C298.183 339.743 298.064 340.741 297.901 341.999C297.553 344.59 297.042 348.341 296.477 352.993C295.912 357.644 295.401 363.173 295.064 369.353C294.649 376.038 294.816 382.745 295.564 389.401C296.321 395.544 297.75 401.587 299.824 407.42C300.763 409.986 301.852 412.495 303.085 414.934C304.184 417.086 305.422 419.164 306.791 421.157L313.887 429.202L314.474 434.265C314.528 434.818 314.572 435.263 314.615 435.599C314.653 435.766 314.66 435.939 314.637 436.109Z" fill="black"/>
<path d="M423.371 438.744C422.654 437.951 421.997 437.106 421.403 436.218C420.219 434.624 418.556 432.455 416.611 430.146C414.665 427.837 412.829 425.809 411.47 424.378C410.69 423.635 409.963 422.838 409.297 421.993C410.181 422.605 410.997 423.31 411.731 424.096C413.599 425.895 415.366 427.795 417.024 429.788C418.693 431.768 420.257 433.835 421.708 435.979C422.354 436.842 422.911 437.769 423.371 438.744Z" fill="black"/>
<path d="M251.929 433.409C251.125 428.78 246.898 425.169 246.898 425.169C246.898 425.169 244.876 419.532 241.855 418.046C238.834 416.561 236.421 419.532 233.791 418.729C231.161 417.927 225.52 417.721 223.705 418.729C221.891 419.738 219.673 425.365 219.673 425.365C217.844 425.438 216.054 425.92 214.435 426.774C213.063 427.481 211.876 428.498 210.968 429.745C210.181 429.439 209.318 429.378 208.495 429.572C207.672 429.766 206.928 430.204 206.36 430.829C205.258 432.115 204.433 433.613 203.937 435.231L202.502 439.069C202.226 439.654 202.099 440.299 202.133 440.945C202.243 441.476 202.532 441.954 202.95 442.301C203.369 442.648 203.893 442.842 204.437 442.853C204.989 442.856 205.536 442.742 206.042 442.52C206.547 442.297 207 441.971 207.371 441.563C208.111 440.834 208.763 440.023 209.316 439.145L209.675 441.66C209.675 441.66 210.273 445.639 213.501 445.878C215.728 446.051 218.141 443.471 218.141 443.471L223.782 442.864L224.586 448.491C224.957 449.575 225.668 450.512 226.612 451.164C227.557 451.816 228.687 452.148 229.835 452.112C231.856 452.112 234.465 448.697 234.465 448.697L239.714 450.703C239.714 450.703 245.756 454.931 248.582 453.522C249.372 453.123 250.003 452.467 250.37 451.663C250.738 450.86 250.82 449.955 250.604 449.098C251.81 447.734 252.763 446.166 253.418 444.469C254.179 442.062 252.777 438.039 251.929 433.409Z" fill="#FFBE9D"/>
<path d="M209.545 440.695C209.315 438.704 209.384 436.691 209.751 434.721C209.939 432.728 210.43 430.776 211.207 428.931C211.36 428.931 210.762 431.566 210.305 434.808C209.849 438.049 209.751 440.695 209.545 440.695Z" fill="#EB996E"/>
<path d="M218.358 435.404C218.701 436.772 218.862 438.179 218.837 439.589C218.952 440.607 218.848 441.639 218.532 442.614C218.217 443.373 217.772 443.698 217.739 443.611C217.706 443.525 217.967 443.188 218.152 442.527C218.338 441.581 218.379 440.612 218.272 439.654C218.106 438.24 218.135 436.81 218.358 435.404Z" fill="#EB996E"/>
<path d="M222.119 433.008C222.227 433.116 221.488 434.092 220.456 435.09C219.424 436.087 218.511 436.889 218.391 436.781C218.272 436.673 219.021 435.697 220.054 434.699C221.086 433.702 222.01 432.899 222.119 433.008Z" fill="#EB996E"/>
<path d="M222.869 422.188C222.991 423.202 223.034 424.224 222.999 425.245C222.999 427.143 223.075 429.745 223.227 432.618C223.379 435.491 223.608 438.093 223.771 439.98C223.925 440.992 223.991 442.015 223.966 443.037C223.666 442.056 223.469 441.046 223.379 440.023C223.108 438.148 222.825 435.546 222.662 432.651C222.499 429.756 222.521 427.143 222.597 425.245C222.581 424.22 222.672 423.195 222.869 422.188Z" fill="#EB996E"/>
<path d="M244.018 424.345C244.018 424.345 243.778 424.888 243.398 425.863C242.868 427.245 242.447 428.666 242.137 430.113C241.942 431.046 241.735 432.054 241.507 433.128C241.291 434.303 240.971 435.457 240.551 436.575C240.081 437.839 239.291 438.96 238.258 439.828C237.693 440.317 237.021 440.665 236.295 440.844C235.57 441.023 234.812 441.028 234.084 440.858C233.328 440.688 232.644 440.286 232.128 439.709C231.652 439.136 231.347 438.441 231.248 437.703C231.093 436.386 231.068 435.057 231.172 433.735C231.295 431.516 231.637 429.316 232.193 427.164C232.567 425.715 233.046 424.294 233.628 422.914C233.834 422.426 233.997 422.058 234.128 421.83C234.183 421.698 234.256 421.574 234.345 421.461C234.21 421.989 234.039 422.507 233.834 423.012C233.335 424.407 232.918 425.83 232.585 427.273C232.09 429.41 231.792 431.587 231.693 433.778C231.607 435.058 231.64 436.343 231.791 437.616C231.88 438.253 232.143 438.854 232.552 439.351C232.995 439.836 233.574 440.176 234.215 440.327C234.86 440.475 235.531 440.469 236.173 440.308C236.815 440.148 237.41 439.839 237.91 439.405C238.879 438.592 239.627 437.548 240.083 436.369C240.766 434.282 241.329 432.157 241.768 430.005C242.109 428.549 242.589 427.13 243.202 425.766C243.372 425.393 243.564 425.031 243.778 424.682C243.909 424.454 243.996 424.335 244.018 424.345Z" fill="#EB996E"/>
<path d="M246.148 426.785C245.995 427.987 245.463 429.11 244.629 429.991C243.795 430.871 242.702 431.465 241.507 431.685C242.459 431.058 243.363 430.363 244.213 429.604C244.927 428.713 245.574 427.771 246.148 426.785Z" fill="#EB996E"/>
<path d="M234.476 440.803C234.832 442.308 234.924 443.864 234.747 445.4C234.69 446.768 234.497 448.126 234.171 449.455V449.531C234.131 449.552 234.086 449.564 234.04 449.565C233.994 449.566 233.948 449.557 233.907 449.538C233.865 449.52 233.828 449.492 233.798 449.457C233.769 449.422 233.748 449.38 233.737 449.336C233.737 449.228 233.737 449.184 233.737 449.184C233.737 449.184 233.737 449.238 233.813 449.282C233.889 449.325 233.965 449.369 233.997 449.282L233.932 449.369C233.932 448.631 234.095 447.092 234.193 445.314C234.181 443.805 234.275 442.298 234.476 440.803Z" fill="#EB996E"/>
<path d="M247.267 436.315C246.848 437.005 246.352 437.645 245.789 438.223C244.544 439.668 243.451 441.238 242.529 442.907C241.611 444.574 241.091 446.429 241.007 448.328C241.007 449.792 241.257 450.681 241.159 450.703C240.778 449.97 240.588 449.153 240.605 448.328C240.573 446.339 241.063 444.376 242.029 442.636C242.986 440.924 244.171 439.349 245.55 437.952C246.05 437.336 246.627 436.786 247.267 436.315Z" fill="#EB996E"/>
<path d="M245.039 446.311C244.699 445.093 244.756 443.797 245.201 442.613C245.647 441.428 246.458 440.415 247.517 439.719C251.31 437.031 262.667 429.962 262.906 429.962C263.145 429.962 276.241 425.625 281.751 425.061C287.261 424.497 311.377 436.445 311.377 436.445C311.377 436.445 316.974 444.49 316.072 452.21C315.17 459.929 310.127 460.374 310.127 460.374L303.128 458.672L295.912 457.295C295.912 457.295 279.947 461.729 277.436 460.916C274.926 460.103 274.056 457.381 276.773 455.907C279.49 454.432 287.304 452.123 287.304 452.123L293.314 449.586L273.752 452.372C273.752 452.372 257.211 455.625 255.277 455.17C253.342 454.714 253.049 453.272 252.886 451.917C252.886 451.917 246.224 455.17 244.246 453.391C242.268 451.613 241.398 447.743 245.039 446.311Z" fill="#FFBE9D"/>
<path d="M287.261 441.563C286.776 441.641 286.284 441.666 285.794 441.639C284.859 441.639 283.501 441.639 281.827 441.747C279.875 441.836 277.935 442.108 276.034 442.56C274.914 442.845 273.822 443.234 272.774 443.72C271.687 444.219 270.6 444.805 269.514 445.455C268.405 446.088 267.25 446.635 266.058 447.092C264.943 447.503 263.776 447.755 262.591 447.84C260.638 447.841 258.692 448.059 256.787 448.491C255.544 448.886 254.447 449.641 253.636 450.659C253.361 451.056 253.117 451.472 252.908 451.906C252.908 451.906 252.908 451.765 252.973 451.527C253.085 451.177 253.246 450.845 253.451 450.54C254.234 449.414 255.357 448.567 256.657 448.122C258.581 447.62 260.559 447.355 262.547 447.331C264.913 447.055 267.187 446.251 269.199 444.978C270.285 444.36 271.372 443.731 272.524 443.222C273.597 442.733 274.714 442.348 275.861 442.072C277.796 441.621 279.775 441.385 281.762 441.368C283.457 441.368 284.816 441.368 285.761 441.433C286.264 441.429 286.766 441.473 287.261 441.563Z" fill="#EB996E"/>
<path d="M281.349 433.333C281.236 433.408 281.116 433.47 280.99 433.518C280.762 433.626 280.403 433.767 279.903 433.93C278.57 434.34 277.207 434.651 275.828 434.862C274.1 435.166 272.013 435.394 269.796 435.946C267.407 436.667 265.113 437.668 262.96 438.928C258.95 441.154 254.762 443.047 250.441 444.588C248.789 445.173 247.43 445.607 246.485 445.889C246.005 446.062 245.51 446.189 245.007 446.268C245.457 446.027 245.93 445.831 246.419 445.683L250.299 444.208C254.558 442.57 258.698 440.64 262.689 438.429C264.881 437.148 267.225 436.143 269.666 435.437C271.681 434.983 273.72 434.642 275.774 434.418C277.142 434.245 278.499 433.995 279.838 433.67C280.335 433.53 280.839 433.417 281.349 433.333Z" fill="#EB996E"/>
<path d="M297.227 437.985C297.083 437.562 296.978 437.126 296.912 436.684C296.652 435.67 296.151 434.733 295.451 433.954C294.751 433.174 293.872 432.575 292.891 432.206C292.458 432.09 292.037 431.938 291.63 431.751C291.63 431.686 292.173 431.621 293.021 431.827C294.122 432.122 295.114 432.728 295.879 433.572C296.638 434.421 297.133 435.472 297.303 436.597C297.417 437.057 297.39 437.54 297.227 437.985Z" fill="#EB996E"/>
<path d="M306.269 450.16C306.249 449.551 306.194 448.942 306.106 448.339C305.735 446.929 304.901 445.684 303.737 444.804C302.538 443.936 301.216 443.252 299.813 442.777C299.203 442.615 298.618 442.371 298.074 442.05C298.709 442.059 299.338 442.176 299.933 442.397C301.433 442.782 302.845 443.448 304.095 444.36C305.363 445.314 306.221 446.713 306.497 448.274C306.655 448.909 306.574 449.58 306.269 450.16Z" fill="#EB996E"/>
<path d="M252.951 451.895C252.674 452.141 252.354 452.332 252.005 452.459C251.098 452.886 250.161 453.248 249.202 453.543C248.541 453.773 247.866 453.958 247.18 454.096C246.353 454.205 245.512 454.119 244.724 453.847C244.279 453.684 243.873 453.43 243.532 453.102C243.192 452.773 242.924 452.377 242.746 451.938C242.296 451.048 242.115 450.046 242.224 449.054C242.337 448.306 242.725 447.626 243.311 447.146C243.811 446.708 244.371 446.343 244.974 446.062L244.833 446.387C244.39 445.044 244.492 443.581 245.115 442.311C245.633 441.358 246.33 440.515 247.169 439.828C247.707 439.38 248.282 438.977 248.886 438.624C249.094 438.475 249.326 438.361 249.571 438.288C249.625 438.364 248.691 438.906 247.397 440.077C246.634 440.773 246.001 441.599 245.528 442.517C244.992 443.688 244.93 445.02 245.354 446.235L245.42 446.441L245.213 446.55C244.191 447.081 242.963 447.862 242.844 449.141C242.753 450.023 242.911 450.913 243.3 451.711C243.444 452.086 243.666 452.426 243.951 452.71C244.235 452.994 244.576 453.215 244.952 453.359C245.647 453.613 246.389 453.709 247.126 453.641C247.793 453.521 248.453 453.365 249.104 453.174C250.31 452.838 251.277 452.502 251.929 452.264C252.256 452.105 252.598 451.982 252.951 451.895Z" fill="#EB996E"/>
<path d="M337.155 232.57C334.797 209.086 329.809 185.71 330.841 162.096L311.485 174.152C312.453 183.498 304.03 190.741 299.15 198.764C296.23 203.665 294.517 209.188 294.153 214.878C293.788 220.569 294.782 226.264 297.053 231.496C298.792 235.4 301.259 239.086 301.9 243.314C302.987 250.448 298.564 257.702 300.194 264.738C302.063 272.838 311.996 277.283 320.006 275.006C328.016 272.729 333.754 265.248 336.112 257.322C338.47 249.397 337.981 240.842 337.155 232.57Z" fill="#263238"/>
<path d="M312.529 170.184C313.6 164.453 316.178 159.11 320.001 154.702C323.823 150.294 328.752 146.978 334.281 145.096C339.811 143.214 345.743 142.832 351.469 143.99C357.195 145.148 362.51 147.805 366.868 151.687C370.4 154.842 373.291 158.778 377.378 161.174C381.996 163.873 382.594 162.963 387.68 164.6C392.767 166.237 402.732 179.486 402.895 184.82L406.851 208.023C406.982 213.498 400.135 217.022 394.831 215.612C389.528 214.203 385.789 209.53 382.746 204.954C379.703 200.379 376.812 195.424 372.128 192.551C364.358 187.791 354.381 190.22 345.578 192.551C336.775 194.882 326.548 196.888 319.223 191.467C312.964 186.75 311.094 177.86 312.529 170.184Z" fill="#263238"/>
<path d="M309.725 203.794C309.725 188.528 318.734 169.262 334.015 169.956L382.159 179.063C384.401 179.162 386.523 180.097 388.105 181.684C389.687 183.27 390.614 185.392 390.702 187.628L392.517 302.013H392.843C392.843 302.013 376.117 343.972 344.165 336.101C337.829 334.54 342.513 318.808 340.84 311.912L340.525 311.977C340.459 311.142 340.405 310.373 340.34 309.581C339.405 304.421 339.015 299.177 339.177 293.936C338.514 284.731 338.286 280.925 338.286 281.044C338.286 281.164 318.615 278.984 313.05 253.885C310.29 241.46 309.671 220.762 309.725 203.794Z" fill="#FFBE9D"/>
<path d="M318.224 223.766C318.266 224.613 318.638 225.411 319.262 225.988C319.885 226.565 320.71 226.877 321.56 226.856C321.977 226.864 322.391 226.79 322.779 226.636C323.166 226.482 323.519 226.252 323.816 225.96C324.113 225.668 324.348 225.319 324.507 224.935C324.667 224.551 324.747 224.138 324.744 223.722C324.702 222.875 324.33 222.077 323.706 221.5C323.083 220.923 322.258 220.611 321.408 220.632C320.991 220.624 320.577 220.698 320.189 220.852C319.802 221.006 319.449 221.236 319.152 221.528C318.855 221.82 318.62 222.169 318.461 222.553C318.301 222.937 318.221 223.35 318.224 223.766Z" fill="#263238"/>
<path d="M314.865 214.278C315.289 214.679 317.648 212.706 321.158 212.511C324.668 212.316 327.342 213.899 327.679 213.454C327.863 213.248 327.396 212.511 326.233 211.763C324.651 210.802 322.81 210.355 320.962 210.483C319.156 210.612 317.437 211.307 316.05 212.468C314.963 213.313 314.648 214.105 314.865 214.278Z" fill="#263238"/>
<path d="M349.849 221.998C349.891 222.846 350.264 223.643 350.887 224.22C351.511 224.798 352.335 225.109 353.186 225.088C353.603 225.097 354.017 225.022 354.404 224.868C354.792 224.714 355.144 224.485 355.441 224.192C355.738 223.9 355.973 223.552 356.133 223.167C356.292 222.783 356.373 222.371 356.37 221.955C356.328 221.102 355.951 220.299 355.32 219.721C354.69 219.143 353.857 218.835 353.001 218.865C352.587 218.86 352.176 218.938 351.792 219.094C351.409 219.25 351.06 219.48 350.766 219.772C350.473 220.064 350.241 220.411 350.083 220.793C349.926 221.175 349.846 221.585 349.849 221.998Z" fill="#263238"/>
<path d="M349.371 212.869C349.795 213.259 352.153 211.297 355.664 211.091C359.174 210.885 361.847 212.49 362.184 212.034C362.358 211.828 361.913 211.091 360.739 210.343C359.155 209.387 357.315 208.94 355.468 209.064C353.646 209.173 351.904 209.852 350.49 211.004C349.48 211.893 349.154 212.685 349.371 212.869Z" fill="#263238"/>
<path d="M338.21 239.574C338.21 239.368 336.036 239.129 332.45 238.891C331.548 238.891 330.689 238.717 330.504 238.121C330.373 237.201 330.525 236.264 330.939 235.432C331.656 233.264 332.395 230.911 333.178 228.482C336.275 218.572 338.449 210.452 338.047 210.332C337.645 210.213 334.786 218.139 331.722 228.038L329.602 235.042C329.1 236.149 329.012 237.399 329.352 238.565C329.5 238.875 329.717 239.146 329.986 239.359C330.256 239.571 330.571 239.719 330.906 239.791C331.41 239.895 331.925 239.936 332.439 239.91C336.003 239.888 338.21 239.769 338.21 239.574Z" fill="#263238"/>
<path d="M338.286 281.11C350.258 280.568 361.845 276.725 371.759 270.007C371.759 270.007 364.238 288.168 338.677 287.355L338.286 281.11Z" fill="#EB996E"/>
<path d="M340.198 247.911C340.814 247.032 341.644 246.325 342.61 245.856C343.576 245.388 344.647 245.173 345.719 245.233C346.497 245.252 347.262 245.429 347.968 245.754C348.675 246.078 349.307 246.543 349.827 247.12C350.332 247.674 350.654 248.369 350.749 249.112C350.844 249.855 350.708 250.609 350.36 251.272C349.836 251.934 349.125 252.425 348.32 252.682C347.515 252.938 346.651 252.95 345.839 252.714C344.146 252.229 342.568 251.411 341.198 250.307C340.777 250.055 340.408 249.723 340.112 249.331C339.971 249.146 339.889 248.924 339.875 248.692C339.862 248.461 339.918 248.23 340.035 248.03" fill="#EB996E"/>
<path d="M348.654 241.373C348.078 241.373 348.295 245.168 345.209 248.052C342.122 250.936 338.036 250.773 338.036 251.304C338.036 251.543 338.981 251.988 340.698 251.933C342.93 251.833 345.054 250.95 346.697 249.44C348.273 247.988 349.221 245.982 349.338 243.845C349.414 242.251 348.925 241.33 348.654 241.373Z" fill="#263238"/>
<path d="M347.686 199.609C348.089 200.541 351.566 199.88 355.707 200.129C359.848 200.379 363.249 201.289 363.738 200.4C363.956 199.977 363.325 199.121 361.934 198.232C360.075 197.21 358.006 196.624 355.886 196.519C353.766 196.414 351.649 196.792 349.697 197.625C348.23 198.373 347.567 199.164 347.686 199.609Z" fill="#263238"/>
<path d="M315.539 204.076C316.202 204.835 318.571 203.87 321.473 203.653C324.375 203.436 326.907 203.87 327.385 203.003C327.613 202.58 327.179 201.81 326.048 201.127C324.552 200.308 322.845 199.953 321.145 200.107C319.445 200.262 317.83 200.919 316.506 201.994C315.528 202.873 315.246 203.707 315.539 204.076Z" fill="#263238"/>
<path d="M334.449 163.428L336.427 160.544C351.206 161.308 365.812 164.073 379.845 168.763C385.452 170.638 391.147 172.948 395.168 177.274C400.711 183.215 402.069 191.802 403.156 199.847C407.308 230.455 411.133 262.016 403.265 291.897C400.7 288.298 396.027 286.899 391.636 286.324C387.246 285.75 382.67 285.771 378.595 284.004C376.381 282.993 374.405 281.531 372.791 279.712C371.178 277.894 369.964 275.758 369.227 273.444C367.775 268.773 368.017 263.741 369.911 259.23C371.965 254.21 375.867 249.244 374.508 244.051C373.085 238.554 366.488 235.767 364.64 230.4C361.456 221.12 374.204 211.817 370.933 202.569C369.716 199.153 366.521 196.811 363.173 195.402C359.826 193.992 356.218 193.309 352.838 191.998C347.218 189.675 342.444 185.693 339.158 180.587C335.871 175.48 334.228 169.493 334.449 163.428Z" fill="#263238"/>
<path d="M409.633 178.553C393.832 156.457 383.127 153.779 368.259 152.955L388.908 199.143C392.006 206.58 396.266 215.601 396.929 223.613C397.711 233.122 394.408 241.08 389.984 249.526C384.681 259.674 378.856 269.346 369.737 276.285C360.619 283.224 340.318 291.952 329.776 287.452L344.48 295.66L379.606 295.79L420.523 295.952C420.523 295.952 425.305 291.767 429.511 280.968C440.064 253.917 427.261 203.198 409.633 178.553Z" fill="#3C6E71"/>
<path d="M438.77 322.472C438.77 322.472 429.967 304.453 418.48 294.543C406.993 284.633 399.939 284.731 383.551 286.119C367.162 287.506 344.23 290.087 338.797 288.71L338.286 281.12C335.59 280.849 324.538 275.483 322.386 272.241C318.278 276.437 316.485 280.914 317.419 285.674L314.735 286.682C310.775 288.128 307.487 290.977 305.499 294.687C303.51 298.396 302.96 302.706 303.954 306.795C304.976 310.698 307.443 313.094 312.398 313.951C332.069 317.344 384.659 303.163 400.494 303.108C416.328 303.054 438.77 322.472 438.77 322.472Z" fill="#3C6E71"/>
<path d="M310.616 313.744C311.077 313.731 311.539 313.756 311.996 313.82C312.887 313.907 314.17 314.048 315.898 314.167C320.692 314.54 325.505 314.619 330.309 314.406C337.426 314.04 344.5 313.083 351.458 311.543C355.392 310.687 359.489 309.646 363.695 308.432L376.671 304.431C385.572 301.731 394.494 299.888 402.656 300.69C409.847 301.346 416.807 303.567 423.044 307.196C427.232 309.644 431.019 312.719 434.271 316.314C435.155 317.285 435.982 318.306 436.749 319.371C437.033 319.713 437.291 320.075 437.52 320.456C437.178 320.152 436.871 319.81 436.608 319.436C436.053 318.732 435.173 317.745 434.01 316.509C425.717 307.843 414.544 302.486 402.58 301.438C394.581 300.701 385.8 302.523 376.932 305.211C372.487 306.545 368.172 307.965 363.945 309.19C359.717 310.416 355.598 311.435 351.631 312.27C344.624 313.787 337.496 314.686 330.33 314.959C325.502 315.12 320.669 314.942 315.865 314.427C314.17 314.254 312.855 314.059 311.975 313.918C311.518 313.899 311.063 313.841 310.616 313.744Z" fill="#263238"/>
<path d="M439.716 316.553C419.871 290.813 381.823 280.979 351.936 293.86L320.419 300.528C312.105 301.959 298.77 304.659 298.14 312.346C297.564 320.487 299.341 328.622 303.259 335.787C310.583 348.515 306.606 365.57 313.931 378.299C317.387 384.316 320.919 390.42 325.962 395.202C331.004 399.983 337.851 403.333 344.763 402.585C352.458 401.761 358.761 396.156 363.651 390.171C374.182 377.279 380.757 361.623 390.615 348.222C400.472 334.822 412.101 324.955 432.815 323.687C436.575 323.448 447.302 328.446 447.302 328.446C447.606 326.928 440.661 317.756 439.716 316.553Z" fill="#3C6E71"/>
<g opacity="0.3">
<path d="M397.298 301.244C383.594 301.244 370.129 307.814 356.848 310.742C303.422 322.473 303.422 302.371 303.422 302.371C301.748 311.815 310.638 316.152 319.995 318.32C337.862 322.44 356.946 324.652 369.835 320.543C380.225 317.29 391.071 314.872 401.559 311.869C412.046 308.866 427.153 310.015 435.097 317.453C427.989 305.798 411.003 301.211 397.298 301.244Z" fill="black"/>
</g>
<g opacity="0.3">
<path d="M327.863 299.801C328.502 301.197 329.434 302.44 330.597 303.445C331.76 304.449 333.125 305.192 334.602 305.624C337.561 306.474 340.658 306.74 343.72 306.404C354.892 305.645 365.629 301.926 376.204 298.24C367.749 297.947 359.565 300.886 351.273 302.577C342.981 304.268 333.634 304.377 326.896 299.324" fill="black"/>
</g>
<path d="M442.4 324.804C442.4 324.804 442.302 324.728 442.15 324.565L441.487 323.806C440.911 323.123 440.031 322.169 438.868 320.955C435.594 317.52 431.637 314.806 427.25 312.986C424.189 311.834 420.973 311.139 417.708 310.926C413.965 310.623 410.199 310.743 406.482 311.284C398.592 312.368 390.256 315.133 381.41 317.648C372.563 320.163 364.119 322.787 356.087 323.21C349.007 323.515 341.915 323.009 334.949 321.703C329.015 320.619 324.288 319.361 321.017 318.548L317.256 317.594L316.289 317.334L315.952 317.225C316.068 317.208 316.185 317.208 316.3 317.225L317.289 317.431L321.071 318.288C324.331 319.036 329.091 320.218 335.025 321.258C341.961 322.508 349.015 322.973 356.055 322.646C363.999 322.202 372.454 319.697 381.257 317.063C390.06 314.428 398.45 311.772 406.406 310.72C410.164 310.191 413.97 310.089 417.752 310.416C421.807 310.649 425.775 311.683 429.427 313.459C433.078 315.234 436.339 317.716 439.02 320.76C440.172 322.007 441.031 322.982 441.574 323.687L442.194 324.479L442.4 324.804Z" fill="black"/>
<path d="M422.447 298.284C422.365 298.23 422.288 298.168 422.219 298.099L421.588 297.525C421.056 297.004 420.219 296.278 419.132 295.356C416.002 292.833 412.571 290.706 408.916 289.024C403.492 286.545 397.726 284.893 391.81 284.124C384.559 283.226 377.223 283.244 369.977 284.178C362.723 285.135 355.526 286.474 348.415 288.19C345.273 288.926 342.037 289.182 338.818 288.949C335.988 288.737 333.27 287.755 330.961 286.108C329.108 284.704 327.525 282.978 326.288 281.012C325.354 279.545 324.544 278.004 323.864 276.404C323.31 275.092 322.94 274.041 322.701 273.325L322.451 272.512C322.415 272.422 322.393 272.327 322.386 272.23C322.386 272.23 322.44 272.317 322.506 272.49C322.571 272.664 322.69 272.967 322.81 273.293C323.082 273.986 323.484 275.016 324.071 276.317C324.78 277.887 325.612 279.399 326.559 280.839C327.798 282.75 329.369 284.424 331.2 285.783C333.464 287.361 336.117 288.294 338.873 288.482C342.04 288.688 345.219 288.417 348.306 287.68C355.426 285.928 362.639 284.575 369.911 283.625C377.206 282.686 384.591 282.686 391.886 283.625C397.845 284.431 403.646 286.139 409.09 288.688C412.756 290.402 416.179 292.59 419.273 295.194C420.112 295.904 420.914 296.657 421.675 297.449L422.262 298.056C422.392 298.208 422.458 298.273 422.447 298.284Z" fill="black"/>
<path d="M416.035 297.752H415.763L414.959 297.622L411.861 297.112C408.066 296.529 404.242 296.142 400.407 295.952C394.714 295.673 389.008 295.854 383.344 296.494C376.415 297.422 369.549 298.765 362.782 300.517C355.566 302.251 348.545 303.769 342.035 303.672C338.962 303.691 335.899 303.327 332.917 302.588C330.316 301.854 327.911 300.554 325.875 298.782C322.952 296.234 320.579 293.121 318.897 289.631C318.258 288.368 317.752 287.042 317.387 285.674C317.439 285.751 317.479 285.835 317.506 285.923L317.8 286.682C318.071 287.354 318.484 288.319 319.093 289.523C320.83 292.939 323.223 295.982 326.135 298.478C328.141 300.184 330.497 301.431 333.037 302.132C335.982 302.847 339.004 303.193 342.035 303.162C348.469 303.162 355.435 301.72 362.684 299.975C369.477 298.21 376.373 296.87 383.333 295.963C389.025 295.352 394.757 295.21 400.472 295.54C404.32 295.763 408.152 296.209 411.948 296.874C413.296 297.123 414.328 297.329 415.035 297.492L415.828 297.676C415.959 297.709 416.035 297.741 416.035 297.752Z" fill="black"/>
<path d="M417.035 249.093C416.937 249.708 416.799 250.317 416.622 250.914C416.452 251.627 416.241 252.329 415.991 253.018C415.709 253.831 415.437 254.763 415.002 255.75C414.568 256.737 414.144 257.842 413.568 259.003C412.992 260.163 412.35 261.323 411.644 262.57C408.471 267.899 404.341 272.6 399.461 276.437C398.32 277.304 397.288 278.139 396.201 278.811C395.114 279.483 394.136 280.123 393.19 280.654C392.245 281.186 391.375 281.619 390.615 281.999C389.963 282.339 389.292 282.64 388.604 282.899C388.038 283.159 387.453 283.376 386.854 283.549C387.385 283.223 387.941 282.94 388.517 282.703C389.061 282.454 389.724 282.14 390.473 281.717C391.223 281.294 392.093 280.893 392.995 280.307C393.897 279.722 394.918 279.158 395.94 278.421C396.962 277.684 398.037 276.892 399.2 276.036C403.987 272.182 408.069 267.531 411.264 262.288C411.97 261.063 412.666 259.913 413.209 258.786C413.752 257.658 414.296 256.617 414.698 255.62C415.1 254.622 415.448 253.733 415.785 252.942C416.122 252.15 416.317 251.446 416.491 250.882C416.621 250.271 416.803 249.673 417.035 249.093Z" fill="black"/>
<path d="M415.393 313.723C415.098 313.722 414.804 313.697 414.513 313.647L413.426 313.506C413.013 313.452 412.524 313.506 411.992 313.43C408.918 313.356 405.856 313.83 402.95 314.829C400.945 315.515 398.995 316.349 397.114 317.322C394.959 318.455 392.866 319.7 390.843 321.052C386.561 323.903 382.083 327.395 377.28 330.918L352.762 349.079L345.274 354.5L343.22 355.91C342.991 356.094 342.743 356.254 342.481 356.387C342.688 356.183 342.909 355.995 343.144 355.823L345.133 354.283L352.512 348.699L376.965 330.463C381.768 326.95 386.246 323.459 390.582 320.618C392.626 319.266 394.741 318.025 396.918 316.899C398.833 315.938 400.816 315.119 402.852 314.449C405.806 313.473 408.917 313.054 412.024 313.213C412.568 313.213 413.057 313.267 413.47 313.332L414.557 313.528C414.841 313.568 415.121 313.633 415.393 313.723Z" fill="black"/>
<path d="M450.464 346.965C450.253 346.473 450.093 345.961 449.986 345.436C449.725 344.45 449.356 343.008 448.834 341.251C448.247 339.192 447.502 337.18 446.606 335.234C445.517 332.866 444.028 330.702 442.205 328.837C440.391 326.965 438.122 325.594 435.619 324.858C433.559 324.307 431.418 324.12 429.294 324.305C427.327 324.525 425.375 324.858 423.447 325.303C423.563 325.225 423.692 325.166 423.827 325.129C424.088 325.032 424.468 324.901 424.914 324.76C426.332 324.34 427.788 324.057 429.261 323.915C431.443 323.661 433.654 323.811 435.782 324.359C438.384 325.094 440.745 326.5 442.628 328.436C444.5 330.348 446.016 332.576 447.106 335.017C447.997 336.996 448.724 339.045 449.28 341.143C449.747 342.921 450.062 344.396 450.258 345.393C450.372 345.91 450.441 346.436 450.464 346.965Z" fill="black"/>
<path d="M431.184 144.609C452.553 143.619 469.071 125.534 468.078 104.216C467.085 82.8982 448.958 66.4194 427.589 67.4098C406.221 68.4002 389.703 86.4849 390.695 107.803C391.688 129.121 409.816 145.6 431.184 144.609Z" fill="white"/>
<path d="M407.84 150.667C408.198 150.567 408.561 150.484 408.927 150.418C409.973 150.289 411.034 150.49 411.959 150.993C412.596 151.323 413.153 151.79 413.589 152.359C414.074 153.02 414.357 153.807 414.405 154.625C414.506 155.565 414.317 156.514 413.862 157.344C413.407 158.174 412.708 158.845 411.859 159.267C411.01 159.688 410.053 159.84 409.114 159.703C408.176 159.565 407.303 159.143 406.612 158.495C405.99 157.965 405.53 157.269 405.286 156.49C405.086 155.785 405.045 155.044 405.167 154.321C405.327 153.281 405.805 152.315 406.536 151.556C407.058 151.025 407.438 150.841 407.416 150.808C407.32 150.838 407.228 150.882 407.145 150.938C407.035 150.995 406.929 151.06 406.83 151.134C406.693 151.234 406.562 151.343 406.438 151.459C405.768 152.098 405.281 152.905 405.029 153.795C404.777 154.686 404.768 155.627 405.004 156.522C405.245 157.365 405.728 158.119 406.395 158.691C407.121 159.334 408.013 159.762 408.971 159.927C410.001 160.144 411.075 160.007 412.018 159.538C412.961 159.07 413.718 158.297 414.165 157.346C414.608 156.483 414.803 155.515 414.731 154.549C414.672 153.673 414.358 152.833 413.829 152.131C413.365 151.527 412.766 151.041 412.079 150.711C411.103 150.208 409.988 150.036 408.905 150.223C408.739 150.247 408.575 150.287 408.416 150.342C408.293 150.374 408.173 150.417 408.058 150.472C407.927 150.592 407.829 150.667 407.84 150.667Z" fill="#263238"/>
<path d="M397.135 127.996L396.82 127.443L395.864 125.86C395.657 125.503 395.418 125.112 395.158 124.689C394.897 124.267 394.701 123.746 394.44 123.204C394.179 122.662 393.908 122.12 393.614 121.469C393.454 121.155 393.32 120.829 393.212 120.494C393.093 120.147 392.962 119.8 392.832 119.409C391.516 115.892 390.742 112.196 390.539 108.448C390.238 103.483 390.895 98.5072 392.473 93.7893L393.158 91.816C393.43 91.1547 393.745 90.515 394.038 89.8536C394.179 89.5284 394.332 89.2031 394.484 88.867C394.622 88.528 394.789 88.2015 394.984 87.8912L396.07 85.9504C396.255 85.6252 396.44 85.2999 396.636 84.9746L397.309 84.0422L398.668 82.1557C399.135 81.5377 399.689 80.963 400.211 80.3559L401.004 79.456C401.135 79.315 401.265 79.1524 401.407 79.0115L401.852 78.5995C403.018 77.4308 404.264 76.344 405.58 75.3468C406.254 74.8589 406.906 74.2626 407.623 73.8397L409.797 72.5062C410.166 72.2893 410.525 72.04 410.883 71.8448L412.068 71.281C412.861 70.9124 413.644 70.5004 414.459 70.1968C416.135 69.5317 417.852 68.974 419.599 68.5271L420.925 68.191L421.599 68.0283L422.284 67.9308L425.033 67.5188C425.968 67.4212 426.903 67.3995 427.848 67.3453C428.315 67.3453 428.794 67.2694 429.272 67.3453L430.696 67.4103C432.623 67.4807 434.544 67.6799 436.445 68.0067L439.303 68.6897L440.02 68.8632C440.259 68.9283 440.488 69.015 440.727 69.0909L442.129 69.5788L443.541 70.0558L444.911 70.663L446.28 71.2918L446.965 71.5954C447.193 71.7147 447.4 71.8448 447.628 71.9749L450.258 73.482L452.757 75.2601C459.465 80.2749 464.349 87.3364 466.668 95.3723C466.929 96.3589 467.179 97.3564 467.429 98.3322L467.885 101.335L467.994 102.084V102.832L468.07 104.328L468.146 105.824L468.081 107.309L468.016 108.795V109.532L467.918 110.259C467.777 111.234 467.646 112.199 467.516 113.164C467.131 115.054 466.619 116.916 465.984 118.737L465.527 120.082C465.375 120.537 465.147 120.949 464.962 121.383C464.56 122.239 464.212 123.107 463.777 123.931C463.343 124.755 462.854 125.546 462.397 126.348L462.049 126.945C461.919 127.14 461.778 127.324 461.647 127.508L460.854 128.593C459.805 130.053 458.661 131.444 457.431 132.756C456.811 133.396 456.148 133.97 455.518 134.578L454.551 135.467C454.235 135.759 453.866 136.009 453.529 136.269L451.486 137.83C450.79 138.318 450.04 138.73 449.312 139.175C447.919 140.041 446.466 140.809 444.965 141.473L444.422 141.733L443.857 141.95L442.77 142.351C442.009 142.612 441.281 142.926 440.531 143.143L438.27 143.717L437.184 143.999L436.097 144.173L433.923 144.509C433.564 144.572 433.201 144.608 432.837 144.617H431.75C431.032 144.617 430.315 144.715 429.576 144.726L427.479 144.639C422.499 144.395 417.614 143.195 413.09 141.104C412.59 140.877 412.09 140.671 411.611 140.443L410.264 139.662L408.96 138.925C408.742 138.795 408.525 138.687 408.329 138.557L407.753 138.145L405.58 136.583C404.895 136.063 404.308 135.499 403.711 135L402.863 134.263C402.59 134.038 402.333 133.795 402.091 133.537L400.624 132.236C400.222 131.802 399.831 131.412 399.537 131.032L398.7 129.948L397.614 128.484C397.364 128.159 397.222 127.996 397.222 127.996L397.592 128.506C397.842 128.853 398.211 129.341 398.679 129.991L399.494 131.075C399.82 131.466 400.211 131.856 400.581 132.29L401.885 133.71C402.123 133.975 402.381 134.221 402.656 134.447L403.504 135.196C404.091 135.694 404.678 136.28 405.362 136.789L407.536 138.372L408.112 138.784C408.319 138.925 408.536 139.034 408.742 139.164L410.047 139.912L411.405 140.703L412.883 141.376C417.426 143.497 422.339 144.719 427.348 144.975L429.457 145.073C430.163 145.073 430.891 145.008 431.63 144.975L432.717 144.91C433.081 144.909 433.445 144.876 433.804 144.813L436.032 144.476L437.118 144.303L438.205 144.021L440.488 143.446C441.237 143.23 441.976 142.926 442.737 142.666L443.878 142.254C444.063 142.178 444.259 142.124 444.443 142.037L444.998 141.777C446.523 141.108 448.001 140.337 449.421 139.467C450.138 139.023 450.888 138.611 451.595 138.123L453.659 136.551C454.007 136.28 454.366 136.041 454.746 135.748L455.713 134.849C456.344 134.241 457.028 133.656 457.648 133.016C458.889 131.693 460.044 130.292 461.104 128.82C461.365 128.441 461.636 128.072 461.908 127.736C462.039 127.552 462.18 127.367 462.31 127.172L462.658 126.565L464.06 124.137C464.495 123.302 464.853 122.423 465.255 121.567C465.44 121.122 465.679 120.7 465.831 120.255L466.288 118.889C466.932 117.055 467.447 115.178 467.831 113.273C467.972 112.308 468.114 111.321 468.244 110.345L468.353 109.608V108.86L468.418 107.375L468.483 105.867L468.407 104.36L468.32 102.853V102.084L468.201 101.335L467.744 98.3105C467.494 97.313 467.244 96.3155 466.983 95.3181C464.69 87.1877 459.788 80.0315 453.029 74.9456L450.508 73.1458L447.845 71.6279C447.628 71.4978 447.41 71.3677 447.182 71.2485L446.487 70.934L445.106 70.3052L443.726 69.698L442.302 69.2101L440.879 68.7222L440.172 68.4837L439.444 68.3211C438.488 68.0826 437.521 67.8549 436.564 67.638C434.646 67.3024 432.707 67.0995 430.761 67.0309L429.326 66.9658C428.848 66.9658 428.37 66.9658 427.892 66.9658C426.935 67.0309 425.99 67.0417 425.055 67.1393L422.273 67.5621L421.588 67.6706C421.36 67.6706 421.132 67.779 420.914 67.8332L419.567 68.1801C417.807 68.6241 416.078 69.1855 414.394 69.8607C413.568 70.2076 412.774 70.6305 411.97 70.9991L410.786 71.5737C410.394 71.7689 410.036 72.0183 409.699 72.2459L407.525 73.5904C406.808 74.0674 406.145 74.6204 405.471 75.1191C404.145 76.1164 402.888 77.2032 401.711 78.3718L401.265 78.7946C401.124 78.9356 400.994 79.0982 400.863 79.25C400.733 79.4018 400.331 79.8571 400.059 80.1499C399.537 80.7679 398.972 81.3425 398.516 81.9605L397.146 83.8687L396.473 84.812C396.277 85.1373 396.092 85.4734 395.907 85.7986L394.821 87.7502C394.632 88.0657 394.468 88.3956 394.332 88.7369L393.875 89.7344C393.582 90.3957 393.266 91.0463 393.006 91.7076C392.745 92.369 392.549 93.0412 392.321 93.7026C390.744 98.4502 390.102 103.457 390.43 108.448C390.647 112.215 391.442 115.926 392.788 119.453L393.18 120.537C393.287 120.872 393.422 121.199 393.582 121.513L394.429 123.247C394.701 123.779 394.918 124.277 395.168 124.722L395.886 125.882L396.875 127.454C397.005 127.812 397.135 127.996 397.135 127.996Z" fill="#263238"/>
<path d="M409.829 106.984L415.567 101.259L426.631 111.071L448.345 90.2217L453.67 95.9463L425.816 122.108L409.829 106.984Z" fill="#3C6E71"/>
</svg>
