<svg width="1024" height="770" viewBox="0 0 1024 770" fill="none" xmlns="http://www.w3.org/2000/svg">
<path d="M1024 676.664H0V677.181H1024V676.664Z" fill="#EBEBEB"/>
<path d="M921.395 709.919H853.565V710.435H921.395V709.919Z" fill="#EBEBEB"/>
<path d="M678.339 715.54H660.541V716.057H678.339V715.54Z" fill="#EBEBEB"/>
<path d="M851.517 690.739H812.216V691.256H851.517V690.739Z" fill="#EBEBEB"/>
<path d="M195.891 694.211H107.438V694.728H195.891V694.211Z" fill="#EBEBEB"/>
<path d="M227.103 694.211H214.139V694.728H227.103V694.211Z" fill="#EBEBEB"/>
<path d="M461.107 702.933H269.251V703.45H461.107V702.933Z" fill="#EBEBEB"/>
<path d="M485.376 584.486H89.9278C86.8298 584.48 83.8607 583.235 81.672 581.022C79.4834 578.809 78.2541 575.811 78.2542 572.685V11.698C78.2811 8.5896 79.5223 5.61747 81.708 3.42718C83.8937 1.23688 86.8475 0.00532483 89.9278 0H485.376C488.478 0 491.452 1.24335 493.645 3.45653C495.838 5.6697 497.07 8.67142 497.07 11.8013V572.685C497.07 575.814 495.838 578.816 493.645 581.029C491.452 583.242 488.478 584.486 485.376 584.486ZM89.9278 0.413358C86.9656 0.418833 84.1267 1.61016 82.0341 3.72584C79.9414 5.84153 78.7661 8.70869 78.7662 11.698V572.685C78.7661 575.674 79.9414 578.541 82.0341 580.657C84.1267 582.772 86.9656 583.964 89.9278 583.969H485.376C488.34 583.964 491.181 582.773 493.277 580.658C495.373 578.543 496.553 575.676 496.558 572.685V11.698C496.553 8.70679 495.373 5.83968 493.277 3.72458C491.181 1.60949 488.34 0.418821 485.376 0.413358H89.9278Z" fill="#EBEBEB"/>
<path d="M928.379 584.486H532.91C529.81 584.48 526.839 583.235 524.647 581.023C522.455 578.811 521.221 575.813 521.216 572.685V11.698C521.248 8.58771 522.494 5.6156 524.683 3.42588C526.872 1.23616 529.828 0.00526676 532.91 0H928.379C931.456 0.0107566 934.404 1.24472 936.585 3.43443C938.767 5.62414 940.005 8.59317 940.032 11.698V572.685C940.032 575.807 938.806 578.803 936.621 581.015C934.437 583.227 931.473 584.475 928.379 584.486ZM532.91 0.413358C529.946 0.418821 527.105 1.60949 525.009 3.72458C522.913 5.83968 521.733 8.70679 521.728 11.698V572.685C521.733 575.676 522.913 578.543 525.009 580.658C527.105 582.773 529.946 583.964 532.91 583.969H928.379C931.343 583.964 934.184 582.773 936.28 580.658C938.376 578.543 939.556 575.676 939.561 572.685V11.698C939.556 8.70679 938.376 5.83968 936.28 3.72458C934.184 1.60949 931.343 0.418821 928.379 0.413358H532.91Z" fill="#EBEBEB"/>
<path d="M509.665 98.5235H162.488V491.047H509.665V98.5235Z" fill="#EBEBEB"/>
<path d="M509.665 104.868H169.308V484.102H509.665V104.868Z" fill="#FAFAFA"/>
<path d="M181.883 306.152V279.512H189.42V261.737H199.475V235.096H201.994V261.737H212.05V279.512H219.587V306.152H233.431V313.758H239.718V342.941H240.968V301.068H244.736V327.709H248.504V264.279H251.023V290.92H261.079V282.054H264.847V245.244H272.405V208.456H274.924V213.519H326.472V198.308H335.258V139.942H339.046V198.308H351.621V213.519H356.639V289.659H383.037V266.821H374.252V263.019H383.037V256.674H408.187V198.308H414.474V189.421H444.641V198.308H448.43V279.512H462.254V316.3H469.791V287.117H476.078V279.512H489.923V252.85H497.459V235.096H506.245V208.456H509.665V484.102H169.308V306.152H181.883Z" fill="#F0F0F0"/>
<path d="M307.22 217.508H303.657V221.104H307.22V217.508Z" fill="#FAFAFA"/>
<path d="M307.22 223.522H303.657V227.119H307.22V223.522Z" fill="#FAFAFA"/>
<path d="M307.22 247.642H303.657V251.238H307.22V247.642Z" fill="#FAFAFA"/>
<path d="M307.22 253.656H303.657V257.252H307.22V253.656Z" fill="#FAFAFA"/>
<path d="M307.22 259.691H303.657V263.287H307.22V259.691Z" fill="#FAFAFA"/>
<path d="M307.22 277.775H303.657V281.372H307.22V277.775Z" fill="#FAFAFA"/>
<path d="M307.22 283.79H303.657V287.386H307.22V283.79Z" fill="#FAFAFA"/>
<path d="M312.873 241.607H309.309V245.203H312.873V241.607Z" fill="#FAFAFA"/>
<path d="M312.873 247.642H309.309V251.238H312.873V247.642Z" fill="#FAFAFA"/>
<path d="M312.873 253.656H309.309V257.252H312.873V253.656Z" fill="#FAFAFA"/>
<path d="M312.873 259.691H309.309V263.287H312.873V259.691Z" fill="#FAFAFA"/>
<path d="M312.873 265.726H309.309V269.322H312.873V265.726Z" fill="#FAFAFA"/>
<path d="M312.873 277.775H309.309V281.372H312.873V277.775Z" fill="#FAFAFA"/>
<path d="M312.873 283.79H309.309V287.386H312.873V283.79Z" fill="#FAFAFA"/>
<path d="M318.525 217.508H314.962V221.104H318.525V217.508Z" fill="#FAFAFA"/>
<path d="M318.525 223.522H314.962V227.119H318.525V223.522Z" fill="#FAFAFA"/>
<path d="M318.525 229.557H314.962V233.154H318.525V229.557Z" fill="#FAFAFA"/>
<path d="M318.525 235.592H314.962V239.189H318.525V235.592Z" fill="#FAFAFA"/>
<path d="M318.525 241.607H314.962V245.203H318.525V241.607Z" fill="#FAFAFA"/>
<path d="M318.525 247.642H314.962V251.238H318.525V247.642Z" fill="#FAFAFA"/>
<path d="M318.525 253.656H314.962V257.252H318.525V253.656Z" fill="#FAFAFA"/>
<path d="M318.525 259.691H314.962V263.287H318.525V259.691Z" fill="#FAFAFA"/>
<path d="M318.525 265.726H314.962V269.322H318.525V265.726Z" fill="#FAFAFA"/>
<path d="M318.525 271.74H314.962V275.337H318.525V271.74Z" fill="#FAFAFA"/>
<path d="M318.525 283.79H314.962V287.386H318.525V283.79Z" fill="#FAFAFA"/>
<path d="M324.198 217.508H320.635V221.104H324.198V217.508Z" fill="#FAFAFA"/>
<path d="M324.198 223.522H320.635V227.119H324.198V223.522Z" fill="#FAFAFA"/>
<path d="M324.198 229.557H320.635V233.154H324.198V229.557Z" fill="#FAFAFA"/>
<path d="M324.198 235.592H320.635V239.189H324.198V235.592Z" fill="#FAFAFA"/>
<path d="M324.198 241.607H320.635V245.203H324.198V241.607Z" fill="#FAFAFA"/>
<path d="M324.198 247.642H320.635V251.238H324.198V247.642Z" fill="#FAFAFA"/>
<path d="M324.198 253.656H320.635V257.252H324.198V253.656Z" fill="#FAFAFA"/>
<path d="M324.198 307.909H320.635V311.505H324.198V307.909Z" fill="#FAFAFA"/>
<path d="M329.851 217.508H326.287V221.104H329.851V217.508Z" fill="#FAFAFA"/>
<path d="M329.851 223.522H326.287V227.119H329.851V223.522Z" fill="#FAFAFA"/>
<path d="M329.851 229.557H326.287V233.154H329.851V229.557Z" fill="#FAFAFA"/>
<path d="M329.851 235.592H326.287V239.189H329.851V235.592Z" fill="#FAFAFA"/>
<path d="M329.851 241.607H326.287V245.203H329.851V241.607Z" fill="#FAFAFA"/>
<path d="M329.851 247.642H326.287V251.238H329.851V247.642Z" fill="#FAFAFA"/>
<path d="M329.851 253.656H326.287V257.252H329.851V253.656Z" fill="#FAFAFA"/>
<path d="M329.851 259.691H326.287V263.287H329.851V259.691Z" fill="#FAFAFA"/>
<path d="M329.851 295.86H326.287V299.456H329.851V295.86Z" fill="#FAFAFA"/>
<path d="M329.851 301.874H326.287V305.47H329.851V301.874Z" fill="#FAFAFA"/>
<path d="M329.851 307.909H326.287V311.505H329.851V307.909Z" fill="#FAFAFA"/>
<path d="M329.851 313.944H326.287V317.54H329.851V313.944Z" fill="#FAFAFA"/>
<path d="M329.851 338.043H326.287V341.639H329.851V338.043Z" fill="#FAFAFA"/>
<path d="M335.503 217.508H331.94V221.104H335.503V217.508Z" fill="#FAFAFA"/>
<path d="M335.503 223.522H331.94V227.119H335.503V223.522Z" fill="#FAFAFA"/>
<path d="M335.503 229.557H331.94V233.154H335.503V229.557Z" fill="#FAFAFA"/>
<path d="M335.503 235.592H331.94V239.189H335.503V235.592Z" fill="#FAFAFA"/>
<path d="M335.503 241.607H331.94V245.203H335.503V241.607Z" fill="#FAFAFA"/>
<path d="M335.503 247.642H331.94V251.238H335.503V247.642Z" fill="#FAFAFA"/>
<path d="M335.503 253.656H331.94V257.252H335.503V253.656Z" fill="#FAFAFA"/>
<path d="M335.503 259.691H331.94V263.287H335.503V259.691Z" fill="#FAFAFA"/>
<path d="M335.503 265.726H331.94V269.322H335.503V265.726Z" fill="#FAFAFA"/>
<path d="M335.503 271.74H331.94V275.337H335.503V271.74Z" fill="#FAFAFA"/>
<path d="M335.503 289.825H331.94V293.421H335.503V289.825Z" fill="#FAFAFA"/>
<path d="M335.503 295.86H331.94V299.456H335.503V295.86Z" fill="#FAFAFA"/>
<path d="M335.503 301.874H331.94V305.47H335.503V301.874Z" fill="#FAFAFA"/>
<path d="M335.503 307.909H331.94V311.505H335.503V307.909Z" fill="#FAFAFA"/>
<path d="M335.503 313.944H331.94V317.54H335.503V313.944Z" fill="#FAFAFA"/>
<path d="M335.503 338.043H331.94V341.639H335.503V338.043Z" fill="#FAFAFA"/>
<path d="M341.156 217.508H337.592V221.104H341.156V217.508Z" fill="#FAFAFA"/>
<path d="M341.156 223.522H337.592V227.119H341.156V223.522Z" fill="#FAFAFA"/>
<path d="M341.156 229.557H337.592V233.154H341.156V229.557Z" fill="#FAFAFA"/>
<path d="M341.156 235.592H337.592V239.189H341.156V235.592Z" fill="#FAFAFA"/>
<path d="M341.156 241.607H337.592V245.203H341.156V241.607Z" fill="#FAFAFA"/>
<path d="M341.156 247.642H337.592V251.238H341.156V247.642Z" fill="#FAFAFA"/>
<path d="M341.156 253.656H337.592V257.252H341.156V253.656Z" fill="#FAFAFA"/>
<path d="M341.156 259.691H337.592V263.287H341.156V259.691Z" fill="#FAFAFA"/>
<path d="M341.156 265.726H337.592V269.322H341.156V265.726Z" fill="#FAFAFA"/>
<path d="M341.156 271.74H337.592V275.337H341.156V271.74Z" fill="#FAFAFA"/>
<path d="M341.156 277.775H337.592V281.372H341.156V277.775Z" fill="#FAFAFA"/>
<path d="M341.156 283.79H337.592V287.386H341.156V283.79Z" fill="#FAFAFA"/>
<path d="M341.156 289.825H337.592V293.421H341.156V289.825Z" fill="#FAFAFA"/>
<path d="M341.156 295.86H337.592V299.456H341.156V295.86Z" fill="#FAFAFA"/>
<path d="M341.156 301.874H337.592V305.47H341.156V301.874Z" fill="#FAFAFA"/>
<path d="M341.156 307.909H337.592V311.505H341.156V307.909Z" fill="#FAFAFA"/>
<path d="M341.156 313.944H337.592V317.54H341.156V313.944Z" fill="#FAFAFA"/>
<path d="M341.156 319.958H337.592V323.555H341.156V319.958Z" fill="#FAFAFA"/>
<path d="M346.829 217.508H343.265V221.104H346.829V217.508Z" fill="#FAFAFA"/>
<path d="M346.829 223.522H343.265V227.119H346.829V223.522Z" fill="#FAFAFA"/>
<path d="M346.829 229.557H343.265V233.154H346.829V229.557Z" fill="#FAFAFA"/>
<path d="M346.829 235.592H343.265V239.189H346.829V235.592Z" fill="#FAFAFA"/>
<path d="M346.829 241.607H343.265V245.203H346.829V241.607Z" fill="#FAFAFA"/>
<path d="M346.829 247.642H343.265V251.238H346.829V247.642Z" fill="#FAFAFA"/>
<path d="M346.829 253.656H343.265V257.252H346.829V253.656Z" fill="#FAFAFA"/>
<path d="M346.829 259.691H343.265V263.287H346.829V259.691Z" fill="#FAFAFA"/>
<path d="M346.829 265.726H343.265V269.322H346.829V265.726Z" fill="#FAFAFA"/>
<path d="M346.829 271.74H343.265V275.337H346.829V271.74Z" fill="#FAFAFA"/>
<path d="M346.829 289.825H343.265V293.421H346.829V289.825Z" fill="#FAFAFA"/>
<path d="M346.829 295.86H343.265V299.456H346.829V295.86Z" fill="#FAFAFA"/>
<path d="M346.829 301.874H343.265V305.47H346.829V301.874Z" fill="#FAFAFA"/>
<path d="M346.829 307.909H343.265V311.505H346.829V307.909Z" fill="#FAFAFA"/>
<path d="M352.481 217.508H348.918V221.104H352.481V217.508Z" fill="#FAFAFA"/>
<path d="M352.481 223.522H348.918V227.119H352.481V223.522Z" fill="#FAFAFA"/>
<path d="M352.481 229.557H348.918V233.154H352.481V229.557Z" fill="#FAFAFA"/>
<path d="M352.481 235.592H348.918V239.189H352.481V235.592Z" fill="#FAFAFA"/>
<path d="M352.481 241.607H348.918V245.203H352.481V241.607Z" fill="#FAFAFA"/>
<path d="M352.481 247.642H348.918V251.238H352.481V247.642Z" fill="#FAFAFA"/>
<path d="M352.481 253.656H348.918V257.252H352.481V253.656Z" fill="#FAFAFA"/>
<path d="M352.481 259.691H348.918V263.287H352.481V259.691Z" fill="#FAFAFA"/>
<path d="M352.481 265.726H348.918V269.322H352.481V265.726Z" fill="#FAFAFA"/>
<path d="M352.481 271.74H348.918V275.337H352.481V271.74Z" fill="#FAFAFA"/>
<path d="M352.481 289.825H348.918V293.421H352.481V289.825Z" fill="#FAFAFA"/>
<path d="M352.481 295.86H348.918V299.456H352.481V295.86Z" fill="#FAFAFA"/>
<path d="M352.481 301.874H348.918V305.47H352.481V301.874Z" fill="#FAFAFA"/>
<path d="M416.174 201.863H412.611V205.459H416.174V201.863Z" fill="#FAFAFA"/>
<path d="M416.174 207.877H412.611V211.473H416.174V207.877Z" fill="#FAFAFA"/>
<path d="M416.174 213.912H412.611V217.508H416.174V213.912Z" fill="#FAFAFA"/>
<path d="M416.174 219.926H412.611V223.522H416.174V219.926Z" fill="#FAFAFA"/>
<path d="M416.174 225.961H412.611V229.557H416.174V225.961Z" fill="#FAFAFA"/>
<path d="M416.174 231.996H412.611V235.592H416.174V231.996Z" fill="#FAFAFA"/>
<path d="M416.174 238.011H412.611V241.607H416.174V238.011Z" fill="#FAFAFA"/>
<path d="M416.174 244.046H412.611V247.642H416.174V244.046Z" fill="#FAFAFA"/>
<path d="M416.174 262.13H412.611V265.726H416.174V262.13Z" fill="#FAFAFA"/>
<path d="M416.174 268.144H412.611V271.74H416.174V268.144Z" fill="#FAFAFA"/>
<path d="M421.847 201.863H418.284V205.459H421.847V201.863Z" fill="#FAFAFA"/>
<path d="M421.847 207.877H418.284V211.473H421.847V207.877Z" fill="#FAFAFA"/>
<path d="M421.847 213.912H418.284V217.508H421.847V213.912Z" fill="#FAFAFA"/>
<path d="M421.847 219.926H418.284V223.522H421.847V219.926Z" fill="#FAFAFA"/>
<path d="M421.847 225.961H418.284V229.557H421.847V225.961Z" fill="#FAFAFA"/>
<path d="M421.847 231.996H418.284V235.592H421.847V231.996Z" fill="#FAFAFA"/>
<path d="M421.847 238.011H418.284V241.607H421.847V238.011Z" fill="#FAFAFA"/>
<path d="M421.847 244.046H418.284V247.642H421.847V244.046Z" fill="#FAFAFA"/>
<path d="M421.847 268.144H418.284V271.74H421.847V268.144Z" fill="#FAFAFA"/>
<path d="M427.5 201.863H423.936V205.459H427.5V201.863Z" fill="#FAFAFA"/>
<path d="M427.5 207.877H423.936V211.473H427.5V207.877Z" fill="#FAFAFA"/>
<path d="M427.5 213.912H423.936V217.508H427.5V213.912Z" fill="#FAFAFA"/>
<path d="M427.5 219.926H423.936V223.522H427.5V219.926Z" fill="#FAFAFA"/>
<path d="M427.5 225.961H423.936V229.557H427.5V225.961Z" fill="#FAFAFA"/>
<path d="M427.5 231.996H423.936V235.592H427.5V231.996Z" fill="#FAFAFA"/>
<path d="M427.5 238.011H423.936V241.607H427.5V238.011Z" fill="#FAFAFA"/>
<path d="M427.5 244.046H423.936V247.642H427.5V244.046Z" fill="#FAFAFA"/>
<path d="M433.152 201.863H429.589V205.459H433.152V201.863Z" fill="#FAFAFA"/>
<path d="M433.152 207.877H429.589V211.473H433.152V207.877Z" fill="#FAFAFA"/>
<path d="M433.152 213.912H429.589V217.508H433.152V213.912Z" fill="#FAFAFA"/>
<path d="M433.152 219.926H429.589V223.522H433.152V219.926Z" fill="#FAFAFA"/>
<path d="M433.152 225.961H429.589V229.557H433.152V225.961Z" fill="#FAFAFA"/>
<path d="M433.152 231.996H429.589V235.592H433.152V231.996Z" fill="#FAFAFA"/>
<path d="M433.152 244.046H429.589V247.642H433.152V244.046Z" fill="#FAFAFA"/>
<path d="M433.152 250.081H429.589V253.677H433.152V250.081Z" fill="#FAFAFA"/>
<path d="M433.152 268.144H429.589V271.74H433.152V268.144Z" fill="#FAFAFA"/>
<path d="M433.152 274.179H429.589V277.775H433.152V274.179Z" fill="#FAFAFA"/>
<path d="M433.152 280.214H429.589V283.81H433.152V280.214Z" fill="#FAFAFA"/>
<path d="M433.152 286.229H429.589V289.825H433.152V286.229Z" fill="#FAFAFA"/>
<path d="M433.152 292.264H429.589V295.86H433.152V292.264Z" fill="#FAFAFA"/>
<path d="M433.152 298.278H429.589V301.874H433.152V298.278Z" fill="#FAFAFA"/>
<path d="M433.152 304.313H429.589V307.909H433.152V304.313Z" fill="#FAFAFA"/>
<path d="M438.804 201.863H435.241V205.459H438.804V201.863Z" fill="#FAFAFA"/>
<path d="M438.804 207.877H435.241V211.473H438.804V207.877Z" fill="#FAFAFA"/>
<path d="M438.804 213.912H435.241V217.508H438.804V213.912Z" fill="#FAFAFA"/>
<path d="M438.804 219.926H435.241V223.522H438.804V219.926Z" fill="#FAFAFA"/>
<path d="M438.804 225.961H435.241V229.557H438.804V225.961Z" fill="#FAFAFA"/>
<path d="M438.804 231.996H435.241V235.592H438.804V231.996Z" fill="#FAFAFA"/>
<path d="M438.804 250.081H435.241V253.677H438.804V250.081Z" fill="#FAFAFA"/>
<path d="M438.804 256.095H435.241V259.691H438.804V256.095Z" fill="#FAFAFA"/>
<path d="M438.804 262.13H435.241V265.726H438.804V262.13Z" fill="#FAFAFA"/>
<path d="M438.804 268.144H435.241V271.74H438.804V268.144Z" fill="#FAFAFA"/>
<path d="M438.804 274.179H435.241V277.775H438.804V274.179Z" fill="#FAFAFA"/>
<path d="M438.804 280.214H435.241V283.81H438.804V280.214Z" fill="#FAFAFA"/>
<path d="M438.804 286.229H435.241V289.825H438.804V286.229Z" fill="#FAFAFA"/>
<path d="M438.804 292.264H435.241V295.86H438.804V292.264Z" fill="#FAFAFA"/>
<path d="M438.804 298.278H435.241V301.874H438.804V298.278Z" fill="#FAFAFA"/>
<path d="M438.804 304.313H435.241V307.909H438.804V304.313Z" fill="#FAFAFA"/>
<path d="M438.804 310.348H435.241V313.944H438.804V310.348Z" fill="#FAFAFA"/>
<path d="M438.804 322.397H435.241V325.993H438.804V322.397Z" fill="#FAFAFA"/>
<path d="M444.477 201.863H440.914V205.459H444.477V201.863Z" fill="#FAFAFA"/>
<path d="M444.477 207.877H440.914V211.473H444.477V207.877Z" fill="#FAFAFA"/>
<path d="M444.477 213.912H440.914V217.508H444.477V213.912Z" fill="#FAFAFA"/>
<path d="M444.477 219.926H440.914V223.522H444.477V219.926Z" fill="#FAFAFA"/>
<path d="M444.477 225.961H440.914V229.557H444.477V225.961Z" fill="#FAFAFA"/>
<path d="M444.477 231.996H440.914V235.592H444.477V231.996Z" fill="#FAFAFA"/>
<path d="M444.477 250.081H440.914V253.677H444.477V250.081Z" fill="#FAFAFA"/>
<path d="M444.477 256.095H440.914V259.691H444.477V256.095Z" fill="#FAFAFA"/>
<path d="M444.477 262.13H440.914V265.726H444.477V262.13Z" fill="#FAFAFA"/>
<path d="M444.477 268.144H440.914V271.74H444.477V268.144Z" fill="#FAFAFA"/>
<path d="M444.477 286.229H440.914V289.825H444.477V286.229Z" fill="#FAFAFA"/>
<path d="M444.477 292.264H440.914V295.86H444.477V292.264Z" fill="#FAFAFA"/>
<path d="M444.477 298.278H440.914V301.874H444.477V298.278Z" fill="#FAFAFA"/>
<path d="M444.477 304.313H440.914V307.909H444.477V304.313Z" fill="#FAFAFA"/>
<path d="M444.477 310.348H440.914V313.944H444.477V310.348Z" fill="#FAFAFA"/>
<path d="M444.477 322.397H440.914V325.993H444.477V322.397Z" fill="#FAFAFA"/>
<path d="M444.477 328.412H440.914V332.008H444.477V328.412Z" fill="#FAFAFA"/>
<path d="M495.8 257.893H492.237V261.489H495.8V257.893Z" fill="#FAFAFA"/>
<path d="M495.8 263.928H492.237V267.524H495.8V263.928Z" fill="#FAFAFA"/>
<path d="M495.8 269.942H492.237V273.539H495.8V269.942Z" fill="#FAFAFA"/>
<path d="M495.8 275.977H492.237V279.574H495.8V275.977Z" fill="#FAFAFA"/>
<path d="M495.8 282.012H492.237V285.609H495.8V282.012Z" fill="#FAFAFA"/>
<path d="M495.8 288.027H492.237V291.623H495.8V288.027Z" fill="#FAFAFA"/>
<path d="M495.8 294.062H492.237V297.658H495.8V294.062Z" fill="#FAFAFA"/>
<path d="M495.8 312.146H492.237V315.742H495.8V312.146Z" fill="#FAFAFA"/>
<path d="M495.8 318.16H492.237V321.756H495.8V318.16Z" fill="#FAFAFA"/>
<path d="M495.8 324.195H492.237V327.792H495.8V324.195Z" fill="#FAFAFA"/>
<path d="M501.473 257.893H497.91V261.489H501.473V257.893Z" fill="#FAFAFA"/>
<path d="M501.473 263.928H497.91V267.524H501.473V263.928Z" fill="#FAFAFA"/>
<path d="M501.473 269.942H497.91V273.539H501.473V269.942Z" fill="#FAFAFA"/>
<path d="M501.473 275.977H497.91V279.574H501.473V275.977Z" fill="#FAFAFA"/>
<path d="M501.473 282.012H497.91V285.609H501.473V282.012Z" fill="#FAFAFA"/>
<path d="M501.473 288.027H497.91V291.623H501.473V288.027Z" fill="#FAFAFA"/>
<path d="M501.473 294.062H497.91V297.658H501.473V294.062Z" fill="#FAFAFA"/>
<path d="M508.682 257.893H503.562V261.489H508.682V257.893Z" fill="#FAFAFA"/>
<path d="M508.682 263.928H503.562V267.524H508.682V263.928Z" fill="#FAFAFA"/>
<path d="M508.682 269.942H503.562V273.539H508.682V269.942Z" fill="#FAFAFA"/>
<path d="M508.682 275.977H503.562V279.574H508.682V275.977Z" fill="#FAFAFA"/>
<path d="M508.682 282.012H503.562V285.609H508.682V282.012Z" fill="#FAFAFA"/>
<path d="M508.682 288.027H503.562V291.623H508.682V288.027Z" fill="#FAFAFA"/>
<path d="M508.682 294.062H503.562V297.658H508.682V294.062Z" fill="#FAFAFA"/>
<path d="M195.953 265.726H192.389V269.322H195.953V265.726Z" fill="#FAFAFA"/>
<path d="M195.953 271.74H192.389V275.337H195.953V271.74Z" fill="#FAFAFA"/>
<path d="M195.953 277.775H192.389V281.372H195.953V277.775Z" fill="#FAFAFA"/>
<path d="M195.953 283.79H192.389V287.386H195.953V283.79Z" fill="#FAFAFA"/>
<path d="M195.953 289.825H192.389V293.421H195.953V289.825Z" fill="#FAFAFA"/>
<path d="M195.953 295.86H192.389V299.456H195.953V295.86Z" fill="#FAFAFA"/>
<path d="M195.953 301.874H192.389V305.47H195.953V301.874Z" fill="#FAFAFA"/>
<path d="M195.953 307.909H192.389V311.505H195.953V307.909Z" fill="#FAFAFA"/>
<path d="M195.953 313.944H192.389V317.54H195.953V313.944Z" fill="#FAFAFA"/>
<path d="M195.953 319.958H192.389V323.555H195.953V319.958Z" fill="#FAFAFA"/>
<path d="M195.953 325.993H192.389V329.59H195.953V325.993Z" fill="#FAFAFA"/>
<path d="M195.953 332.008H192.389V335.604H195.953V332.008Z" fill="#FAFAFA"/>
<path d="M195.953 338.043H192.389V341.639H195.953V338.043Z" fill="#FAFAFA"/>
<path d="M195.953 344.078H192.389V347.674H195.953V344.078Z" fill="#FAFAFA"/>
<path d="M195.953 350.092H192.389V353.688H195.953V350.092Z" fill="#FAFAFA"/>
<path d="M195.953 356.127H192.389V359.723H195.953V356.127Z" fill="#FAFAFA"/>
<path d="M195.953 362.141H192.389V365.738H195.953V362.141Z" fill="#FAFAFA"/>
<path d="M195.953 368.176H192.389V371.773H195.953V368.176Z" fill="#FAFAFA"/>
<path d="M195.953 374.211H192.389V377.808H195.953V374.211Z" fill="#FAFAFA"/>
<path d="M195.953 380.226H192.389V383.822H195.953V380.226Z" fill="#FAFAFA"/>
<path d="M201.605 265.726H198.042V269.322H201.605V265.726Z" fill="#FAFAFA"/>
<path d="M201.605 271.74H198.042V275.337H201.605V271.74Z" fill="#FAFAFA"/>
<path d="M201.605 277.775H198.042V281.372H201.605V277.775Z" fill="#FAFAFA"/>
<path d="M201.605 283.79H198.042V287.386H201.605V283.79Z" fill="#FAFAFA"/>
<path d="M201.605 289.825H198.042V293.421H201.605V289.825Z" fill="#FAFAFA"/>
<path d="M201.605 295.86H198.042V299.456H201.605V295.86Z" fill="#FAFAFA"/>
<path d="M201.605 301.874H198.042V305.47H201.605V301.874Z" fill="#FAFAFA"/>
<path d="M201.605 307.909H198.042V311.505H201.605V307.909Z" fill="#FAFAFA"/>
<path d="M201.605 313.944H198.042V317.54H201.605V313.944Z" fill="#FAFAFA"/>
<path d="M201.605 319.958H198.042V323.555H201.605V319.958Z" fill="#FAFAFA"/>
<path d="M201.605 325.993H198.042V329.59H201.605V325.993Z" fill="#FAFAFA"/>
<path d="M201.605 332.008H198.042V335.604H201.605V332.008Z" fill="#FAFAFA"/>
<path d="M201.605 338.043H198.042V341.639H201.605V338.043Z" fill="#FAFAFA"/>
<path d="M201.605 344.078H198.042V347.674H201.605V344.078Z" fill="#FAFAFA"/>
<path d="M201.605 350.092H198.042V353.688H201.605V350.092Z" fill="#FAFAFA"/>
<path d="M201.605 356.127H198.042V359.723H201.605V356.127Z" fill="#FAFAFA"/>
<path d="M201.605 362.141H198.042V365.738H201.605V362.141Z" fill="#FAFAFA"/>
<path d="M201.605 368.176H198.042V371.773H201.605V368.176Z" fill="#FAFAFA"/>
<path d="M207.258 265.726H203.694V269.322H207.258V265.726Z" fill="#FAFAFA"/>
<path d="M207.258 271.74H203.694V275.337H207.258V271.74Z" fill="#FAFAFA"/>
<path d="M207.258 277.775H203.694V281.372H207.258V277.775Z" fill="#FAFAFA"/>
<path d="M207.258 283.79H203.694V287.386H207.258V283.79Z" fill="#FAFAFA"/>
<path d="M207.258 289.825H203.694V293.421H207.258V289.825Z" fill="#FAFAFA"/>
<path d="M207.258 295.86H203.694V299.456H207.258V295.86Z" fill="#FAFAFA"/>
<path d="M207.258 301.874H203.694V305.47H207.258V301.874Z" fill="#FAFAFA"/>
<path d="M207.258 307.909H203.694V311.505H207.258V307.909Z" fill="#FAFAFA"/>
<path d="M207.258 313.944H203.694V317.54H207.258V313.944Z" fill="#FAFAFA"/>
<path d="M207.258 319.958H203.694V323.555H207.258V319.958Z" fill="#FAFAFA"/>
<path d="M207.258 325.993H203.694V329.59H207.258V325.993Z" fill="#FAFAFA"/>
<path d="M207.258 332.008H203.694V335.604H207.258V332.008Z" fill="#FAFAFA"/>
<path d="M207.258 338.043H203.694V341.639H207.258V338.043Z" fill="#FAFAFA"/>
<path d="M207.258 344.078H203.694V347.674H207.258V344.078Z" fill="#FAFAFA"/>
<path d="M207.258 350.092H203.694V353.688H207.258V350.092Z" fill="#FAFAFA"/>
<path d="M207.258 356.127H203.694V359.723H207.258V356.127Z" fill="#FAFAFA"/>
<path d="M207.258 362.141H203.694V365.738H207.258V362.141Z" fill="#FAFAFA"/>
<path d="M207.258 368.176H203.694V371.773H207.258V368.176Z" fill="#FAFAFA"/>
<path d="M174.776 309.707H171.213V313.303H174.776V309.707Z" fill="#FAFAFA"/>
<path d="M174.776 315.742H171.213V319.338H174.776V315.742Z" fill="#FAFAFA"/>
<path d="M174.776 321.757H171.213V325.353H174.776V321.757Z" fill="#FAFAFA"/>
<path d="M174.776 327.792H171.213V331.388H174.776V327.792Z" fill="#FAFAFA"/>
<path d="M174.776 333.806H171.213V337.402H174.776V333.806Z" fill="#FAFAFA"/>
<path d="M174.776 339.841H171.213V343.437H174.776V339.841Z" fill="#FAFAFA"/>
<path d="M174.776 345.876H171.213V349.472H174.776V345.876Z" fill="#FAFAFA"/>
<path d="M174.776 351.89H171.213V355.486H174.776V351.89Z" fill="#FAFAFA"/>
<path d="M174.776 357.925H171.213V361.521H174.776V357.925Z" fill="#FAFAFA"/>
<path d="M174.776 363.94H171.213V367.536H174.776V363.94Z" fill="#FAFAFA"/>
<path d="M174.776 369.975H171.213V373.571H174.776V369.975Z" fill="#FAFAFA"/>
<path d="M174.776 376.009H171.213V379.606H174.776V376.009Z" fill="#FAFAFA"/>
<path d="M174.776 382.024H171.213V385.62H174.776V382.024Z" fill="#FAFAFA"/>
<path d="M180.429 309.707H176.865V313.303H180.429V309.707Z" fill="#FAFAFA"/>
<path d="M180.429 315.742H176.865V319.338H180.429V315.742Z" fill="#FAFAFA"/>
<path d="M180.429 321.757H176.865V325.353H180.429V321.757Z" fill="#FAFAFA"/>
<path d="M180.429 327.792H176.865V331.388H180.429V327.792Z" fill="#FAFAFA"/>
<path d="M180.429 333.806H176.865V337.402H180.429V333.806Z" fill="#FAFAFA"/>
<path d="M180.429 339.841H176.865V343.437H180.429V339.841Z" fill="#FAFAFA"/>
<path d="M180.429 345.876H176.865V349.472H180.429V345.876Z" fill="#FAFAFA"/>
<path d="M180.429 351.89H176.865V355.486H180.429V351.89Z" fill="#FAFAFA"/>
<path d="M180.429 357.925H176.865V361.521H180.429V357.925Z" fill="#FAFAFA"/>
<path d="M180.429 363.94H176.865V367.536H180.429V363.94Z" fill="#FAFAFA"/>
<path d="M180.429 369.975H176.865V373.571H180.429V369.975Z" fill="#FAFAFA"/>
<path d="M180.429 376.009H176.865V379.606H180.429V376.009Z" fill="#FAFAFA"/>
<path d="M180.429 382.024H176.865V385.62H180.429V382.024Z" fill="#FAFAFA"/>
<path d="M186.102 309.707H182.538V313.303H186.102V309.707Z" fill="#FAFAFA"/>
<path d="M186.102 315.742H182.538V319.338H186.102V315.742Z" fill="#FAFAFA"/>
<path d="M186.102 321.757H182.538V325.353H186.102V321.757Z" fill="#FAFAFA"/>
<path d="M186.102 327.792H182.538V331.388H186.102V327.792Z" fill="#FAFAFA"/>
<path d="M186.102 333.806H182.538V337.402H186.102V333.806Z" fill="#FAFAFA"/>
<path d="M186.102 339.841H182.538V343.437H186.102V339.841Z" fill="#FAFAFA"/>
<path d="M186.102 345.876H182.538V349.472H186.102V345.876Z" fill="#FAFAFA"/>
<path d="M186.102 351.89H182.538V355.486H186.102V351.89Z" fill="#FAFAFA"/>
<path d="M186.102 357.925H182.538V361.521H186.102V357.925Z" fill="#FAFAFA"/>
<path d="M186.102 363.94H182.538V367.536H186.102V363.94Z" fill="#FAFAFA"/>
<path d="M186.102 369.975H182.538V373.571H186.102V369.975Z" fill="#FAFAFA"/>
<path d="M186.102 376.009H182.538V379.606H186.102V376.009Z" fill="#FAFAFA"/>
<path d="M186.102 382.024H182.538V385.62H186.102V382.024Z" fill="#FAFAFA"/>
<path d="M186.102 388.059H182.538V391.655H186.102V388.059Z" fill="#FAFAFA"/>
<path d="M217.539 311.505H213.975V315.101H217.539V311.505Z" fill="#FAFAFA"/>
<path d="M217.539 317.52H213.975V321.116H217.539V317.52Z" fill="#FAFAFA"/>
<path d="M217.539 323.555H213.975V327.151H217.539V323.555Z" fill="#FAFAFA"/>
<path d="M217.539 329.59H213.975V333.186H217.539V329.59Z" fill="#FAFAFA"/>
<path d="M217.539 335.604H213.975V339.2H217.539V335.604Z" fill="#FAFAFA"/>
<path d="M217.539 341.639H213.975V345.235H217.539V341.639Z" fill="#FAFAFA"/>
<path d="M217.539 347.674H213.975V351.27H217.539V347.674Z" fill="#FAFAFA"/>
<path d="M217.539 353.688H213.975V357.285H217.539V353.688Z" fill="#FAFAFA"/>
<path d="M217.539 359.723H213.975V363.32H217.539V359.723Z" fill="#FAFAFA"/>
<path d="M217.539 365.738H213.975V369.334H217.539V365.738Z" fill="#FAFAFA"/>
<path d="M217.539 383.822H213.975V387.418H217.539V383.822Z" fill="#FAFAFA"/>
<path d="M223.191 311.505H219.628V315.101H223.191V311.505Z" fill="#FAFAFA"/>
<path d="M223.191 317.52H219.628V321.116H223.191V317.52Z" fill="#FAFAFA"/>
<path d="M223.191 323.555H219.628V327.151H223.191V323.555Z" fill="#FAFAFA"/>
<path d="M223.191 329.59H219.628V333.186H223.191V329.59Z" fill="#FAFAFA"/>
<path d="M223.191 335.604H219.628V339.2H223.191V335.604Z" fill="#FAFAFA"/>
<path d="M223.191 341.639H219.628V345.235H223.191V341.639Z" fill="#FAFAFA"/>
<path d="M223.191 347.674H219.628V351.27H223.191V347.674Z" fill="#FAFAFA"/>
<path d="M223.191 353.688H219.628V357.285H223.191V353.688Z" fill="#FAFAFA"/>
<path d="M223.191 359.723H219.628V363.32H223.191V359.723Z" fill="#FAFAFA"/>
<path d="M223.191 377.808H219.628V381.404H223.191V377.808Z" fill="#FAFAFA"/>
<path d="M223.191 383.822H219.628V387.418H223.191V383.822Z" fill="#FAFAFA"/>
<path d="M228.843 311.505H225.28V315.101H228.843V311.505Z" fill="#FAFAFA"/>
<path d="M228.843 317.52H225.28V321.116H228.843V317.52Z" fill="#FAFAFA"/>
<path d="M228.843 323.555H225.28V327.151H228.843V323.555Z" fill="#FAFAFA"/>
<path d="M228.843 329.59H225.28V333.186H228.843V329.59Z" fill="#FAFAFA"/>
<path d="M228.843 335.604H225.28V339.2H228.843V335.604Z" fill="#FAFAFA"/>
<path d="M228.843 341.639H225.28V345.235H228.843V341.639Z" fill="#FAFAFA"/>
<path d="M228.843 347.674H225.28V351.27H228.843V347.674Z" fill="#FAFAFA"/>
<path d="M228.843 353.688H225.28V357.285H228.843V353.688Z" fill="#FAFAFA"/>
<path d="M228.843 371.773H225.28V375.369H228.843V371.773Z" fill="#FAFAFA"/>
<path d="M228.843 377.808H225.28V381.404H228.843V377.808Z" fill="#FAFAFA"/>
<path d="M228.843 383.822H225.28V387.418H228.843V383.822Z" fill="#FAFAFA"/>
<path d="M281.436 219.926H277.873V223.522H281.436V219.926Z" fill="#FAFAFA"/>
<path d="M281.436 225.961H277.873V229.557H281.436V225.961Z" fill="#FAFAFA"/>
<path d="M281.436 231.996H277.873V235.592H281.436V231.996Z" fill="#FAFAFA"/>
<path d="M281.436 238.011H277.873V241.607H281.436V238.011Z" fill="#FAFAFA"/>
<path d="M281.436 244.046H277.873V247.642H281.436V244.046Z" fill="#FAFAFA"/>
<path d="M281.436 250.081H277.873V253.677H281.436V250.081Z" fill="#FAFAFA"/>
<path d="M281.436 256.095H277.873V259.691H281.436V256.095Z" fill="#FAFAFA"/>
<path d="M281.436 262.13H277.873V265.726H281.436V262.13Z" fill="#FAFAFA"/>
<path d="M281.436 268.144H277.873V271.74H281.436V268.144Z" fill="#FAFAFA"/>
<path d="M281.436 274.179H277.873V277.775H281.436V274.179Z" fill="#FAFAFA"/>
<path d="M281.436 280.214H277.873V283.81H281.436V280.214Z" fill="#FAFAFA"/>
<path d="M281.436 286.229H277.873V289.825H281.436V286.229Z" fill="#FAFAFA"/>
<path d="M281.436 292.264H277.873V295.86H281.436V292.264Z" fill="#FAFAFA"/>
<path d="M281.436 298.278H277.873V301.874H281.436V298.278Z" fill="#FAFAFA"/>
<path d="M281.436 304.313H277.873V307.909H281.436V304.313Z" fill="#FAFAFA"/>
<path d="M281.436 310.348H277.873V313.944H281.436V310.348Z" fill="#FAFAFA"/>
<path d="M281.436 316.362H277.873V319.958H281.436V316.362Z" fill="#FAFAFA"/>
<path d="M281.436 328.412H277.873V332.008H281.436V328.412Z" fill="#FAFAFA"/>
<path d="M281.436 334.447H277.873V338.043H281.436V334.447Z" fill="#FAFAFA"/>
<path d="M281.436 340.482H277.873V344.078H281.436V340.482Z" fill="#FAFAFA"/>
<path d="M281.436 346.496H277.873V350.092H281.436V346.496Z" fill="#FAFAFA"/>
<path d="M281.436 352.531H277.873V356.127H281.436V352.531Z" fill="#FAFAFA"/>
<path d="M287.089 219.926H283.525V223.522H287.089V219.926Z" fill="#FAFAFA"/>
<path d="M287.089 225.961H283.525V229.557H287.089V225.961Z" fill="#FAFAFA"/>
<path d="M287.089 231.996H283.525V235.592H287.089V231.996Z" fill="#FAFAFA"/>
<path d="M287.089 238.011H283.525V241.607H287.089V238.011Z" fill="#FAFAFA"/>
<path d="M287.089 244.046H283.525V247.642H287.089V244.046Z" fill="#FAFAFA"/>
<path d="M287.089 250.081H283.525V253.677H287.089V250.081Z" fill="#FAFAFA"/>
<path d="M287.089 256.095H283.525V259.691H287.089V256.095Z" fill="#FAFAFA"/>
<path d="M287.089 262.13H283.525V265.726H287.089V262.13Z" fill="#FAFAFA"/>
<path d="M287.089 268.144H283.525V271.74H287.089V268.144Z" fill="#FAFAFA"/>
<path d="M287.089 274.179H283.525V277.775H287.089V274.179Z" fill="#FAFAFA"/>
<path d="M287.089 280.214H283.525V283.81H287.089V280.214Z" fill="#FAFAFA"/>
<path d="M287.089 286.229H283.525V289.825H287.089V286.229Z" fill="#FAFAFA"/>
<path d="M287.089 292.264H283.525V295.86H287.089V292.264Z" fill="#FAFAFA"/>
<path d="M287.089 298.278H283.525V301.874H287.089V298.278Z" fill="#FAFAFA"/>
<path d="M287.089 304.313H283.525V307.909H287.089V304.313Z" fill="#FAFAFA"/>
<path d="M287.089 310.348H283.525V313.944H287.089V310.348Z" fill="#FAFAFA"/>
<path d="M287.089 346.496H283.525V350.092H287.089V346.496Z" fill="#FAFAFA"/>
<path d="M287.089 352.531H283.525V356.127H287.089V352.531Z" fill="#FAFAFA"/>
<path d="M292.762 219.926H289.198V223.522H292.762V219.926Z" fill="#FAFAFA"/>
<path d="M292.762 225.961H289.198V229.557H292.762V225.961Z" fill="#FAFAFA"/>
<path d="M292.762 231.996H289.198V235.592H292.762V231.996Z" fill="#FAFAFA"/>
<path d="M292.762 238.011H289.198V241.607H292.762V238.011Z" fill="#FAFAFA"/>
<path d="M292.762 244.046H289.198V247.642H292.762V244.046Z" fill="#FAFAFA"/>
<path d="M292.762 250.081H289.198V253.677H292.762V250.081Z" fill="#FAFAFA"/>
<path d="M292.762 256.095H289.198V259.691H292.762V256.095Z" fill="#FAFAFA"/>
<path d="M292.762 262.13H289.198V265.726H292.762V262.13Z" fill="#FAFAFA"/>
<path d="M292.762 268.144H289.198V271.74H292.762V268.144Z" fill="#FAFAFA"/>
<path d="M292.762 274.179H289.198V277.775H292.762V274.179Z" fill="#FAFAFA"/>
<path d="M292.762 280.214H289.198V283.81H292.762V280.214Z" fill="#FAFAFA"/>
<path d="M292.762 286.229H289.198V289.825H292.762V286.229Z" fill="#FAFAFA"/>
<path d="M292.762 292.264H289.198V295.86H292.762V292.264Z" fill="#FAFAFA"/>
<path d="M292.762 298.278H289.198V301.874H292.762V298.278Z" fill="#FAFAFA"/>
<path d="M292.762 304.313H289.198V307.909H292.762V304.313Z" fill="#FAFAFA"/>
<path d="M292.762 310.348H289.198V313.944H292.762V310.348Z" fill="#FAFAFA"/>
<path d="M292.762 322.397H289.198V325.993H292.762V322.397Z" fill="#FAFAFA"/>
<path d="M292.762 328.412H289.198V332.008H292.762V328.412Z" fill="#FAFAFA"/>
<path d="M292.762 334.447H289.198V338.043H292.762V334.447Z" fill="#FAFAFA"/>
<path d="M292.762 340.482H289.198V344.078H292.762V340.482Z" fill="#FAFAFA"/>
<path d="M292.762 352.531H289.198V356.127H292.762V352.531Z" fill="#FAFAFA"/>
<path d="M260.895 295.86H257.331V299.456H260.895V295.86Z" fill="#FAFAFA"/>
<path d="M260.895 301.874H257.331V305.47H260.895V301.874Z" fill="#FAFAFA"/>
<path d="M260.895 307.909H257.331V311.505H260.895V307.909Z" fill="#FAFAFA"/>
<path d="M260.895 313.944H257.331V317.54H260.895V313.944Z" fill="#FAFAFA"/>
<path d="M260.895 319.958H257.331V323.555H260.895V319.958Z" fill="#FAFAFA"/>
<path d="M260.895 325.993H257.331V329.59H260.895V325.993Z" fill="#FAFAFA"/>
<path d="M260.895 332.008H257.331V335.604H260.895V332.008Z" fill="#FAFAFA"/>
<path d="M260.895 344.078H257.331V347.674H260.895V344.078Z" fill="#FAFAFA"/>
<path d="M260.895 350.092H257.331V353.688H260.895V350.092Z" fill="#FAFAFA"/>
<path d="M260.895 356.127H257.331V359.723H260.895V356.127Z" fill="#FAFAFA"/>
<path d="M260.895 362.141H257.331V365.738H260.895V362.141Z" fill="#FAFAFA"/>
<path d="M260.895 368.176H257.331V371.773H260.895V368.176Z" fill="#FAFAFA"/>
<path d="M260.895 374.211H257.331V377.808H260.895V374.211Z" fill="#FAFAFA"/>
<path d="M260.895 380.226H257.331V383.822H260.895V380.226Z" fill="#FAFAFA"/>
<path d="M260.895 386.261H257.331V389.857H260.895V386.261Z" fill="#FAFAFA"/>
<path d="M266.568 295.86H263.004V299.456H266.568V295.86Z" fill="#FAFAFA"/>
<path d="M266.568 301.874H263.004V305.47H266.568V301.874Z" fill="#FAFAFA"/>
<path d="M266.568 307.909H263.004V311.505H266.568V307.909Z" fill="#FAFAFA"/>
<path d="M266.568 313.944H263.004V317.54H266.568V313.944Z" fill="#FAFAFA"/>
<path d="M266.568 319.958H263.004V323.555H266.568V319.958Z" fill="#FAFAFA"/>
<path d="M266.568 325.993H263.004V329.59H266.568V325.993Z" fill="#FAFAFA"/>
<path d="M266.568 344.078H263.004V347.674H266.568V344.078Z" fill="#FAFAFA"/>
<path d="M266.568 350.092H263.004V353.688H266.568V350.092Z" fill="#FAFAFA"/>
<path d="M266.568 356.127H263.004V359.723H266.568V356.127Z" fill="#FAFAFA"/>
<path d="M266.568 362.141H263.004V365.738H266.568V362.141Z" fill="#FAFAFA"/>
<path d="M266.568 368.176H263.004V371.773H266.568V368.176Z" fill="#FAFAFA"/>
<path d="M266.568 374.211H263.004V377.808H266.568V374.211Z" fill="#FAFAFA"/>
<path d="M266.568 380.226H263.004V383.822H266.568V380.226Z" fill="#FAFAFA"/>
<path d="M266.568 386.261H263.004V389.857H266.568V386.261Z" fill="#FAFAFA"/>
<path d="M272.22 295.86H268.657V299.456H272.22V295.86Z" fill="#FAFAFA"/>
<path d="M272.22 301.874H268.657V305.47H272.22V301.874Z" fill="#FAFAFA"/>
<path d="M272.22 307.909H268.657V311.505H272.22V307.909Z" fill="#FAFAFA"/>
<path d="M272.22 313.944H268.657V317.54H272.22V313.944Z" fill="#FAFAFA"/>
<path d="M272.22 319.958H268.657V323.555H272.22V319.958Z" fill="#FAFAFA"/>
<path d="M272.22 325.993H268.657V329.59H272.22V325.993Z" fill="#FAFAFA"/>
<path d="M272.22 338.043H268.657V341.639H272.22V338.043Z" fill="#FAFAFA"/>
<path d="M272.22 344.078H268.657V347.674H272.22V344.078Z" fill="#FAFAFA"/>
<path d="M272.22 350.092H268.657V353.688H272.22V350.092Z" fill="#FAFAFA"/>
<path d="M272.22 356.127H268.657V359.723H272.22V356.127Z" fill="#FAFAFA"/>
<path d="M272.22 362.141H268.657V365.738H272.22V362.141Z" fill="#FAFAFA"/>
<path d="M272.22 368.176H268.657V371.773H272.22V368.176Z" fill="#FAFAFA"/>
<path d="M272.22 374.211H268.657V377.808H272.22V374.211Z" fill="#FAFAFA"/>
<path d="M272.22 380.226H268.657V383.822H272.22V380.226Z" fill="#FAFAFA"/>
<path d="M272.22 386.261H268.657V389.857H272.22V386.261Z" fill="#FAFAFA"/>
<path d="M391.455 262.13H387.891V265.726H391.455V262.13Z" fill="#FAFAFA"/>
<path d="M391.455 268.144H387.891V271.74H391.455V268.144Z" fill="#FAFAFA"/>
<path d="M391.455 274.179H387.891V277.775H391.455V274.179Z" fill="#FAFAFA"/>
<path d="M391.455 280.214H387.891V283.81H391.455V280.214Z" fill="#FAFAFA"/>
<path d="M391.455 286.229H387.891V289.825H391.455V286.229Z" fill="#FAFAFA"/>
<path d="M391.455 292.264H387.891V295.86H391.455V292.264Z" fill="#FAFAFA"/>
<path d="M391.455 298.278H387.891V301.874H391.455V298.278Z" fill="#FAFAFA"/>
<path d="M391.455 304.313H387.891V307.909H391.455V304.313Z" fill="#FAFAFA"/>
<path d="M391.455 310.348H387.891V313.944H391.455V310.348Z" fill="#FAFAFA"/>
<path d="M391.455 316.362H387.891V319.958H391.455V316.362Z" fill="#FAFAFA"/>
<path d="M391.455 322.397H387.891V325.993H391.455V322.397Z" fill="#FAFAFA"/>
<path d="M391.455 328.412H387.891V332.008H391.455V328.412Z" fill="#FAFAFA"/>
<path d="M391.455 334.447H387.891V338.043H391.455V334.447Z" fill="#FAFAFA"/>
<path d="M391.455 346.496H387.891V350.092H391.455V346.496Z" fill="#FAFAFA"/>
<path d="M391.455 352.531H387.891V356.127H391.455V352.531Z" fill="#FAFAFA"/>
<path d="M391.455 358.545H387.891V362.141H391.455V358.545Z" fill="#FAFAFA"/>
<path d="M391.455 364.58H387.891V368.176H391.455V364.58Z" fill="#FAFAFA"/>
<path d="M391.455 376.63H387.891V380.226H391.455V376.63Z" fill="#FAFAFA"/>
<path d="M391.455 382.665H387.891V386.261H391.455V382.665Z" fill="#FAFAFA"/>
<path d="M391.455 388.679H387.891V392.275H391.455V388.679Z" fill="#FAFAFA"/>
<path d="M397.107 262.13H393.544V265.726H397.107V262.13Z" fill="#FAFAFA"/>
<path d="M397.107 268.144H393.544V271.74H397.107V268.144Z" fill="#FAFAFA"/>
<path d="M397.107 274.179H393.544V277.775H397.107V274.179Z" fill="#FAFAFA"/>
<path d="M397.107 280.214H393.544V283.81H397.107V280.214Z" fill="#FAFAFA"/>
<path d="M397.107 286.229H393.544V289.825H397.107V286.229Z" fill="#FAFAFA"/>
<path d="M397.107 292.264H393.544V295.86H397.107V292.264Z" fill="#FAFAFA"/>
<path d="M397.107 298.278H393.544V301.874H397.107V298.278Z" fill="#FAFAFA"/>
<path d="M397.107 304.313H393.544V307.909H397.107V304.313Z" fill="#FAFAFA"/>
<path d="M397.107 310.348H393.544V313.944H397.107V310.348Z" fill="#FAFAFA"/>
<path d="M397.107 316.362H393.544V319.958H397.107V316.362Z" fill="#FAFAFA"/>
<path d="M397.107 322.397H393.544V325.993H397.107V322.397Z" fill="#FAFAFA"/>
<path d="M397.107 328.412H393.544V332.008H397.107V328.412Z" fill="#FAFAFA"/>
<path d="M397.107 334.447H393.544V338.043H397.107V334.447Z" fill="#FAFAFA"/>
<path d="M397.107 352.531H393.544V356.127H397.107V352.531Z" fill="#FAFAFA"/>
<path d="M397.107 358.545H393.544V362.141H397.107V358.545Z" fill="#FAFAFA"/>
<path d="M397.107 370.615H393.544V374.211H397.107V370.615Z" fill="#FAFAFA"/>
<path d="M397.107 376.63H393.544V380.226H397.107V376.63Z" fill="#FAFAFA"/>
<path d="M397.107 382.665H393.544V386.261H397.107V382.665Z" fill="#FAFAFA"/>
<path d="M397.107 388.679H393.544V392.275H397.107V388.679Z" fill="#FAFAFA"/>
<path d="M402.76 262.13H399.196V265.726H402.76V262.13Z" fill="#FAFAFA"/>
<path d="M402.76 268.144H399.196V271.74H402.76V268.144Z" fill="#FAFAFA"/>
<path d="M402.76 274.179H399.196V277.775H402.76V274.179Z" fill="#FAFAFA"/>
<path d="M402.76 280.214H399.196V283.81H402.76V280.214Z" fill="#FAFAFA"/>
<path d="M402.76 286.229H399.196V289.825H402.76V286.229Z" fill="#FAFAFA"/>
<path d="M402.76 292.264H399.196V295.86H402.76V292.264Z" fill="#FAFAFA"/>
<path d="M402.76 298.278H399.196V301.874H402.76V298.278Z" fill="#FAFAFA"/>
<path d="M402.76 304.313H399.196V307.909H402.76V304.313Z" fill="#FAFAFA"/>
<path d="M402.76 310.348H399.196V313.944H402.76V310.348Z" fill="#FAFAFA"/>
<path d="M402.76 316.362H399.196V319.958H402.76V316.362Z" fill="#FAFAFA"/>
<path d="M402.76 322.397H399.196V325.993H402.76V322.397Z" fill="#FAFAFA"/>
<path d="M402.76 328.412H399.196V332.008H402.76V328.412Z" fill="#FAFAFA"/>
<path d="M402.76 334.447H399.196V338.043H402.76V334.447Z" fill="#FAFAFA"/>
<path d="M402.76 340.482H399.196V344.078H402.76V340.482Z" fill="#FAFAFA"/>
<path d="M402.76 352.531H399.196V356.127H402.76V352.531Z" fill="#FAFAFA"/>
<path d="M402.76 364.58H399.196V368.176H402.76V364.58Z" fill="#FAFAFA"/>
<path d="M402.76 370.615H399.196V374.211H402.76V370.615Z" fill="#FAFAFA"/>
<path d="M402.76 376.63H399.196V380.226H402.76V376.63Z" fill="#FAFAFA"/>
<path d="M402.76 382.665H399.196V386.261H402.76V382.665Z" fill="#FAFAFA"/>
<path d="M402.76 388.679H399.196V392.275H402.76V388.679Z" fill="#FAFAFA"/>
<path d="M368.394 296.48H364.831V300.076H368.394V296.48Z" fill="#FAFAFA"/>
<path d="M368.394 302.515H364.831V306.111H368.394V302.515Z" fill="#FAFAFA"/>
<path d="M368.394 308.55H364.831V312.146H368.394V308.55Z" fill="#FAFAFA"/>
<path d="M368.394 314.564H364.831V318.16H368.394V314.564Z" fill="#FAFAFA"/>
<path d="M368.394 320.599H364.831V324.195H368.394V320.599Z" fill="#FAFAFA"/>
<path d="M368.394 326.613H364.831V330.21H368.394V326.613Z" fill="#FAFAFA"/>
<path d="M368.394 344.698H364.831V348.294H368.394V344.698Z" fill="#FAFAFA"/>
<path d="M368.394 350.733H364.831V354.329H368.394V350.733Z" fill="#FAFAFA"/>
<path d="M368.394 356.747H364.831V360.343H368.394V356.747Z" fill="#FAFAFA"/>
<path d="M368.394 362.782H364.831V366.378H368.394V362.782Z" fill="#FAFAFA"/>
<path d="M368.394 368.817H364.831V372.413H368.394V368.817Z" fill="#FAFAFA"/>
<path d="M368.394 374.831H364.831V378.428H368.394V374.831Z" fill="#FAFAFA"/>
<path d="M368.394 380.866H364.831V384.463H368.394V380.866Z" fill="#FAFAFA"/>
<path d="M374.067 296.48H370.504V300.076H374.067V296.48Z" fill="#FAFAFA"/>
<path d="M374.067 302.515H370.504V306.111H374.067V302.515Z" fill="#FAFAFA"/>
<path d="M374.067 308.55H370.504V312.146H374.067V308.55Z" fill="#FAFAFA"/>
<path d="M374.067 314.564H370.504V318.16H374.067V314.564Z" fill="#FAFAFA"/>
<path d="M374.067 320.599H370.504V324.195H374.067V320.599Z" fill="#FAFAFA"/>
<path d="M374.067 326.613H370.504V330.21H374.067V326.613Z" fill="#FAFAFA"/>
<path d="M374.067 344.698H370.504V348.294H374.067V344.698Z" fill="#FAFAFA"/>
<path d="M374.067 350.733H370.504V354.329H374.067V350.733Z" fill="#FAFAFA"/>
<path d="M374.067 356.747H370.504V360.343H374.067V356.747Z" fill="#FAFAFA"/>
<path d="M374.067 362.782H370.504V366.378H374.067V362.782Z" fill="#FAFAFA"/>
<path d="M374.067 368.817H370.504V372.413H374.067V368.817Z" fill="#FAFAFA"/>
<path d="M374.067 374.831H370.504V378.428H374.067V374.831Z" fill="#FAFAFA"/>
<path d="M374.067 386.901H370.504V390.498H374.067V386.901Z" fill="#FAFAFA"/>
<path d="M509.645 99.4122H502.579V491.047H509.645V99.4122Z" fill="#EBEBEB"/>
<path d="M396.083 99.4122H390.103V491.047H396.083V99.4122Z" fill="#EBEBEB"/>
<path d="M283.607 99.4122H277.627V491.047H283.607V99.4122Z" fill="#EBEBEB"/>
<path d="M706.355 114.913C722.383 114.913 735.375 101.801 735.375 85.6268C735.375 69.4524 722.383 56.3405 706.355 56.3405C690.328 56.3405 677.335 69.4524 677.335 85.6268C677.335 101.801 690.328 114.913 706.355 114.913Z" fill="#E0E0E0"/>
<path d="M731.013 85.6268C731.013 90.532 729.572 95.3271 726.871 99.4057C724.171 103.484 720.333 106.663 715.842 108.54C711.351 110.417 706.41 110.909 701.643 109.952C696.875 108.995 692.496 106.633 689.059 103.164C685.622 99.6954 683.282 95.2763 682.333 90.4653C681.385 85.6543 681.872 80.6675 683.732 76.1357C685.592 71.6038 688.742 67.7304 692.783 65.0052C696.825 62.2799 701.576 60.8254 706.437 60.8254C712.955 60.8254 719.206 63.4384 723.815 68.0895C728.424 72.7407 731.013 79.049 731.013 85.6268Z" fill="#F0F0F0"/>
<path d="M705.188 68.5551V85.9574L693.76 79.4264" fill="#F0F0F0"/>
<path d="M705.188 88.0242C704.836 88.0231 704.49 87.9306 704.184 87.7556L692.756 81.2245C692.284 80.9505 691.939 80.4982 691.796 79.9672C691.654 79.4361 691.727 78.8699 691.999 78.393C692.27 77.9162 692.718 77.5677 693.245 77.4243C693.771 77.2809 694.332 77.3543 694.804 77.6283L703.181 82.4233V68.5552C703.181 68.007 703.397 67.4813 703.781 67.0937C704.165 66.7061 704.686 66.4884 705.229 66.4884C705.772 66.4884 706.293 66.7061 706.677 67.0937C707.061 67.4813 707.277 68.007 707.277 68.5552V85.9575C707.278 86.3216 707.184 86.6798 707.004 86.9955C706.825 87.3113 706.565 87.5735 706.253 87.7556C705.929 87.9412 705.56 88.0341 705.188 88.0242Z" fill="#E0E0E0"/>
<path d="M851.19 132.894H722.903V303.776H851.19V132.894Z" fill="#F5F5F5"/>
<path d="M766.546 151.082V226.209L796.201 224.514L799.601 151.082H766.546Z" fill="#EBEBEB"/>
<path d="M790.549 165.611H836.178L835.789 231.376L812.155 231.748L790.549 165.611Z" fill="#E0E0E0"/>
<path d="M746.127 155.918H758.129L753.93 214.594L738.918 218.355L746.127 155.918Z" fill="#E6E6E6"/>
<path d="M576.225 324.629H704.102V167.595L576.225 167.595V324.629Z" fill="#E6E6E6"/>
<path d="M605.491 285.733L672.686 219.079L599.982 206.967L605.491 285.733Z" fill="#E0E0E0"/>
<path d="M671.068 269.922L674.386 218.81L623.8 231.356L620.114 270.459L671.068 269.922Z" fill="#F0F0F0"/>
<path d="M619.306 212.563C627.28 204.516 627.28 191.469 619.306 183.422C611.332 175.375 598.404 175.375 590.43 183.422C582.456 191.469 582.456 204.516 590.43 212.563C598.404 220.61 611.332 220.61 619.306 212.563Z" fill="#FAFAFA"/>
<path d="M664.453 288.151C664.453 286.172 665.034 284.238 666.124 282.593C667.213 280.948 668.761 279.666 670.572 278.909C672.383 278.152 674.376 277.954 676.299 278.34C678.222 278.726 679.988 279.678 681.374 281.077C682.761 282.476 683.705 284.259 684.087 286.199C684.47 288.14 684.273 290.151 683.523 291.979C682.773 293.807 681.502 295.369 679.872 296.468C678.242 297.567 676.326 298.154 674.365 298.154C671.736 298.154 669.215 297.1 667.356 295.224C665.497 293.348 664.453 290.804 664.453 288.151Z" fill="#E0E0E0"/>
<path d="M672.01 305.718L643.4 288.151L667.443 268.165L672.01 305.718Z" fill="#F5F5F5"/>
<path d="M638.239 187.56H632.607V312.952H638.239V187.56Z" fill="#E0E0E0"/>
<path d="M692.101 187.56H684.831V307.413H692.101V187.56Z" fill="#EBEBEB"/>
<path d="M626.237 270.459H589.066V307.971H626.237V270.459Z" fill="#EBEBEB"/>
<path d="M842.527 534.015H708.137V657.257H842.527V534.015Z" fill="#E6E6E6"/>
<path d="M863.068 523.164H846.172V676.21H863.068V523.164Z" fill="#E6E6E6"/>
<path d="M740.557 545.506H729.539V589.715H740.557V545.506Z" fill="#FAFAFA"/>
<path d="M786.207 545.506H775.189V589.715H786.207V545.506Z" fill="#F5F5F5"/>
<path d="M751.555 549.351H740.536V589.735H751.555V549.351Z" fill="#F5F5F5"/>
<path d="M775.188 549.351H764.17V589.735H775.188V549.351Z" fill="#FAFAFA"/>
<path d="M764.17 545.506H757.064V589.715H764.17V545.506Z" fill="#EBEBEB"/>
<path d="M757.064 549.351H751.555V589.735H757.064V549.351Z" fill="#FAFAFA"/>
<path d="M797.225 545.506H786.207V589.715H797.225V545.506Z" fill="#EBEBEB"/>
<path d="M808.243 549.351H797.225V589.735H808.243V549.351Z" fill="#E6E6E6"/>
<path d="M831.877 549.351H820.859V589.735H831.877V549.351Z" fill="#E6E6E6"/>
<path d="M820.838 545.506H813.732V589.715H820.838V545.506Z" fill="#FAFAFA"/>
<path d="M813.732 549.351H808.223V589.735H813.732V549.351Z" fill="#EBEBEB"/>
<path d="M837.366 546.808H831.857V589.735H837.366V546.808Z" fill="#FAFAFA"/>
<path d="M826.368 650.416H837.386V608.274H826.368V650.416Z" fill="#FAFAFA"/>
<path d="M780.698 650.416H791.716V608.274H780.698V650.416Z" fill="#FAFAFA"/>
<path d="M815.329 650.437H826.348V612.119H815.329V650.437Z" fill="#F0F0F0"/>
<path d="M791.695 650.437H802.714V612.119H791.695V650.437Z" fill="#EBEBEB"/>
<path d="M802.734 650.416H809.841V608.274H802.734V650.416Z" fill="#FAFAFA"/>
<path d="M809.841 650.437H815.35V612.119H809.841V650.437Z" fill="#F5F5F5"/>
<path d="M769.679 650.416H780.698V608.274H769.679V650.416Z" fill="#EBEBEB"/>
<path d="M758.661 650.437H769.679V612.119H758.661V650.437Z" fill="#F5F5F5"/>
<path d="M735.027 650.437H746.045V612.119H735.027V650.437Z" fill="#E6E6E6"/>
<path d="M746.066 650.416H753.172V608.274H746.066V650.416Z" fill="#FAFAFA"/>
<path d="M722.432 650.416H729.539V608.274H722.432V650.416Z" fill="#FAFAFA"/>
<path d="M753.152 650.437H758.661V612.119H753.152V650.437Z" fill="#EBEBEB"/>
<path d="M729.518 650.437H735.027V609.577H729.518V650.437Z" fill="#F0F0F0"/>
<path d="M841.851 523.164H703.877V666.351H837.345V676.189H846.357V523.247L841.851 523.164ZM837.345 650.437H712.417V598.871H837.345V650.437ZM837.345 589.777H712.417V539.058H837.345V589.777Z" fill="#F0F0F0"/>
<path d="M573.542 657.257H707.932V534.015H573.542V657.257Z" fill="#E6E6E6"/>
<path d="M578.703 676.189H595.599V664.553H578.703V676.189Z" fill="#E6E6E6"/>
<path d="M692.367 589.715H703.386V545.506H692.367V589.715Z" fill="#FAFAFA"/>
<path d="M646.717 589.715H657.736V545.506H646.717V589.715Z" fill="#F5F5F5"/>
<path d="M681.37 589.715H692.388V549.33H681.37V589.715Z" fill="#F5F5F5"/>
<path d="M657.736 589.715H668.754V549.33H657.736V589.715Z" fill="#FAFAFA"/>
<path d="M668.754 589.715H675.86V545.506H668.754V589.715Z" fill="#EBEBEB"/>
<path d="M675.86 589.715H681.37V549.33H675.86V589.715Z" fill="#FAFAFA"/>
<path d="M642.97 589.715H653.988V545.506H642.97V589.715Z" fill="#EBEBEB"/>
<path d="M631.951 589.715H642.97V549.33H631.951V589.715Z" fill="#E6E6E6"/>
<path d="M608.317 589.715H619.336V549.33H608.317V589.715Z" fill="#E6E6E6"/>
<path d="M619.356 589.715H626.463V545.506H619.356V589.715Z" fill="#FAFAFA"/>
<path d="M626.442 589.715H631.951V549.33H626.442V589.715Z" fill="#EBEBEB"/>
<path d="M602.829 589.715H608.338V546.788H602.829V589.715Z" fill="#F5F5F5"/>
<path d="M608.666 608.295H597.647V650.437H608.666V608.295Z" fill="#FAFAFA"/>
<path d="M654.315 608.295H643.297V650.437H654.315V608.295Z" fill="#FAFAFA"/>
<path d="M619.684 612.119H608.666V650.437H619.684V612.119Z" fill="#F5F5F5"/>
<path d="M643.318 612.119H632.299V650.437H643.318V612.119Z" fill="#EBEBEB"/>
<path d="M632.279 608.295H625.172V650.437H632.279V608.295Z" fill="#FAFAFA"/>
<path d="M625.173 612.119H619.663V650.437H625.173V612.119Z" fill="#F5F5F5"/>
<path d="M658.084 608.295H647.066V650.437H658.084V608.295Z" fill="#EBEBEB"/>
<path d="M669.082 612.119H658.063V650.437H669.082V612.119Z" fill="#F5F5F5"/>
<path d="M692.716 612.119H681.697V650.437H692.716V612.119Z" fill="#E6E6E6"/>
<path d="M681.697 608.295H674.591V650.437H681.697V608.295Z" fill="#FAFAFA"/>
<path d="M703.877 608.295H696.771V650.437H703.877V608.295Z" fill="#FAFAFA"/>
<path d="M674.591 612.119H669.082V650.437H674.591V612.119Z" fill="#EBEBEB"/>
<path d="M698.225 609.576H692.716V650.437H698.225V609.576Z" fill="#EBEBEB"/>
<path d="M569.692 523.164V676.106H578.703V666.268H712.172V523.164H569.692ZM578.703 598.871H703.631V650.437H578.703V598.871ZM578.703 539.058H703.631V589.777H578.703V539.058Z" fill="#F0F0F0"/>
<path d="M512 770C731.305 770 909.087 759.525 909.087 746.604C909.087 733.683 731.305 723.208 512 723.208C292.695 723.208 114.913 733.683 114.913 746.604C114.913 759.525 292.695 770 512 770Z" fill="#F5F5F5"/>
<path d="M782.438 656.451C782.438 656.451 766.546 637.395 756.388 646.283C746.23 655.17 751.37 674.039 763.085 674.659C770.033 675.038 776.889 672.922 782.438 668.686V656.451Z" fill="#3C6E71"/>
<path opacity="0.2" d="M782.438 656.451C782.438 656.451 766.546 637.395 756.388 646.283C746.23 655.17 751.37 674.039 763.085 674.659C770.033 675.038 776.889 672.922 782.438 668.686V656.451Z" fill="white"/>
<path d="M847.217 608.088C847.217 608.088 860.549 593.993 868.803 596.39C877.056 598.788 876.216 632.456 850.596 618.815L847.217 608.088Z" fill="#3C6E71"/>
<path opacity="0.3" d="M847.217 608.088C847.217 608.088 860.549 593.993 868.803 596.39C877.056 598.788 876.216 632.456 850.596 618.815L847.217 608.088Z" fill="white"/>
<path d="M799.58 713.267C799.58 713.267 755.753 652.772 791.388 640.516C827.023 628.26 833.311 689.189 823.153 706.157C812.995 723.126 799.58 713.267 799.58 713.267Z" fill="#3C6E71"/>
<path d="M819.896 589.405C819.896 589.405 847.094 525.706 806.83 523.784C766.566 521.862 762.163 586.945 808.509 596.39L819.896 589.405Z" fill="#3C6E71"/>
<path opacity="0.3" d="M799.58 713.267C799.58 713.267 755.753 652.772 791.388 640.516C827.023 628.26 833.311 689.189 823.153 706.157C812.995 723.126 799.58 713.267 799.58 713.267Z" fill="white"/>
<path opacity="0.3" d="M819.896 589.405C819.896 589.405 847.094 525.706 806.83 523.784C766.566 521.862 762.163 586.945 808.509 596.39L819.896 589.405Z" fill="white"/>
<path d="M810.25 641.55C810.25 641.55 797.041 585.312 822.538 580.828C848.036 576.343 873.021 627.165 820.49 652.71C820.367 652.71 811.356 647.068 810.25 641.55Z" fill="#3C6E71"/>
<path opacity="0.2" d="M810.25 641.55C810.25 641.55 797.041 585.312 822.538 580.828C848.036 576.343 873.021 627.165 820.49 652.71C820.367 652.71 811.356 647.068 810.25 641.55Z" fill="white"/>
<path d="M768.041 704.69H841.605L835.461 752.205H774.185L768.041 704.69Z" fill="#263238"/>
<path d="M806.298 584.899C791.142 573.718 780.636 552.099 789.586 533.891C789.217 535.586 788.767 537.425 788.357 539.12C785.367 556.378 794.747 572.85 806.298 584.899Z" fill="#3C6E71"/>
<path d="M796.672 530.191C814.141 533.767 821.862 552.471 819.835 568.944C819.446 571.279 819.118 573.573 818.647 575.867C818.876 571.253 818.828 566.628 818.504 562.02C817.418 548.441 810.004 535.152 796.672 530.191Z" fill="#3C6E71"/>
<path d="M827.392 584.899C837.202 588.392 843.346 599.263 843.366 609.556C843.366 618.526 838.451 626.669 832.963 633.365C828.962 638.227 824.388 642.579 819.343 646.324C823.799 642.01 827.908 637.345 831.631 632.373C836.198 626.173 840.212 619.456 841.216 611.809C842.076 601.185 836.936 589.859 827.29 584.94L827.392 584.899Z" fill="#3C6E71"/>
<path d="M819.896 589.405C822.518 597.672 824.852 607.489 820.593 615.591C817.029 620.84 816.66 627.702 816.497 633.964C816.497 636.155 816.497 638.325 816.64 640.516C815.594 636.224 815.119 631.811 815.227 627.392C815.157 622.839 816.387 618.362 818.77 614.495C822.702 606.931 820.818 597.568 819.814 589.405H819.896Z" fill="#3C6E71"/>
<path d="M802.038 646.283C812.278 651.594 816.374 687.267 815.985 698.489C815.677 696.216 815.329 693.963 814.899 691.71C812.954 680.467 810.926 669.182 807.977 658.167C806.605 654.033 805.724 648.949 802.038 646.283Z" fill="#3C6E71"/>
<path d="M789.586 648.246C787.119 656.344 786.742 664.944 788.491 673.231C790.24 681.517 794.057 689.215 799.58 695.596C797.955 694.19 796.416 692.685 794.972 691.09C790.023 685.262 786.876 678.097 785.919 670.483C784.961 662.868 786.236 655.137 789.586 648.246Z" fill="#3C6E71"/>
<path d="M857.559 614.95C862.229 613.689 866.202 612.553 869.601 609.08C868.762 614.351 862.126 616.831 857.559 614.95Z" fill="#3C6E71"/>
<path d="M854.835 605.67C857.027 601.165 864.522 598.354 867.697 603.252C863.212 601.289 858.849 603.748 854.835 605.67Z" fill="#3C6E71"/>
<path d="M775.188 659.303C770.068 655.666 764.764 649.465 758.149 652.71C763.535 646.262 772.588 653.475 775.188 659.303Z" fill="#3C6E71"/>
<path d="M775.189 668.686C768.492 671.167 755.118 671.353 754.299 661.907C758.129 669.617 767.898 667.922 775.189 668.686Z" fill="#3C6E71"/>
<path d="M646.451 710.973C646.803 710.253 646.976 709.458 646.956 708.656C646.937 707.854 646.724 707.068 646.338 706.367C645.951 705.666 645.401 705.07 644.736 704.63C644.071 704.19 643.31 703.92 642.519 703.842C643.198 701.796 643.242 699.59 642.645 697.519C642.049 695.447 640.84 693.608 639.181 692.248C638.786 691.865 638.273 691.631 637.727 691.586C637.148 691.649 636.603 691.895 636.17 692.289L626.975 698.965C626.227 699.417 625.596 700.04 625.132 700.784C623.247 704.462 630.047 709.175 627.18 712.213C626.381 713.102 625.132 713.267 624.087 713.908C621.896 715.292 621.629 718.33 620.605 720.728C619.581 723.125 616.018 724.965 614.646 722.795C615.67 720.501 612.598 718.517 610.14 718.227C607.683 717.938 605.082 717.793 603.73 715.458C600.207 718.558 592.364 709.919 592.527 706.446C591.145 706.697 589.874 707.378 588.894 708.393C587.913 709.409 587.272 710.708 587.059 712.109C586.659 714.984 586.556 717.894 586.752 720.79C586.752 726.432 584.868 731.951 584.97 737.593C584.97 741.974 586.732 746.831 590.705 748.609C592.672 749.317 594.766 749.599 596.849 749.436L642.171 749.146C643.263 749.231 644.36 749.047 645.366 748.609C647.414 747.534 647.844 744.827 648.028 742.512C648.82 732.578 649.632 722.643 650.465 712.709L646.451 710.973Z" fill="#3C6E71"/>
<path opacity="0.3" d="M646.451 710.973C646.803 710.253 646.976 709.458 646.956 708.656C646.937 707.854 646.724 707.068 646.338 706.367C645.951 705.666 645.401 705.07 644.736 704.63C644.071 704.19 643.31 703.92 642.519 703.842C643.198 701.796 643.242 699.59 642.645 697.519C642.049 695.447 640.84 693.608 639.181 692.248C638.786 691.865 638.273 691.631 637.727 691.586C637.148 691.649 636.603 691.895 636.17 692.289L626.975 698.965C626.227 699.417 625.596 700.04 625.132 700.784C623.247 704.462 630.047 709.175 627.18 712.213C626.381 713.102 625.132 713.267 624.087 713.908C621.896 715.292 621.629 718.33 620.605 720.728C619.581 723.125 616.018 724.965 614.646 722.795C615.67 720.501 612.598 718.517 610.14 718.227C607.683 717.938 605.082 717.793 603.73 715.458C600.207 718.558 592.364 709.919 592.527 706.446C591.145 706.697 589.874 707.378 588.894 708.393C587.913 709.409 587.272 710.708 587.059 712.109C586.659 714.984 586.556 717.894 586.752 720.79C586.752 726.432 584.868 731.951 584.97 737.593C584.97 741.974 586.732 746.831 590.705 748.609C592.672 749.317 594.766 749.599 596.849 749.436L642.171 749.146C643.263 749.231 644.36 749.047 645.366 748.609C647.414 747.534 647.844 744.827 648.028 742.512C648.82 732.578 649.632 722.643 650.465 712.709L646.451 710.973Z" fill="white"/>
<path d="M649.216 662.527H578.785L579.359 669.699L579.789 674.825L580.854 688.135L581.468 695.803L582.267 705.971L582.615 710.353L582.738 711.655L583.147 716.78L583.721 723.828L584.069 728.189L584.417 732.633L584.827 737.758L585.155 741.644L585.503 746.005L585.646 747.906H650.179L650.322 746.005L650.67 741.664L650.998 737.738L651.407 732.612L651.756 728.189L652.104 723.828L652.677 716.76L653.087 711.655L653.189 710.353L653.537 705.971L654.356 695.803L654.971 688.155L656.036 674.825L656.445 669.699L657.019 662.527H649.216ZM653.435 667.24L652.083 665.855H653.558L653.435 667.24ZM653.087 671.58L652.964 673.316L646.656 679.661L639.447 672.386L645.898 665.855H647.414L653.087 671.58ZM651.264 694.315L646.656 698.965L639.447 691.669L646.656 684.415L651.653 689.437L651.264 694.315ZM584.356 689.437L589.353 684.415L596.562 691.669L589.353 698.965L584.765 694.315L584.356 689.437ZM644.239 682.038L636.928 689.313L629.801 682.038L637.01 674.763L644.239 682.038ZM632.832 665.855H641.024L636.928 669.989L632.832 665.855ZM634.634 691.648L627.425 698.944L620.196 691.648L627.425 684.394L634.634 691.648ZM610.652 701.3L617.882 694.025L625.07 701.3L617.882 708.575L610.652 701.3ZM615.526 710.931L608.256 718.227L601.149 710.973L608.358 703.677L615.526 710.931ZM627.425 703.656L634.675 710.973L627.466 718.248L620.237 710.973L627.425 703.656ZM617.882 689.313L610.693 682.038L617.923 674.763L625.111 682.038L617.882 689.313ZM615.526 691.648L608.317 698.944L601.108 691.648L608.317 684.394L615.526 691.648ZM598.753 689.313L591.585 682.038L598.794 674.763L606.024 682.038L598.753 689.313ZM598.753 694.025L605.983 701.3L598.753 708.575L591.544 701.3L598.753 694.025ZM605.983 720.583L598.753 727.858L591.544 720.583L598.753 713.308L605.983 720.583ZM608.297 722.939L615.526 730.214L608.317 737.51L601.108 730.214L608.297 722.939ZM610.652 720.583L617.882 713.308L625.07 720.583L617.882 727.858L610.652 720.583ZM627.425 722.939L634.634 730.214L627.425 737.51L620.196 730.214L627.425 722.939ZM636.969 732.571L644.198 739.866L639.508 744.579H634.47L629.801 739.908L636.969 732.571ZM629.76 720.583L636.969 713.308L644.198 720.583L636.928 727.858L629.76 720.583ZM629.76 701.3L636.928 694.025L644.157 701.3L636.928 708.575L629.76 701.3ZM634.634 672.365L627.425 679.64L620.196 672.365L626.667 665.834H628.183L634.634 672.365ZM617.882 670.009L613.786 665.876H621.978L617.882 670.009ZM615.526 672.365L608.317 679.64L601.108 672.365L607.56 665.834H609.075L615.526 672.365ZM602.89 665.834L598.794 669.968L594.698 665.834H602.89ZM589.967 665.834L596.419 672.365L589.21 679.64L582.922 673.295L582.799 671.559L588.452 665.834H589.967ZM583.823 665.834L582.492 667.198L582.369 665.834H583.823ZM583.373 678.442L586.916 681.997L583.905 685.035L583.373 678.442ZM585.421 702.85L585.155 699.399L586.998 701.28L585.421 702.85ZM585.769 707.253L589.332 703.636L596.541 710.931L589.332 718.206L586.424 715.272L585.769 707.253ZM586.854 720.707V720.397L587.018 720.563L586.875 720.707H586.854ZM588.104 736.229L587.203 725.068L589.251 723.001L596.459 730.276L589.251 737.552L588.022 736.312L588.104 736.229ZM588.759 744.496L588.636 742.822L589.332 742.119L591.667 744.496H588.759ZM591.667 739.784L598.876 732.488L606.106 739.784L601.416 744.496H596.337L591.667 739.784ZM606.106 744.496L608.44 742.119L610.795 744.496H606.106ZM615.444 744.496L610.693 739.908L617.923 732.612L625.111 739.908L620.544 744.579L615.444 744.496ZM625.193 744.496L627.548 742.119L629.883 744.496H625.193ZM647.209 744.496H644.301L646.635 742.119L647.332 742.822L647.209 744.496ZM647.885 736.229L646.635 737.469L639.427 730.194L646.635 722.919L648.684 724.986L647.885 736.229ZM649.155 720.377V720.707L649.011 720.563L649.196 720.377H649.155ZM649.564 715.272L646.635 718.206L639.345 710.973L646.554 703.677L650.138 707.294L649.564 715.272ZM650.568 702.871L648.97 701.28L650.834 699.399L650.568 702.871ZM652.616 678.421L652.083 685.055L648.888 682.038L652.452 678.462L652.616 678.421Z" fill="#3C6E71"/>
<g opacity="0.6">
<path d="M649.216 662.527H578.785L579.359 669.699L579.789 674.825L580.854 688.135L581.468 695.803L582.267 705.971L582.615 710.353L582.738 711.655L583.147 716.78L583.721 723.828L584.069 728.189L584.417 732.633L584.827 737.758L585.155 741.644L585.503 746.005L585.646 747.906H650.179L650.322 746.005L650.67 741.664L650.998 737.738L651.407 732.612L651.756 728.189L652.104 723.828L652.677 716.76L653.087 711.655L653.189 710.353L653.537 705.971L654.356 695.803L654.971 688.155L656.036 674.825L656.445 669.699L657.019 662.527H649.216ZM653.435 667.24L652.083 665.855H653.558L653.435 667.24ZM653.087 671.58L652.964 673.316L646.656 679.661L639.447 672.386L645.898 665.855H647.414L653.087 671.58ZM651.264 694.315L646.656 698.965L639.447 691.669L646.656 684.415L651.653 689.437L651.264 694.315ZM584.356 689.437L589.353 684.415L596.562 691.669L589.353 698.965L584.765 694.315L584.356 689.437ZM644.239 682.038L636.928 689.313L629.801 682.038L637.01 674.763L644.239 682.038ZM632.832 665.855H641.024L636.928 669.989L632.832 665.855ZM634.634 691.648L627.425 698.944L620.196 691.648L627.425 684.394L634.634 691.648ZM610.652 701.3L617.882 694.025L625.07 701.3L617.882 708.575L610.652 701.3ZM615.526 710.931L608.256 718.227L601.149 710.973L608.358 703.677L615.526 710.931ZM627.425 703.656L634.675 710.973L627.466 718.248L620.237 710.973L627.425 703.656ZM617.882 689.313L610.693 682.038L617.923 674.763L625.111 682.038L617.882 689.313ZM615.526 691.648L608.317 698.944L601.108 691.648L608.317 684.394L615.526 691.648ZM598.753 689.313L591.585 682.038L598.794 674.763L606.024 682.038L598.753 689.313ZM598.753 694.025L605.983 701.3L598.753 708.575L591.544 701.3L598.753 694.025ZM605.983 720.583L598.753 727.858L591.544 720.583L598.753 713.308L605.983 720.583ZM608.297 722.939L615.526 730.214L608.317 737.51L601.108 730.214L608.297 722.939ZM610.652 720.583L617.882 713.308L625.07 720.583L617.882 727.858L610.652 720.583ZM627.425 722.939L634.634 730.214L627.425 737.51L620.196 730.214L627.425 722.939ZM636.969 732.571L644.198 739.866L639.508 744.579H634.47L629.801 739.908L636.969 732.571ZM629.76 720.583L636.969 713.308L644.198 720.583L636.928 727.858L629.76 720.583ZM629.76 701.3L636.928 694.025L644.157 701.3L636.928 708.575L629.76 701.3ZM634.634 672.365L627.425 679.64L620.196 672.365L626.667 665.834H628.183L634.634 672.365ZM617.882 670.009L613.786 665.876H621.978L617.882 670.009ZM615.526 672.365L608.317 679.64L601.108 672.365L607.56 665.834H609.075L615.526 672.365ZM602.89 665.834L598.794 669.968L594.698 665.834H602.89ZM589.967 665.834L596.419 672.365L589.21 679.64L582.922 673.295L582.799 671.559L588.452 665.834H589.967ZM583.823 665.834L582.492 667.198L582.369 665.834H583.823ZM583.373 678.442L586.916 681.997L583.905 685.035L583.373 678.442ZM585.421 702.85L585.155 699.399L586.998 701.28L585.421 702.85ZM585.769 707.253L589.332 703.636L596.541 710.931L589.332 718.206L586.424 715.272L585.769 707.253ZM586.854 720.707V720.397L587.018 720.563L586.875 720.707H586.854ZM588.104 736.229L587.203 725.068L589.251 723.001L596.459 730.276L589.251 737.552L588.022 736.312L588.104 736.229ZM588.759 744.496L588.636 742.822L589.332 742.119L591.667 744.496H588.759ZM591.667 739.784L598.876 732.488L606.106 739.784L601.416 744.496H596.337L591.667 739.784ZM606.106 744.496L608.44 742.119L610.795 744.496H606.106ZM615.444 744.496L610.693 739.908L617.923 732.612L625.111 739.908L620.544 744.579L615.444 744.496ZM625.193 744.496L627.548 742.119L629.883 744.496H625.193ZM647.209 744.496H644.301L646.635 742.119L647.332 742.822L647.209 744.496ZM647.885 736.229L646.635 737.469L639.427 730.194L646.635 722.919L648.684 724.986L647.885 736.229ZM649.155 720.377V720.707L649.011 720.563L649.196 720.377H649.155ZM649.564 715.272L646.635 718.206L639.345 710.973L646.554 703.677L650.138 707.294L649.564 715.272ZM650.568 702.871L648.97 701.28L650.834 699.399L650.568 702.871ZM652.616 678.421L652.083 685.055L648.888 682.038L652.452 678.462L652.616 678.421Z" fill="white"/>
</g>
<path d="M577.638 668.852H658.166C660.021 668.852 661.525 667.334 661.525 665.462V662.961C661.525 661.089 660.021 659.572 658.166 659.572H577.638C575.783 659.572 574.28 661.089 574.28 662.961V665.462C574.28 667.334 575.783 668.852 577.638 668.852Z" fill="#3C6E71"/>
<path d="M651.878 742.925H583.946C582.091 742.925 580.588 744.443 580.588 746.315V748.816C580.588 750.688 582.091 752.205 583.946 752.205H651.878C653.733 752.205 655.237 750.688 655.237 748.816V746.315C655.237 744.443 653.733 742.925 651.878 742.925Z" fill="#3C6E71"/>
<path d="M371.261 192.748H312.422C307.615 192.748 303.005 194.675 299.606 198.105C296.207 201.536 294.298 206.188 294.298 211.039V262.709C294.298 267.56 296.207 272.212 299.606 275.642C303.005 279.073 307.615 281 312.422 281H329.585L315.249 309.707L341.873 281H371.343C373.723 281 376.078 280.526 378.276 279.607C380.474 278.687 382.471 277.34 384.152 275.641C385.834 273.942 387.167 271.926 388.075 269.707C388.984 267.488 389.45 265.11 389.448 262.709V211.039C389.45 208.631 388.981 206.246 388.068 204.022C387.154 201.797 385.813 199.777 384.123 198.077C382.433 196.377 380.427 195.032 378.22 194.117C376.012 193.202 373.648 192.737 371.261 192.748Z" fill="#3C6E71"/>
<path opacity="0.7" d="M371.261 192.748H312.422C307.615 192.748 303.005 194.675 299.606 198.105C296.207 201.536 294.298 206.188 294.298 211.039V262.709C294.298 267.56 296.207 272.212 299.606 275.642C303.005 279.073 307.615 281 312.422 281H329.585L315.249 309.707L341.873 281H371.343C373.723 281 376.078 280.526 378.276 279.607C380.474 278.687 382.471 277.34 384.152 275.641C385.834 273.942 387.167 271.926 388.075 269.707C388.984 267.488 389.45 265.11 389.448 262.709V211.039C389.45 208.631 388.981 206.246 388.068 204.022C387.154 201.797 385.813 199.777 384.123 198.077C382.433 196.377 380.427 195.032 378.22 194.117C376.012 193.202 373.648 192.737 371.261 192.748Z" fill="white"/>
<path d="M362.478 257.489C373.883 245.98 373.883 227.319 362.478 215.809C351.073 204.3 332.582 204.3 321.176 215.809C309.771 227.319 309.771 245.98 321.176 257.489C332.582 268.999 351.073 268.999 362.478 257.489Z" fill="#3C6E71"/>
<path d="M338.78 249.812C338.391 249.813 338.006 249.728 337.652 249.564C337.299 249.4 336.985 249.16 336.732 248.861L325.263 235.241C325.035 234.97 324.861 234.655 324.753 234.316C324.645 233.977 324.604 233.62 324.632 233.265C324.661 232.91 324.758 232.564 324.919 232.247C325.08 231.93 325.302 231.648 325.571 231.418C326.114 230.952 326.818 230.722 327.529 230.781C327.88 230.809 328.223 230.908 328.537 231.07C328.851 231.233 329.131 231.456 329.359 231.728L338.78 242.929L354.304 224.432C354.533 224.16 354.812 223.937 355.126 223.775C355.44 223.612 355.783 223.514 356.135 223.485C356.487 223.456 356.841 223.498 357.177 223.607C357.513 223.716 357.824 223.891 358.093 224.122C358.362 224.352 358.583 224.634 358.744 224.951C358.905 225.268 359.003 225.614 359.031 225.969C359.06 226.324 359.019 226.682 358.91 227.021C358.802 227.36 358.629 227.674 358.4 227.945L340.808 248.861C340.559 249.16 340.249 249.399 339.898 249.564C339.548 249.728 339.166 249.813 338.78 249.812Z" fill="white"/>
<path d="M419.84 748.423H539.034C539.658 748.423 540.257 748.172 540.699 747.727C541.141 747.281 541.389 746.676 541.389 746.046V738.378C541.383 737.752 541.133 737.152 540.692 736.711C540.251 736.27 539.655 736.022 539.034 736.022H425.984V490.447H537.109C538.24 490.447 539.326 489.995 540.128 489.189C540.93 488.384 541.383 487.29 541.389 486.148V478.047H419.84C418.211 478.047 416.648 478.7 415.496 479.863C414.343 481.025 413.696 482.602 413.696 484.247V742.223C413.696 743.867 414.343 745.444 415.496 746.607C416.648 747.77 418.211 748.423 419.84 748.423Z" fill="#263238"/>
<g opacity="0.3">
<path d="M413.696 484.247V742.202C413.696 743.846 414.343 745.423 415.496 746.586C416.648 747.749 418.211 748.402 419.84 748.402H539.034C539.653 748.402 540.247 748.154 540.685 747.712C541.122 747.27 541.368 746.671 541.368 746.046V738.378C541.368 737.752 541.123 737.15 540.686 736.705C540.249 736.26 539.655 736.007 539.034 736.001H425.984V490.447H537.109C538.24 490.442 539.324 489.984 540.122 489.175C540.92 488.365 541.368 487.27 541.368 486.128V478.047H419.84C418.211 478.047 416.648 478.7 415.496 479.863C414.343 481.025 413.696 482.602 413.696 484.247Z" fill="white"/>
</g>
<path opacity="0.2" d="M413.696 484.247V550.033C417.792 551.08 421.888 552.092 425.984 553.071V490.447H537.109C538.24 490.442 539.324 489.984 540.122 489.175C540.92 488.365 541.368 487.27 541.368 486.128V478.047H419.84C418.211 478.047 416.648 478.7 415.496 479.863C414.343 481.025 413.696 482.602 413.696 484.247Z" fill="black"/>
<path d="M198.144 713.804L247.009 709.505V644.836H264.192V709.588L313.344 713.804C315.43 714.01 317.365 714.991 318.774 716.557C320.182 718.124 320.962 720.163 320.963 722.278V728.85H190.464V722.278C190.466 720.153 191.255 718.106 192.676 716.538C194.097 714.97 196.047 713.995 198.144 713.804Z" fill="#263238"/>
<path opacity="0.1" d="M198.144 713.804L247.009 709.505V644.836H264.192V709.588L313.344 713.804C315.43 714.01 317.365 714.991 318.774 716.557C320.182 718.124 320.962 720.163 320.963 722.278V728.85H190.464V722.278C190.466 720.153 191.255 718.106 192.676 716.538C194.097 714.97 196.047 713.995 198.144 713.804Z" fill="white"/>
<path d="M305.029 737.014C305.029 739.258 305.689 741.452 306.924 743.318C308.16 745.184 309.916 746.638 311.97 747.497C314.024 748.356 316.285 748.581 318.466 748.143C320.647 747.705 322.651 746.624 324.223 745.038C325.796 743.451 326.866 741.429 327.3 739.228C327.734 737.027 327.511 734.745 326.66 732.672C325.809 730.599 324.368 728.827 322.519 727.58C320.67 726.333 318.496 725.668 316.273 725.668C314.795 725.665 313.332 725.956 311.967 726.526C310.601 727.095 309.361 727.931 308.316 728.985C307.272 730.039 306.444 731.291 305.88 732.669C305.315 734.047 305.026 735.523 305.029 737.014Z" fill="#263238"/>
<path d="M206.336 737.014C206.336 739.259 205.676 741.454 204.44 743.32C203.203 745.187 201.446 746.641 199.39 747.499C197.335 748.357 195.073 748.581 192.891 748.141C190.71 747.702 188.707 746.619 187.135 745.03C185.563 743.441 184.494 741.418 184.063 739.215C183.631 737.013 183.857 734.731 184.711 732.658C185.565 730.585 187.009 728.814 188.861 727.57C190.713 726.325 192.888 725.663 195.113 725.668C196.589 725.668 198.05 725.961 199.413 726.532C200.776 727.102 202.014 727.938 203.056 728.992C204.099 730.046 204.925 731.297 205.488 732.674C206.05 734.05 206.339 735.525 206.336 737.014Z" fill="#263238"/>
<path d="M259.543 657.96H251.658C249.643 657.96 247.711 657.152 246.286 655.714C244.861 654.276 244.06 652.326 244.06 650.292V594.489H267.141V650.292C267.141 652.326 266.341 654.276 264.916 655.714C263.491 657.152 261.558 657.96 259.543 657.96Z" fill="#263238"/>
<path opacity="0.2" d="M259.543 657.96H251.658C249.643 657.96 247.711 657.152 246.286 655.714C244.861 654.276 244.06 652.326 244.06 650.292V594.489H267.141V650.292C267.141 652.326 266.341 654.276 264.916 655.714C263.491 657.152 261.558 657.96 259.543 657.96Z" fill="white"/>
<path d="M204.923 466.39C204.923 466.39 210.207 573.511 233.062 591.947H208.609C208.609 591.947 186.819 555.448 185.201 466.39H204.923Z" fill="#263238"/>
<path opacity="0.1" d="M204.923 466.39C204.923 466.39 210.207 573.511 233.062 591.947H208.609C208.609 591.947 186.819 555.448 185.201 466.39H204.923Z" fill="white"/>
<path d="M202.936 583.06H311.296C313.735 583.06 316.074 584.037 317.798 585.778C319.523 587.518 320.492 589.878 320.492 592.34V600.813H193.72V592.34C193.72 591.119 193.959 589.911 194.422 588.784C194.886 587.656 195.565 586.632 196.421 585.77C197.277 584.908 198.293 584.225 199.411 583.76C200.529 583.295 201.727 583.057 202.936 583.06Z" fill="#3C6E71"/>
<path d="M321.638 591.947H192.614C190.567 591.947 188.908 593.622 188.908 595.688V597.073C188.908 599.139 190.567 600.813 192.614 600.813H321.638C323.686 600.813 325.345 599.139 325.345 597.073V595.688C325.345 593.622 323.686 591.947 321.638 591.947Z" fill="#263238"/>
<path opacity="0.6" d="M321.638 591.947H192.614C190.567 591.947 188.908 593.622 188.908 595.688V597.073C188.908 599.139 190.567 600.813 192.614 600.813H321.638C323.686 600.813 325.345 599.139 325.345 597.073V595.688C325.345 593.622 323.686 591.947 321.638 591.947Z" fill="white"/>
<path d="M180.9 489.827H220.078C231.547 489.827 239.821 479.493 238.51 466.576L236.851 449.463C235.582 436.628 225.28 426.212 213.811 426.212H174.694C163.226 426.212 154.952 436.546 156.262 449.463L157.921 466.576C159.109 479.493 169.431 489.827 180.9 489.827Z" fill="#3C6E71"/>
<path d="M310.19 397.421C312.627 405.213 315.494 413.336 318.648 420.776C321.311 426.976 325.1 434.871 329.421 439.026C333.353 442.56 342.712 443.903 348.795 444.709C356.987 445.763 365.711 446.156 374.211 446.507L375.726 458.081C366.716 460.522 357.476 461.997 348.16 462.484C337.756 462.856 325.632 462.484 316.621 456.035C303.534 445.701 297.841 431.937 292.045 417.407C290.406 412.798 288.932 408.582 287.683 403.746L310.211 397.421H310.19Z" fill="#B65B52"/>
<path d="M300.134 386.488C306.586 388.72 312.422 398.083 328.663 435.636C328.663 435.636 331.305 440.224 344.474 443.097L343.265 464.178C343.265 464.178 324.465 463.352 320.102 460.314C315.74 457.275 289.587 413.852 289.587 413.852L300.134 386.488Z" fill="#263238"/>
<path opacity="0.2" d="M344.474 443.139L343.265 464.22C343.265 464.22 328.192 463.558 321.905 461.223C321.271 461.009 320.666 460.717 320.102 460.355C317.583 458.577 307.814 443.304 299.93 430.738C294.216 421.603 289.69 413.894 289.69 413.894L300.134 386.488C306.586 388.72 312.422 398.083 328.684 435.615C328.684 435.657 331.305 440.224 344.474 443.139Z" fill="white"/>
<path opacity="0.2" d="M321.905 461.223C321.271 461.009 320.666 460.717 320.102 460.355C317.583 458.577 307.814 443.304 299.93 430.738C301.982 423.613 304.409 416.604 307.2 409.739C307.2 409.739 322.191 440.059 321.905 461.223Z" fill="black"/>
<path d="M369.746 447.561L384.43 442.229L382.628 462.07C382.628 462.07 369.152 463.806 367.493 456.655L369.746 447.561Z" fill="#B55B52"/>
<path d="M396.595 446.239L394.342 462.587L382.628 462.07L384.43 442.229L396.595 446.239Z" fill="#B55B52"/>
<path d="M344.576 442.229L352.072 444.503L349.327 465.005L341.832 466.307L344.576 442.229Z" fill="#263238"/>
<path d="M310.764 516.881C310.764 516.881 409.866 556.336 432.906 572.829C455.946 589.322 514.048 700.515 514.048 700.515L490.025 719.116C490.025 719.116 420.721 617.554 412.201 610.672C403.681 603.789 293.417 569.626 293.417 569.626L310.764 516.881Z" fill="#3C6E71"/>
<path opacity="0.4" d="M514.048 700.515L490.025 719.116C490.025 719.116 473.846 695.41 456.172 670.133C437.269 643.079 416.645 614.33 412.262 610.672C406.118 605.629 345.395 585.994 313.221 575.826C301.384 572.064 293.417 569.626 293.417 569.626L310.743 516.819C310.743 516.819 409.825 556.274 432.886 572.767C455.946 589.26 514.048 700.515 514.048 700.515Z" fill="white"/>
<path d="M518.451 740.3L530.022 728.561L511.099 699.027L499.548 710.766L518.451 740.3Z" fill="#B55B52"/>
<path opacity="0.2" d="M499.548 710.766L511.099 699.047L521.912 715.933L509.952 727.052L499.548 710.766Z" fill="black"/>
<path d="M532.03 727.28C532.03 727.28 532.03 727.28 532.173 727.28C533.535 726.775 534.84 726.124 536.064 725.337C537.018 724.822 537.748 723.967 538.112 722.939C538.187 722.554 538.152 722.155 538.011 721.789C537.869 721.423 537.627 721.105 537.313 720.873C537.145 720.695 536.934 720.564 536.701 720.492C536.468 720.42 536.221 720.408 535.982 720.459C534.856 720.728 533.75 722.34 532.91 723.89C533.087 722.443 532.754 720.98 531.968 719.757C531.739 719.523 531.437 719.375 531.113 719.337C530.789 719.3 530.462 719.375 530.186 719.55C529.929 719.672 529.704 719.853 529.53 720.08C529.355 720.306 529.237 720.571 529.183 720.852C528.712 723.084 531.681 726.68 531.825 726.887L532.03 726.68L531.845 726.908C531.845 726.908 531.702 727.135 531.702 727.156C531.732 727.213 531.782 727.257 531.843 727.28C531.903 727.302 531.969 727.303 532.03 727.28ZM532.132 725.75C532.132 725.874 532.03 725.998 531.989 726.102C531.087 724.82 529.756 722.567 530.043 721.245C530.067 721.09 530.123 720.941 530.208 720.809C530.293 720.678 530.404 720.565 530.534 720.48H530.678C531.169 720.232 531.436 720.377 531.599 720.48C532.383 722.12 532.572 723.985 532.132 725.75ZM532.828 726.246C533.729 724.18 535.224 721.493 536.351 721.245C536.468 721.215 536.592 721.218 536.707 721.254C536.823 721.291 536.927 721.359 537.006 721.451C537.197 721.6 537.347 721.796 537.44 722.021C537.534 722.246 537.568 722.491 537.539 722.733C537.313 723.808 535.573 725.089 532.828 726.246Z" fill="#3C6E71"/>
<path d="M529.797 726.226L514.519 736.56C514.387 736.638 514.272 736.743 514.181 736.867C514.089 736.991 514.023 737.132 513.987 737.283C513.951 737.433 513.945 737.589 513.969 737.742C513.994 737.894 514.049 738.041 514.13 738.172L521.503 750.882C521.925 751.525 522.582 751.973 523.33 752.128C524.079 752.283 524.858 752.133 525.496 751.709C530.76 748.01 533.094 745.984 539.832 741.375C545.967 737.568 551.831 733.334 557.384 728.706C562.422 723.973 557.65 719.075 555.11 720.625C548.966 724.283 538.563 725.854 532.705 725.42C531.672 725.338 530.644 725.623 529.797 726.226Z" fill="#263238"/>
<path d="M491.151 727.321L521.155 707.17L514.232 692.93L481.731 715.685L491.151 727.321Z" fill="#3C6E71"/>
<path opacity="0.2" d="M491.151 727.321L521.155 707.17L514.232 692.93L481.731 715.685L491.151 727.321Z" fill="white"/>
<path opacity="0.2" d="M456.213 670.216C437.31 643.162 416.686 614.413 412.303 610.755C406.159 605.712 345.436 586.077 313.262 575.909L309.514 536.64L321.27 534.573L322.601 537.59C322.601 537.59 396.042 554.393 416.809 564.893C430.182 571.527 448.143 637.829 456.213 670.216Z" fill="black"/>
<path d="M451.809 731.207C451.832 731.216 451.856 731.221 451.881 731.221C451.906 731.221 451.93 731.216 451.953 731.207C453.407 731.19 454.856 731.017 456.274 730.69C457.358 730.535 458.345 729.974 459.039 729.119C459.242 728.791 459.35 728.411 459.35 728.024C459.35 727.636 459.242 727.257 459.039 726.928C458.937 726.703 458.781 726.506 458.584 726.358C458.387 726.21 458.156 726.115 457.912 726.081C456.766 725.936 455.189 727.114 453.816 728.292C454.444 727.01 454.596 725.544 454.246 724.159C454.11 723.862 453.877 723.621 453.587 723.474C453.297 723.328 452.966 723.285 452.649 723.353C452.369 723.396 452.1 723.497 451.86 723.65C451.621 723.803 451.415 724.004 451.256 724.242C450.089 726.205 451.707 730.587 451.789 730.835L452.035 730.69L451.789 730.855C451.789 730.855 451.564 731.021 451.584 731.041L451.809 731.207ZM452.424 729.781L452.158 730.07C451.522 728.391 451.436 726.552 451.912 724.82C451.989 724.686 452.092 724.569 452.215 724.477C452.338 724.384 452.479 724.318 452.629 724.283H452.813C453.345 724.283 453.55 724.448 453.632 724.655C453.838 726.454 453.411 728.268 452.424 729.781ZM452.895 730.483C454.431 728.83 456.725 726.804 457.871 726.949C457.992 726.962 458.107 727.007 458.204 727.079C458.301 727.152 458.377 727.25 458.424 727.362C458.539 727.575 458.599 727.813 458.599 728.055C458.599 728.297 458.539 728.535 458.424 728.747C457.933 729.677 455.885 730.318 452.895 730.483Z" fill="#3C6E71"/>
<path d="M434.729 738.936L449.495 731.723L440.709 696.216L425.964 703.429L434.729 738.936Z" fill="#B55B52"/>
<path opacity="0.2" d="M425.964 703.429L440.709 696.237L445.727 716.532L430.776 723.001L425.964 703.429Z" fill="black"/>
<path d="M450.048 729.45L432.23 734.1C432.08 734.13 431.937 734.189 431.81 734.275C431.683 734.361 431.575 734.472 431.491 734.601C431.407 734.73 431.349 734.875 431.322 735.026C431.294 735.178 431.296 735.334 431.329 735.485L434.115 749.952C434.316 750.689 434.795 751.318 435.45 751.704C436.104 752.09 436.881 752.203 437.617 752.019C443.761 750.283 446.669 749.146 454.492 747.038C461.505 745.527 468.404 743.518 475.136 741.024C481.444 738.254 478.556 732.033 475.648 732.653C468.726 734.079 458.301 732.033 452.936 729.657C452.02 729.278 451.008 729.205 450.048 729.45Z" fill="#263238"/>
<path d="M447.898 702.954C447.898 702.954 422.912 576.446 417.792 568.923C409.477 556.522 309.494 536.536 309.494 536.536L321.229 534.47L307.671 498.094L218.644 501.628C218.644 501.628 220.508 560.986 229.56 576.901C238.612 592.815 372.531 600.131 381.235 603.769C389.939 607.406 416.502 706.633 416.502 706.633L447.898 702.954Z" fill="#3C6E71"/>
<path opacity="0.4" d="M447.898 702.954C447.898 702.954 422.912 576.446 417.792 568.923C409.477 556.522 309.494 536.536 309.494 536.536L321.229 534.47L307.671 498.094L218.644 501.628C218.644 501.628 220.508 560.986 229.56 576.901C238.612 592.815 372.531 600.131 381.235 603.769C389.939 607.406 416.502 706.633 416.502 706.633L447.898 702.954Z" fill="white"/>
<path d="M417.034 717.835L451.973 708.865L450.109 693.116L411.976 703.718L417.034 717.835Z" fill="#3C6E71"/>
<path opacity="0.2" d="M417.034 717.835L451.973 708.865L450.109 693.116L411.976 703.718L417.034 717.835Z" fill="white"/>
<path d="M246.825 503.013L221.02 502.579L220.467 510.454L247.931 511.115L246.825 503.013Z" fill="#263238"/>
<path d="M250.798 502.869L251.925 511.053L309.514 510.226L307.651 502.765L250.798 502.869Z" fill="#263238"/>
<path d="M278.528 504.295L279.265 509.689C279.373 510.348 279.711 510.945 280.219 511.374C280.726 511.803 281.369 512.033 282.03 512.024L291.246 511.735C291.551 511.741 291.854 511.677 292.131 511.55C292.409 511.422 292.655 511.234 292.851 510.998C293.048 510.762 293.189 510.486 293.266 510.187C293.342 509.889 293.352 509.578 293.294 509.276L292.536 503.861C292.428 503.204 292.089 502.608 291.581 502.183C291.074 501.758 290.431 501.532 289.772 501.546L280.576 501.835C280.271 501.83 279.968 501.893 279.691 502.02C279.413 502.148 279.167 502.336 278.971 502.572C278.774 502.808 278.633 503.085 278.556 503.383C278.48 503.681 278.47 503.992 278.528 504.295Z" fill="white"/>
<path d="M220.897 501.422H305.48C306.492 501.428 307.471 501.055 308.228 500.376C308.984 499.697 309.464 498.759 309.576 497.743C320.021 415.072 300.073 386.529 300.073 386.529C292.478 384.341 284.727 382.745 276.89 381.755C265.437 380.846 253.943 380.597 242.463 381.011C234.642 381.224 226.846 382.004 219.136 383.347C215.04 385.145 210.801 403.56 215.04 460.934C216.146 475.959 216.31 488.938 216.207 496.544C216.191 497.818 216.675 499.046 217.554 499.96C218.433 500.875 219.635 501.4 220.897 501.422Z" fill="#263238"/>
<path d="M288.277 415.774H304.579L305.807 435.409L297.062 441.134L288.277 436.752V415.774Z" fill="#263238"/>
<path opacity="0.2" d="M309.637 497.743C309.526 498.759 309.046 499.697 308.289 500.376C307.533 501.055 306.554 501.428 305.541 501.422H220.959C220.325 501.425 219.697 501.3 219.112 501.055C218.527 500.811 217.995 500.451 217.549 499.997C217.103 499.543 216.751 499.004 216.514 498.411C216.276 497.818 216.158 497.184 216.166 496.544C216.166 488.938 216.166 475.876 215.02 460.934C214.432 452.666 214.002 445.198 213.729 438.53C213.061 426.329 213.13 414.099 213.934 401.906C214.958 389.506 217.068 384.277 219.197 383.305C226.935 381.96 234.758 381.179 242.606 380.97C254.08 380.556 265.567 380.805 277.012 381.714C284.829 382.706 292.559 384.302 300.134 386.488C300.134 386.488 320.082 415.154 309.637 497.743Z" fill="white"/>
<path d="M243.302 380.164L270.623 389.568L271.729 381.673C269.066 376.96 268.39 373.984 270.643 368.507L252.416 347.364C252.887 358.194 250.941 372.992 243.302 380.164Z" fill="#B55B52"/>
<path d="M260.588 393.66L265.953 395.913L270.623 398.868C270.623 398.868 276.869 434.954 275.128 465.419L280.371 469.759L285.901 465.274C285.901 465.274 279.02 409.326 276.541 398.434L277.627 395.809L280.146 390.394L275.497 387.935L268.104 389.568H262.943L260.588 393.66Z" fill="white"/>
<path opacity="0.2" d="M259.83 355.982L270.623 368.507C269.812 370.426 269.162 372.411 268.677 374.439C264.11 373.054 258.437 366.916 258.703 361.914C258.718 359.884 259.1 357.874 259.83 355.982Z" fill="black"/>
<path d="M245.002 375.162C252.713 380.343 260.952 384.674 269.578 388.08C270.52 384.231 270.52 380.209 269.578 376.361L281.641 382.437C281.641 382.437 282.644 391.882 279.88 396.905L271.012 390.353L261.059 398.62C261.059 398.62 242.217 391.283 239.268 381.321L245.002 375.162Z" fill="#263238"/>
<path opacity="0.2" d="M306.463 448.492L278.528 471.226C238.428 480.237 220.795 455.002 213.709 438.468C213.041 426.267 213.109 414.037 213.914 401.844C223.539 401.39 235.52 401.39 238.756 403.911C244.388 408.272 264.008 438.84 266.936 441.113C269.865 443.387 306.463 448.492 306.463 448.492Z" fill="black"/>
<path d="M322.355 447.417L337.039 442.064L335.237 461.905C335.237 461.905 321.761 463.641 320.102 456.49L322.355 447.417Z" fill="#B55B52"/>
<path d="M349.184 446.073L346.952 462.422L335.237 461.905L337.039 442.064L349.184 446.073Z" fill="#B55B52"/>
<path d="M236.933 407.383C241.265 416.019 246.05 424.415 251.269 432.536C254.48 437.846 258.502 442.611 263.189 446.652C263.542 446.963 263.953 447.202 264.397 447.355C269.526 448.723 274.822 449.35 280.125 449.215C294.994 449.36 310.129 447.975 325.059 446.693L327.496 458.102C317.494 461.391 307.295 464.035 296.96 466.018C285.757 468.085 275.538 469.635 263.619 468.477C259.774 468.071 256.041 466.928 252.621 465.108C239.35 457.275 231.219 444.606 223.519 432.04C220.754 427.162 218.235 422.615 215.9 417.407L236.995 407.342L236.933 407.383Z" fill="#B65B52"/>
<path d="M219.136 383.347C192.717 392.957 226.98 459.383 241.398 466.824C255.816 474.264 280.146 471.226 280.146 471.226L281.866 448.14C281.866 448.14 269.251 446.59 265.482 445.681C259.482 444.234 247.358 417.49 239.186 402.96C234.676 394.485 227.67 387.632 219.136 383.347Z" fill="#263238"/>
<path opacity="0.2" d="M219.136 383.347C192.717 392.957 226.98 459.383 241.398 466.824C255.816 474.264 280.146 471.226 280.146 471.226L281.866 448.14C281.866 448.14 269.251 446.59 265.482 445.681C259.482 444.234 247.358 417.49 239.186 402.96C234.676 394.485 227.67 387.632 219.136 383.347Z" fill="white"/>
<path d="M278.467 446.404L276.337 473.21L283.914 471.784L285.901 447.83L278.467 446.404Z" fill="#263238"/>
<path d="M299.377 325.58C300.421 331.78 297.779 343.809 290.099 338.725C282.419 333.641 297.554 314.957 299.377 325.58Z" fill="#263238"/>
<path d="M256 327.792C253.051 342.92 250.552 351.622 256 361.17C264.192 375.514 284.324 373.323 291.717 359.372C298.373 346.785 302.08 324.237 289.116 314.585C286.245 312.473 282.891 311.127 279.367 310.674C275.842 310.22 272.261 310.674 268.957 311.991C265.652 313.309 262.732 315.449 260.466 318.211C258.201 320.974 256.665 324.269 256 327.792Z" fill="#B55B52"/>
<path d="M248.791 311.113L265.769 310.327L266.22 320.165L265.216 319.607C265.216 319.607 264.151 334.075 256.02 338.89C245.023 330.416 241.787 316.548 248.791 311.113Z" fill="#263238"/>
<path d="M247.03 338.704C247.136 340.613 247.616 342.482 248.442 344.202C249.268 345.923 250.424 347.461 251.843 348.728C255.672 352.097 259.809 349.183 260.608 344.388C261.325 340.068 260.198 333.103 255.468 331.574C254.423 331.265 253.319 331.22 252.253 331.445C251.188 331.669 250.193 332.156 249.359 332.861C248.524 333.567 247.875 334.469 247.469 335.488C247.062 336.507 246.912 337.612 247.03 338.704Z" fill="#B55B52"/>
<path d="M277.34 337.65C277.012 338.869 277.34 340.006 278.2 340.213C279.06 340.42 279.88 339.593 280.248 338.373C280.617 337.154 280.248 336.017 279.388 335.831C278.528 335.645 277.647 336.451 277.34 337.65Z" fill="#263238"/>
<path d="M290.959 341.122C290.652 342.321 290.959 343.478 291.82 343.664C292.68 343.85 293.519 343.044 293.868 341.846C294.216 340.647 293.868 339.49 293.007 339.283C292.147 339.076 291.287 339.903 290.959 341.122Z" fill="#263238"/>
<path d="M286.474 340.626C287.029 344.586 288.132 348.447 289.751 352.097C288.774 352.447 287.734 352.585 286.701 352.503C285.667 352.421 284.662 352.121 283.75 351.622L286.474 340.626Z" fill="#A02724"/>
<path d="M276.091 354.618C276.589 354.831 277.102 355.003 277.627 355.135C277.722 355.155 277.82 355.138 277.904 355.089C277.987 355.039 278.049 354.96 278.077 354.866C278.09 354.819 278.093 354.769 278.086 354.721C278.079 354.672 278.063 354.625 278.038 354.583C278.013 354.541 277.981 354.504 277.942 354.474C277.903 354.445 277.858 354.424 277.811 354.412C276.308 354.073 274.906 353.377 273.724 352.381C272.541 351.385 271.611 350.119 271.012 348.687C270.975 348.597 270.907 348.523 270.82 348.481C270.733 348.439 270.633 348.432 270.541 348.459C270.493 348.473 270.449 348.497 270.412 348.529C270.374 348.561 270.343 348.601 270.322 348.646C270.301 348.691 270.289 348.74 270.288 348.789C270.287 348.839 270.296 348.889 270.316 348.935C270.836 350.234 271.618 351.41 272.612 352.388C273.607 353.366 274.791 354.126 276.091 354.618Z" fill="#263238"/>
<path d="M274.289 332.173C274.408 332.219 274.538 332.231 274.664 332.21C274.79 332.188 274.908 332.132 275.006 332.049C275.713 331.455 276.547 331.035 277.443 330.824C278.339 330.612 279.272 330.614 280.167 330.83C280.258 330.862 280.355 330.875 280.451 330.868C280.548 330.861 280.642 330.835 280.728 330.79C280.814 330.746 280.89 330.685 280.952 330.61C281.014 330.535 281.06 330.448 281.088 330.354C281.12 330.265 281.134 330.17 281.128 330.075C281.122 329.98 281.098 329.887 281.056 329.802C281.014 329.717 280.955 329.642 280.883 329.58C280.811 329.519 280.728 329.473 280.638 329.445C279.512 329.142 278.33 329.117 277.193 329.372C276.056 329.628 274.996 330.156 274.104 330.912C274.028 330.971 273.963 331.045 273.916 331.129C273.868 331.213 273.837 331.306 273.826 331.403C273.814 331.499 273.822 331.597 273.849 331.69C273.876 331.784 273.921 331.87 273.982 331.946C274.066 332.044 274.171 332.121 274.289 332.173Z" fill="#263238"/>
<path d="M298.066 337.898C298.19 337.943 298.325 337.955 298.455 337.931C298.585 337.908 298.707 337.851 298.809 337.765C298.91 337.679 298.988 337.568 299.033 337.443C299.079 337.318 299.092 337.182 299.069 337.051C298.853 335.903 298.369 334.825 297.656 333.905C296.944 332.984 296.024 332.249 294.973 331.76C294.791 331.691 294.589 331.695 294.41 331.772C294.231 331.849 294.088 331.993 294.011 332.173C293.943 332.354 293.948 332.555 294.025 332.732C294.101 332.91 294.243 333.05 294.421 333.124C295.236 333.507 295.948 334.083 296.497 334.802C297.046 335.522 297.416 336.364 297.574 337.257C297.591 337.399 297.645 337.534 297.732 337.647C297.819 337.76 297.934 337.846 298.066 337.898Z" fill="#263238"/>
<path d="M259.973 323.286C260.299 323.564 260.649 323.813 261.018 324.03C262.001 324.623 263.116 324.959 264.261 325.006C265.405 325.053 266.543 324.81 267.571 324.299C271.79 322.232 273.121 310.079 285.123 316.259C286.441 315.938 287.823 316.009 289.103 316.464C290.382 316.919 291.503 317.738 292.332 318.822C295.424 322.645 293.294 336.596 299.889 334.674C306.483 332.752 305.336 330.685 305.336 330.685C305.336 330.685 303.493 331.863 302.408 330.933C303.385 330.103 304.082 328.986 304.402 327.738C304.721 326.49 304.647 325.172 304.189 323.968C304.189 323.968 302.592 325.89 301.527 325.518C302.627 319.874 301.991 314.025 299.704 308.756C295.875 299.125 272.445 301.275 272.445 301.275C272.445 301.275 269.496 296.294 258.908 299.766C248.32 303.238 243.487 316.114 245.166 321.715" fill="#263238"/>
<path d="M399.77 460.355L398.254 454.589H336.138L307.548 457.461L306.463 460.355H399.77Z" fill="#263238"/>
<path opacity="0.5" d="M399.77 460.355L398.254 454.589H336.138L307.548 457.461L306.463 460.355H399.77Z" fill="white"/>
<path opacity="0.2" d="M336.138 454.589V460.355H399.77L398.254 454.589H336.138Z" fill="black"/>
<path d="M357.151 426.976C357.069 427.675 357.136 428.384 357.348 429.055C357.56 429.726 357.911 430.343 358.378 430.865C358.846 431.388 359.418 431.804 360.058 432.085C360.697 432.366 361.389 432.505 362.086 432.495H457.236C458.723 432.459 460.147 431.88 461.243 430.865C462.339 429.85 463.033 428.468 463.196 426.976L468.849 365.51C468.903 364.915 468.861 364.315 468.726 363.733C468.465 362.65 467.846 361.689 466.971 361.009C466.096 360.328 465.017 359.97 463.913 359.992H368.763C367.276 360.028 365.852 360.607 364.756 361.622C363.66 362.637 362.966 364.018 362.803 365.51L357.151 426.976Z" fill="#263238"/>
<path opacity="0.5" d="M357.151 426.976C357.069 427.675 357.136 428.384 357.348 429.055C357.56 429.726 357.911 430.343 358.378 430.865C358.846 431.388 359.418 431.804 360.058 432.085C360.697 432.366 361.389 432.505 362.086 432.495H457.236C458.723 432.459 460.147 431.88 461.243 430.865C462.339 429.85 463.033 428.468 463.196 426.976L468.849 365.51C468.903 364.915 468.861 364.315 468.726 363.733C468.465 362.65 467.846 361.689 466.971 361.009C466.096 360.328 465.017 359.97 463.913 359.992H368.763C367.276 360.028 365.852 360.607 364.756 361.622C363.66 362.637 362.966 364.018 362.803 365.51L357.151 426.976Z" fill="white"/>
<path opacity="0.1" d="M362.496 432.495H457.298C458.785 432.459 460.209 431.88 461.305 430.865C462.4 429.85 463.094 428.468 463.258 426.976L468.91 365.51C468.964 364.915 468.923 364.315 468.787 363.733H373.965C372.481 363.774 371.063 364.355 369.971 365.369C368.879 366.384 368.188 367.763 368.026 369.251L362.373 430.717C362.309 431.312 362.35 431.914 362.496 432.495Z" fill="black"/>
<path d="M427.786 394.797H408.105L413.348 451.674L382.239 456.387V460.355H447.795V456.387L434.36 451.674L427.786 394.797Z" fill="#263238"/>
<path opacity="0.5" d="M427.786 394.797H408.105L413.348 451.674L382.239 456.387V460.355H447.795V456.387L434.36 451.674L427.786 394.797Z" fill="white"/>
<path opacity="0.2" d="M408.105 394.797L422.687 459.445L434.36 459.094L427.786 394.797H408.105Z" fill="white"/>
<path d="M245.637 748.423H364.831C365.139 748.423 365.444 748.361 365.729 748.242C366.014 748.122 366.272 747.946 366.489 747.725C366.706 747.504 366.878 747.242 366.994 746.954C367.11 746.666 367.168 746.357 367.166 746.046V738.378C367.166 737.753 366.92 737.154 366.482 736.712C366.044 736.27 365.45 736.022 364.831 736.022H251.781V490.447H362.906C364.035 490.447 365.119 489.994 365.918 489.188C366.717 488.382 367.166 487.288 367.166 486.148V478.047H245.637C244.008 478.047 242.445 478.7 241.293 479.863C240.141 481.025 239.493 482.602 239.493 484.247V742.223C239.493 743.867 240.141 745.444 241.293 746.607C242.445 747.77 244.008 748.423 245.637 748.423Z" fill="#263238"/>
<g opacity="0.4">
<path d="M245.637 748.423H364.831C365.139 748.423 365.444 748.361 365.729 748.242C366.014 748.122 366.272 747.946 366.489 747.725C366.706 747.504 366.878 747.242 366.994 746.954C367.11 746.666 367.168 746.357 367.166 746.046V738.378C367.166 737.753 366.92 737.154 366.482 736.712C366.044 736.27 365.45 736.022 364.831 736.022H251.781V490.447H362.906C364.035 490.447 365.119 489.994 365.918 489.188C366.717 488.382 367.166 487.288 367.166 486.148V478.047H245.637C244.008 478.047 242.445 478.7 241.293 479.863C240.141 481.025 239.493 482.602 239.493 484.247V742.223C239.493 743.867 240.141 745.444 241.293 746.607C242.445 747.77 244.008 748.423 245.637 748.423Z" fill="white"/>
</g>
<path d="M544.563 480.113H230.359C229.305 480.113 228.295 479.691 227.55 478.939C226.805 478.187 226.386 477.167 226.386 476.104V466.349L548.536 466.349V476.124C548.531 477.184 548.11 478.199 547.365 478.946C546.621 479.694 545.613 480.113 544.563 480.113Z" fill="#3C6E71"/>
<path opacity="0.2" d="M226.386 473.21L548.536 473.21V466.328L226.386 466.328V473.21Z" fill="black"/>
<path d="M219.648 468.105H555.315C556.333 468.105 557.309 467.699 558.031 466.975C558.752 466.25 559.16 465.267 559.165 464.24C559.165 463.21 558.76 462.222 558.038 461.493C557.316 460.764 556.336 460.355 555.315 460.355H219.648C218.627 460.355 217.648 460.764 216.925 461.493C216.203 462.222 215.798 463.21 215.798 464.24C215.803 465.267 216.211 466.25 216.933 466.975C217.654 467.699 218.63 468.105 219.648 468.105Z" fill="#3C6E71"/>
</svg>
