<svg width="17" height="19" viewBox="0 0 17 19" fill="none" xmlns="http://www.w3.org/2000/svg">
<path d="M16.215 14.301C16.198 14.283 14.498 12.447 14.485 7.981C14.4789 6.741 14.0894 5.53324 13.3698 4.52332C12.6503 3.51341 11.636 2.75078 10.466 2.34L10.5 2C10.5 0.897 9.604 0 8.5 0C7.396 0 6.5 0.897 6.5 2L6.534 2.338C4.198 3.154 2.515 5.374 2.515 7.984C2.515 12.446 0.804001 14.28 0.794001 14.29C0.654198 14.43 0.558973 14.6083 0.520332 14.8023C0.481692 14.9964 0.501364 15.1975 0.57687 15.3804C0.652376 15.5633 0.780335 15.7197 0.944616 15.83C1.1089 15.9402 1.30215 15.9994 1.5 16H4.643C5.09 17.72 6.642 19 8.5 19C10.358 19 11.91 17.72 12.357 16H15.5C15.9 16 16.258 15.757 16.415 15.39C16.572 15.023 16.491 14.591 16.215 14.301ZM8.5 4C10.689 4 12.478 5.789 12.484 7.987C12.486 8.715 12.53 9.383 12.602 10H4.402C4.473 9.383 4.515 8.714 4.515 7.984C4.51659 6.92769 4.93698 5.91512 5.68399 5.16829C6.43101 4.42146 7.44369 4.00132 8.5 4ZM8.5 17C8.15049 16.9989 7.8074 16.906 7.50516 16.7305C7.20291 16.555 6.95214 16.303 6.778 16H10.221C10.0472 16.3031 9.79662 16.5551 9.49451 16.7306C9.1924 16.9062 8.8494 16.9991 8.5 17ZM3.314 14C3.666 13.264 4.019 12.269 4.252 11H12.754C12.988 12.269 13.342 13.264 13.692 14H3.314Z" fill="#E4A951"/>
</svg>
