<svg width="280" height="280" viewBox="0 0 280 280" fill="none" xmlns="http://www.w3.org/2000/svg">
<path d="M105.885 217.162C117.9 214.486 123.525 204.22 126.092 192.534C126.365 191.278 126.583 190.076 126.802 188.875V187.783C127.456 182.912 127.821 178.007 127.894 173.093C116.262 171.942 105.46 166.554 97.5448 157.954C89.6293 149.354 85.1532 138.144 84.9688 126.458C84.3662 103.285 89.5068 80.3228 99.9324 59.6182C97.2481 59.9695 94.7045 61.0246 92.5598 62.6763C92.3523 62.8344 92.113 62.9455 91.8584 63.0021C91.6039 63.0586 91.3401 63.0593 91.0853 63.004C90.6115 62.9222 90.184 62.6696 89.8838 62.294C89.5933 61.8837 89.4711 61.3777 89.5422 60.88C89.6133 60.3823 89.8723 59.9308 90.2661 59.6182C93.6618 57.0518 97.8059 55.6705 102.062 55.6865C102.882 54.3759 103.646 53.0107 104.465 51.7548C100.97 51.7548 97.5841 51.7548 94.3074 51.7548C97.9118 26.5259 146.462 5.33811 179.557 24.4509C194.302 27.3997 218.659 48.4783 218.659 48.4783C219.147 61.9043 218.764 75.3478 217.512 88.7242C215.327 111.55 209.921 138.363 196.759 153.325C200.034 145.671 201.239 137.291 200.255 129.025C197.099 132.144 193.184 134.384 188.895 135.523C187.339 138.87 185.512 142.084 183.434 145.134C178.301 168.561 174.641 199.742 182.451 217.708C189.496 218.145 196.322 218.8 202.821 219.51L204.405 219.783C208.693 217.264 212.816 214.473 216.747 211.428C265.898 173.203 213.744 128.315 226.031 87.1952C238.319 46.0755 227.943 30.4577 194.357 29.1471C208.283 6.92174 119.811 -28.5734 80.9274 40.3963C45.7027 102.922 34.3434 134.158 47.0134 183.032C51.7757 199.006 62.5676 212.499 77.1046 220.657C79.5799 219.98 82.0977 219.469 84.6411 219.128C91.5768 218.472 98.7855 217.708 105.885 217.162Z" fill="#263238"/>
<path d="M48.0333 239.045L47.3046 240.717C47.5378 240.143 47.8 239.618 48.0624 239.093L48.0333 239.045Z" fill="#263238"/>
<path d="M92.0144 255.734C92.0144 255.734 117.382 257.265 126.422 280C148.338 271.693 183.678 221.303 182.144 217.313C182.144 217.313 132.23 241.47 92.0144 255.734Z" fill="white"/>
<path d="M105.655 216.478C95.8755 218.834 66.4836 235.052 61.7026 265.791C68.9827 250.887 92.4528 255.764 92.4528 255.764C84.8468 226.943 105.655 216.478 105.655 216.478Z" fill="white"/>
<path d="M182.95 145.434C178.211 152.269 172.219 158.155 165.288 162.783C162.373 164.869 159.271 166.683 156.021 168.204C148.88 179.603 138.231 188.406 125.658 193.306V192.384C123.096 203.986 117.481 214.07 105.489 216.835C105.489 216.835 84.6111 227.245 92.1337 255.762C132.2 241.612 181.805 217.811 181.805 217.811C174.173 199.703 177.826 168.692 182.95 145.434Z" fill="#FFC3BD"/>
<path d="M126.115 192.239C126.407 191.091 126.64 189.993 126.873 188.896C126.64 189.844 126.407 191.091 126.115 192.239Z" fill="#263238"/>
<path opacity="0.2" d="M126.115 192.239C126.407 191.091 126.64 189.993 126.873 188.896C126.64 189.844 126.407 191.091 126.115 192.239Z" fill="black"/>
<path d="M127.631 173.015C127.58 177.768 127.327 182.512 126.873 187.224C127.344 182.515 127.598 177.769 127.631 173.015Z" fill="#263238"/>
<path opacity="0.2" d="M127.631 173.015C127.58 177.768 127.327 182.512 126.873 187.224C127.344 182.515 127.598 177.769 127.631 173.015Z" fill="black"/>
<path d="M156.427 168C147.566 172.179 137.704 173.866 127.931 172.874C127.882 177.748 127.515 182.615 126.83 187.442V188.525C126.83 189.717 126.39 190.908 126.115 192.154V193.075C138.682 188.121 149.305 179.333 156.427 168Z" fill="#FFC3BD"/>
<path opacity="0.2" d="M156.427 168C147.566 172.179 137.704 173.866 127.931 172.874C127.882 177.748 127.515 182.615 126.83 187.442V188.525C126.83 189.717 126.39 190.908 126.115 192.154V193.075C138.682 188.121 149.305 179.333 156.427 168Z" fill="black"/>
<path d="M156.439 167.977C159.708 166.443 162.828 164.613 165.761 162.509C172.734 157.842 178.762 151.906 183.528 145.011C185.615 141.957 187.449 138.739 189.012 135.388C187.97 135.388 186.928 135.934 185.941 136.044C176.783 136.864 174.206 126.584 178.374 117.398C179.784 114.292 181.631 111.401 183.857 108.813C181.464 101.006 182.05 92.5931 185.502 85.1913C177.167 68.1311 168.338 52.3832 167.516 40.9551C146.998 47.2794 125.704 50.7569 104.234 51.2896C103.412 52.5473 102.644 53.9143 101.822 55.2266C103.681 55.2192 105.53 55.4958 107.305 56.0468C107.537 56.1319 107.749 56.2618 107.929 56.4291C108.11 56.5965 108.255 56.7978 108.357 57.0215C108.459 57.2453 108.516 57.487 108.523 57.7327C108.531 57.9783 108.49 58.223 108.402 58.4527C108.229 58.9194 107.88 59.3003 107.429 59.5147C106.979 59.729 106.462 59.7599 105.989 59.6009C104.018 59.0046 101.939 58.8552 99.9025 59.1636C89.5755 79.9131 84.5461 102.884 85.2611 126.037C85.4463 137.739 89.9408 148.964 97.8888 157.575C105.837 166.186 116.683 171.581 128.363 172.734C137.981 173.725 147.689 172.081 156.439 167.977ZM144.21 60.5852C147.197 61.1708 149.996 62.4724 152.365 64.3777C154.735 66.283 156.603 68.7348 157.81 71.5212C158.022 71.98 158.05 72.5028 157.887 72.9812C157.723 73.4596 157.382 73.857 156.933 74.0912C156.476 74.2796 155.963 74.2796 155.507 74.0912C155.26 74.0236 155.032 73.8995 154.842 73.7286C154.651 73.5577 154.503 73.3448 154.41 73.1069C153.414 70.8988 151.895 68.9644 149.985 67.4693C148.075 65.9742 145.83 64.9629 143.443 64.5222C142.948 64.4413 142.503 64.1759 142.198 63.7799C141.892 63.3839 141.749 62.8869 141.798 62.3897C141.82 62.1097 141.904 61.838 142.044 61.594C142.183 61.35 142.375 61.1397 142.605 60.9779C142.836 60.8161 143.099 60.7069 143.376 60.6579C143.654 60.6089 143.938 60.6215 144.21 60.6946V60.5852ZM142.291 87.5972C143.206 88.2826 143.883 89.2364 144.227 90.3249C144.572 91.4133 144.566 92.5818 144.21 93.6667C143.607 96.8382 141.414 99.1347 139.33 98.6426C137.246 98.1505 136.04 95.3618 136.643 92.1903C136.946 90.5829 137.775 89.1212 139.001 88.0347C137.292 87.1325 135.953 85.6622 135.217 83.8789L142.291 87.5972ZM97.3252 85.3007C97.6204 83.7185 98.4297 82.2774 99.6282 81.1996C97.9469 80.2529 96.6337 78.77 95.8994 76.9893L103.083 80.6528C103.967 81.363 104.622 82.3182 104.963 83.3982C105.305 84.4781 105.318 85.6346 105.002 86.7223C104.344 89.8938 102.206 92.1903 100.122 91.7529C98.0379 91.3154 96.722 88.5814 97.3252 85.41V85.3007ZM110.047 111.875C108.014 111.995 105.979 111.671 104.085 110.924C102.19 110.178 100.482 109.028 99.08 107.555C104.951 102.251 110.079 96.1814 114.325 89.511L110.047 111.875ZM120.631 126.529C120.387 126.465 120.178 126.31 120.046 126.096C119.913 125.883 119.867 125.627 119.918 125.381C119.97 125.143 120.115 124.935 120.32 124.802C120.525 124.669 120.775 124.622 121.015 124.67C124.972 125.52 129.075 125.429 132.991 124.403C136.907 123.377 140.525 121.445 143.552 118.765C143.639 118.675 143.742 118.603 143.856 118.553C143.971 118.503 144.094 118.476 144.218 118.474C144.343 118.471 144.467 118.493 144.583 118.538C144.7 118.584 144.806 118.651 144.896 118.737C144.986 118.824 145.058 118.927 145.108 119.041C145.158 119.155 145.185 119.277 145.188 119.402C145.19 119.526 145.168 119.65 145.123 119.766C145.078 119.882 145.01 119.987 144.923 120.077C139.825 124.757 133.096 127.269 126.169 127.076C124.315 127.06 122.464 126.914 120.631 126.639V126.529Z" fill="#FFC3BD"/>
<path d="M192.801 102.721C190.521 97.3038 187.915 91.5072 185.255 86.0898C181.837 93.4231 181.257 101.759 183.627 109.493C186.034 106.469 189.199 104.133 192.801 102.721Z" fill="#263238"/>
<path d="M138.587 88.1904C137.309 89.255 136.444 90.6873 136.129 92.2624C135.5 95.37 136.757 98.2098 138.93 98.5848C141.103 98.9599 143.391 96.8167 144.02 93.7091C144.39 92.646 144.396 91.501 144.037 90.4345C143.679 89.368 142.973 88.4334 142.018 87.7617C141.536 88.1067 140.965 88.3278 140.364 88.4029C139.762 88.4781 139.15 88.4048 138.587 88.1904Z" fill="#263238"/>
<path d="M105.416 86.9871C105.748 85.9275 105.733 84.8008 105.375 83.7487C105.017 82.6966 104.331 81.7661 103.404 81.0742C102.906 81.4126 102.326 81.6332 101.715 81.7168C101.103 81.8003 100.479 81.7443 99.8968 81.5536C98.6402 82.6035 97.7915 84.0075 97.4819 85.5488C96.8495 88.6384 98.1143 91.4616 100.299 91.8878C102.484 92.3139 104.439 90.0767 105.416 86.9871Z" fill="#263238"/>
<path d="M102.623 81.1911L95.8033 77.7314C96.5005 79.413 97.7473 80.8134 99.3435 81.7075C99.8897 81.9034 100.477 81.9587 101.051 81.8684C101.624 81.7781 102.165 81.5451 102.623 81.1911Z" fill="#263238"/>
<path d="M98.8345 107.783C100.293 109.213 102.07 110.329 104.04 111.054C106.011 111.778 108.127 112.093 110.242 111.976L114.748 90.2686C110.315 96.7465 104.962 102.638 98.8345 107.783Z" fill="#ED847E"/>
<path d="M144.782 118.955C144.6 118.783 144.356 118.687 144.102 118.687C143.848 118.687 143.604 118.783 143.422 118.955C140.429 121.544 136.856 123.413 132.99 124.41C129.124 125.407 125.073 125.505 121.161 124.696C120.923 124.648 120.676 124.694 120.472 124.824C120.268 124.953 120.125 125.155 120.073 125.387C120.023 125.626 120.068 125.875 120.199 126.082C120.331 126.29 120.539 126.44 120.78 126.503C122.58 126.804 124.398 126.981 126.223 127.035C133.098 127.222 139.776 124.781 144.837 120.231C144.99 120.049 145.069 119.818 145.059 119.583C145.049 119.347 144.951 119.124 144.782 118.955Z" fill="#263238"/>
<path d="M192.477 102.807C188.912 104.204 185.781 106.514 183.398 109.506C181.217 112.042 179.408 114.875 178.026 117.92C173.944 126.923 176.468 136.998 185.439 136.194C186.406 136.194 187.427 135.766 188.448 135.551C192.666 134.433 196.518 132.235 199.621 129.174C198.497 120.093 196.091 111.216 192.477 102.807Z" fill="#FFC3BD"/>
<path d="M168.11 31.664C168.436 23.1938 172.901 21.135 179 22.429C146.002 1.60628 97.5939 24.429 94 51.8397C97.2671 51.8397 100.643 51.8397 104.128 51.8397C125.447 51.2667 146.592 47.5258 166.966 40.7225C166.65 37.6473 167.043 34.5355 168.11 31.664Z" fill="#263238"/>
<path d="M165.344 30.3044C164.218 33.033 163.79 35.9831 164.096 38.9051C164.987 51.0609 174.555 67.5743 183.587 85.2919C186.499 91.0258 189.529 96.7596 191.847 102.895C195.846 111.892 198.507 121.389 199.751 131.105C200.822 139.785 199.51 148.584 195.947 156.621C210.269 140.91 216.152 112.757 218.529 88.7896C219.891 74.7443 220.308 60.6284 219.777 46.5311C219.777 46.5311 193.273 24.3985 177.229 21.3022C170.573 20.0407 165.7 22.0476 165.344 30.3044Z" fill="#263238"/>
<path d="M143.438 64.8837C145.819 65.3151 148.057 66.3049 149.961 67.7685C151.865 69.232 153.379 71.1255 154.372 73.287C154.465 73.5199 154.612 73.7282 154.802 73.8955C154.992 74.0627 155.219 74.1843 155.465 74.2505C155.92 74.4349 156.431 74.4349 156.886 74.2505C157.334 74.0213 157.675 73.6321 157.837 73.1638C158 72.6955 157.973 72.1839 157.761 71.7348C156.558 69.0073 154.695 66.6073 152.333 64.7423C149.971 62.8772 147.181 61.6031 144.204 61.03C143.704 60.9691 143.2 61.1035 142.801 61.4041C142.402 61.7047 142.14 62.1472 142.072 62.6356C141.969 63.11 142.052 63.6049 142.306 64.0216C142.559 64.4383 142.964 64.7461 143.438 64.8837Z" fill="#263238"/>
<path d="M105.439 59.9698C105.903 60.1141 106.41 60.086 106.853 59.8915C107.295 59.6969 107.638 59.3513 107.808 58.9278C107.894 58.7194 107.935 58.4973 107.927 58.2744C107.92 58.0515 107.864 57.8321 107.764 57.6291C107.664 57.426 107.521 57.2433 107.344 57.0915C107.167 56.9396 106.958 56.8217 106.731 56.7445C104.988 56.2445 103.172 55.9934 101.347 56.0001C97.1501 55.9856 93.0645 57.2407 89.7166 59.5728C89.3283 59.8568 89.0727 60.2671 89.0026 60.7193C88.9325 61.1716 89.0532 61.6314 89.3397 62.0042C89.6356 62.3455 90.0571 62.575 90.5242 62.6493C90.7755 62.6996 91.0355 62.699 91.2865 62.6476C91.5375 62.5962 91.7734 62.4952 91.978 62.3516C94.0926 60.8507 96.6004 59.892 99.2469 59.5728C101.317 59.2624 103.436 59.3983 105.439 59.9698Z" fill="#263238"/>
<path d="M138.905 88.3604C139.417 88.5708 139.974 88.6427 140.522 88.5689C141.07 88.4952 141.589 88.2783 142.029 87.9399L135.209 84.418C135.944 86.1299 137.252 87.5258 138.905 88.3604Z" fill="#263238"/>
</svg>
