<svg width="51" height="50" viewBox="0 0 51 50" fill="none" xmlns="http://www.w3.org/2000/svg">
<path fill-rule="evenodd" clip-rule="evenodd" d="M24.3797 49.98C10.8237 49.445 0 38.465 0 25C0 11.1925 11.379 0 25.4167 0C39.4543 0 50.8333 11.1925 50.8333 25C50.8333 38.8075 39.4543 50 25.4167 50H25.0684C24.838 50 24.6084 49.9933 24.3797 49.98ZM9.10679 40.775C8.91675 40.2382 8.85207 39.6662 8.91754 39.1015C8.98301 38.5367 9.17694 37.9938 9.48496 37.5128C9.79297 37.0319 10.2072 36.6254 10.6968 36.3235C11.1864 36.0215 11.7388 35.8319 12.3131 35.7688C22.2205 34.69 28.6738 34.7875 38.5329 35.7912C39.108 35.8502 39.6618 36.0374 40.1522 36.3386C40.6426 36.6399 41.0566 37.0472 41.3627 37.5296C41.6689 38.0121 41.8591 38.5568 41.9188 39.1225C41.9785 39.6881 41.9063 40.2597 41.7075 40.7937C45.9331 36.5888 48.2995 30.9125 48.2916 25C48.2916 12.5737 38.05 2.5 25.4167 2.5C12.7833 2.5 2.54167 12.5737 2.54167 25C2.54167 31.145 5.04648 36.715 9.10679 40.775Z" fill="#3C6E71"/>
<path d="M35 19.9998C35 22.6519 33.9464 25.1955 32.0711 27.0708C30.1957 28.9462 27.6522 29.9998 25 29.9998C22.3478 29.9998 19.8043 28.9462 17.9289 27.0708C16.0536 25.1955 15 22.6519 15 19.9998C15 17.3476 16.0536 14.8041 17.9289 12.9287C19.8043 11.0533 22.3478 9.99976 25 9.99976C27.6522 9.99976 30.1957 11.0533 32.0711 12.9287C33.9464 14.8041 35 17.3476 35 19.9998Z" fill="#3C6E71"/>
</svg>
