<svg width="280" height="280" viewBox="0 0 280 280" fill="none" xmlns="http://www.w3.org/2000/svg">
<mask id="mask0_68_3714" style="mask-type:luminance" maskUnits="userSpaceOnUse" x="0" y="0" width="280" height="280">
<path d="M140 280C217.32 280 280 217.32 280 140C280 62.6802 217.32 0 140 0C62.6801 0 0 62.6802 0 140C0 217.32 62.6801 280 140 280Z" fill="white"/>
</mask>
<g mask="url(#mask0_68_3714)">
<path d="M49.4514 298.805L47.1154 280.355C44.2647 257.985 97.9921 229.954 97.9921 229.954L151.324 238.07L179.83 218.036C236.765 229.914 228.569 241.317 229.915 257.154C230.667 265.864 232.251 275.604 232.251 275.604L49.4514 298.805Z" fill="#3C6E71" stroke="#263238" stroke-linecap="round" stroke-linejoin="round"/>
<path d="M112.958 153.856C112.958 153.856 124.836 180.621 106.465 224.292L151.244 236.922L169.338 216.294L158.688 168.545L112.958 153.856Z" fill="white"/>
<mask id="mask1_68_3714" style="mask-type:luminance" maskUnits="userSpaceOnUse" x="106" y="153" width="64" height="84">
<path d="M112.958 153.856C112.958 153.856 124.836 180.621 106.465 224.292L151.244 236.922L169.338 216.294L158.688 168.545L112.958 153.856Z" fill="white"/>
</mask>
<g mask="url(#mask1_68_3714)">
<path d="M111.058 158.212C111.058 158.212 124.321 207.465 170.447 205.723C216.572 203.981 125.984 148.313 125.984 148.313L114.819 147.521L111.058 158.212Z" fill="#263238"/>
</g>
<path d="M112.958 153.856C112.958 153.856 124.836 180.621 106.465 224.292L151.244 236.922L169.338 216.294L158.688 168.545L112.958 153.856Z" stroke="#263238" stroke-linecap="round" stroke-linejoin="round"/>
<path d="M112.958 153.857C112.958 153.857 94.2307 151.956 87.2228 93.8738C81.5214 46.7585 110.107 15.0447 147.8 15.5989C188.184 16.2324 213.167 62.1205 237.24 64.9315C237.24 64.9315 213.484 75.0673 204.299 69.0888C204.299 69.0888 223.145 84.9259 206.159 92.8444C189.174 100.763 112.958 153.857 112.958 153.857Z" fill="#263238" stroke="#263238" stroke-miterlimit="10"/>
<path d="M204.853 81.0459L209.525 117.907C209.525 117.907 217.443 142.929 210.554 162.132C203.665 181.334 195.865 202.992 173.1 198.24C150.334 193.489 131.092 192.856 113.156 153.857L118.066 136.397C118.066 136.397 105.079 136.674 102.902 113.552C100.724 90.4293 123.213 104.683 123.213 104.683C129.35 93.7313 132.517 81.3651 132.398 68.8117C132.081 48.2235 169.774 80.9271 192.025 75.0278L175.277 57.1318C175.277 57.1318 199.785 68.6534 204.853 81.0459Z" fill="white" stroke="#263238" stroke-linecap="round" stroke-linejoin="round"/>
<path d="M184.225 118.817L195.588 134.457C195.993 134.998 196.263 135.627 196.378 136.293C196.492 136.959 196.447 137.643 196.246 138.288C196.045 138.933 195.694 139.521 195.222 140.005C194.75 140.488 194.17 140.853 193.529 141.068L182.206 145.028" stroke="#263238" stroke-linecap="round" stroke-linejoin="round"/>
<path d="M152.036 157.341C152.036 157.341 162.409 166.724 182.325 161.3" stroke="#263238" stroke-linecap="round" stroke-linejoin="round"/>
<path d="M158.015 117.114C158.015 121.074 156.827 124.36 155.085 124.4C153.343 124.439 151.878 121.272 151.759 117.312C151.64 113.353 152.947 110.067 154.649 109.988C156.352 109.909 157.896 113.116 158.015 117.114Z" fill="#263238"/>
<path d="M196.222 115.847C196.222 119.806 195.034 123.093 193.292 123.132C191.55 123.172 190.085 120.004 189.966 116.045C189.847 112.086 191.114 108.8 192.856 108.76C194.598 108.721 196.103 111.888 196.222 115.847Z" fill="#263238"/>
<path d="M144.87 107.929C144.87 107.929 152.392 94.9428 169.061 101.238" stroke="#263238" stroke-linecap="round" stroke-linejoin="round"/>
<path d="M189.016 100.604C189.016 100.604 197.607 93.0023 205.209 104.841" stroke="#263238" stroke-linecap="round" stroke-linejoin="round"/>
<path d="M194.123 51.8262C196.807 54.0537 199.728 55.979 202.834 57.5671" stroke="#7F7F7F" stroke-linecap="round" stroke-linejoin="round"/>
<path d="M108.563 87.1824C108.563 87.1824 104.287 45.1745 132.557 31.3171C153.462 21.0625 175.752 37.7311 190.441 49.015" stroke="#7F7F7F" stroke-linecap="round" stroke-linejoin="round"/>
<path d="M143.207 46.8379C150.096 46.8379 159.559 51.1931 172.149 66.0403" stroke="#7F7F7F" stroke-linecap="round" stroke-linejoin="round"/>
<path d="M128.479 57.4089C129.73 54.6462 131.599 52.2079 133.942 50.2822" stroke="#7F7F7F" stroke-linecap="round" stroke-linejoin="round"/>
<path d="M89.5588 232.924L103.218 220.096L149.661 233.319L171.041 211.504L185.967 216.849L171.753 247.731L151.324 240.367L136.555 256.758L89.5588 232.924Z" fill="#3C6E71"/>
<mask id="mask2_68_3714" style="mask-type:luminance" maskUnits="userSpaceOnUse" x="89" y="211" width="97" height="46">
<path d="M89.5588 232.924L103.218 220.096L149.661 233.319L171.041 211.504L185.967 216.849L171.753 247.731L151.324 240.367L136.555 256.758L89.5588 232.924Z" fill="white"/>
</mask>
<g mask="url(#mask2_68_3714)">
<path opacity="0.5" d="M89.5588 232.924L103.218 220.096L149.661 233.319L171.041 211.504L185.967 216.849L171.753 247.731L151.324 240.367L136.555 256.758L89.5588 232.924Z" fill="white"/>
</g>
<path d="M89.5588 232.924L103.218 220.096L149.661 233.319L171.041 211.504L185.967 216.849L171.753 247.731L151.324 240.367L136.555 256.758L89.5588 232.924Z" stroke="#263238" stroke-linecap="round" stroke-linejoin="round"/>
</g>
</svg>
