<svg width="28" height="28" viewBox="0 0 28 28" fill="none" xmlns="http://www.w3.org/2000/svg">
<path d="M25.7898 0.543197C25.2963 0.268075 24.7535 0.093114 24.1924 0.0283205C23.6313 -0.0364729 23.063 0.0101716 22.5199 0.165587C21.9768 0.321003 21.4697 0.582141 21.0274 0.934067C20.5851 1.28599 20.2165 1.7218 19.9425 2.21658L11.9604 16.6072L7.39213 12.0307C6.99551 11.6193 6.52109 11.2912 5.99653 11.0655C5.47197 10.8397 4.90778 10.7209 4.33689 10.7159C3.766 10.711 3.19984 10.8199 2.67145 11.0365C2.14305 11.2531 1.663 11.5729 1.2593 11.9773C0.855609 12.3818 0.536356 12.8627 0.320171 13.392C0.103987 13.9214 -0.00479853 14.4886 0.000162336 15.0605C0.00512321 15.6324 0.123731 16.1976 0.349065 16.7231C0.5744 17.2486 0.901947 17.7239 1.3126 18.1212L9.91166 26.7358C10.7243 27.552 11.8207 28 12.9514 28L13.5469 27.9569C14.2059 27.8646 14.8345 27.6202 15.3833 27.2432C15.932 26.8661 16.3859 26.3666 16.7092 25.7839L27.458 6.40111C27.7325 5.90674 27.907 5.36307 27.9717 4.80112C28.0364 4.23918 27.9899 3.66998 27.835 3.12601C27.6801 2.58205 27.4198 2.07398 27.0689 1.63082C26.7179 1.18766 26.2833 0.818084 25.7898 0.543197Z" fill="#3C6E71"/>
</svg>
