<svg width="1024" height="770" viewBox="0 0 1024 770" fill="none" xmlns="http://www.w3.org/2000/svg">
<path d="M1024 676.664H0V677.181H1024V676.664Z" fill="#EBEBEB"/>
<path d="M921.395 709.919H853.565V710.435H921.395V709.919Z" fill="#EBEBEB"/>
<path d="M678.339 715.54H660.542V716.057H678.339V715.54Z" fill="#EBEBEB"/>
<path d="M851.517 690.739H812.216V691.256H851.517V690.739Z" fill="#EBEBEB"/>
<path d="M195.891 694.211H107.438V694.728H195.891V694.211Z" fill="#EBEBEB"/>
<path d="M227.103 694.211H214.139V694.728H227.103V694.211Z" fill="#EBEBEB"/>
<path d="M461.107 702.933H269.251V703.45H461.107V702.933Z" fill="#EBEBEB"/>
<path d="M485.376 584.486H89.9275C86.8296 584.48 83.8604 583.234 81.6718 581.022C79.4831 578.809 78.2539 575.811 78.2539 572.684V11.698C78.2809 8.58959 79.522 5.61747 81.7077 3.42717C83.8935 1.23688 86.8473 0.00532483 89.9275 0H485.376C488.477 0 491.452 1.24335 493.645 3.45653C495.838 5.6697 497.07 8.67141 497.07 11.8013V572.684C497.07 575.814 495.838 578.816 493.645 581.029C491.452 583.242 488.477 584.486 485.376 584.486ZM89.9275 0.413358C86.9654 0.418833 84.1264 1.61016 82.0338 3.72584C79.9412 5.84153 78.7659 8.70869 78.7659 11.698V572.684C78.7659 575.674 79.9412 578.541 82.0338 580.657C84.1264 582.772 86.9654 583.964 89.9275 583.969H485.376C488.34 583.964 491.181 582.773 493.277 580.658C495.373 578.543 496.553 575.676 496.558 572.684V11.698C496.553 8.70679 495.373 5.83967 493.277 3.72458C491.181 1.60949 488.34 0.418821 485.376 0.413358H89.9275Z" fill="#EBEBEB"/>
<path d="M928.379 584.486H532.91C529.81 584.48 526.839 583.235 524.647 581.023C522.455 578.811 521.221 575.813 521.216 572.684V11.698C521.248 8.58771 522.494 5.6156 524.683 3.42588C526.872 1.23616 529.828 0.00526676 532.91 0H928.379C931.456 0.0107566 934.404 1.24472 936.585 3.43443C938.767 5.62414 940.005 8.59316 940.032 11.698V572.684C940.032 575.807 938.806 578.803 936.621 581.015C934.437 583.227 931.473 584.475 928.379 584.486ZM532.91 0.413358C529.946 0.418821 527.105 1.60949 525.009 3.72458C522.913 5.83967 521.733 8.70679 521.728 11.698V572.684C521.733 575.676 522.913 578.543 525.009 580.658C527.105 582.773 529.946 583.964 532.91 583.969H928.379C931.343 583.964 934.184 582.773 936.28 580.658C938.376 578.543 939.556 575.676 939.561 572.684V11.698C939.556 8.70679 938.376 5.83967 936.28 3.72458C934.184 1.60949 931.343 0.418821 928.379 0.413358H532.91Z" fill="#EBEBEB"/>
<path d="M496.312 245.699H205.537V675.941H496.312V245.699Z" fill="#F0F0F0"/>
<path d="M486.031 259.236H215.798V338.704H486.031V259.236Z" fill="#E0E0E0"/>
<path d="M231.158 272.092H215.798V338.683H231.158V272.092Z" fill="#EBEBEB"/>
<path d="M305.398 272.092H290.038V338.683H305.398V272.092Z" fill="#EBEBEB"/>
<path d="M389.656 270.419L374.52 273.052L385.728 338.676L400.865 336.043L389.656 270.419Z" fill="#EBEBEB"/>
<path d="M250.184 280.876H234.824V338.704H250.184V280.876Z" fill="#EBEBEB"/>
<path d="M285.471 280.876H270.111V338.704H285.471V280.876Z" fill="#EBEBEB"/>
<path d="M374.538 280.876H359.178V338.704H374.538V280.876Z" fill="#EBEBEB"/>
<path d="M325.573 278.869L310.579 282.232L323.011 338.683L338.005 335.32L325.573 278.869Z" fill="#EBEBEB"/>
<path d="M263.455 268.785H255.775V338.683H263.455V268.785Z" fill="#EBEBEB"/>
<path d="M354.755 268.785H347.075V338.683H354.755V268.785Z" fill="#EBEBEB"/>
<path d="M215.818 430.758L486.052 430.758V351.291H215.818V430.758Z" fill="#E0E0E0"/>
<path d="M470.671 430.738H486.031V364.146H470.671V430.738Z" fill="#EBEBEB"/>
<path d="M396.452 430.738H411.812V364.146H396.452V430.738Z" fill="#EBEBEB"/>
<path d="M300.988 428.092L316.125 430.725L327.334 365.101L312.197 362.468L300.988 428.092Z" fill="#EBEBEB"/>
<path d="M451.646 430.759H467.006V372.93H451.646V430.759Z" fill="#EBEBEB"/>
<path d="M416.379 430.759H431.739V372.93H416.379V430.759Z" fill="#EBEBEB"/>
<path d="M327.312 430.759H342.672V372.93H327.312V430.759Z" fill="#EBEBEB"/>
<path d="M363.895 427.38L378.889 430.743L391.321 374.292L376.326 370.929L363.895 427.38Z" fill="#EBEBEB"/>
<path d="M438.374 430.738H446.054V360.839H438.374V430.738Z" fill="#EBEBEB"/>
<path d="M347.095 430.738H354.775V360.839H347.095V430.738Z" fill="#EBEBEB"/>
<path d="M231.158 364.146H215.798V430.738H231.158V364.146Z" fill="#EBEBEB"/>
<path d="M250.184 372.909H234.824V430.738H250.184V372.909Z" fill="#EBEBEB"/>
<path d="M285.471 372.909H270.111V430.738H285.471V372.909Z" fill="#EBEBEB"/>
<path d="M263.455 360.839H255.775V430.738H263.455V360.839Z" fill="#EBEBEB"/>
<path d="M486.031 443.325H215.798V522.792H486.031V443.325Z" fill="#E0E0E0"/>
<path d="M386.273 456.18H370.913V522.772H386.273V456.18Z" fill="#EBEBEB"/>
<path d="M470.544 454.502L455.407 457.135L466.616 522.759L481.753 520.126L470.544 454.502Z" fill="#EBEBEB"/>
<path d="M331.059 464.964H315.699V522.792H331.059V464.964Z" fill="#EBEBEB"/>
<path d="M366.346 464.964H350.986V522.792H366.346V464.964Z" fill="#EBEBEB"/>
<path d="M455.414 464.964H440.054V522.792H455.414V464.964Z" fill="#EBEBEB"/>
<path d="M406.455 462.96L391.461 466.323L403.893 522.774L418.887 519.411L406.455 462.96Z" fill="#EBEBEB"/>
<path d="M344.33 452.873H336.65V522.772H344.33V452.873Z" fill="#EBEBEB"/>
<path d="M435.63 452.873H427.95V522.772H435.63V452.873Z" fill="#EBEBEB"/>
<path d="M293.931 454.518L278.794 457.151L290.003 522.775L305.14 520.142L293.931 454.518Z" fill="#EBEBEB"/>
<path d="M278.794 464.964H263.434V522.792H278.794V464.964Z" fill="#EBEBEB"/>
<path d="M229.844 462.959L214.85 466.322L227.282 522.773L242.276 519.411L229.844 462.959Z" fill="#EBEBEB"/>
<path d="M259.031 452.873H251.351V522.772H259.031V452.873Z" fill="#EBEBEB"/>
<path d="M155.361 677.057H205.537L205.537 245.699H155.361L155.361 677.057Z" fill="#E0E0E0"/>
<path d="M666.501 665.793H623.882L646.287 481.56C646.825 477.711 648.699 474.179 651.575 471.594C654.452 469.009 658.145 467.538 661.995 467.444H847.872L820.613 665.71L666.501 665.793Z" fill="#F5F5F5"/>
<path d="M801.669 665.793H844.288L866.714 481.56C866.987 479.789 866.872 477.979 866.376 476.258C865.88 474.537 865.015 472.947 863.843 471.6C862.671 470.254 861.22 469.183 859.592 468.465C857.965 467.747 856.201 467.398 854.426 467.444H839.782C835.939 467.563 832.259 469.042 829.387 471.622C826.516 474.203 824.635 477.721 824.074 481.56L801.669 665.793Z" fill="#F0F0F0"/>
<path d="M785.982 665.504L793.703 576.425C793.865 574.493 794.68 572.675 796.011 571.276C797.342 569.877 799.107 568.981 801.014 568.737L804.188 568.324C806.751 568 809.125 566.796 810.911 564.914C812.698 563.032 813.788 560.587 813.998 557.99L815.411 541.745C815.551 540.17 815.364 538.583 814.862 537.085C814.36 535.587 813.555 534.211 812.497 533.044C811.439 531.878 810.152 530.946 808.718 530.309C807.284 529.672 805.735 529.343 804.168 529.344H875.397C876.964 529.343 878.514 529.672 879.948 530.309C881.382 530.946 882.669 531.878 883.726 533.044C884.784 534.211 885.589 535.587 886.091 537.085C886.593 538.583 886.78 540.17 886.641 541.745L885.228 557.99C885.017 560.587 883.927 563.032 882.141 564.914C880.354 566.796 877.98 568 875.418 568.324L872.243 568.737C870.338 568.984 868.575 569.882 867.245 571.28C865.915 572.679 865.099 574.494 864.932 576.425L857.211 665.504C856.935 668.634 855.508 671.547 853.212 673.67C850.915 675.792 847.915 676.971 844.8 676.974H773.571C776.685 676.971 779.686 675.792 781.982 673.67C784.279 671.547 785.706 668.634 785.982 665.504Z" fill="#E6E6E6"/>
<path d="M589.947 554.207C589.382 547.445 586.322 541.144 581.372 536.551C576.423 531.958 569.945 529.408 563.22 529.406H625.234C631.94 529.434 638.393 531.995 643.321 536.586C648.249 541.176 651.295 547.463 651.858 554.207L658.002 624.809H596.07L589.947 554.207Z" fill="#E6E6E6"/>
<path d="M535.675 529.489H563.2C569.924 529.491 576.402 532.041 581.352 536.634C586.302 541.227 589.362 547.528 589.926 554.29L596.07 624.891H743.772L749.916 554.29C750.475 547.544 753.519 541.255 758.448 536.663C763.377 532.072 769.832 529.512 776.54 529.489H804.086C805.652 529.488 807.202 529.817 808.636 530.454C810.07 531.091 811.357 532.023 812.415 533.189C813.472 534.356 814.278 535.732 814.78 537.23C815.281 538.728 815.468 540.314 815.329 541.889L813.916 558.134C813.706 560.732 812.615 563.177 810.829 565.059C809.043 566.941 806.669 568.145 804.106 568.468L800.932 568.882C799.025 569.125 797.259 570.022 795.929 571.421C794.598 572.82 793.783 574.638 793.62 576.57L785.981 665.504C785.705 668.634 784.279 671.547 781.982 673.67C779.685 675.792 776.685 676.971 773.57 676.974H566.272C563.158 676.971 560.157 675.792 557.86 673.67C555.564 671.547 554.137 668.634 553.861 665.504L546.14 576.425C545.97 574.496 545.153 572.682 543.823 571.284C542.494 569.886 540.732 568.988 538.829 568.737L535.654 568.324C533.091 567.997 530.717 566.793 528.927 564.912C527.138 563.031 526.043 560.588 525.824 557.99L524.431 541.745C524.313 540.181 524.516 538.61 525.027 537.13C525.538 535.649 526.347 534.291 527.402 533.14C528.458 531.99 529.737 531.071 531.161 530.443C532.584 529.815 534.121 529.49 535.675 529.489Z" fill="#F0F0F0"/>
<path d="M209.224 224.204C209.224 224.204 206.95 209.096 217.866 199.403C228.782 189.71 227.82 183.964 224.686 183.22C221.553 182.476 218.706 192.149 213.914 194.815C213.914 194.815 213.75 181.009 218.624 175.945C223.498 170.881 226.058 157.757 221.409 157.53C216.76 157.303 216.31 165.301 215.265 170.985C214.221 176.668 209.121 184.646 209.121 184.646C209.121 184.646 208.118 172.246 205.025 167.223C201.933 162.201 210.268 150.524 207.073 145.46C203.878 140.396 198.083 150.048 198.554 160.94C199.025 171.832 206.234 183.447 204.554 194.815C204.554 194.815 201.38 186.816 198.533 186.093C195.686 185.37 192.799 180.099 190.894 178.136C188.989 176.172 186.573 182.951 190.894 189.234C195.215 195.518 206.234 212.362 204.554 225.961L209.224 224.204Z" fill="#E6E6E6"/>
<path d="M215.736 217.322L219.32 239.953C219.578 241.596 219.479 243.276 219.032 244.877C218.584 246.478 217.798 247.963 216.727 249.228C215.657 250.493 214.327 251.508 212.831 252.205C211.334 252.902 209.705 253.263 208.056 253.263H204.247C202.599 253.263 200.97 252.902 199.473 252.205C197.976 251.508 196.647 250.493 195.576 249.228C194.506 247.963 193.719 246.478 193.272 244.877C192.824 243.276 192.726 241.596 192.983 239.953L196.608 217.322H215.736Z" fill="#E6E6E6"/>
<path d="M430.183 248.84H441.303V200.581H430.183V248.84Z" fill="#EBEBEB"/>
<path d="M376.402 248.84H387.523V200.581H376.402V248.84Z" fill="#EBEBEB"/>
<path d="M307.229 246.922L318.188 248.829L326.311 201.271L315.352 199.364L307.229 246.922Z" fill="#EBEBEB"/>
<path d="M416.399 248.82H427.52V206.926H416.399V248.82Z" fill="#EBEBEB"/>
<path d="M390.84 248.82H401.961V206.926H390.84V248.82Z" fill="#EBEBEB"/>
<path d="M326.287 248.82H337.408V206.926H326.287V248.82Z" fill="#EBEBEB"/>
<path d="M352.809 246.39L363.665 248.824L372.672 207.928L361.816 205.494L352.809 246.39Z" fill="#EBEBEB"/>
<path d="M406.774 248.84H412.344V198.184H406.774V248.84Z" fill="#EBEBEB"/>
<path d="M340.603 248.84H346.174V198.184H340.603V248.84Z" fill="#EBEBEB"/>
<path d="M300.954 210.522H246.743V248.282H300.954V210.522Z" fill="#EBEBEB"/>
<path d="M486.871 225.982H441.467V254.173H486.871V225.982Z" fill="#EBEBEB"/>
<path d="M476.263 201.201H453.55V229.392H476.263V201.201Z" fill="#EBEBEB"/>
<path d="M855.675 163.896H801.669V390.994H855.675V163.896Z" fill="#E0E0E0"/>
<path d="M647.906 391.614H849.879V163.916L647.906 163.916V391.614Z" fill="#E0E0E0"/>
<path d="M641.392 391.614H850.944V163.916L641.392 163.916V391.614Z" fill="#F0F0F0"/>
<path d="M650.363 381.135H842.343V171.15L650.363 171.15V381.135Z" fill="white"/>
<path d="M650.343 381.135H653.906V171.15H650.343V381.135Z" fill="#E0E0E0"/>
<path d="M653.333 322.17V327.833H842.854V322.17H653.333Z" fill="#E0E0E0"/>
<path d="M650.342 322.149H845.333V312.642H650.342V322.149Z" fill="#F0F0F0"/>
<path d="M512 770C731.305 770 909.087 759.525 909.087 746.604C909.087 733.683 731.305 723.208 512 723.208C292.695 723.208 114.913 733.683 114.913 746.604C114.913 759.525 292.695 770 512 770Z" fill="#F5F5F5"/>
<path d="M241.357 682.617H239.411C239.411 679.702 241.807 611.416 253.583 599.945C265.687 588.061 279.921 599.78 280.044 599.945L278.815 601.433C278.282 600.999 265.769 590.748 254.915 601.433C243.712 612.201 241.377 681.914 241.357 682.617Z" fill="#3C6E71"/>
<path d="M240.374 696.319L238.449 696.133C238.449 695.307 246.067 613.214 216.596 579.071L218.051 577.789C248.074 612.573 240.456 695.493 240.374 696.319Z" fill="#3C6E71"/>
<path d="M241.316 687.556C241.07 683.671 235.397 592.484 258.048 571.403L259.359 572.85C237.384 593.228 243.179 686.523 243.241 687.411L241.316 687.556Z" fill="#3C6E71"/>
<path d="M238.449 687.494C238.449 686.874 237.752 625.491 221.635 616.252C220.264 615.34 218.697 614.774 217.065 614.601C215.432 614.429 213.783 614.655 212.255 615.26C202.813 619.208 197.796 637.395 197.734 637.581L195.871 637.065C196.076 636.279 201.196 617.782 211.517 613.462C213.316 612.733 215.261 612.452 217.19 612.643C219.119 612.833 220.973 613.49 222.597 614.557C239.657 624.416 240.374 684.828 240.394 687.473L238.449 687.494Z" fill="#3C6E71"/>
<path d="M245.084 687.535C244.961 685.469 242.483 639.09 255.529 621.874C259.01 617.306 262.861 615.136 267.039 615.446C276.316 616.087 283.423 628.777 283.812 629.314L282.132 630.286C282.132 630.162 275.128 617.885 266.895 617.389C263.434 617.12 260.116 619.042 257.065 623.073C244.449 639.607 246.989 686.957 247.009 687.432L245.084 687.535Z" fill="#3C6E71"/>
<path d="M242.483 693.963L240.558 693.818C240.558 692.702 248.75 581.964 235.233 563.487L236.79 562.33C250.757 581.386 242.831 689.375 242.483 693.963Z" fill="#3C6E71"/>
<path d="M207.77 624.478C207.77 624.478 216.125 627.599 213.647 634.936C211.169 642.273 184.709 654.364 184.709 654.364C184.709 654.364 173.629 644.133 183.808 627.495C193.986 610.858 207.544 619.228 207.77 624.478Z" fill="#3C6E71"/>
<path opacity="0.2" d="M207.77 624.478C207.77 624.478 216.125 627.599 213.647 634.936C211.169 642.273 184.709 654.364 184.709 654.364C184.709 654.364 173.629 644.133 183.808 627.495C193.986 610.858 207.544 619.228 207.77 624.478Z" fill="black"/>
<path d="M244.122 610.507C244.122 610.507 235.213 610.134 234.701 617.864C234.189 625.594 253.952 647.047 253.952 647.047C253.952 647.047 268.083 641.88 265.052 622.556C262.021 603.231 246.333 605.732 244.122 610.507Z" fill="#3C6E71"/>
<path opacity="0.2" d="M244.122 610.507C244.122 610.507 235.213 610.134 234.701 617.864C234.189 625.594 253.952 647.047 253.952 647.047C253.952 647.047 268.083 641.88 265.052 622.556C262.021 603.231 246.333 605.732 244.122 610.507Z" fill="black"/>
<path d="M251.658 573.428C251.658 573.428 245.719 572.788 246.19 569.15C246.661 565.513 269.271 556.109 282.604 571.217C282.604 571.217 274.063 586.015 261.734 586.222C249.405 586.428 251.658 573.428 251.658 573.428Z" fill="#3C6E71"/>
<path opacity="0.2" d="M251.658 573.428C251.658 573.428 245.719 572.788 246.19 569.15C246.661 565.513 269.271 556.109 282.604 571.217C282.604 571.217 274.063 586.015 261.734 586.222C249.405 586.428 251.658 573.428 251.658 573.428Z" fill="black"/>
<path d="M240.599 564.562C240.599 564.562 245.965 567.187 247.48 563.839C248.996 560.49 234.721 540.463 215.449 546.23C215.449 546.23 214.937 563.342 225.3 570.101C235.663 576.859 240.599 564.562 240.599 564.562Z" fill="#3C6E71"/>
<path opacity="0.2" d="M240.599 564.562C240.599 564.562 245.965 567.187 247.48 563.839C248.996 560.49 234.721 540.463 215.449 546.23C215.449 546.23 214.937 563.342 225.3 570.101C235.663 576.859 240.599 564.562 240.599 564.562Z" fill="black"/>
<path d="M268.697 621.543C268.697 621.543 264.601 618.195 269.025 616.562C273.449 614.929 295.137 615.405 295.362 637.085C295.362 637.085 270.09 641.322 266.977 633.055C263.864 624.788 268.697 621.543 268.697 621.543Z" fill="#3C6E71"/>
<path opacity="0.2" d="M268.697 621.543C268.697 621.543 264.601 618.195 269.025 616.562C273.449 614.929 295.137 615.405 295.362 637.085C295.362 637.085 270.09 641.322 266.977 633.055C263.864 624.788 268.697 621.543 268.697 621.543Z" fill="black"/>
<path d="M217.088 572.891C217.088 572.891 221.184 569.543 216.76 567.931C212.336 566.319 190.648 566.753 190.423 588.433C190.423 588.433 215.695 592.691 218.808 584.424C221.921 576.157 217.088 572.891 217.088 572.891Z" fill="#3C6E71"/>
<path opacity="0.2" d="M217.088 572.891C217.088 572.891 221.184 569.543 216.76 567.931C212.336 566.319 190.648 566.753 190.423 588.433C190.423 588.433 215.695 592.691 218.808 584.424C221.921 576.157 217.088 572.891 217.088 572.891Z" fill="black"/>
<path d="M230.523 590.355C230.523 590.355 230.891 586.222 227.635 587.896C224.379 589.57 213.094 601.805 224.809 613.483C224.809 613.483 240.599 601.681 237.752 595.543C234.905 589.405 230.523 590.355 230.523 590.355Z" fill="#3C6E71"/>
<path opacity="0.2" d="M230.523 590.355C230.523 590.355 230.891 586.222 227.635 587.896C224.379 589.57 213.094 601.805 224.809 613.483C224.809 613.483 240.599 601.681 237.752 595.543C234.905 589.405 230.523 590.355 230.523 590.355Z" fill="black"/>
<path d="M272.384 596.142C272.384 596.142 269.926 592.898 273.531 592.505C277.135 592.112 293.192 596.432 289.444 612.635C289.444 612.635 269.865 611.147 268.964 604.368C268.063 597.589 272.384 596.142 272.384 596.142Z" fill="#3C6E71"/>
<path opacity="0.2" d="M272.384 596.142C272.384 596.142 269.926 592.898 273.531 592.505C277.135 592.112 293.192 596.432 289.444 612.635C289.444 612.635 269.865 611.147 268.964 604.368C268.063 597.589 272.384 596.142 272.384 596.142Z" fill="black"/>
<path d="M209.224 747.596H272.527L280.945 685.469H200.806L209.224 747.596Z" fill="#263238"/>
<path opacity="0.2" d="M209.224 747.596H272.527L280.945 685.469H200.806L209.224 747.596Z" fill="white"/>
<path d="M288.891 680.426V686.337C288.891 688.233 288.144 690.052 286.815 691.393C285.487 692.734 283.684 693.488 281.805 693.488H199.168C197.289 693.488 195.486 692.734 194.157 691.393C192.828 690.052 192.082 688.233 192.082 686.337V680.426H288.891Z" fill="#263238"/>
<path d="M816.374 91.5791H757.535C752.733 91.5791 748.128 93.504 744.733 96.9303C741.338 100.357 739.43 105.004 739.43 109.849V161.519C739.428 163.92 739.894 166.298 740.803 168.517C741.711 170.736 743.044 172.753 744.726 174.451C746.407 176.15 748.404 177.498 750.602 178.417C752.8 179.337 755.156 179.81 757.535 179.81H774.717L770.621 196.117L787.005 179.81H816.476C821.283 179.81 825.893 177.883 829.292 174.453C832.691 171.022 834.601 166.37 834.601 161.519V109.849C834.601 107.44 834.129 105.054 833.211 102.829C832.294 100.604 830.949 98.5845 829.255 96.8863C827.561 95.1881 825.551 93.8449 823.34 92.9341C821.129 92.0232 818.762 91.5627 816.374 91.5791Z" fill="#3C6E71"/>
<path opacity="0.7" d="M816.374 91.5791H757.535C752.733 91.5791 748.128 93.504 744.733 96.9303C741.338 100.357 739.43 105.004 739.43 109.849V161.519C739.428 163.92 739.894 166.298 740.803 168.517C741.711 170.736 743.044 172.753 744.726 174.451C746.407 176.15 748.404 177.498 750.602 178.417C752.8 179.337 755.156 179.81 757.535 179.81H774.717L770.621 196.117L787.005 179.81H816.476C821.283 179.81 825.893 177.883 829.292 174.453C832.691 171.022 834.601 166.37 834.601 161.519V109.849C834.601 107.44 834.129 105.054 833.211 102.829C832.294 100.604 830.949 98.5845 829.255 96.8863C827.561 95.1881 825.551 93.8449 823.34 92.9341C821.129 92.0232 818.762 91.5627 816.374 91.5791Z" fill="white"/>
<path d="M786.964 158.522C799.576 158.522 809.8 148.205 809.8 135.478C809.8 122.75 799.576 112.433 786.964 112.433C774.353 112.433 764.129 122.75 764.129 135.478C764.129 148.205 774.353 158.522 786.964 158.522Z" fill="white"/>
<path d="M786.965 106.005C781.188 106.005 775.542 107.734 770.739 110.972C765.937 114.211 762.194 118.814 759.983 124.199C757.773 129.584 757.194 135.51 758.321 141.227C759.448 146.944 762.23 152.196 766.314 156.318C770.398 160.439 775.602 163.246 781.267 164.384C786.932 165.521 792.804 164.937 798.141 162.706C803.477 160.476 808.038 156.698 811.247 151.851C814.456 147.005 816.169 141.307 816.169 135.478C816.172 131.606 815.418 127.773 813.951 124.196C812.485 120.619 810.334 117.369 807.621 114.631C804.909 111.894 801.688 109.723 798.144 108.243C794.599 106.763 790.8 106.003 786.965 106.005ZM803.533 126.673L785.941 147.589C785.691 147.891 785.377 148.133 785.023 148.298C784.669 148.462 784.282 148.545 783.893 148.54C783.503 148.542 783.118 148.458 782.764 148.294C782.41 148.129 782.096 147.889 781.845 147.589L770.396 133.969C770.154 133.699 769.969 133.384 769.85 133.04C769.732 132.697 769.683 132.333 769.707 131.971C769.731 131.608 769.827 131.254 769.989 130.93C770.152 130.605 770.377 130.317 770.652 130.082C770.927 129.848 771.247 129.672 771.591 129.564C771.935 129.457 772.297 129.42 772.655 129.457C773.013 129.494 773.361 129.603 773.676 129.778C773.992 129.953 774.269 130.19 774.492 130.476L783.893 141.657L799.437 123.18C799.904 122.66 800.553 122.344 801.247 122.297C801.94 122.25 802.625 122.478 803.156 122.93C803.687 123.383 804.024 124.027 804.094 124.725C804.164 125.423 803.963 126.122 803.533 126.673Z" fill="#3C6E71"/>
<path d="M806.175 410.38C806.175 410.38 770.519 405.833 716.493 420.714C716.493 420.714 707.809 323.286 708.833 309.893C709.857 296.5 792.249 300.427 792.249 300.427C792.249 300.427 794.297 339.427 799.662 362.947C805.028 386.467 808.96 405.854 806.175 410.38Z" fill="#3C6E71"/>
<path opacity="0.2" d="M806.175 410.38C806.175 410.38 770.519 405.833 716.493 420.714C716.493 420.714 707.809 323.286 708.833 309.893C709.857 296.5 792.249 300.427 792.249 300.427C792.249 300.427 794.297 339.427 799.662 362.947C805.028 386.467 808.96 405.854 806.175 410.38Z" fill="black"/>
<path d="M690.442 732.922L704.983 737.076L708.444 714.238L710.308 702.024L695.767 697.869L693.289 714.238L690.442 732.922Z" fill="#E4897B"/>
<path d="M774.042 734.121L789.033 736.125L789.176 714.238L789.279 700.639L774.267 698.655L774.165 714.238L774.042 734.121Z" fill="#E4897B"/>
<path opacity="0.2" d="M774.267 698.655L774.165 714.238H789.176L789.279 700.639L774.267 698.655Z" fill="black"/>
<path opacity="0.2" d="M693.289 714.238H708.444L710.308 702.024L695.767 697.869L693.289 714.238Z" fill="black"/>
<path d="M625.889 317.892L611.451 313.593L614.093 330.23C614.093 330.23 627.2 333.268 628.429 326.386L625.889 317.892Z" fill="#E4897B"/>
<path d="M597.033 317.458L604.119 330.974L614.093 330.23L611.451 313.593L597.033 317.458Z" fill="#E4897B"/>
<path d="M645.816 322.149L622.101 316.796L619.95 328.412L641.475 333.703L645.816 322.149Z" fill="#E4897B"/>
<path d="M717.558 311.65L716.165 313.324C713.175 316.858 705.925 325.394 698.368 332.752C692.224 338.745 686.08 343.974 681.984 345.028C670.372 348.046 628.163 335.501 628.163 335.501L632.525 318.222C632.525 318.222 671.846 323.493 674.898 323.493C677.212 323.493 701.133 288.523 706.929 285.65L717.558 311.65Z" fill="#3C6E71"/>
<path opacity="0.2" d="M716.165 313.324C713.175 316.858 705.925 325.394 698.368 332.752C699.884 320.64 704.287 309.521 710.083 302.494C710.623 301.816 711.242 301.205 711.926 300.675L716.165 313.324Z" fill="black"/>
<path d="M690.627 730.628L707.134 730.194C707.431 730.184 707.723 730.277 707.962 730.458C708.2 730.638 708.37 730.895 708.444 731.186L711.926 744.599C712.009 744.92 712.02 745.256 711.957 745.582C711.894 745.908 711.759 746.215 711.562 746.481C711.365 746.747 711.112 746.965 710.82 747.119C710.529 747.272 710.207 747.358 709.878 747.369C703.918 747.369 695.296 747.369 687.821 747.513C679.056 747.761 673.485 747.327 663.245 747.513C657.101 747.679 655.053 741.437 657.675 740.796C669.41 737.862 677.09 738.44 687.084 731.827C688.139 731.117 689.361 730.703 690.627 730.628Z" fill="#263238"/>
<path d="M689.193 732.777C686.776 733.315 682.476 734.038 680.755 732.612C680.505 732.403 680.307 732.136 680.179 731.834C680.05 731.532 679.995 731.204 680.018 730.876C680.017 730.679 680.068 730.486 680.165 730.315C680.262 730.144 680.402 730.003 680.571 729.904C682.394 728.809 688.558 731.765 689.275 732.095C689.338 732.129 689.39 732.18 689.426 732.242C689.462 732.304 689.481 732.375 689.48 732.447C689.476 732.526 689.446 732.603 689.394 732.663C689.342 732.723 689.271 732.763 689.193 732.777ZM681.001 730.483H680.878C680.81 730.523 680.753 730.58 680.714 730.649C680.674 730.718 680.653 730.796 680.653 730.876C680.636 731.09 680.67 731.304 680.752 731.502C680.834 731.7 680.961 731.875 681.124 732.013C682.086 732.819 684.585 732.901 687.903 732.24C685.507 731.227 682.168 730.049 681.042 730.483H681.001Z" fill="#3C6E71"/>
<path d="M689.193 732.777H688.947C687.084 731.992 683.356 728.809 683.561 727.094C683.561 726.68 683.889 726.164 684.872 726.04C685.233 725.992 685.6 726.017 685.951 726.113C686.302 726.208 686.632 726.373 686.92 726.598C688.968 728.148 689.439 732.219 689.48 732.385C689.486 732.447 689.476 732.511 689.451 732.569C689.425 732.627 689.386 732.677 689.336 732.715L689.193 732.777ZM684.606 726.846C684.298 726.949 684.278 727.114 684.278 727.176C684.155 728.21 686.695 730.731 688.599 731.806C688.379 730.07 687.619 728.449 686.428 727.176C686.226 727.005 685.99 726.879 685.736 726.808C685.481 726.737 685.215 726.721 684.954 726.763C684.834 726.774 684.717 726.801 684.606 726.846Z" fill="#3C6E71"/>
<path d="M774.636 730.628L791.143 730.194C791.443 730.183 791.738 730.276 791.98 730.456C792.221 730.636 792.395 730.893 792.474 731.186L795.935 744.599C796.022 744.921 796.036 745.258 795.974 745.585C795.913 745.913 795.779 746.222 795.581 746.489C795.384 746.756 795.128 746.974 794.835 747.126C794.541 747.279 794.217 747.362 793.887 747.369C787.927 747.369 779.305 747.369 771.809 747.513C763.064 747.761 757.473 747.327 747.233 747.513C741.089 747.679 739.042 741.437 741.663 740.796C753.398 737.862 761.057 738.44 771.052 731.827C772.118 731.11 773.356 730.696 774.636 730.628Z" fill="#263238"/>
<path d="M773.222 732.777C770.806 733.315 766.485 734.038 764.785 732.612C764.534 732.403 764.336 732.136 764.208 731.834C764.08 731.532 764.025 731.204 764.047 730.876C764.047 730.679 764.097 730.486 764.194 730.315C764.291 730.144 764.432 730.003 764.6 729.904C766.403 728.809 772.588 731.765 773.284 732.095C773.352 732.122 773.409 732.172 773.446 732.235C773.483 732.299 773.498 732.373 773.489 732.447C773.483 732.523 773.455 732.595 773.407 732.654C773.36 732.713 773.295 732.756 773.222 732.777ZM765.03 730.483H764.908C764.84 730.522 764.785 730.58 764.749 730.649C764.712 730.719 764.696 730.798 764.703 730.876C764.682 731.09 764.714 731.306 764.797 731.504C764.879 731.702 765.008 731.877 765.174 732.013C766.136 732.819 768.614 732.901 771.953 732.24C769.516 731.227 766.177 730.049 765.051 730.483H765.03Z" fill="#3C6E71"/>
<path d="M773.223 732.777H772.956C771.113 731.992 767.365 728.809 767.591 727.094C767.591 726.68 767.898 726.164 768.881 726.04C769.242 725.99 769.609 726.013 769.961 726.109C770.313 726.205 770.642 726.371 770.929 726.598C772.362 728.208 773.257 730.233 773.489 732.385C773.499 732.448 773.491 732.513 773.466 732.571C773.44 732.63 773.398 732.68 773.345 732.715L773.223 732.777ZM768.615 726.846C768.328 726.949 768.307 727.114 768.307 727.176C768.164 728.21 770.724 730.731 772.629 731.806C772.394 730.074 771.636 728.457 770.458 727.176C770.255 727.006 770.019 726.881 769.764 726.81C769.51 726.739 769.244 726.723 768.983 726.763L768.615 726.846Z" fill="#3C6E71"/>
<path d="M804.967 401.493C812.913 436.235 799.273 709.567 799.273 709.567H772.936L761.672 481.787L720.2 709.567L692.04 707.501C710.472 531.039 726.713 425.695 726.713 425.695V412.385L804.967 401.493Z" fill="#263238"/>
<path opacity="0.4" d="M692.04 707.501L720.2 709.567L752.845 530.253L761.672 481.787L772.936 709.567H799.273C799.273 709.567 812.913 436.235 804.967 401.493L726.672 412.385V425.695C726.672 425.695 710.451 531.039 692.04 707.501Z" fill="white"/>
<path d="M790.774 272.815C789.966 289.427 790.384 306.076 792.023 322.625C793.129 334.199 794.645 345.132 796.262 354.99C800.051 378.118 804.352 395.458 804.966 401.514L726.671 412.405C698.122 331.801 708.874 284.968 708.874 284.968C714.729 282.528 720.727 280.458 726.835 278.767C728.126 278.416 729.436 278.085 730.788 277.775C741.784 275.592 752.896 274.046 764.068 273.146C766.116 272.96 768.348 272.815 770.437 272.712C781.128 272.174 790.774 272.815 790.774 272.815Z" fill="#263238"/>
<path d="M748.872 236.543C749.445 247.6 750.613 268.351 759.726 273.621C759.726 273.621 754.053 284.513 741.786 285.629C732.508 286.456 733.123 277.217 733.123 277.217C738.488 273.187 737.219 266.346 733.123 258.616L748.872 236.543Z" fill="#E4897B"/>
<path opacity="0.2" d="M742.441 245.554L733.184 258.616C734.159 260.403 734.981 262.27 735.642 264.197C739.943 262.461 744.878 255.929 744.161 251.197C743.937 249.225 743.354 247.312 742.441 245.554Z" fill="black"/>
<path d="M708.936 214.284C707.154 220.03 708.137 231.81 716.063 227.987C723.989 224.163 712.008 204.425 708.936 214.284Z" fill="#263238"/>
<path d="M749.896 222.055C750.776 236.791 751.944 245.368 745.575 253.718C735.888 266.263 717.128 261.592 711.885 247.373C707.175 234.559 706.54 212.61 720.077 205.169C723.078 203.522 726.444 202.669 729.86 202.692C733.276 202.714 736.63 203.611 739.609 205.298C742.588 206.985 745.095 209.407 746.894 212.338C748.693 215.269 749.726 218.612 749.896 222.055Z" fill="#E4897B"/>
<path d="M739.656 214.036V197.502C739.656 197.502 757.023 196.2 756.245 205.169C765.87 209.985 761.324 225.093 748.401 232.492C741.315 226.767 742.134 213.002 742.134 213.002C741.376 213.395 740.516 213.726 739.656 214.036Z" fill="#263238"/>
<path d="M756.962 233.546C756.627 235.349 755.938 237.066 754.936 238.596C753.933 240.126 752.637 241.437 751.125 242.454C747.029 245.162 743.486 241.834 743.342 237.184C743.219 233.05 745.165 226.519 749.875 225.692C750.906 225.53 751.96 225.629 752.943 225.978C753.927 226.328 754.809 226.918 755.511 227.696C756.213 228.475 756.713 229.416 756.966 230.437C757.219 231.458 757.218 232.526 756.962 233.546Z" fill="#E4897B"/>
<path d="M728.331 228.627C728.474 229.826 727.962 230.859 727.184 230.942C726.405 231.025 725.668 230.136 725.525 228.875C725.381 227.615 725.893 226.643 726.651 226.561C727.409 226.478 728.187 227.346 728.331 228.627Z" fill="#263238"/>
<path d="M714.937 230.136C715.08 231.335 714.568 232.368 713.79 232.451C713.012 232.534 712.274 231.645 712.131 230.384C711.988 229.123 712.5 228.152 713.278 228.069C714.056 227.987 714.752 228.937 714.937 230.136Z" fill="#263238"/>
<path d="M719.258 230.239C718.223 233.935 716.686 237.468 714.691 240.739C715.574 241.197 716.543 241.461 717.535 241.515C718.527 241.568 719.519 241.409 720.446 241.049L719.258 230.239Z" fill="#DE5753"/>
<path d="M727.348 244.893C726.842 245.023 726.329 245.12 725.812 245.182C725.719 245.182 725.631 245.145 725.565 245.079C725.5 245.013 725.463 244.924 725.463 244.831C725.463 244.738 725.5 244.648 725.565 244.582C725.631 244.517 725.719 244.48 725.812 244.48C727.282 244.345 728.701 243.863 729.953 243.073C731.205 242.284 732.256 241.208 733.021 239.933C733.038 239.891 733.064 239.853 733.097 239.822C733.129 239.791 733.168 239.767 733.21 239.751C733.252 239.736 733.297 239.729 733.342 239.732C733.387 239.735 733.431 239.747 733.471 239.767C733.513 239.787 733.551 239.815 733.582 239.85C733.613 239.885 733.637 239.926 733.652 239.97C733.668 240.014 733.674 240.061 733.671 240.108C733.668 240.155 733.656 240.201 733.635 240.243C732.965 241.417 732.06 242.437 730.977 243.237C729.895 244.038 728.658 244.602 727.348 244.893Z" fill="#263238"/>
<path d="M731.935 223.812C731.811 223.841 731.682 223.837 731.56 223.801C731.438 223.765 731.327 223.697 731.239 223.605C730.645 222.949 729.909 222.442 729.088 222.122C728.267 221.803 727.384 221.681 726.508 221.766C726.417 221.787 726.324 221.789 726.233 221.772C726.141 221.754 726.055 221.719 725.978 221.666C725.901 221.614 725.836 221.546 725.786 221.467C725.736 221.388 725.703 221.3 725.689 221.208C725.671 221.117 725.671 221.023 725.689 220.932C725.707 220.841 725.743 220.755 725.794 220.678C725.846 220.601 725.912 220.535 725.989 220.484C726.065 220.433 726.151 220.398 726.241 220.381C727.347 220.248 728.468 220.383 729.512 220.775C730.555 221.167 731.491 221.804 732.242 222.634C732.309 222.697 732.362 222.774 732.399 222.86C732.435 222.945 732.454 223.037 732.454 223.13C732.454 223.223 732.435 223.314 732.399 223.4C732.362 223.485 732.309 223.562 732.242 223.626C732.155 223.71 732.05 223.773 731.935 223.812Z" fill="#263238"/>
<path d="M708.608 226.147C708.476 226.198 708.331 226.198 708.199 226.147C708.025 226.086 707.883 225.959 707.802 225.792C707.722 225.626 707.71 225.434 707.769 225.258C708.107 224.195 708.695 223.229 709.483 222.445C710.271 221.66 711.236 221.08 712.295 220.753C712.474 220.706 712.664 220.733 712.824 220.828C712.983 220.923 713.098 221.078 713.145 221.259C713.191 221.44 713.164 221.632 713.07 221.793C712.976 221.954 712.822 222.07 712.643 222.117C711.805 222.377 711.044 222.842 710.426 223.469C709.809 224.096 709.353 224.867 709.1 225.713C709.061 225.822 708.995 225.918 708.909 225.994C708.823 226.07 708.72 226.123 708.608 226.147Z" fill="#263238"/>
<path d="M747.356 220.154C747.356 220.154 737.116 216.371 732.447 210.378C732.447 210.378 723.149 212.837 721.244 216.578C720.375 215.827 719.813 214.778 719.665 213.633C719.518 212.488 719.796 211.328 720.446 210.378C720.446 210.378 713.482 211.866 712.11 216.578C710.978 216.034 710.049 215.139 709.46 214.023C708.87 212.907 708.65 211.629 708.833 210.378C708.833 210.378 705.741 211.556 704.737 216.578C704.737 216.578 697.057 200.416 722.432 195.786C720.512 195.129 718.5 194.787 716.472 194.773C716.472 194.773 734.188 187.56 748.216 194.153C762.245 200.746 759.808 213.519 747.356 220.154Z" fill="#263238"/>
<path d="M811.008 415.423L786.432 418.73C786.432 418.73 776.294 347.24 771.83 324.154V274.882L784.671 271.472L794.624 274.882C797.354 284.795 799.454 294.874 800.911 305.057C802.12 312.787 803.205 321.054 804.168 329.424C805.499 340.833 806.605 352.448 807.547 363.319C809.022 380.866 810.005 396.388 810.537 405.875C810.844 411.827 811.008 415.423 811.008 415.423Z" fill="#3C6E71"/>
<path d="M771.85 324.113C771.85 324.113 773.898 289.329 784.691 271.389C784.691 271.389 784.425 266.263 782.275 265.437C780.124 264.61 771.85 269.57 771.85 269.57C771.85 269.57 766.71 266.015 765.583 267.669C764.457 269.322 761.713 280.318 771.85 324.113Z" fill="#3C6E71"/>
<path opacity="0.7" d="M771.85 324.113C771.85 324.113 773.898 289.329 784.691 271.389C784.691 271.389 784.425 266.263 782.275 265.437C780.124 264.61 771.85 269.57 771.85 269.57C771.85 269.57 766.71 266.015 765.583 267.669C764.457 269.322 761.713 280.318 771.85 324.113Z" fill="white"/>
<path d="M715.981 424.951L718.787 427.018C718.787 427.018 714.691 403.973 716.37 345.69C716.37 342.879 716.554 340.172 716.657 337.588C718.705 288.275 726.323 279.305 726.897 278.767L719.811 281.206L706.97 285.671C703.099 327.73 715.981 424.951 715.981 424.951Z" fill="#3C6E71"/>
<path d="M717.087 329.094C717.087 329.094 710.001 295.281 712.11 283.624C714.22 271.968 721.777 277.155 721.777 277.155C721.777 277.155 728.72 271.492 730.788 277.734C730.788 277.734 721.245 284.513 717.087 329.094Z" fill="#3C6E71"/>
<path opacity="0.7" d="M717.087 329.094C717.087 329.094 710.001 295.281 712.11 283.624C714.22 271.968 721.777 277.155 721.777 277.155C721.777 277.155 728.72 271.492 730.788 277.734C730.788 277.734 721.245 284.513 717.087 329.094Z" fill="white"/>
<path opacity="0.2" d="M804.127 329.342C793.641 323.41 792.249 307.93 792.249 307.93C792.883 307.682 796.775 306.338 800.871 304.974C802.079 312.704 803.164 320.971 804.127 329.342Z" fill="black"/>
<path opacity="0.2" d="M752.845 530.253L761.672 481.787L759.972 456.139C759.972 456.139 747.868 500.616 752.845 530.253Z" fill="black"/>
<path opacity="0.2" d="M810.496 405.792C803.901 405.337 798.208 404.903 798.208 404.903L796.959 377.849C799.014 376.551 801.482 376.092 803.86 376.568C805.481 372.245 806.708 367.783 807.526 363.237C808.96 380.784 809.964 396.326 810.496 405.792Z" fill="black"/>
<path d="M812.749 363.216L799.908 384.029L810.066 389.919L822.129 371.173L812.749 363.216Z" fill="#E4897B"/>
<path d="M794.071 274.551C802.714 275.502 839.455 326.386 841.073 341.722C842.691 357.057 819.487 383.533 819.487 383.533L804.004 374.335C804.004 374.335 819.733 349.927 820.552 343.334C821.371 336.741 791.777 310.1 791.777 310.1C789.54 303.963 788.308 297.498 788.132 290.961C787.722 279.76 794.071 274.551 794.071 274.551Z" fill="#3C6E71"/>
<path d="M796.938 377.87C796.938 377.87 810.148 380.722 815.473 389.113C815.473 389.113 809.943 406.577 805.99 408.479C802.038 410.38 792.248 410.38 792.248 410.38C792.248 410.38 791.614 390.952 796.938 377.87Z" fill="#3C6E71"/>
</svg>
