<svg width="436" height="287" viewBox="0 0 436 287" fill="none" xmlns="http://www.w3.org/2000/svg">
<path d="M146.2 136.606H253.971V101.555L146.2 101.555V136.606Z" fill="#C7C7C7"/>
<path d="M253.971 101.562V136.613H421.961V133.193H418.34V104.982H421.961V101.562H253.971Z" fill="#A6A6A6"/>
<path d="M258.383 132.972L418.527 132.972V105.196L258.383 105.196V132.972Z" fill="white"/>
<path d="M258.377 132.972C298.297 132.858 378.621 132.717 418.528 132.67L418.226 132.972V105.196C393.93 106.155 323.458 105.075 298.451 105.39L258.41 105.296C258.524 104.699 258.41 133.099 258.41 132.972H258.377ZM258.377 132.972C258.377 132.878 258.283 105.189 258.283 105.102C258.283 105.015 298.391 105.015 298.418 105.001L418.528 104.86H418.863V105.196L418.83 132.972V133.273H418.528C378.614 133.233 298.284 133.092 258.377 132.972Z" fill="#DBDBDB"/>
<path d="M361.051 126.829C373.296 126.99 385.541 127.102 397.786 127.165L418.527 127.218V126.447L397.786 126.501C385.541 126.546 373.296 126.655 361.051 126.829Z" fill="#DBDBDB"/>
<path d="M258.376 120.264V120.975L285.113 121.049L323.867 120.948C336.112 120.89 348.357 120.781 360.602 120.62C348.357 120.459 336.112 120.349 323.867 120.291L285.113 120.19L258.376 120.264Z" fill="#DBDBDB"/>
<path d="M258.376 109.85V110.708L296.6 110.607C308.854 110.549 321.099 110.44 333.335 110.279C321.09 110.118 308.845 110.008 296.6 109.95L258.376 109.85Z" fill="#DBDBDB"/>
<path d="M258.376 126.902V127.613H268.643C280.888 127.56 293.136 127.45 305.385 127.285C293.131 127.133 280.884 127.023 268.643 126.956L258.376 126.902Z" fill="#DBDBDB"/>
<path d="M359.824 114.933C372.074 115.085 384.321 115.194 396.566 115.261L418.528 115.322V114.544L396.566 114.604C384.312 114.658 372.065 114.767 359.824 114.933Z" fill="#DBDBDB"/>
<path d="M407.872 117.783C399.445 117.738 391.011 117.705 382.57 117.683H355.887H329.888C321.452 117.683 313.019 117.716 304.587 117.783C313.023 117.828 321.457 117.861 329.888 117.884H355.887H382.57C391.006 117.861 399.44 117.828 407.872 117.783Z" fill="#DBDBDB"/>
<path d="M397.317 75.5088H289.546V101.561H397.317V75.5088Z" fill="#EBEBEB"/>
<path d="M289.539 101.561V75.5088H121.548V78.0503H125.17V99.0198H121.548V101.561H289.539Z" fill="#DBDBDB"/>
<path d="M285.133 78.2119H124.989V98.8595H285.133V78.2119Z" fill="white"/>
<path d="M285.133 78.2118C245.213 78.3325 164.889 78.4733 124.989 78.5203L125.297 78.2118V98.8594C123.178 97.9339 205.513 98.9197 205.037 98.6247C224.981 98.6247 265.176 98.7186 285.113 98.7856C284.999 99.2282 285.113 78.1246 285.113 78.2118H285.133ZM285.133 78.2118L285.207 98.8594V98.9331H285.133C265.156 99.0002 225.028 99.0874 205.057 99.0941L124.989 99.1947H124.653V98.8594V78.2118V77.9033H124.962C164.876 77.9503 245.206 78.0911 285.106 78.2118H285.133Z" fill="#DBDBDB"/>
<path d="M182.465 82.7776C170.22 82.6569 157.973 82.5742 145.723 82.5295L124.982 82.4893V83.0593L145.723 83.0257C157.955 82.9944 170.202 82.9117 182.465 82.7776Z" fill="#DBDBDB"/>
<path d="M285.133 87.6733V87.1435L258.403 87.0898L219.65 87.1636C207.405 87.2083 195.157 87.2888 182.908 87.405C195.153 87.5257 207.4 87.6084 219.65 87.6531L258.403 87.7269L285.133 87.6733Z" fill="#DBDBDB"/>
<path d="M285.133 95.3991V94.7285L246.909 94.8023C234.66 94.847 222.413 94.9297 210.167 95.0504C222.413 95.1622 234.66 95.2426 246.909 95.2918L285.133 95.3991Z" fill="#DBDBDB"/>
<path d="M285.133 82.7241V82.1943H274.866C262.621 82.2346 250.376 82.3173 238.131 82.4425C250.376 82.5587 262.621 82.6392 274.866 82.6839L285.133 82.7241Z" fill="#DBDBDB"/>
<path d="M183.692 91.6233C171.443 91.5115 159.193 91.4288 146.944 91.3752L124.982 91.335V91.9117L146.944 91.8647C159.198 91.8245 171.447 91.744 183.692 91.6233Z" fill="#DBDBDB"/>
<path d="M135.638 89.5044C144.074 89.5402 152.508 89.5648 160.939 89.5782H187.629H213.621C222.057 89.5782 230.491 89.5536 238.923 89.5044C230.491 89.4642 222.057 89.4396 213.621 89.4307H187.629H160.939C152.503 89.4441 144.069 89.4687 135.638 89.5044Z" fill="#DBDBDB"/>
<path d="M188.816 23.0752H39.2734V136.613H188.816V23.0752Z" fill="#EBEBEB"/>
<path d="M245.649 23.0752H188.816V136.613H245.649V23.0752Z" fill="#DBDBDB"/>
<path d="M39.2734 79.4043H188.816L72.0319 82.3482L39.2734 79.4043Z" fill="#DBDBDB"/>
<path d="M188.816 122.793H39.2734L156.064 125.737L188.816 122.793Z" fill="#DBDBDB"/>
<path d="M39.2734 47.4238H134.002L49.795 49.8245L39.2734 47.4238Z" fill="#DBDBDB"/>
<path d="M188.816 105.947H94.0942L178.294 108.348L188.816 105.947Z" fill="#DBDBDB"/>
<path d="M201.369 30.1367H106.648L190.854 32.5442L201.369 30.1367Z" fill="#DBDBDB"/>
<path d="M104.12 37.3311H210.959L193.148 38.7728L104.12 37.3311Z" fill="#DBDBDB"/>
<path d="M53.812 91.6699H160.651L142.84 93.1117L53.812 91.6699Z" fill="#DBDBDB"/>
<path d="M119.51 58.3145H188.816L201.201 62.1637L119.51 58.3145Z" fill="#EBEBEB"/>
<path d="M136.214 96.6787H205.52L217.899 100.528L136.214 96.6787Z" fill="#EBEBEB"/>
<path d="M120.972 113.585H190.278L202.663 117.434L120.972 113.585Z" fill="#EBEBEB"/>
<path d="M20.1816 58.3145H89.4875L101.867 62.1637L20.1816 58.3145Z" fill="#DBDBDB"/>
<path d="M109.109 36.1318H39.8097L27.4238 39.9743L109.109 36.1318Z" fill="#EBEBEB"/>
<path d="M112.858 104.022H43.5519L31.166 107.872L112.858 104.022Z" fill="#EBEBEB"/>
<path d="M109.109 109.742H39.8097L27.4238 113.585L109.109 109.742Z" fill="#DBDBDB"/>
<path d="M188.816 96.6787H244.468L256.854 100.528L188.816 96.6787Z" fill="#DBDBDB"/>
<path d="M208.243 79.4049H251.402L245.648 76.2598L208.243 79.4049Z" fill="#DBDBDB"/>
<path d="M6.79004 136.628C144.074 136.219 298.069 136.212 435.353 136.628C298.069 137.043 144.074 137.037 6.79004 136.628Z" fill="#263238"/>
<path d="M283.068 231.562L349.665 215.192L434.281 226.981L364.807 244.564L283.068 231.562Z" fill="#DBDBDB"/>
<path d="M283.068 231.562L349.645 215.119C349.645 215.119 434.321 226.828 434.321 226.821L435.172 226.935L434.321 227.156L364.807 244.659C364.807 244.659 283.095 231.555 283.068 231.562ZM283.068 231.562C283.068 231.562 364.934 244.484 364.787 244.478L434.24 226.821V227.15C434.24 227.15 349.558 215.26 349.685 215.267L283.068 231.562Z" fill="#DBDBDB"/>
<path d="M362.158 240.004C366.256 238.744 370.48 237.57 374.718 236.41C378.957 235.25 383.262 234.137 387.58 233.057C391.899 231.977 396.298 230.884 400.711 229.858L407.363 228.323C409.63 227.84 411.849 227.33 414.143 226.874C412.131 227.511 409.998 228.095 407.926 228.711L401.589 230.462C397.364 231.635 393.046 232.742 388.727 233.815C384.408 234.888 380.009 235.987 375.597 237.013C371.184 238.039 366.732 239.065 362.158 240.004Z" fill="#C7C7C7"/>
<path d="M373.162 233.345C377.856 231.736 382.926 230.355 388.063 229.04C393.199 227.726 398.497 226.485 404.144 225.52C399.449 227.136 394.386 228.51 389.243 229.825C384.1 231.139 378.775 232.353 373.162 233.345Z" fill="#C7C7C7"/>
<path d="M342.094 237.343C346.191 236.082 350.416 234.909 354.654 233.749C358.892 232.589 363.197 231.475 367.516 230.396C371.835 229.316 376.234 228.223 380.639 227.197L387.298 225.668C389.558 225.185 391.785 224.676 394.078 224.213C392.066 224.85 389.934 225.44 387.862 226.05L381.525 227.807C377.293 228.974 372.981 230.081 368.663 231.16C364.344 232.24 359.945 233.333 355.532 234.359C351.12 235.385 346.667 236.404 342.094 237.343Z" fill="#C7C7C7"/>
<path d="M339.532 234.117C346.5 231.931 353.816 229.987 361.219 228.082C368.623 226.178 376.173 224.407 384.019 222.845C377.052 225.031 369.736 226.976 362.339 228.88C354.942 230.785 347.405 232.555 339.532 234.117Z" fill="#C7C7C7"/>
<path d="M348.236 228.048C352.079 226.653 356.283 225.493 360.555 224.394C364.827 223.294 369.273 222.301 374.014 221.523C370.171 222.925 365.967 224.078 361.702 225.178C357.437 226.278 352.984 227.27 348.236 228.048Z" fill="#C7C7C7"/>
<path d="M7.86328 162.819L100.271 145.33L189.44 171.383L97.4948 189.502L7.86328 162.819Z" fill="#EBEBEB"/>
<path d="M7.86329 162.819L100.278 145.243C100.278 145.243 189.467 171.229 189.467 171.222L190.137 171.416L189.467 171.551L97.4948 189.603C97.4613 189.603 7.89011 162.84 7.86329 162.84V162.819ZM7.86329 162.819L97.5217 189.415C97.3004 189.462 189.467 171.202 189.393 171.222V171.544L100.251 145.391C100.425 145.35 7.83646 162.826 7.86329 162.826V162.819Z" fill="#DBDBDB"/>
<path d="M96.2007 184.191C102.236 182.796 108.318 181.509 114.427 180.214C120.537 178.92 126.693 177.686 132.855 176.466C139.018 175.245 145.214 174.052 151.451 172.918L160.806 171.215C163.951 170.678 167.069 170.115 170.241 169.605C167.237 170.31 164.206 170.947 161.161 171.617L152.001 173.582C145.898 174.883 139.736 176.11 133.58 177.331C127.424 178.551 121.221 179.745 114.984 180.878C108.747 182.011 102.518 183.158 96.2007 184.191Z" fill="#DBDBDB"/>
<path d="M119.886 174.917C126.471 173.22 133.298 171.785 140.144 170.417C146.991 169.049 153.965 167.802 161.127 166.789C154.542 168.486 147.715 169.921 140.869 171.289C134.022 172.657 127.048 173.904 119.886 174.917Z" fill="#DBDBDB"/>
<path d="M87.0874 176.768C92.3516 175.52 97.6895 174.374 103.041 173.234C108.392 172.094 113.77 171.014 119.189 169.934C124.607 168.855 130.032 167.822 135.511 166.836L143.726 165.361C146.495 164.898 149.231 164.409 152.021 163.973C149.399 164.603 146.73 165.18 144.081 165.783L136.068 167.507C130.703 168.653 125.338 169.726 119.92 170.806C114.501 171.886 109.083 172.912 103.604 173.904C98.1254 174.897 92.6533 175.882 87.0874 176.768Z" fill="#DBDBDB"/>
<path d="M82.7886 173.005C87.6504 171.838 92.5859 170.765 97.5416 169.706C102.497 168.646 107.487 167.64 112.489 166.648C117.492 165.655 122.548 164.69 127.604 163.784L135.216 162.443C137.784 162.021 140.326 161.571 142.914 161.176C140.493 161.773 138.019 162.302 135.578 162.872L128.161 164.475C123.219 165.541 118.216 166.541 113.213 167.533C108.211 168.525 103.155 169.484 98.0982 170.396C93.042 171.308 87.9521 172.167 82.7886 173.005Z" fill="#DBDBDB"/>
<path d="M59.7671 172.932C65.8024 171.537 71.8847 170.25 77.9938 168.949C84.1029 167.648 90.259 166.427 96.4217 165.2C102.584 163.973 108.781 162.793 115.011 161.653L124.399 159.949C127.544 159.419 130.662 158.849 133.834 158.34C130.83 159.051 127.799 159.681 124.754 160.352L115.601 162.296C109.498 163.591 103.336 164.818 97.1795 166.045C91.0235 167.272 84.8205 168.452 78.5839 169.592C72.3474 170.732 66.0841 171.893 59.7671 172.932Z" fill="#DBDBDB"/>
<path d="M59.0029 168.472C64.3274 167.212 69.7324 166.051 75.1441 164.898C80.5558 163.745 86.0211 162.652 91.4865 161.545C96.9518 160.439 102.451 159.406 107.99 158.407L116.305 156.911C119.102 156.442 121.878 155.946 124.694 155.51C122.012 156.147 119.33 156.724 116.647 157.34L108.54 159.077C103.135 160.237 97.6694 161.324 92.204 162.43C86.7387 163.537 81.2331 164.569 75.694 165.569C70.1549 166.568 64.6292 167.574 59.0029 168.472Z" fill="#DBDBDB"/>
<path d="M41.5474 167.298C47.5827 165.903 53.665 164.616 59.7808 163.322C65.8966 162.027 72.046 160.767 78.2355 159.573C84.4251 158.379 90.5946 157.159 96.8311 156.026L106.186 154.322C109.331 153.786 112.456 153.223 115.621 152.713C112.617 153.417 109.586 154.054 106.548 154.725L97.3944 156.676C91.292 157.97 85.1292 159.198 78.9665 160.418C72.8037 161.639 66.6074 162.832 60.3709 163.965C54.1344 165.099 47.8711 166.266 41.5474 167.298Z" fill="#DBDBDB"/>
<path d="M62.7178 158.52C69.7255 156.737 76.9545 155.221 84.2371 153.773C91.5198 152.324 98.8963 150.99 106.481 149.896C99.473 151.68 92.2507 153.189 84.9614 154.644C77.672 156.099 70.3022 157.414 62.7178 158.52Z" fill="#DBDBDB"/>
<path d="M143.27 252.102L260.704 229.879L374.007 262.986L257.17 286.008L143.27 252.102Z" fill="#EBEBEB"/>
<path d="M143.283 252.103L260.704 229.792C260.704 229.792 374.034 262.832 374.034 262.825L374.705 263.02L374.034 263.154L257.17 286.095C257.136 286.102 143.283 252.103 143.283 252.103ZM143.283 252.103L257.21 285.927C257.002 285.927 374.041 262.812 373.987 262.825V263.147L260.677 229.96C260.851 229.906 143.243 252.136 143.27 252.089L143.283 252.103Z" fill="#DBDBDB"/>
<path d="M255.52 279.262C263.171 277.491 270.944 275.835 278.689 274.205C286.434 272.576 294.274 271 302.099 269.444C309.925 267.889 317.805 266.38 325.731 264.931L337.621 262.772C341.644 262.101 345.581 261.37 349.611 260.727C345.795 261.625 341.919 262.45 338.077 263.315L326.442 265.783C318.69 267.433 310.857 268.988 303.032 270.544C295.206 272.1 287.326 273.609 279.4 275.05C271.473 276.492 263.554 277.947 255.52 279.262Z" fill="#DBDBDB"/>
<path d="M285.623 267.473C293.992 265.32 302.643 263.496 311.36 261.759C320.078 260.022 328.93 258.406 338.037 257.146C329.668 259.305 321.01 261.129 312.293 262.866C303.575 264.603 294.723 266.185 285.623 267.473Z" fill="#DBDBDB"/>
<path d="M243.946 269.825C250.652 268.243 257.418 266.781 264.218 265.339C271.018 263.897 277.878 262.516 284.738 261.148C291.598 259.78 298.512 258.466 305.473 257.205L315.921 255.327C319.435 254.744 322.915 254.12 326.462 253.57C323.109 254.375 319.756 255.106 316.403 255.87L306.224 258.057C299.431 259.512 292.564 260.88 285.704 262.248C278.844 263.616 271.923 264.93 264.962 266.184C258.001 267.438 251.014 268.732 243.946 269.825Z" fill="#DBDBDB"/>
<path d="M238.507 265.044C244.683 263.562 250.96 262.201 257.284 260.86C263.608 259.518 269.918 258.231 276.275 256.963C282.632 255.696 289.016 254.482 295.481 253.329L305.164 251.599C308.423 251.069 311.649 250.492 314.942 249.989C311.864 250.747 308.725 251.424 305.614 252.142L296.192 254.154C289.915 255.495 283.558 256.776 277.201 258.043C270.843 259.311 264.459 260.524 257.995 261.678C251.53 262.831 245.039 264.038 238.507 265.044Z" fill="#DBDBDB"/>
<path d="M209.223 264.951C216.874 263.181 224.646 261.524 232.392 259.895C240.137 258.265 247.976 256.689 255.802 255.134C263.628 253.578 271.507 252.069 279.414 250.627L291.303 248.468C295.327 247.797 299.263 247.066 303.294 246.456C299.478 247.355 295.602 248.179 291.759 249.045L280.125 251.512C272.372 253.162 264.54 254.718 256.714 256.274C248.888 257.829 241.009 259.338 233.082 260.78C225.156 262.222 217.256 263.637 209.223 264.951Z" fill="#DBDBDB"/>
<path d="M208.257 259.284C215.023 257.688 221.89 256.206 228.77 254.751C235.651 253.296 242.585 251.894 249.559 250.506C256.533 249.118 263.494 247.79 270.535 246.523L281.07 244.591C284.631 244.001 288.151 243.371 291.739 242.808C288.386 243.619 284.932 244.357 281.526 245.135L271.226 247.348C264.352 248.816 257.405 250.204 250.437 251.586C243.47 252.967 236.502 254.268 229.461 255.569C222.42 256.87 215.405 258.144 208.257 259.284Z" fill="#DBDBDB"/>
<path d="M186.074 257.796C193.725 256.026 201.497 254.369 209.243 252.74C216.988 251.11 224.827 249.534 232.653 247.978C240.479 246.423 248.358 244.914 256.285 243.465L268.175 241.306C272.198 240.635 276.134 239.905 280.158 239.261C276.349 240.159 272.473 240.984 268.631 241.849L256.996 244.317C249.244 245.967 241.411 247.522 233.585 249.078C225.759 250.634 217.88 252.143 209.954 253.585C202.027 255.026 194.107 256.482 186.074 257.796Z" fill="#DBDBDB"/>
<path d="M212.978 246.637C221.883 244.377 231.084 242.453 240.318 240.602C249.552 238.751 258.953 237.061 268.59 235.673C259.684 237.939 250.484 239.864 241.243 241.708C232.002 243.552 222.614 245.262 212.978 246.637Z" fill="#DBDBDB"/>
<path d="M430.23 195.779L212.81 255.85V212.55L430.23 152.479C441.751 173.723 430.23 195.779 430.23 195.779Z" fill="#37474F"/>
<path d="M0.647461 225.815L212.81 255.851V244.873L20.0477 221.295L0.647461 222.462V225.815Z" fill="#455A64"/>
<path d="M212.817 212.751C220.743 231.83 212.817 255.85 212.817 255.85L10.8809 223.957V186.531L212.817 212.751Z" fill="#455A64"/>
<path d="M207.821 212.107C215.539 231.112 208.458 251.579 208.458 251.579L10.8809 223.803V186.518L207.821 212.107Z" fill="white"/>
<path d="M207.821 212.108C208.082 212.845 208.84 214.924 209.101 215.655C210.67 220.876 211.466 226.298 211.462 231.749C211.491 238.474 210.513 245.165 208.558 251.599C208.652 251.894 10.9008 224.031 10.8338 224.105L10.5454 224.064V223.803V186.518V186.176L10.8807 186.223L109.391 199.118L207.78 212.094L207.821 212.108ZM207.821 212.108C159.377 205.596 58.0033 193.579 11.1758 186.531L11.2093 223.816L10.9209 223.481C10.9209 223.555 208.907 251.371 208.344 251.545C209.345 248.352 210.094 245.085 210.583 241.775C212.079 231.87 211.502 221.476 207.814 212.108H207.821Z" fill="#DBDBDB"/>
<path d="M106.48 202.68C139.447 206.703 176.37 211.666 209.222 216.541C176.256 212.517 139.333 207.548 106.48 202.68Z" fill="#DBDBDB"/>
<path d="M10.8809 200.172C39.1397 203.525 70.4899 207.776 98.6482 212.008C70.3692 208.655 39.0324 204.417 10.8809 200.172Z" fill="#DBDBDB"/>
<path d="M15.5884 203.854C63.6096 209.889 117.411 217.145 165.305 224.045C117.291 218.01 63.4889 210.754 15.5884 203.854Z" fill="#DBDBDB"/>
<path d="M41.5469 216.521C91.3586 222.683 147.172 230.087 196.863 237.114C147.058 230.958 91.2446 223.548 41.5469 216.521Z" fill="#DBDBDB"/>
<path d="M75.0298 224.406C118.471 229.838 167.189 236.396 210.53 242.687C167.069 237.268 118.377 230.696 75.0298 224.406Z" fill="#DBDBDB"/>
<path d="M35.9878 224.333C91.6471 231.428 154.012 239.837 209.531 247.743C153.871 240.655 91.5062 232.239 35.9878 224.333Z" fill="#DBDBDB"/>
<path d="M212.817 212.752L430.23 152.479L210.53 142.527L0.647461 181.449V185.204L212.817 212.752Z" fill="#455A64"/>
<path d="M218.389 206.127C245.36 197.952 273.063 190.569 300.738 184.191C273.773 192.373 246.071 199.742 218.389 206.127Z" fill="#37474F"/>
<path d="M166.23 202.29C173.741 202.679 181.5 203.551 188.957 204.456C196.414 205.361 204.112 206.468 211.422 207.977C203.911 207.594 196.152 206.716 188.702 205.811C181.252 204.905 173.547 203.765 166.23 202.29Z" fill="#37474F"/>
<path d="M6.48145 182.18C57.5471 187.665 109.022 194.136 159.746 201.466C108.64 195.994 57.1716 189.509 6.48145 182.18Z" fill="#37474F"/>
<path d="M360.555 176.902C381.772 170.236 403.247 164.163 424.979 158.682C403.77 165.347 382.295 171.421 360.555 176.902Z" fill="#455A64"/>
<path d="M247.822 143.875C245.005 144.425 233.377 145.048 233.143 142.534C232.781 138.752 260.59 111.928 270.568 106.885C280.057 102.084 310.63 91.6089 318.181 91.3809L318.248 115.469C313.976 116.555 279.943 113.236 272.795 117.031C269.69 118.681 265.579 125.521 257.21 136.384C254.266 140.213 249.485 143.546 247.822 143.875Z" fill="#3C6E71"/>
<g opacity="0.3">
<path d="M247.822 143.875C245.005 144.425 233.377 145.048 233.143 142.534C232.781 138.752 260.59 111.928 270.568 106.885C280.057 102.084 310.63 91.6089 318.181 91.3809L318.248 115.469C313.976 116.555 279.943 113.236 272.795 117.031C269.69 118.681 265.579 125.521 257.21 136.384C254.266 140.213 249.485 143.546 247.822 143.875Z" fill="black"/>
</g>
<path d="M242.048 143.875C239.225 144.425 228.415 145.048 228.173 142.534C227.818 138.752 255.627 111.928 265.599 106.885C275.088 102.084 310.629 91.6089 318.18 91.3809L318.247 115.469C313.976 116.555 274.981 113.236 267.832 117.031C264.727 118.681 259.785 125.521 251.429 136.384C248.492 140.213 243.711 143.546 242.048 143.875Z" fill="#3C6E71"/>
<g opacity="0.2">
<path d="M242.048 143.875C239.225 144.425 228.415 145.048 228.173 142.534C227.818 138.752 255.627 111.928 265.599 106.885C275.088 102.084 310.629 91.6089 318.18 91.3809L318.247 115.469C313.976 116.555 274.981 113.236 267.832 117.031C264.727 118.681 259.785 125.521 251.429 136.384C248.492 140.213 243.711 143.546 242.048 143.875Z" fill="black"/>
</g>
<path d="M351.697 175.835C354.124 176.854 363.674 177.371 365.31 175.312C367.778 172.194 337.668 129.765 319.978 122.067C303.434 114.925 70.0341 69.5929 65.2193 68.8418L65.0449 87.6721C97.562 92.7552 303.89 125.628 316.652 131.187C324.974 134.801 335.576 153.873 343.194 167.05C346.272 172.402 348.88 174.655 351.697 175.835Z" fill="#3C6E71"/>
<g opacity="0.2">
<path d="M351.697 175.835C354.124 176.854 363.674 177.371 365.31 175.312C367.778 172.194 337.668 129.765 319.978 122.067C303.434 114.925 70.0341 69.5929 65.2193 68.8418L65.0449 87.6721C97.562 92.7552 303.89 125.628 316.652 131.187C324.974 134.801 335.576 153.873 343.194 167.05C346.272 172.402 348.88 174.655 351.697 175.835Z" fill="black"/>
</g>
<path d="M347.667 175.835C350.094 176.854 359.643 177.371 361.28 175.312C363.747 172.194 333.859 128.739 316.176 121.041C299.625 113.899 70.0341 69.566 65.2193 68.8418L61.0146 87.6721C93.5317 92.7552 299.86 125.628 312.621 131.187C320.943 134.801 331.546 153.873 339.163 167.05C342.241 172.402 344.85 174.655 347.667 175.835Z" fill="#3C6E71"/>
<g opacity="0.1">
<path d="M347.667 175.835C350.094 176.854 359.643 177.371 361.28 175.312C363.747 172.194 333.859 128.739 316.176 121.041C299.625 113.899 70.0341 69.566 65.2193 68.8418L61.0146 87.6721C93.5317 92.7552 299.86 125.628 312.621 131.187C320.943 134.801 331.546 153.873 339.163 167.05C342.241 172.402 344.85 174.655 347.667 175.835Z" fill="black"/>
</g>
<g opacity="0.1">
<path d="M110.424 77.5327L92.7603 92.7216C78.0676 90.3746 66.7949 88.5975 61.0278 87.6922L65.2258 68.8418C66.5334 69.043 84.5523 72.4965 110.424 77.5327Z" fill="black"/>
<path d="M155.595 102.888L144.624 101.084L134.431 82.2266L150.586 85.4186L155.595 102.888Z" fill="black"/>
<path d="M217.383 98.8446L204.977 111.07L193.959 109.219L202.771 95.8672C207.666 96.8552 212.537 97.8477 217.383 98.8446Z" fill="black"/>
<path d="M314.66 120.485L310.388 130.47C308.336 129.893 305.245 129.169 301.268 128.33L298.19 116.159C305.929 117.983 311.642 119.465 314.66 120.485Z" fill="black"/>
</g>
<path d="M109.579 185.7C85.263 184.527 66.7613 156.985 68.3305 124.314C69.0748 108.723 74.2317 94.2245 82.8421 83.4883C91.7409 72.3966 103.228 66.5759 115.299 67.1861C127.37 67.7964 138.247 74.6364 146.032 86.5395C153.576 98.0334 157.318 112.968 156.56 128.572C155.072 159.487 136.121 184.097 113.475 185.66C112.178 185.747 110.877 185.761 109.579 185.7ZM89.0317 88.4641C81.4607 97.8859 76.8939 110.761 76.2233 124.703C74.8822 153.002 89.9906 176.815 109.947 177.774C129.904 178.733 147.253 156.489 148.627 128.15C149.298 114.208 146.005 100.964 139.387 90.8447C133.009 81.1278 124.312 75.5283 114.896 75.079C113.894 75.0186 112.888 75.0186 111.886 75.079C103.543 75.7161 95.523 80.3633 89.0317 88.4507V88.4641ZM68.364 128.465C67.1368 104.565 69.8125 100.823 68.7261 93.7752C68.2098 90.4222 63.4888 87.2034 63.4888 87.2034L67.6129 70.0429C67.6129 70.0429 80.4682 71.2969 83.4322 71.3438C88.7031 71.4176 100.083 67.5684 109.994 67.3202C109.994 67.3202 88.4483 77.0036 81.521 89.3492C74.5938 101.695 68.364 128.452 68.364 128.452V128.465Z" fill="#3C6E71"/>
<path opacity="0.1" d="M109.579 185.7C85.263 184.527 66.7613 156.985 68.3305 124.314C69.0748 108.723 74.2317 94.2245 82.8421 83.4883C91.7409 72.3966 103.228 66.5759 115.299 67.1861C127.37 67.7964 138.247 74.6364 146.032 86.5395C153.576 98.0334 157.318 112.968 156.56 128.572C155.072 159.487 136.121 184.097 113.475 185.66C112.178 185.747 110.877 185.761 109.579 185.7ZM89.0317 88.4641C81.4607 97.8859 76.8939 110.761 76.2233 124.703C74.8822 153.002 89.9906 176.815 109.947 177.774C129.904 178.733 147.253 156.489 148.627 128.15C149.298 114.208 146.005 100.964 139.387 90.8447C133.009 81.1278 124.312 75.5283 114.896 75.079C113.894 75.0186 112.888 75.0186 111.886 75.079C103.543 75.7161 95.523 80.3633 89.0317 88.4507V88.4641ZM68.364 128.465C67.1368 104.565 69.8125 100.823 68.7261 93.7752C68.2098 90.4222 63.4888 87.2034 63.4888 87.2034L67.6129 70.0429C67.6129 70.0429 80.4682 71.2969 83.4322 71.3438C88.7031 71.4176 100.083 67.5684 109.994 67.3202C109.994 67.3202 88.4483 77.0036 81.521 89.3492C74.5938 101.695 68.364 128.452 68.364 128.452V128.465Z" fill="black"/>
<path d="M106.273 185.7C81.9504 184.527 63.4488 156.985 65.0179 124.314C65.7623 108.723 70.9192 94.2245 79.5296 83.4883C88.4284 72.3966 99.9156 66.5759 111.986 67.1861C124.057 67.7964 134.934 74.6364 142.72 86.5395C150.264 98.0334 154.006 112.968 153.248 128.572C151.759 159.487 132.808 184.097 110.162 185.66C108.868 185.747 107.569 185.76 106.273 185.7ZM85.7192 88.4641C78.1482 97.8993 73.6083 110.775 72.9377 124.716C71.5965 153.015 86.6982 176.828 106.655 177.787C126.612 178.746 143.96 156.502 145.335 128.163C146.006 114.222 142.713 100.977 136.094 90.8581C129.724 81.1412 121.019 75.5417 111.604 75.0924C110.601 75.032 109.596 75.032 108.593 75.0924C100.238 75.7161 92.2105 80.3633 85.7192 88.4507V88.4641ZM65.0515 128.465C63.8243 104.565 66.5 100.823 65.4136 93.7752C64.8972 90.4222 60.1763 87.2034 60.1763 87.2034L64.4882 68.078C64.4882 68.078 77.558 70.3916 80.5154 70.4318C85.7862 70.5123 96.7706 67.5684 106.669 67.3471C106.669 67.3471 85.1223 77.0304 78.1951 89.3761C71.2679 101.722 65.0515 128.452 65.0515 128.452V128.465Z" fill="#3C6E71"/>
<path d="M77.3767 76.8289C77.2225 78.0159 75.0163 78.6999 72.4479 78.3579C69.8795 78.0159 67.9348 76.7753 68.0957 75.5951C68.2567 74.4148 70.4562 73.7241 73.0246 74.0661C75.593 74.4081 77.5645 75.642 77.3767 76.8289Z" fill="#A6A6A6"/>
<path d="M69.2227 75.6357C69.4305 75.0657 71.6636 74.4219 74.1046 75.0791L69.2227 75.6357Z" fill="white"/>
<path d="M63.4822 87.3574C68.1227 89.9593 70.1076 93.7951 69.5846 99.1062C69.0682 108.32 68.0288 117.447 68.0154 126.661C67.9521 131.259 68.248 135.856 68.9006 140.408C65.9298 129.182 66.815 117.346 67.8611 105.913L68.5317 99.0459C69.256 93.9091 67.6331 90.3952 63.4688 87.3574H63.4822Z" fill="white"/>
<path d="M87.7178 71.5379C94.1555 69.7005 100.841 68.185 107.574 68.4867C100.868 69.0836 94.3566 70.5857 87.7178 71.5379Z" fill="white"/>
<path opacity="0.1" d="M87.7109 88.9403C80.3947 98.3287 76.009 111.124 75.3518 124.991C74.0442 153.156 88.6631 176.815 107.949 177.774C127.236 178.733 144.007 156.603 145.335 128.452C146.006 114.591 142.807 101.413 136.409 91.3545C130.247 81.6845 121.837 76.1186 112.731 75.6693C111.762 75.6089 110.79 75.6089 109.82 75.6693C101.74 76.2728 93.9876 80.8865 87.7109 88.9403Z" fill="#EBEBEB"/>
<g opacity="0.2">
<path d="M124.721 79.4501L75.2979 130.301C75.251 128.544 75.2979 126.781 75.3583 124.983C75.5921 119.737 76.3971 114.531 77.759 109.459L110.618 75.668C111.289 75.668 112.033 75.668 112.744 75.668C116.989 75.9097 121.107 77.2099 124.721 79.4501Z" fill="white"/>
<path d="M141.941 103.095L84.3843 162.315C83.3258 160.674 82.3673 158.969 81.5142 157.212L139.661 97.3818C140.529 99.2416 141.29 101.149 141.941 103.095Z" fill="white"/>
<path d="M144.181 138.476C143.478 142.296 142.451 146.049 141.11 149.695L114.32 177.256C112.228 177.707 110.086 177.881 107.949 177.772C107.345 177.739 106.742 177.692 106.145 177.611L144.181 138.476Z" fill="white"/>
<path d="M144.289 112.209L89.4005 168.679C89.1389 168.424 88.8908 168.156 88.6494 167.881L144.034 110.881C144.134 111.323 144.208 111.773 144.289 112.209Z" fill="white"/>
</g>
<path d="M185.343 130.034L190.707 124.206C182.084 116.226 161.785 105.081 146.576 119.867L152.101 125.554C165.728 112.283 184.545 129.309 185.343 130.034Z" fill="#3C6E71"/>
<path d="M236.67 192.956C221.189 190.114 207.468 181.243 198.522 168.293C189.576 155.342 186.136 139.37 188.957 123.885C191.07 112.338 196.56 101.677 204.732 93.2498C212.903 84.8227 223.391 79.0079 234.867 76.5407C246.343 74.0734 258.294 75.0647 269.207 79.3889C280.12 83.7132 289.506 91.1763 296.178 100.835C302.849 110.493 306.507 121.913 306.689 133.65C306.871 145.387 303.568 156.915 297.199 166.775C290.829 176.635 281.679 184.386 270.905 189.046C260.131 193.706 248.217 195.067 236.67 192.956ZM196.763 125.333C194.853 135.857 196.277 146.715 200.837 156.391C205.397 166.066 212.865 174.075 222.198 179.3C231.531 184.525 242.263 186.705 252.894 185.535C263.526 184.365 273.527 179.904 281.5 172.774C289.474 165.644 295.021 156.203 297.368 145.767C299.715 135.332 298.744 124.424 294.59 114.567C290.437 104.711 283.309 96.3971 274.202 90.7879C265.095 85.1788 254.463 82.5541 243.792 83.2805C232.397 84.0769 221.592 88.6415 213.077 96.2551C204.563 103.869 198.823 114.099 196.763 125.333Z" fill="#3C6E71"/>
<path d="M300.202 109.212C296.118 95.6524 272.332 80.7451 272.332 80.7451C281.962 83.1123 292.584 87.9272 297.748 89.0001C300.644 89.5969 318.214 91.3941 318.214 91.3941L318.281 115.482C318.281 115.482 313.453 115.75 312.246 118.909C309.657 125.554 310.965 127.164 304.581 150.219C304.521 150.219 304.225 122.765 300.202 109.212Z" fill="#3C6E71"/>
<g opacity="0.1">
<path d="M236.67 192.956C221.189 190.114 207.468 181.243 198.522 168.293C189.576 155.342 186.136 139.37 188.957 123.885C191.07 112.338 196.56 101.677 204.732 93.2498C212.903 84.8227 223.391 79.0079 234.867 76.5407C246.343 74.0734 258.294 75.0647 269.207 79.3889C280.12 83.7132 289.506 91.1763 296.178 100.835C302.849 110.493 306.507 121.913 306.689 133.65C306.871 145.387 303.568 156.915 297.199 166.775C290.829 176.635 281.679 184.386 270.905 189.046C260.131 193.706 248.217 195.067 236.67 192.956ZM196.763 125.333C194.853 135.857 196.277 146.715 200.837 156.391C205.397 166.066 212.865 174.075 222.198 179.3C231.531 184.525 242.263 186.705 252.894 185.535C263.526 184.365 273.527 179.904 281.5 172.774C289.474 165.644 295.021 156.203 297.368 145.767C299.715 135.332 298.744 124.424 294.59 114.567C290.437 104.711 283.309 96.3971 274.202 90.7879C265.095 85.1788 254.463 82.5541 243.792 83.2805C232.397 84.0769 221.592 88.6415 213.077 96.2551C204.563 103.869 198.823 114.099 196.763 125.333Z" fill="black"/>
<path d="M300.202 109.212C296.118 95.6524 272.332 80.7451 272.332 80.7451C281.962 83.1123 292.584 87.9272 297.748 89.0001C300.644 89.5969 318.214 91.3941 318.214 91.3941L318.281 115.482C318.281 115.482 313.453 115.75 312.246 118.909C309.657 125.554 310.965 127.164 304.581 150.219C304.521 150.219 304.225 122.765 300.202 109.212Z" fill="black"/>
</g>
<path d="M231.392 192.091C215.923 189.248 202.213 180.386 193.269 167.449C184.325 154.512 180.876 138.556 183.68 123.08C185.779 111.52 191.26 100.843 199.43 92.3995C207.6 83.956 218.091 78.1258 229.575 75.6466C241.059 73.1675 253.021 74.1508 263.946 78.4722C274.871 82.7936 284.269 90.2589 290.95 99.9232C297.631 109.588 301.295 121.017 301.479 132.764C301.662 144.511 298.356 156.049 291.98 165.917C285.604 175.785 276.444 183.54 265.659 188.201C254.874 192.861 242.948 194.217 231.392 192.097V192.091ZM191.485 124.502C189.567 135.034 190.986 145.903 195.546 155.589C200.105 165.275 207.577 173.295 216.917 178.528C226.256 183.761 236.997 185.945 247.639 184.776C258.281 183.606 268.291 179.142 276.272 172.006C284.252 164.869 289.804 155.418 292.152 144.973C294.499 134.528 293.525 123.61 289.365 113.746C285.205 103.882 278.067 95.5632 268.949 89.9532C259.831 84.3431 249.188 81.7218 238.507 82.4554C227.115 83.2529 216.312 87.8172 207.799 95.4293C199.286 103.042 193.547 113.269 191.485 124.502Z" fill="#3C6E71"/>
<path d="M294.891 108.381C290.807 94.8214 267.021 79.9141 267.021 79.9141C276.651 82.2813 287.273 87.0961 292.437 88.1691C295.333 88.7659 312.903 90.5631 312.903 90.5631L312.97 112.619C312.97 112.619 308.142 114.081 306.935 117.233C304.34 123.878 305.647 126.333 299.263 149.421C299.243 149.367 298.975 121.933 294.891 108.381Z" fill="#3C6E71"/>
<path d="M305.379 100.468C305.218 101.655 303.012 102.339 300.45 101.997C297.888 101.655 295.93 100.421 296.091 99.2342C296.252 98.0473 298.458 97.3633 301.02 97.7053C303.582 98.0473 305.567 99.2879 305.379 100.468Z" fill="#A6A6A6"/>
<path d="M297.218 99.2812C297.426 98.7112 299.659 98.0607 302.1 98.7246L297.218 99.2812Z" fill="white"/>
<path d="M214.922 84.2324C220.007 80.3597 226.235 78.2863 232.626 78.3379C226.591 80.1082 220.783 82.0261 214.922 84.2324Z" fill="white"/>
<path d="M189.809 113.826C192.813 101.829 202.845 90.2547 213.89 84.8564C203.549 92.233 194.878 102.131 189.809 113.826Z" fill="white"/>
<path opacity="0.1" d="M193.933 124.501C188.97 152.378 207.063 179.202 234.276 184.292C261.488 189.381 287.655 170.833 292.617 142.963C297.58 115.093 279.48 88.2558 252.268 83.1727C248.176 82.4024 244.002 82.1613 239.848 82.4552C217.497 84.0311 198.131 100.93 193.933 124.501Z" fill="#EBEBEB"/>
<g opacity="0.2">
<path d="M293.389 136.103L245.582 185.057C241.796 185.231 238.001 184.966 234.276 184.265C232.663 183.966 231.067 183.584 229.495 183.119L291.484 119.62C292.999 124.977 293.642 130.542 293.389 136.103Z" fill="white"/>
<path d="M249.706 82.7641L193.531 140.328C192.866 135.062 193.001 129.727 193.933 124.502C194.161 123.201 194.449 121.907 194.771 120.639L230.46 84.0449C233.53 83.21 236.675 82.6776 239.849 82.4556C243.136 82.219 246.44 82.3224 249.706 82.7641Z" fill="white"/>
<path d="M285.241 105.638L215.841 176.721C214.256 175.666 212.736 174.517 211.288 173.281L281.895 100.971C283.1 102.46 284.217 104.019 285.241 105.638Z" fill="white"/>
<path d="M263.527 86.7003L197.393 154.43C196.562 152.504 195.85 150.529 195.261 148.516L257.753 84.4873C259.722 85.1044 261.65 85.8435 263.527 86.7003Z" fill="white"/>
<path d="M292.745 142.252C292.712 142.487 292.665 142.728 292.624 142.963C292.557 143.379 292.477 143.794 292.39 144.197L253.495 184.057C252.872 184.191 252.235 184.312 251.591 184.419L292.745 142.252Z" fill="white"/>
<path d="M277.945 96.612L207.05 169.251C206.795 168.982 206.547 168.708 206.306 168.433L277.154 95.8408L277.945 96.612Z" fill="white"/>
</g>
</svg>
