<svg width="358" height="36" viewBox="0 0 358 36" fill="none" xmlns="http://www.w3.org/2000/svg">
<mask id="path-1-inside-1_39_1254" fill="white">
<path fill-rule="evenodd" clip-rule="evenodd" d="M14.095 21.2448C15.5961 20.0848 15.6572 17.8403 14.2215 16.6004L1.10265 5.27047C-1.00108 3.45361 0.283826 0 3.06351 0H17H335.884C336.604 0 337.3 0.258934 337.845 0.729531L356.222 16.6004C357.657 17.8403 357.596 20.0848 356.095 21.2448L337.81 35.3739C337.285 35.7798 336.64 36 335.976 36H17H3.78874C0.927512 36 -0.309642 32.3756 1.95441 30.6261L14.095 21.2448Z"/>
</mask>
<path fill-rule="evenodd" clip-rule="evenodd" d="M14.095 21.2448C15.5961 20.0848 15.6572 17.8403 14.2215 16.6004L1.10265 5.27047C-1.00108 3.45361 0.283826 0 3.06351 0H17H335.884C336.604 0 337.3 0.258934 337.845 0.729531L356.222 16.6004C357.657 17.8403 357.596 20.0848 356.095 21.2448L337.81 35.3739C337.285 35.7798 336.64 36 335.976 36H17H3.78874C0.927512 36 -0.309642 32.3756 1.95441 30.6261L14.095 21.2448Z" fill="#3C6E71"/>
<path d="M1.95441 30.6261L1.34296 29.8349L1.95441 30.6261ZM356.222 16.6004L355.568 17.3573L356.222 16.6004ZM356.095 21.2448L356.706 22.036L356.095 21.2448ZM337.845 0.729531L337.191 1.48635L337.845 0.729531ZM14.095 21.2448L13.4836 20.4535L14.095 21.2448ZM337.81 35.3739L337.199 34.5826L337.81 35.3739ZM0.449029 6.02729L13.5679 17.3573L14.8752 15.8436L1.75627 4.51365L0.449029 6.02729ZM17 -1H3.06351V1H17V-1ZM335.884 -1H17V1H335.884V-1ZM356.875 15.8436L338.498 -0.0272922L337.191 1.48635L355.568 17.3573L356.875 15.8436ZM338.422 36.1651L356.706 22.036L355.484 20.4535L337.199 34.5826L338.422 36.1651ZM17 37H335.976V35H17V37ZM3.78874 37H17V35H3.78874V37ZM13.4836 20.4535L1.34296 29.8349L2.56585 31.4174L14.7065 22.036L13.4836 20.4535ZM3.78874 35C1.88126 35 1.05648 32.5838 2.56585 31.4174L1.34296 29.8349C-1.67577 32.1675 -0.0262389 37 3.78874 37V35ZM355.568 17.3573C356.525 18.1839 356.484 19.6802 355.484 20.4535L356.706 22.036C358.708 20.4895 358.789 17.4968 356.875 15.8436L355.568 17.3573ZM335.884 1C336.364 1 336.828 1.17262 337.191 1.48635L338.498 -0.0272922C337.772 -0.654755 336.844 -1 335.884 -1V1ZM13.5679 17.3573C14.5251 18.1839 14.4843 19.6802 13.4836 20.4535L14.7065 22.036C16.7079 20.4895 16.7894 17.4968 14.8752 15.8436L13.5679 17.3573ZM337.199 34.5826C336.849 34.8532 336.419 35 335.976 35V37C336.861 37 337.721 36.7064 338.422 36.1651L337.199 34.5826ZM1.75627 4.51365C0.353784 3.30241 1.21039 1 3.06351 1V-1C-0.642735 -1 -2.35594 3.60482 0.449029 6.02729L1.75627 4.51365Z" fill="#D9D9D9" mask="url(#path-1-inside-1_39_1254)"/>
</svg>
