<svg width="28" height="24" viewBox="0 0 28 24" fill="none" xmlns="http://www.w3.org/2000/svg">
<path d="M27.2075 4.70746L23.47 8.44496C22.715 17.1975 15.3338 24 6.5 24C4.685 24 3.18875 23.7125 2.0525 23.145C1.13625 22.6862 0.761251 22.195 0.667501 22.055C0.583907 21.9296 0.529723 21.787 0.509 21.6377C0.488277 21.4885 0.501551 21.3365 0.547827 21.1931C0.594104 21.0497 0.672188 20.9186 0.776246 20.8096C0.880303 20.7006 1.00764 20.6166 1.14875 20.5637C1.18125 20.5512 4.17875 19.4 6.0825 17.2087C5.02673 16.3407 4.1051 15.3213 3.3475 14.1837C1.7975 11.8825 0.0625008 7.88496 0.597501 1.91121C0.614459 1.72139 0.685303 1.54037 0.801692 1.38946C0.91808 1.23856 1.07517 1.12405 1.25445 1.05943C1.43373 0.994812 1.62775 0.982766 1.81365 1.02471C1.99955 1.06666 2.16959 1.16086 2.30375 1.29621C2.3475 1.33996 6.46375 5.43371 11.4963 6.76121V5.99996C11.4943 5.2017 11.6522 4.41113 11.9604 3.67479C12.2687 2.93846 12.7212 2.27125 13.2913 1.71246C13.8449 1.15961 14.5036 0.723258 15.2286 0.429136C15.9536 0.135014 16.7302 -0.0109166 17.5125 -4.46269e-05C18.562 0.0103065 19.5909 0.292021 20.4992 0.817712C21.4076 1.3434 22.1644 2.09518 22.6963 2.99996H26.5C26.6979 2.9998 26.8914 3.05836 27.056 3.16824C27.2206 3.27811 27.3489 3.43434 27.4246 3.61717C27.5004 3.79999 27.5202 4.00118 27.4815 4.19526C27.4429 4.38935 27.3475 4.5676 27.2075 4.70746Z" fill="#6E727F"/>
</svg>
