<svg width="22" height="22" viewBox="0 0 22 22" fill="none" xmlns="http://www.w3.org/2000/svg">
<g clip-path="url(#clip0_95_4784)">
<path d="M16.8668 6.76382C16.701 6.71652 16.5497 6.62851 16.4265 6.5078C16.3034 6.38708 16.2125 6.2375 16.1619 6.07265C15.8812 5.12119 15.4104 4.23658 14.7779 3.47234C14.1454 2.7081 13.3645 2.08012 12.4823 1.62641C11.6002 1.1727 10.6351 0.902693 9.64557 0.83272C8.65603 0.762747 7.66259 0.894266 6.72536 1.21932C5.78812 1.54437 4.92658 2.0562 4.19286 2.72383C3.45914 3.39147 2.86851 4.20102 2.4567 5.10351C2.04489 6.006 1.82047 6.98266 1.79701 7.97438C1.77355 8.96611 1.95155 9.95229 2.32023 10.8732C2.40493 11.067 2.42316 11.2834 2.3721 11.4887C2.32103 11.6939 2.20354 11.8765 2.0379 12.0081C1.30798 12.5498 0.738107 13.2788 0.388587 14.1179C0.0390675 14.957 -0.0770935 15.875 0.0523988 16.7747C0.254481 17.991 0.885946 19.0946 1.83218 19.8851C2.77842 20.6756 3.97671 21.1006 5.20957 21.0831H10.0835C10.3266 21.0831 10.5598 20.9865 10.7317 20.8146C10.9036 20.6427 11.0001 20.4095 11.0001 20.1664C11.0001 19.9233 10.9036 19.6901 10.7317 19.5182C10.5598 19.3463 10.3266 19.2497 10.0835 19.2497H5.20957C4.41782 19.2689 3.64539 19.0039 3.03226 18.5026C2.41914 18.0013 2.00588 17.2969 1.8674 16.5171C1.77958 15.944 1.85075 15.3577 2.07316 14.8222C2.29558 14.2867 2.66069 13.8225 3.12873 13.4802C3.62036 13.1128 3.97599 12.5925 4.13976 12.0009C4.30352 11.4094 4.26614 10.7803 4.03348 10.2123C3.57346 8.99746 3.5498 7.66052 3.96657 6.43015C4.2995 5.46635 4.89568 4.61504 5.68759 3.97267C6.4795 3.33029 7.43548 2.92253 8.44723 2.79557C8.68192 2.76535 8.91828 2.75005 9.1549 2.74973C10.3402 2.74583 11.4949 3.12596 12.4461 3.83323C13.3972 4.54049 14.0937 5.53683 14.4312 6.67307C14.563 7.10607 14.8004 7.49951 15.122 7.81794C15.4436 8.13638 15.8394 8.36982 16.2737 8.49724C17.3366 8.81158 18.2781 9.44312 18.9721 10.3073C19.6662 11.1715 20.0796 12.2271 20.1572 13.3327C20.2348 14.4384 19.9727 15.5414 19.4061 16.494C18.8396 17.4466 17.9955 18.2034 16.9869 18.6631C16.8376 18.7395 16.7129 18.8563 16.6268 19.0003C16.5407 19.1442 16.4968 19.3094 16.5001 19.4771V19.4771C16.4984 19.6287 16.5347 19.7785 16.6058 19.9124C16.677 20.0464 16.7806 20.1604 16.9073 20.2439C17.0339 20.3274 17.1795 20.3777 17.3307 20.3903C17.4819 20.4028 17.6338 20.3772 17.7725 20.3158C21.562 18.4944 23.6208 13.703 20.4125 9.07382C19.5291 7.92149 18.2778 7.1063 16.8668 6.76382V6.76382Z" fill="#284B63"/>
<path d="M17.1482 15.3149C17.3201 15.143 17.4166 14.9099 17.4166 14.6668C17.4166 14.4238 17.3201 14.1907 17.1482 14.0188L15.6944 12.5649C15.1787 12.0494 14.4793 11.7598 13.7501 11.7598C13.0209 11.7598 12.3216 12.0494 11.8059 12.5649L10.352 14.0188C10.1851 14.1916 10.0927 14.4232 10.0948 14.6635C10.0968 14.9039 10.1933 15.1338 10.3632 15.3038C10.5332 15.4737 10.7631 15.5701 11.0034 15.5722C11.2438 15.5743 11.4753 15.4819 11.6482 15.3149L12.8335 14.1297V21.0835C12.8335 21.3266 12.93 21.5598 13.1019 21.7317C13.2739 21.9036 13.507 22.0002 13.7501 22.0002C13.9932 22.0002 14.2264 21.9036 14.3983 21.7317C14.5702 21.5598 14.6668 21.3266 14.6668 21.0835V14.1297L15.852 15.3149C16.0239 15.4868 16.2571 15.5833 16.5001 15.5833C16.7432 15.5833 16.9763 15.4868 17.1482 15.3149Z" fill="#284B63"/>
</g>
<defs>
<clipPath id="clip0_95_4784">
<rect width="22" height="22" fill="white"/>
</clipPath>
</defs>
</svg>
