<svg width="28" height="28" viewBox="0 0 28 28" fill="none" xmlns="http://www.w3.org/2000/svg">
<path d="M27.7431 22.4936L19.2495 14L27.7431 5.50636C27.9059 5.34162 27.9971 5.11937 27.9971 4.8878C27.9971 4.65622 27.9059 4.43398 27.7431 4.26923L23.7308 0.256889C23.6496 0.175465 23.5532 0.110859 23.4471 0.0667756C23.3409 0.0226924 23.2271 0 23.1122 0C22.9973 0 22.8835 0.0226924 22.7773 0.0667756C22.6712 0.110859 22.5748 0.175465 22.4936 0.256889L14 8.75053L5.50636 0.256889C5.34229 0.0928686 5.11979 0.000726909 4.8878 0.000726909C4.6558 0.000726909 4.4333 0.0928686 4.26923 0.256889L0.256889 4.26923C0.175465 4.35036 0.110859 4.44676 0.0667756 4.5529C0.0226924 4.65905 0 4.77286 0 4.8878C0 5.00273 0.0226924 5.11654 0.0667756 5.22269C0.110859 5.32884 0.175465 5.42524 0.256889 5.50636L8.75053 14L0.256889 22.4936C0.0928686 22.6577 0.000726909 22.8802 0.000726909 23.1122C0.000726909 23.3442 0.0928686 23.5667 0.256889 23.7308L4.26923 27.7431C4.35036 27.8245 4.44676 27.8891 4.5529 27.9332C4.65905 27.9773 4.77286 28 4.8878 28C5.00273 28 5.11654 27.9773 5.22269 27.9332C5.32884 27.8891 5.42524 27.8245 5.50636 27.7431L14 19.2495L22.4936 27.7431C22.6577 27.9071 22.8802 27.9993 23.1122 27.9993C23.3442 27.9993 23.5667 27.9071 23.7308 27.7431L27.7431 23.7308C27.8245 23.6496 27.8891 23.5532 27.9332 23.4471C27.9773 23.3409 28 23.2271 28 23.1122C28 22.9973 27.9773 22.8835 27.9332 22.7773C27.8891 22.6712 27.8245 22.5748 27.7431 22.4936Z" fill="#D02727" fill-opacity="1"/>
</svg>
