<svg width="29" height="22" viewBox="0 0 29 22" fill="none" xmlns="http://www.w3.org/2000/svg">
<path d="M27.7913 3.69C27.6735 3.22919 27.4478 2.80298 27.1329 2.44654C26.818 2.09011 26.4228 1.81366 25.98 1.64C21.695 -0.0149953 14.875 4.75492e-06 14.5 4.75492e-06C14.125 4.75492e-06 7.305 -0.0149953 3.02 1.64C2.5772 1.81366 2.18204 2.09011 1.86712 2.44654C1.55219 2.80298 1.32653 3.22919 1.20875 3.69C0.885 4.9375 0.5 7.2175 0.5 11C0.5 14.7825 0.885 17.0625 1.20875 18.31C1.32636 18.771 1.55194 19.1975 1.86687 19.5542C2.18181 19.9108 2.57706 20.1875 3.02 20.3613C7.125 21.945 13.55 22 14.4175 22H14.5825C15.45 22 21.8787 21.945 25.98 20.3613C26.4229 20.1875 26.8182 19.9108 27.1331 19.5542C27.4481 19.1975 27.6736 18.771 27.7913 18.31C28.115 17.06 28.5 14.7825 28.5 11C28.5 7.2175 28.115 4.9375 27.7913 3.69ZM18.7775 11.4163L12.7775 15.4163C12.7022 15.4665 12.6146 15.4954 12.5242 15.4997C12.4338 15.5041 12.3438 15.4839 12.264 15.4411C12.1842 15.3984 12.1175 15.3348 12.071 15.2571C12.0245 15.1794 11.9999 15.0905 12 15V7C11.9999 6.90946 12.0245 6.8206 12.071 6.74291C12.1175 6.66522 12.1842 6.60161 12.264 6.55888C12.3438 6.51614 12.4338 6.49588 12.5242 6.50027C12.6146 6.50465 12.7022 6.5335 12.7775 6.58375L18.7775 10.5838C18.8461 10.6294 18.9023 10.6913 18.9412 10.7639C18.9801 10.8365 19.0005 10.9176 19.0005 11C19.0005 11.0824 18.9801 11.1635 18.9412 11.2361C18.9023 11.3087 18.8461 11.3706 18.7775 11.4163Z" fill="#6E727F"/>
</svg>
